<svg width="28" height="25" viewBox="0 0 28 25" fill="none" xmlns="http://www.w3.org/2000/svg">
<path d="M22.4317 6.48389C22.677 6.86123 22.7023 7.32471 22.529 7.71846C22.3641 8.0958 22.0597 8.32549 21.6792 8.37471C21.5946 8.38701 21.5143 8.39111 21.434 8.39111C20.9393 8.39111 20.4953 8.18193 20.1782 7.84971C19.7935 7.43955 19.2481 7.20576 18.6731 7.20576C18.0981 7.20576 17.5527 7.44365 17.1722 7.85381C16.8635 8.18604 16.4238 8.39522 15.9207 8.39522C15.4218 8.39522 14.9778 8.18604 14.6692 7.85381C14.2845 7.43955 13.7391 7.20576 13.1641 7.20576C12.5891 7.20576 12.0436 7.43955 11.6589 7.85381C11.3503 8.18604 10.9105 8.39522 10.4074 8.39522C9.90852 8.39522 9.46458 8.18604 9.15594 7.85381C8.7712 7.43955 8.22579 7.20576 7.65079 7.20576C7.07579 7.20576 6.53038 7.43955 6.14563 7.85381C5.83699 8.18604 5.39728 8.39522 4.89416 8.39522C4.81805 8.39522 4.73349 8.39111 4.64893 8.37881C4.27265 8.32959 3.97246 8.0999 3.80757 7.72256C3.63422 7.32881 3.65959 6.86533 3.90481 6.48799L6.08221 3.14111H20.2543L22.4317 6.48389ZM21.434 10.3599C21.6073 10.3599 21.7764 10.3476 21.9413 10.3271C24.2878 10.0235 25.3998 7.35342 24.1441 5.42979L21.7215 1.70967C21.5058 1.37744 21.1211 1.17236 20.711 1.17236H5.62559C5.21548 1.17236 4.83074 1.37744 4.61511 1.70967L2.18826 5.42979C0.936782 7.34932 2.04451 10.0194 4.38257 10.3271C4.55169 10.3476 4.72504 10.3599 4.89416 10.3599C5.72284 10.3599 6.47964 10.0974 7.08847 9.6626C7.29141 9.51904 7.47744 9.35088 7.64656 9.17451C7.81568 9.35498 8.00171 9.51904 8.20465 9.6626C8.81771 10.0974 9.57451 10.3599 10.4032 10.3599C11.2319 10.3599 11.9887 10.0974 12.6017 9.6626C12.8047 9.51904 12.9907 9.35088 13.1598 9.17041C13.3289 9.35088 13.515 9.51494 13.7179 9.6585C14.331 10.0933 15.0878 10.3558 15.9165 10.3558C16.7536 10.3558 17.5146 10.0892 18.1277 9.64619C18.3264 9.50264 18.5082 9.34268 18.6731 9.16631C18.838 9.34268 19.024 9.50674 19.2227 9.65029C19.8358 10.0892 20.5968 10.3558 21.4297 10.3558L21.434 10.3599ZM5.72706 14.9536V11.6067C5.45648 11.6519 5.18166 11.6724 4.89838 11.6724C4.66585 11.6724 4.43331 11.656 4.20923 11.6272H4.205C4.03165 11.6026 3.86253 11.5739 3.69764 11.5329V14.9536V16.9224V19.5474C3.69764 20.9952 4.91107 22.1724 6.40354 22.1724H19.933C21.4255 22.1724 22.6389 20.9952 22.6389 19.5474V16.9224V14.9536V11.5329C22.4698 11.5739 22.3007 11.6067 22.1189 11.6272C22.1189 11.6272 22.1189 11.6272 22.1147 11.6272C21.8906 11.656 21.6623 11.6724 21.4297 11.6724C21.1507 11.6724 20.8759 11.6519 20.6095 11.6067V14.9536H5.72706ZM20.6095 16.9224V19.5474C20.6095 19.9083 20.3051 20.2036 19.933 20.2036H6.40354C6.03148 20.2036 5.72706 19.9083 5.72706 19.5474V16.9224H20.6095Z" fill="#404040"/>
</svg>
