<svg width="18" height="18" viewBox="0 0 18 18" fill="none" xmlns="http://www.w3.org/2000/svg">
<g clip-path="url(#clip0_20700_25680)">
<path fill-rule="evenodd" clip-rule="evenodd" d="M0.285135 17.805C0.413731 17.9299 0.58588 17.9999 0.765135 18C0.942169 17.9894 1.1108 17.9208 1.24514 17.805L9.00014 9.94505L16.7851 17.805C16.9156 17.9263 17.0871 17.9937 17.2651 17.9937C17.4432 17.9937 17.6147 17.9263 17.7451 17.805C17.8086 17.7423 17.859 17.6675 17.8934 17.5851C17.9278 17.5027 17.9456 17.4143 17.9456 17.325C17.9456 17.2358 17.9278 17.1474 17.8934 17.065C17.859 16.9826 17.8086 16.9078 17.7451 16.845L9.96014 9.00005L17.8051 1.14005C17.8701 1.07968 17.9219 1.00656 17.9574 0.925266C17.9928 0.843968 18.0111 0.756235 18.0111 0.66755C18.0111 0.578865 17.9928 0.491133 17.9574 0.409834C17.9219 0.328536 17.8701 0.255419 17.8051 0.19505C17.7424 0.131557 17.6676 0.0811491 17.5852 0.0467462C17.5028 0.0123433 17.4144 -0.00537109 17.3251 -0.00537109C17.2358 -0.00537109 17.1474 0.0123433 17.0651 0.0467462C16.9827 0.0811491 16.9079 0.131557 16.8451 0.19505L9.00014 8.04005L1.17014 0.19505C1.04735 0.0884623 0.890227 0.0297743 0.727635 0.0297743C0.565043 0.0297743 0.407916 0.0884623 0.285135 0.19505C0.220168 0.255419 0.168348 0.328536 0.132913 0.409834C0.0974781 0.491133 0.0791893 0.578865 0.0791893 0.66755C0.0791893 0.756235 0.0974781 0.843968 0.132913 0.925266C0.168348 1.00656 0.220168 1.07968 0.285135 1.14005L8.05514 9.00005L0.285135 16.785C0.219762 16.8467 0.16768 16.9211 0.132083 17.0037C0.0964864 17.0862 0.078125 17.1752 0.078125 17.265C0.078125 17.3549 0.0964864 17.4439 0.132083 17.5264C0.16768 17.609 0.219762 17.6834 0.285135 17.745V17.805Z" fill="#404040"/>
</g>
<defs>
<clipPath id="clip0_20700_25680">
<rect width="18" height="18" fill="white"/>
</clipPath>
</defs>
</svg>
