<svg width="9" height="17" viewBox="0 0 9 17" fill="none" xmlns="http://www.w3.org/2000/svg">
<g clip-path="url(#clip0_21507_6249)">
<path fill-rule="evenodd" clip-rule="evenodd" d="M0.619173 7.2199C0.617113 7.4719 0.712679 7.71491 0.88584 7.898L4.16965 11.3266C4.32868 11.4946 4.54771 11.5929 4.77894 11.6C5.01017 11.6071 5.23484 11.5225 5.40394 11.3647L5.44965 11.3266L8.73346 7.898C8.90211 7.71393 8.99567 7.47335 8.99567 7.22371C8.99567 6.97407 8.90211 6.73348 8.73346 6.54942C8.65549 6.46135 8.56043 6.39003 8.45407 6.33979C8.3477 6.28955 8.23224 6.26144 8.11469 6.25717C7.99713 6.25289 7.87993 6.27254 7.7702 6.31492C7.66046 6.3573 7.56048 6.42153 7.47632 6.50371V6.5418L4.80965 9.31514L2.14298 6.5418C1.98359 6.38006 1.76806 6.28588 1.54108 6.27878C1.31411 6.27169 1.09312 6.35223 0.923935 6.50371L0.878221 6.54942C0.710316 6.73219 0.617773 6.97172 0.619173 7.2199Z" fill="#404040"/>
</g>
<defs>
<clipPath id="clip0_21507_6249">
<rect width="8.38095" height="16" fill="white" transform="translate(0.619141 0.172363)"/>
</clipPath>
</defs>
</svg>
