<svg width="21" height="21" viewBox="0 0 21 21" fill="none" xmlns="http://www.w3.org/2000/svg">
<g clip-path="url(#clip0_20700_27864)">
<path d="M2.10938 3.44287C1.22266 3.44287 0.5 4.16553 0.5 5.05225C0.5 5.4585 0.652344 5.84912 0.929688 6.1499L4.5625 10.0601V14.9819C4.5625 15.5054 4.82422 15.9976 5.26562 16.2866L8.21484 18.2319C8.42188 18.3687 8.66797 18.4429 8.91797 18.4429C9.62109 18.4429 10.1914 17.8726 10.1914 17.1694V10.0601L13.8242 6.1499C14.1016 5.85303 14.2539 5.4624 14.2539 5.05225C14.25 4.16553 13.5273 3.44287 12.6406 3.44287H2.10938ZM6.1875 9.05615L2.71875 5.31787H12.0352L8.56641 9.05615C8.40625 9.22803 8.31641 9.4585 8.31641 9.69287V16.0522L6.44141 14.814L6.4375 9.69287C6.4375 9.45459 6.34766 9.22803 6.1875 9.05615ZM13.9375 16.2554C13.418 16.2554 13 16.6733 13 17.1929C13 17.7124 13.418 18.1304 13.9375 18.1304H19.5625C20.082 18.1304 20.5 17.7124 20.5 17.1929C20.5 16.6733 20.082 16.2554 19.5625 16.2554H13.9375ZM13 10.9429C13 11.4624 13.418 11.8804 13.9375 11.8804H19.5625C20.082 11.8804 20.5 11.4624 20.5 10.9429C20.5 10.4233 20.082 10.0054 19.5625 10.0054H13.9375C13.418 10.0054 13 10.4233 13 10.9429ZM16.4375 3.75537C15.918 3.75537 15.5 4.17334 15.5 4.69287C15.5 5.2124 15.918 5.63037 16.4375 5.63037H19.5625C20.082 5.63037 20.5 5.2124 20.5 4.69287C20.5 4.17334 20.082 3.75537 19.5625 3.75537H16.4375Z" fill="#4AA447"/>
</g>
<defs>
<clipPath id="clip0_20700_27864">
<rect width="20" height="20" fill="white" transform="translate(0.5 0.942871)"/>
</clipPath>
</defs>
</svg>
