<svg width="19" height="25" viewBox="0 0 19 25" fill="none" xmlns="http://www.w3.org/2000/svg">
<path d="M16.417 9.17236C16.417 5.4458 13.3936 2.42236 9.66699 2.42236C5.94043 2.42236 2.91699 5.4458 2.91699 9.17236C2.91699 9.75361 3.12793 10.6536 3.63418 11.8536C4.12637 13.0161 4.8248 14.3005 5.62637 15.5989C6.96231 17.7646 8.50918 19.8552 9.66699 21.3458C10.8295 19.8552 12.3764 17.7646 13.7076 15.5989C14.5092 14.3005 15.2076 13.0161 15.6998 11.8536C16.2061 10.6536 16.417 9.75361 16.417 9.17236ZM18.667 9.17236C18.667 13.2692 13.1826 20.563 10.7779 23.5724C10.2014 24.2896 9.13262 24.2896 8.55606 23.5724C6.15137 20.563 0.666992 13.2692 0.666992 9.17236C0.666992 4.20361 4.69824 0.172363 9.66699 0.172363C14.6357 0.172363 18.667 4.20361 18.667 9.17236ZM11.167 9.17236C11.167 8.77454 11.009 8.39301 10.7277 8.1117C10.4463 7.8304 10.0648 7.67236 9.66699 7.67236C9.26917 7.67236 8.88764 7.8304 8.60633 8.1117C8.32503 8.39301 8.16699 8.77454 8.16699 9.17236C8.16699 9.57019 8.32503 9.95172 8.60633 10.233C8.88764 10.5143 9.26917 10.6724 9.66699 10.6724C10.0648 10.6724 10.4463 10.5143 10.7277 10.233C11.009 9.95172 11.167 9.57019 11.167 9.17236ZM5.91699 9.17236C5.91699 8.1778 6.31208 7.22397 7.01534 6.52071C7.7186 5.81745 8.67243 5.42236 9.66699 5.42236C10.6616 5.42236 11.6154 5.81745 12.3186 6.52071C13.0219 7.22397 13.417 8.1778 13.417 9.17236C13.417 10.1669 13.0219 11.1208 12.3186 11.824C11.6154 12.5273 10.6616 12.9224 9.66699 12.9224C8.67243 12.9224 7.7186 12.5273 7.01534 11.824C6.31208 11.1208 5.91699 10.1669 5.91699 9.17236Z" fill="#404040"/>
</svg>
