<svg width="12" height="11" viewBox="0 0 12 11" fill="none" xmlns="http://www.w3.org/2000/svg">
<path d="M1.10137 4.77383C0.881055 4.99414 0.881055 5.35039 1.10137 5.56836L5.60137 10.0707C5.82168 10.291 6.17793 10.291 6.3959 10.0707C6.61387 9.85039 6.61621 9.49414 6.3959 9.27617L2.29434 5.17461L6.39824 1.0707C6.61855 0.850392 6.61855 0.494142 6.39824 0.276173C6.17793 0.0582043 5.82168 0.0558606 5.60371 0.276173L1.10137 4.77383ZM10.1014 0.273829L5.60137 4.77383C5.38105 4.99414 5.38105 5.35039 5.60137 5.56836L10.1014 10.0707C10.3217 10.291 10.6779 10.291 10.8959 10.0707C11.1139 9.85039 11.1162 9.49414 10.8959 9.27617L6.79434 5.17461L10.8982 1.0707C11.1186 0.850392 11.1186 0.494142 10.8982 0.276173C10.6779 0.0582043 10.3217 0.0558606 10.1037 0.276173L10.1014 0.273829Z" fill="#4AA447"/>
</svg>
