<svg width="12" height="11" viewBox="0 0 12 11" fill="none" xmlns="http://www.w3.org/2000/svg">
<path d="M10.8986 4.77383C11.1189 4.99414 11.1189 5.35039 10.8986 5.56836L6.39863 10.0707C6.17832 10.291 5.82207 10.291 5.6041 10.0707C5.38613 9.85039 5.38379 9.49414 5.6041 9.27617L9.70566 5.17461L5.60176 1.0707C5.38145 0.850392 5.38145 0.494142 5.60176 0.276173C5.82207 0.0582043 6.17832 0.0558606 6.39629 0.276173L10.8986 4.77383ZM1.89863 0.273829L6.39863 4.77383C6.61895 4.99414 6.61895 5.35039 6.39863 5.56836L1.89863 10.0707C1.67832 10.291 1.32207 10.291 1.1041 10.0707C0.886133 9.85039 0.883789 9.49414 1.1041 9.27617L5.20566 5.17461L1.10176 1.0707C0.881445 0.850392 0.881445 0.494142 1.10176 0.276173C1.32207 0.0582043 1.67832 0.0558606 1.89629 0.276173L1.89863 0.273829Z" fill="#4AA447"/>
</svg>
