<svg width="16" height="17" viewBox="0 0 16 17" fill="none" xmlns="http://www.w3.org/2000/svg">
<g clip-path="url(#clip0_21347_7340)">
<path fill-rule="evenodd" clip-rule="evenodd" d="M7.97364 8.34919C7.58511 8.34919 7.2053 8.23398 6.88225 8.01812C6.5592 7.80226 6.30741 7.49546 6.15873 7.1365C6.01004 6.77755 5.97114 6.38257 6.04694 6.0015C6.12274 5.62044 6.30983 5.2704 6.58456 4.99567C6.8593 4.72094 7.20933 4.53384 7.59039 4.45805C7.97146 4.38225 8.36644 4.42115 8.7254 4.56983C9.08435 4.71852 9.39116 4.97031 9.60701 5.29336C9.82287 5.61641 9.93808 5.99621 9.93808 6.38474C9.93808 6.90575 9.73111 7.40541 9.36271 7.77382C8.9943 8.14222 8.49464 8.34919 7.97364 8.34919ZM7.97364 3.2203C7.34739 3.21854 6.73471 3.40264 6.21315 3.74928C5.69159 4.09592 5.28461 4.58952 5.04374 5.16759C4.80287 5.74566 4.73893 6.3822 4.86003 6.99663C4.98112 7.61106 5.2818 8.17574 5.724 8.61918C6.1662 9.06263 6.73003 9.3649 7.34412 9.48772C7.9582 9.61054 8.59492 9.5484 9.17367 9.30915C9.75241 9.0699 10.2472 8.66432 10.5953 8.14374C10.9434 7.62315 11.1292 7.01099 11.1292 6.38474C11.1269 5.54774 10.7939 4.74554 10.2029 4.15286C9.61189 3.56017 8.81063 3.22499 7.97364 3.2203ZM12.5603 13.5225C12.1186 12.6892 11.4583 11.992 10.6502 11.5057C9.84207 11.0194 8.91676 10.7625 7.97364 10.7625C7.03051 10.7625 6.1052 11.0194 5.2971 11.5057C4.489 11.992 3.82865 12.6892 3.38697 13.5225C2.39496 12.6145 1.69445 11.4328 1.37401 10.1267C1.05358 8.82065 1.1276 7.44889 1.58673 6.18488C2.04586 4.92087 2.86947 3.82138 3.95343 3.02543C5.03739 2.22947 6.33302 1.7728 7.67651 1.71314C9.02 1.65349 10.351 1.99353 11.5012 2.69028C12.6515 3.38703 13.5693 4.40919 14.1387 5.62753C14.708 6.84587 14.9033 8.20568 14.6999 9.53501C14.4965 10.8643 13.9035 12.1035 12.9959 13.0959C12.8596 13.2469 12.7141 13.3894 12.5603 13.5225ZM7.97364 15.3092C6.69473 15.3058 5.44314 14.9389 4.36475 14.2514C4.6919 13.5644 5.20705 12.9841 5.85049 12.5778C6.49393 12.1715 7.23933 11.9559 8.0003 11.9559C8.76128 11.9559 9.50667 12.1715 10.1501 12.5778C10.7936 12.9841 11.3087 13.5644 11.6359 14.2514C10.5418 14.9478 9.27054 15.315 7.97364 15.3092ZM7.97364 0.473633C6.39139 0.473633 4.84467 0.942825 3.52907 1.82188C2.21348 2.70093 1.1881 3.95036 0.5826 5.41217C-0.0229009 6.87397 -0.181328 8.48251 0.127354 10.0344C0.436036 11.5862 1.19796 13.0117 2.31678 14.1305C3.4356 15.2493 4.86107 16.0112 6.41291 16.3199C7.96476 16.6286 9.57329 16.4702 11.0351 15.8647C12.4969 15.2592 13.7463 14.2338 14.6254 12.9182C15.5044 11.6026 15.9736 10.0559 15.9736 8.47363C15.9736 6.3519 15.1308 4.31707 13.6305 2.81678C12.1302 1.31649 10.0954 0.473633 7.97364 0.473633V0.473633Z" fill="#404040"/>
</g>
<defs>
<clipPath id="clip0_21347_7340">
<rect width="16" height="16" fill="white" transform="translate(0 0.5)"/>
</clipPath>
</defs>
</svg>
