<svg width="24" height="25" viewBox="0 0 24 25" fill="none" xmlns="http://www.w3.org/2000/svg">
<g clip-path="url(#clip0_21347_7384)">
<path d="M17.25 9.92236C17.25 7.93324 16.4598 6.02558 15.0533 4.61906C13.6468 3.21254 11.7391 2.42236 9.75 2.42236C7.76088 2.42236 5.85322 3.21254 4.4467 4.61906C3.04018 6.02558 2.25 7.93324 2.25 9.92236C2.25 11.9115 3.04018 13.8191 4.4467 15.2257C5.85322 16.6322 7.76088 17.4224 9.75 17.4224C11.7391 17.4224 13.6468 16.6322 15.0533 15.2257C16.4598 13.8191 17.25 11.9115 17.25 9.92236ZM15.8016 17.5677C14.1422 18.8849 12.0375 19.6724 9.75 19.6724C4.36406 19.6724 0 15.3083 0 9.92236C0 4.53643 4.36406 0.172363 9.75 0.172363C15.1359 0.172363 19.5 4.53643 19.5 9.92236C19.5 12.2099 18.7125 14.3145 17.3953 15.9739L23.6719 22.2505C24.1125 22.6911 24.1125 23.4036 23.6719 23.8395C23.2313 24.2755 22.5188 24.2802 22.0828 23.8395L15.8016 17.5677Z" fill="#404040"/>
</g>
<defs>
<clipPath id="clip0_21347_7384">
<rect width="24" height="24" fill="white" transform="translate(0 0.172363)"/>
</clipPath>
</defs>
</svg>
