<svg width="9" height="17" viewBox="0 0 9 17" fill="none" xmlns="http://www.w3.org/2000/svg">
<g clip-path="url(#clip0_21507_6247)">
<path fill-rule="evenodd" clip-rule="evenodd" d="M0.619173 9.12483C0.617113 8.87283 0.712679 8.62982 0.88584 8.44673L4.16965 5.01816C4.32868 4.85015 4.54771 4.75186 4.77894 4.74472C5.01017 4.73758 5.23484 4.82218 5.40394 4.98006L5.44965 5.01816L8.73346 8.44673C8.90211 8.63079 8.99567 8.87137 8.99567 9.12102C8.99567 9.37066 8.90211 9.61124 8.73346 9.7953C8.65549 9.88338 8.56043 9.9547 8.45407 10.0049C8.3477 10.0552 8.23224 10.0833 8.11469 10.0876C7.99713 10.0918 7.87993 10.0722 7.7702 10.0298C7.66046 9.98743 7.56048 9.9232 7.47632 9.84102V9.80292L4.80965 7.02959L2.14298 9.80292C1.98359 9.96467 1.76806 10.0589 1.54108 10.0659C1.31411 10.073 1.09312 9.99249 0.923935 9.84102L0.878221 9.7953C0.710316 9.61253 0.617773 9.37301 0.619173 9.12483Z" fill="#404040"/>
</g>
<defs>
<clipPath id="clip0_21507_6247">
<rect width="8.38095" height="16" fill="white" transform="matrix(1 0 0 -1 0.619141 16.1724)"/>
</clipPath>
</defs>
</svg>
