<?xml version="1.0" standalone="no"?>
<!DOCTYPE svg PUBLIC "-//W3C//DTD SVG 1.1//EN" "http://www.w3.org/Graphics/SVG/1.1/DTD/svg11.dtd" >
<svg xmlns="http://www.w3.org/2000/svg" xmlns:xlink="http://www.w3.org/1999/xlink" version="1.1">
<metadata>
Created by FontForge 20170731 at Fri May  5 14:18:53 2017
 By Aleksey,,,
Copyright 2014 Pria Ravichandran (pria.ravichandran@gmail.com)
</metadata>
<defs>
<font id="PalanquinDark-Medium" horiz-adv-x="355" >
  <font-face 
    font-family="Palanquin Dark Medium"
    font-weight="500"
    font-stretch="normal"
    units-per-em="1000"
    panose-1="2 11 6 4 2 2 3 2 2 4"
    ascent="770"
    descent="-230"
    x-height="485"
    cap-height="680"
    bbox="-577 -502 2366 1320"
    underline-thickness="50"
    underline-position="-200"
    unicode-range="U+000D-FB02"
  />
<missing-glyph horiz-adv-x="697" 
d="M602 696v-696h-508v696h508zM235 586v-477h225v477h-225z" />
    <glyph glyph-name=".notdef" horiz-adv-x="697" 
d="M602 696v-696h-508v696h508zM235 586v-477h225v477h-225z" />
    <glyph glyph-name=".null" horiz-adv-x="0" 
 />
    <glyph glyph-name=".null" horiz-adv-x="0" 
 />
    <glyph glyph-name="nonmarkingreturn" horiz-adv-x="333" 
 />
    <glyph glyph-name="CR" unicode="&#xd;" horiz-adv-x="0" 
 />
    <glyph glyph-name="space" unicode=" " horiz-adv-x="231" 
 />
    <glyph glyph-name="exclam" unicode="!" horiz-adv-x="249" 
d="M66 245l-18 461h152l-17 -506zM204 79q0 -34 -23 -56.5t-57 -22.5q-33 0 -56 22.5t-23 56.5t23 56.5t56 22.5q34 0 57 -22.5t23 -56.5z" />
    <glyph glyph-name="quotedbl" unicode="&#x22;" horiz-adv-x="381" 
d="M371 647q0 -57 -40 -116t-100 -89l-31 68q22 17 39 35t24 44q-18 4 -35 25.5t-17 47.5q0 28 23 54t57 26q33 0 56.5 -26t23.5 -69zM178 647q0 -57 -40 -116t-100 -89l-31 68q22 17 39 35t23 44q-17 4 -34 25.5t-17 47.5q0 28 22.5 54t56.5 26t57.5 -26t23.5 -69z" />
    <glyph glyph-name="numbersign" unicode="#" horiz-adv-x="586" 
d="M533 517q-5 -26 -11 -52.5t-12 -51.5h45l10 -108h-80l-24 -101h94l10 -108h-129q-7 -28 -12.5 -56t-12.5 -55l-123 5l24 106h-112q-7 -28 -13 -56t-13 -55l-122 5l24 106h-45l-11 108h81q5 25 11 50.5t12 50.5h-93l-11 108h130l24 104h124q-6 -26 -12 -52.5t-13 -51.5
h112l24 104h124zM249 305q-6 -25 -12 -50.5t-11 -50.5h110l24 101h-111z" />
    <glyph glyph-name="dollar" unicode="$" horiz-adv-x="556" 
d="M147 -125v128q-30 9 -56.5 20t-40.5 21q10 28 19.5 57t19.5 58q29 -16 77.5 -31t88.5 -15q55 0 83 18t28 49q0 72 -162.5 124t-162.5 203q0 53 29 95.5t83 66.5v136l97 -4v-108q7 1 15.5 1.5t15.5 0.5q6 0 11 -0.5t11 -1.5v112h99v-132q20 -6 39 -14.5t35 -16.5
q-11 -28 -23 -55t-24 -55q-38 16 -71.5 27t-74.5 11q-36 0 -63 -18t-27 -44q0 -74 162.5 -128.5t162.5 -201.5q0 -55 -31.5 -98.5t-88.5 -68.5v-137l-99 11v104q-10 -1 -20.5 -1.5t-20.5 -0.5h-13v-112h-98z" />
    <glyph glyph-name="percent" unicode="%" horiz-adv-x="955" 
d="M699 706l-298 -706h-150l298 706h150zM27 528q0 81 51 127.5t120 46.5q72 0 121.5 -46.5t49.5 -127.5q0 -80 -51.5 -127t-121.5 -47q-69 0 -119 46.5t-50 127.5zM199 598q-22 0 -37.5 -17.5t-15.5 -51.5q0 -37 14 -54.5t37 -17.5t38.5 17.5t15.5 52.5q0 34 -14 52.5
t-38 18.5zM586 174q0 81 50.5 127t120.5 46q71 0 120.5 -46t49.5 -127q0 -80 -51.5 -127t-120.5 -47q-70 0 -119.5 46.5t-49.5 127.5zM757 244q-22 0 -37.5 -17.5t-15.5 -51.5q0 -37 14 -55t38 -18q23 0 38 18t15 53q0 34 -14 52.5t-38 18.5z" />
    <glyph glyph-name="ampersand" unicode="&#x26;" horiz-adv-x="690" 
d="M328 571q-38 0 -56 -21t-18 -44q0 -27 17.5 -53.5t57.5 -61.5l150 -133q12 31 20 66.5t10 72.5q33 -13 66 -26.5t65 -26.5q-4 -50 -16.5 -97t-32.5 -88l78 -67q-22 -27 -43.5 -54.5t-43.5 -53.5l-76 67q-37 -31 -86.5 -48.5t-109.5 -17.5q-111 0 -190 58.5t-79 173.5
q0 52 26 101t67 85q-14 21 -22 45.5t-8 52.5q0 78 59.5 136.5t156.5 58.5q52 0 101 -16t90 -39l-46 -110q-32 16 -65 28t-72 12zM311 112q27 0 50.5 8t42.5 23q-39 36 -78.5 71.5t-79.5 71.5l-20 18q-15 -19 -23 -40.5t-8 -43.5q0 -55 34 -81.5t82 -26.5z" />
    <glyph glyph-name="quotesingle" unicode="'" horiz-adv-x="188" 
d="M178 647q0 -57 -40 -116t-100 -89l-31 68q22 17 39 35t23 44q-17 4 -34 25.5t-17 47.5q0 28 22.5 54t56.5 26t57.5 -26t23.5 -69z" />
    <glyph glyph-name="parenleft" unicode="(" horiz-adv-x="307" 
d="M41 321q0 97 33 185.5t94 175.5l122 -37q-43 -59 -75.5 -153.5t-32.5 -169.5q0 -77 32 -174t75 -149l-121 -38q-59 78 -93 169.5t-34 190.5z" />
    <glyph glyph-name="parenright" unicode=")" horiz-adv-x="307" 
d="M266 321q0 -96 -34 -184.5t-94 -175.5l-121 37q43 59 75 153.5t32 169.5q0 76 -31.5 173.5t-74.5 148.5l121 39q58 -78 92.5 -170t34.5 -191z" />
    <glyph glyph-name="asterisk" unicode="*" horiz-adv-x="400" 
d="M201 511q-6 -7 -36 -48.5t-34 -48.5l-92 66l70 95q-15 4 -44 9.5t-48 8.5q-1 0 -3 0.5t-3 0.5l31 104l99 -24q0 16 0.5 48t1.5 50h116v-98l100 24l31 -104l-98 -19l70 -95l-91 -66z" />
    <glyph glyph-name="plus" unicode="+" horiz-adv-x="527" 
d="M510 217h-174v-214l-137 5v209h-173l-9 114h182v200h137v-200h164z" />
    <glyph glyph-name="comma" unicode="," horiz-adv-x="196" 
d="M182 51q0 -57 -40.5 -116t-100.5 -89l-31 68q22 17 39.5 35t23.5 43q-18 4 -34.5 26t-16.5 48q0 29 22.5 54.5t55.5 25.5q34 0 58 -26.5t24 -68.5z" />
    <glyph glyph-name="hyphen" unicode="-" horiz-adv-x="313" 
d="M296 216h-268l-11 116h269z" />
    <glyph glyph-name="period" unicode="." horiz-adv-x="179" 
d="M168 79q0 -34 -22.5 -56.5t-55.5 -22.5q-34 0 -57 22.5t-23 56.5t23 56.5t57 22.5q33 0 55.5 -22.5t22.5 -56.5z" />
    <glyph glyph-name="slash" unicode="/" horiz-adv-x="462" 
d="M457 706l-299 -706h-152l298 706h153z" />
    <glyph glyph-name="zero" unicode="0" horiz-adv-x="640" 
d="M320 579q115 0 193 -75.5t78 -216.5q0 -139 -79.5 -219.5t-192.5 -80.5q-111 0 -191 78t-80 220q0 138 79 216t193 78zM320 110q52 0 91.5 45.5t39.5 127.5q0 84 -39 128.5t-93 44.5q-51 0 -90 -43.5t-39 -124.5q0 -86 38 -132t92 -46z" />
    <glyph glyph-name="one" unicode="1" horiz-adv-x="461" 
d="M61 107h117v284l-60 -32l-67 110l176 97h99v-459h80q4 -27 6.5 -54t6.5 -53h-346z" />
    <glyph glyph-name="two" unicode="2" horiz-adv-x="513" 
d="M445 401q0 -61 -32 -113.5t-104 -112.5l-74 -61h220l17 -114h-437v98l188 165q52 46 70.5 75.5t19.5 57.5q0 27 -21 45.5t-58 18.5q-36 0 -80.5 -25t-55.5 -32l-63 99q30 24 81.5 50.5t121.5 26.5q117 0 162 -56t45 -122z" />
    <glyph glyph-name="three" unicode="3" horiz-adv-x="546" 
d="M480 404q0 -43 -25.5 -80.5t-53.5 -50.5q31 -12 60.5 -54t29.5 -98q0 -84 -66.5 -141t-179.5 -57q-55 0 -116 20t-110 48l76 98q41 -25 76 -36t76 -11q40 0 71.5 21.5t31.5 58.5q0 40 -30.5 63.5t-93.5 23.5h-62l-17 115h72q55 0 87 20t32 53q0 26 -23 44.5t-65 18.5
q-39 0 -75.5 -15.5t-66.5 -35.5l-70 99q50 35 105.5 53t114.5 18q107 0 164.5 -51t57.5 -124z" />
    <glyph glyph-name="four" unicode="4" horiz-adv-x="604" 
d="M563 57h-92v-124h-148v124h-277l-19 116l334 398h110v-395h103zM192 176h131v165z" />
    <glyph glyph-name="five" unicode="5" horiz-adv-x="542" 
d="M77 197l18 369h376l-16 -118h-235l-4 -101q15 8 32 12t38 4q108 0 163 -64t55 -150q0 -99 -66.5 -162.5t-182.5 -63.5q-55 0 -116.5 19.5t-107.5 47.5l73 103q42 -23 76.5 -34.5t77.5 -11.5q48 0 80 27.5t32 74.5q0 44 -25 69t-63 25q-31 0 -51 -15t-26 -31h-128z" />
    <glyph glyph-name="six" unicode="6" horiz-adv-x="578" 
d="M427 536q-63 -15 -121 -59.5t-89 -101.5q25 15 52.5 24.5t52.5 9.5q99 0 162 -60t63 -143q0 -85 -61.5 -152t-163.5 -67q-115 0 -194.5 69.5t-79.5 207.5q0 113 87.5 227t225.5 143zM309 304q-41 0 -73 -23t-45 -51q8 -57 39.5 -90t84.5 -33q43 0 67.5 29.5t24.5 64.5
q0 40 -25.5 71.5t-72.5 31.5z" />
    <glyph glyph-name="seven" unicode="7" horiz-adv-x="513" 
d="M41 -33l266 481h-254l-16 118h422l37 -59l-314 -579z" />
    <glyph glyph-name="eight" unicode="8" horiz-adv-x="583" 
d="M292 -13q-113 0 -178.5 57.5t-65.5 144.5q0 48 31.5 91t70.5 60q-33 19 -55 52t-22 72q0 76 60.5 127.5t158.5 51.5q96 0 157 -51.5t61 -127.5q0 -39 -22 -72t-56 -52q40 -17 71 -60t31 -91q0 -85 -64 -143.5t-178 -58.5zM213 461q0 -29 20.5 -48.5t58.5 -26.5
q38 7 58 27t20 48q0 23 -22 42.5t-58 19.5q-34 0 -55.5 -19.5t-21.5 -42.5zM291 106q39 0 71.5 23.5t32.5 60.5q0 31 -26.5 59.5t-76.5 36.5q-51 -8 -77.5 -36.5t-26.5 -59.5q0 -37 32 -60.5t71 -23.5z" />
    <glyph glyph-name="nine" unicode="9" horiz-adv-x="578" 
d="M149 30q64 15 121 58.5t88 100.5q-23 -15 -49 -23.5t-50 -8.5q-100 0 -164 60t-64 143q0 85 63 152t165 67q115 0 192.5 -69.5t77.5 -207.5q0 -113 -87 -226.5t-225 -144.5zM268 262q42 0 73.5 23t45.5 50q-9 58 -40.5 91t-83.5 33q-43 0 -67.5 -29.5t-24.5 -64.5
q0 -40 25 -71.5t72 -31.5z" />
    <glyph glyph-name="colon" unicode=":" horiz-adv-x="179" 
d="M168 395q0 -33 -22.5 -56t-55.5 -23q-34 0 -57 23t-23 56t23 56.5t57 23.5q33 0 55.5 -23.5t22.5 -56.5zM168 79q0 -34 -22.5 -56.5t-55.5 -22.5q-34 0 -57 22.5t-23 56.5t23 56.5t57 22.5q33 0 55.5 -22.5t22.5 -56.5z" />
    <glyph glyph-name="semicolon" unicode=";" horiz-adv-x="193" 
d="M179 395q0 -33 -23 -56t-56 -23q-34 0 -57.5 23t-23.5 56t23.5 56.5t57.5 23.5q33 0 56 -23.5t23 -56.5zM178 63q0 -57 -40 -116t-100 -89l-32 68q22 17 39.5 35t23.5 43q-17 4 -34 26t-17 48q0 29 23 54.5t56 25.5q34 0 57.5 -26.5t23.5 -68.5z" />
    <glyph glyph-name="less" unicode="&#x3c;" horiz-adv-x="357" 
d="M304 12l-283 203v65l283 202l26 -124l-157 -110l157 -111z" />
    <glyph glyph-name="equal" unicode="=" horiz-adv-x="506" 
d="M486 305h-454l-11 109h455zM486 96h-454l-11 108h455z" />
    <glyph glyph-name="greater" unicode="&#x3e;" horiz-adv-x="357" 
d="M54 482l283 -202v-66l-283 -202l-27 124l157 111l-157 110z" />
    <glyph glyph-name="question" unicode="?" horiz-adv-x="439" 
d="M419 518q0 -57 -45 -110.5t-123 -90.5l-16 -130l-109 39l-7 163q69 22 114 57t45 71q0 29 -21.5 46t-52.5 17q-29 0 -73 -13.5t-98 -47.5l-19 127q47 29 94.5 42t98.5 13q101 0 156.5 -51t55.5 -132zM252 79q0 -34 -23 -56.5t-56 -22.5q-34 0 -57 22.5t-23 56.5t23 56.5
t57 22.5q33 0 56 -22.5t23 -56.5z" />
    <glyph glyph-name="at" unicode="@" horiz-adv-x="817" 
d="M588 387l-23 -192q0 -11 5.5 -17.5t10.5 -6.5q25 0 50.5 35t25.5 96q0 82 -56 138.5t-155 56.5q-107 0 -189.5 -73.5t-82.5 -197.5q0 -102 70.5 -159t161.5 -57q31 0 79.5 6.5t87.5 25.5q10 -25 18.5 -49.5t17.5 -49.5q-57 -30 -110 -37t-102 -7q-134 0 -243.5 87.5
t-109.5 242.5q0 152 108 267t293 115q143 0 238 -87.5t95 -216.5q0 -123 -62 -186.5t-143 -63.5q-20 0 -40 6t-36 18q-17 -10 -38.5 -16t-43.5 -6q-93 0 -137 46.5t-44 118.5q0 95 67 154.5t157 59.5q23 0 46.5 -1.5t46.5 -2.5zM413 174q33 0 38.5 58.5t12.5 100.5
q-43 0 -74.5 -28t-31.5 -78q0 -19 12.5 -36t42.5 -17z" />
    <glyph glyph-name="A" unicode="A" horiz-adv-x="671" 
d="M333 489l-81 -220h164zM403 680l260 -662l-146 -18l-57 151h-250l-56 -151h-147l262 680h134z" />
    <glyph glyph-name="B" unicode="B" horiz-adv-x="649" 
d="M566 486q-1 -37 -17.5 -67.5t-42.5 -52.5q44 -25 72 -66.5t28 -99.5q0 -101 -73 -150.5t-182 -49.5h-272v680h245q104 0 173 -45t69 -149zM309 560h-84v-151h88q46 0 72.5 18.5t26.5 55.5q0 43 -27.5 60t-75.5 17zM351 291h-126v-173h120q49 0 79 21.5t30 61.5
q0 43 -28 66.5t-75 23.5z" />
    <glyph glyph-name="C" unicode="C" horiz-adv-x="597" 
d="M364 571q-74 0 -117 -63t-43 -170q0 -98 39 -163.5t118 -65.5q42 0 78 9.5t65 23.5l55 -110q-39 -21 -94 -33.5t-101 -12.5q-161 0 -237 101t-76 250q0 157 82.5 257t232.5 100q37 0 90.5 -11.5t96.5 -36.5l-45 -103q-47 15 -75 21.5t-69 6.5z" />
    <glyph glyph-name="D" unicode="D" horiz-adv-x="708" 
d="M342 0h-263v680h263q159 0 238 -94.5t79 -241.5q0 -158 -85 -251t-232 -93zM344 559h-119v-439h112q76 0 123 52.5t47 171.5q0 99 -40 157t-123 58z" />
    <glyph glyph-name="E" unicode="E" horiz-adv-x="583" 
d="M562 0h-483v680h421q4 -29 9 -58l10 -58h-294v-164h191l20 -116h-211v-170h317z" />
    <glyph glyph-name="F" unicode="F" horiz-adv-x="513" 
d="M429 277h-204v-277h-146v680h403q5 -28 10 -58t9 -58h-276v-172h185z" />
    <glyph glyph-name="G" unicode="G" horiz-adv-x="663" 
d="M597 36q-40 -22 -99.5 -36t-119.5 -14q-161 0 -244 99t-83 252q0 159 93 258t246 99q37 0 96 -11.5t102 -36.5l-46 -103q-47 15 -78 21.5t-72 6.5q-81 0 -134.5 -58t-53.5 -175q0 -111 46 -170t127 -59q27 0 48.5 2.5t39.5 6.5v150h-133v111h265v-343z" />
    <glyph glyph-name="H" unicode="H" horiz-adv-x="713" 
d="M225 685v-288h262v283h146v-680h-146v280h-262v-280h-146v680z" />
    <glyph glyph-name="I" unicode="I" horiz-adv-x="305" 
d="M225 680v-680h-146v680h146z" />
    <glyph glyph-name="J" unicode="J" horiz-adv-x="314" 
d="M238 680v-527q0 -72 -36.5 -109t-132.5 -67l-59 111q54 20 67 39t13 56v497h148z" />
    <glyph glyph-name="K" unicode="K" horiz-adv-x="659" 
d="M217 680v-269l261 284l111 -84l-211 -228l281 -383h-185l-196 276l-61 -66v-210h-147v680h147z" />
    <glyph glyph-name="L" unicode="L" horiz-adv-x="551" 
d="M541 0h-462v680h147v-565h296z" />
    <glyph glyph-name="M" unicode="M" horiz-adv-x="771" 
d="M371 202l-146 184v-386h-146v680h96l222 -296q51 73 101 147.5t101 148.5h93v-680h-148v371q-28 -40 -57.5 -80.5t-58.5 -80.5q-14 -1 -28.5 -4t-28.5 -4z" />
    <glyph glyph-name="N" unicode="N" horiz-adv-x="746" 
d="M666 680v-680h-143l-298 428v-428h-146v680h142l298 -431v431h147z" />
    <glyph glyph-name="O" unicode="O" horiz-adv-x="742" 
d="M370 695q162 0 241 -102.5t79 -248.5q0 -158 -84.5 -258t-235.5 -100q-160 0 -239.5 102.5t-79.5 248.5q0 157 84.5 257t234.5 101zM369 109q78 0 123.5 58t45.5 177q0 99 -39.5 163t-126.5 64q-75 0 -121.5 -63t-46.5 -170q0 -100 39.5 -164.5t125.5 -64.5z" />
    <glyph glyph-name="P" unicode="P" horiz-adv-x="626" 
d="M79 0v680h237q112 0 192.5 -54t80.5 -173q0 -118 -86 -173.5t-195 -55.5h-82v-224h-147zM312 560h-86v-217h88q53 0 85.5 27t35.5 78q0 58 -32.5 85t-90.5 27z" />
    <glyph glyph-name="Q" unicode="Q" horiz-adv-x="742" 
d="M370 695q162 0 241 -102.5t79 -248.5q0 -72 -19 -134.5t-53 -108.5l65 -65l-88 -77l-68 64q-33 -17 -72 -27t-85 -10q-160 0 -239.5 102.5t-79.5 248.5q0 157 84.5 257t234.5 101zM369 109q16 0 31 3t28 9l-83 81l98 78l72 -73q11 26 17 60t6 77q0 99 -39.5 163
t-126.5 64q-75 0 -121.5 -63t-46.5 -170q0 -100 39.5 -164.5t125.5 -64.5z" />
    <glyph glyph-name="R" unicode="R" horiz-adv-x="652" 
d="M311 560h-86v-199h88q53 0 87.5 24.5t34.5 73.5q0 53 -33 77t-91 24zM480 0q-34 60 -67 122t-66 122q-10 -1 -20 -1h-20h-82v-243h-146v680h237q112 0 192.5 -52t80.5 -165q0 -63 -30.5 -108.5t-77.5 -70.5q40 -71 80.5 -142.5t80.5 -141.5h-162z" />
    <glyph glyph-name="S" unicode="S" horiz-adv-x="556" 
d="M42 507q1 81 64 134.5t176 53.5q51 0 103 -15.5t92 -37.5l-47 -110q-39 16 -72.5 27t-73.5 11t-65.5 -16t-25.5 -46q0 -31 33.5 -53t86.5 -49q73 -37 139.5 -89.5t66.5 -138.5q0 -82 -68 -136.5t-192 -54.5q-46 0 -113 17.5t-95 39.5l39 116q29 -16 77 -31.5t89 -15.5
q55 0 83 18.5t28 48.5q0 29 -38 54t-84 47q-71 36 -137 87.5t-66 138.5z" />
    <glyph glyph-name="T" unicode="T" horiz-adv-x="594" 
d="M7 680h560l20 -116h-228v-564h-147v564h-205v116z" />
    <glyph glyph-name="U" unicode="U" horiz-adv-x="719" 
d="M219 680v-420q0 -78 39 -114.5t100 -36.5q63 0 101.5 37.5t38.5 113.5v420h147v-429q0 -117 -78 -189.5t-209 -72.5q-130 0 -208 71.5t-78 190.5v429h147z" />
    <glyph glyph-name="V" unicode="V" horiz-adv-x="671" 
d="M268 0l-261 662l145 18l185 -490l179 490h147l-261 -680h-134z" />
    <glyph glyph-name="W" unicode="W" horiz-adv-x="1071" 
d="M689 0l-157 463l-151 -463h-137l-237 662l145 18l162 -483l150 483h141l158 -482l153 482h148l-238 -680h-137z" />
    <glyph glyph-name="X" unicode="X" horiz-adv-x="691" 
d="M7 10l244 332l-235 317q39 5 77.5 11t77.5 10l170 -229l177 229h165l-261 -340l252 -340h-168l-173 232q-45 -60 -89.5 -121.5t-89.5 -120.5z" />
    <glyph glyph-name="Y" unicode="Y" horiz-adv-x="626" 
d="M236 0v266l-229 397l152 17l150 -271l157 271h153l-236 -418v-262h-147z" />
    <glyph glyph-name="Z" unicode="Z" horiz-adv-x="587" 
d="M564 569l-374 -455h363l15 -114h-535l-16 109l364 455h-320l-15 116h502z" />
    <glyph glyph-name="bracketleft" unicode="[" horiz-adv-x="366" 
d="M215 580v-553h125q5 -28 9.5 -57t9.5 -57h-290v783h290q-4 -29 -9 -58l-10 -58h-125z" />
    <glyph glyph-name="backslash" unicode="\" horiz-adv-x="462" 
d="M304 -4l-298 714h152l299 -714h-153z" />
    <glyph glyph-name="bracketright" unicode="]" horiz-adv-x="366" 
d="M149 27v553h-125q-4 29 -8.5 58t-8.5 58h290v-783h-290l17 114h125z" />
    <glyph glyph-name="asciicircum" unicode="^" horiz-adv-x="468" 
d="M162 142h-149l171 259h100l170 -259h-147l-72 114z" />
    <glyph glyph-name="underscore" unicode="_" horiz-adv-x="421" 
d="M404 0h-376l-11 115h377z" />
    <glyph glyph-name="grave" unicode="`" horiz-adv-x="241" 
d="M14 764h149l65 -175h-113z" />
    <glyph glyph-name="a" unicode="a" horiz-adv-x="514" 
d="M219 106q23 0 47 10.5t46 30.5v61h-84q-29 0 -45 -17t-16 -40q0 -18 15 -31.5t37 -13.5zM251 499q91 0 149.5 -52t58.5 -134v-313h-72l-32 40q-25 -22 -61.5 -37t-74.5 -15q-90 0 -133.5 44.5t-43.5 116.5q0 76 51.5 115t134.5 39h83q-2 31 -21.5 49t-51.5 18
q-31 0 -69 -9t-66 -22l-39 116q31 18 89 31t98 13z" />
    <glyph glyph-name="b" unicode="b" horiz-adv-x="591" 
d="M212 706v-235q26 15 57 23.5t58 8.5q111 0 168 -73.5t57 -182.5q0 -110 -57.5 -184t-170.5 -74q-37 0 -78.5 14.5t-74.5 38.5q-7 -10 -15 -21t-16 -21h-74v695zM401 246q0 52 -24 93t-88 41q-17 0 -38 -7t-39 -17v-216q18 -13 40 -21t42 -8q59 0 83 44.5t24 90.5z" />
    <glyph glyph-name="c" unicode="c" horiz-adv-x="486" 
d="M300 376q-49 0 -79.5 -37.5t-30.5 -96.5t30.5 -94.5t79.5 -35.5q31 0 56 7t59 23l41 -104q-36 -28 -84 -39t-79 -11q-118 0 -186.5 68t-68.5 186t68.5 187.5t186.5 69.5q31 0 78.5 -11t84.5 -39l-41 -104q-34 16 -59 23.5t-56 7.5z" />
    <glyph glyph-name="d" unicode="d" horiz-adv-x="598" 
d="M301 112q19 0 42 8t42 20v206q-19 15 -43 24.5t-46 9.5q-59 0 -82.5 -44t-23.5 -90q0 -53 24 -93.5t87 -40.5zM533 706v-706h-76l-35 48q-29 -25 -71.5 -42.5t-88.5 -17.5q-110 0 -167 73.5t-57 182.5q0 110 59.5 184.5t172.5 74.5q25 0 56 -8t59 -23v223z" />
    <glyph glyph-name="e" unicode="e" horiz-adv-x="548" 
d="M288 499q114 0 169 -75t55 -178v-48h-316q10 -41 41.5 -64t80.5 -23q33 0 61.5 7.5t61.5 23.5l43 -104q-37 -28 -90 -39t-84 -11q-123 0 -197.5 66.5t-74.5 187.5q0 118 69 187.5t181 69.5zM284 377q-34 0 -58 -22t-31 -62h177q-7 38 -29 61t-59 23z" />
    <glyph glyph-name="f" unicode="f" horiz-adv-x="405" 
d="M292 702q27 0 60 -10.5t49 -24.5l-42 -104q-16 7 -31.5 11t-27.5 4q-34 0 -50 -22t-16 -58v-31h106l33 -115h-139v-352h-147v352h-77v115h77v50q0 88 57 136.5t148 48.5z" />
    <glyph glyph-name="g" unicode="g" horiz-adv-x="598" 
d="M189 245q0 -53 24 -93.5t87 -40.5q19 0 42.5 8.5t42.5 19.5v207q-20 14 -44 24t-45 10q-60 0 -83.5 -44.5t-23.5 -90.5zM532 484v-484q0 -94 -62.5 -152t-191.5 -58q-31 0 -91 14t-101 42l44 103q46 -22 78 -31.5t67 -9.5q54 0 82 24.5t28 66.5v22q-28 -15 -60 -23.5
t-63 -8.5q-110 0 -167 73t-57 182q0 110 59 184.5t172 74.5q37 0 81 -16.5t76 -42.5l31 40h75z" />
    <glyph glyph-name="h" unicode="h" horiz-adv-x="598" 
d="M358 503q100 0 142.5 -58t42.5 -143v-302h-147v297q0 40 -20.5 61.5t-57.5 21.5q-25 0 -53.5 -13t-52.5 -29v-338h-146v695l146 11v-248q31 21 71.5 33t74.5 12z" />
    <glyph glyph-name="i" unicode="i" horiz-adv-x="271" 
d="M217 634q0 -34 -24.5 -57.5t-58.5 -23.5t-57 23.5t-23 57.5t23 58t57 24t58.5 -24t24.5 -58zM208 485v-485h-147v485h147z" />
    <glyph glyph-name="j" unicode="j" horiz-adv-x="286" 
d="M65 634q0 34 24 58t58 24t58 -24t24 -58t-24 -57.5t-58 -23.5t-58 23.5t-24 57.5zM221 485v-492q0 -72 -43.5 -114t-142.5 -73l-58 110q54 19 75 43.5t21 63.5v462h148z" />
    <glyph glyph-name="k" unicode="k" horiz-adv-x="540" 
d="M212 706v-386l199 179q21 -26 42.5 -52t42.5 -51l-135 -113q43 -71 87.5 -142t87.5 -141h-165l-114 196q-11 -10 -22.5 -19.5t-22.5 -18.5v-158h-146v695z" />
    <glyph glyph-name="l" unicode="l" horiz-adv-x="278" 
d="M212 706v-706h-146v695z" />
    <glyph glyph-name="m" unicode="m" horiz-adv-x="901" 
d="M664 503q98 0 140 -57.5t42 -142.5v-303h-148v297q0 40 -19.5 61.5t-54.5 21.5q-24 0 -52 -13t-52 -29q1 -9 2 -17.5t1 -17.5v-303h-148v297q0 40 -19.5 61.5t-53.5 21.5q-22 0 -46.5 -10.5t-47.5 -23.5v-346h-147v485h76l34 -44q32 26 78.5 44t91.5 18q54 0 90 -18.5
t58 -50.5q31 29 80 49t95 20z" />
    <glyph glyph-name="n" unicode="n" horiz-adv-x="595" 
d="M354 503q100 0 142.5 -57.5t42.5 -142.5v-303h-147v297q0 40 -20.5 61.5t-56.5 21.5q-24 0 -53.5 -12.5t-53.5 -28.5v-339h-147v485h76l39 -49q32 28 82 47.5t96 19.5z" />
    <glyph glyph-name="o" unicode="o" horiz-adv-x="597" 
d="M298 499q120 0 190.5 -69.5t70.5 -190.5q0 -118 -75 -184t-193 -66q-116 0 -184.5 67t-68.5 188q0 119 72 187t188 68zM293 112q51 0 82.5 30.5t31.5 96.5q0 62 -28 99.5t-79 37.5t-80.5 -33t-29.5 -98q0 -64 26 -98.5t77 -34.5z" />
    <glyph glyph-name="p" unicode="p" horiz-adv-x="591" 
d="M401 246q0 52 -24 93t-88 41q-20 0 -40 -7t-37 -17v-216q18 -13 40 -21t42 -8q59 0 83 44.5t24 90.5zM66 484h74l29 -38q34 27 77 42t81 15q111 0 168 -73.5t57 -182.5q0 -110 -57.5 -184t-170.5 -74q-25 0 -55 8t-57 21v-227l-146 -10v703z" />
    <glyph glyph-name="q" unicode="q" horiz-adv-x="598" 
d="M533 485v-694l-148 -10v240q-28 -15 -60 -24t-63 -9q-110 0 -167 73.5t-57 182.5q0 110 59.5 184.5t172.5 74.5q37 0 81 -16t76 -42l30 40h76zM301 112q19 0 42 8t42 20v206q-19 15 -43 24.5t-46 9.5q-59 0 -82.5 -44t-23.5 -90q0 -53 24 -93.5t87 -40.5z" />
    <glyph glyph-name="r" unicode="r" horiz-adv-x="370" 
d="M334 485l30 -118q-34 0 -76 -16t-80 -49v-302h-147v484h75l44 -64q30 25 72 45t82 20z" />
    <glyph glyph-name="s" unicode="s" horiz-adv-x="446" 
d="M249 307q61 -22 114 -60.5t53 -102.5q0 -73 -51 -114.5t-151 -41.5q-31 0 -87.5 14t-93.5 42l43 104q33 -16 68.5 -26t61.5 -10q30 0 45 8.5t15 20.5q0 16 -15.5 28.5t-49.5 23.5q-59 19 -112 55t-53 99q0 72 52.5 112t145.5 40q30 0 81.5 -13t89.5 -41l-43 -104
q-33 16 -64 25.5t-62 9.5q-24 0 -36 -8.5t-12 -21.5q0 -10 13.5 -18.5t47.5 -20.5z" />
    <glyph glyph-name="t" unicode="t" horiz-adv-x="403" 
d="M283 -17q-90 0 -148.5 46t-58.5 135v200h-69v114h69v120l146 24v-144h98l32 -114h-130v-178q0 -35 18 -57.5t52 -22.5q13 0 28 4t30 11l43 -104q-17 -14 -50 -24t-60 -10z" />
    <glyph glyph-name="u" unicode="u" horiz-adv-x="588" 
d="M238 -19q-100 0 -141.5 58t-41.5 142v304h148v-298q0 -40 19.5 -61.5t55.5 -21.5q23 0 50.5 11.5t50.5 26.5v343h147v-485h-76l-37 46q-32 -27 -80.5 -46t-94.5 -19z" />
    <glyph glyph-name="v" unicode="v" horiz-adv-x="523" 
d="M193 0l-186 467l149 18l107 -287l102 287h151l-191 -485h-132z" />
    <glyph glyph-name="w" unicode="w" horiz-adv-x="790" 
d="M488 0l-97 282l-93 -282h-128l-163 467l149 18l83 -280l79 280h152l84 -280l77 280h151l-167 -485h-127z" />
    <glyph glyph-name="x" unicode="x" horiz-adv-x="560" 
d="M7 0l181 244l-170 220q37 5 75 11t76 10l109 -144l113 144h161l-186 -257l176 -228h-164l-103 131q-25 -33 -51.5 -66t-52.5 -65h-164z" />
    <glyph glyph-name="y" unicode="y" horiz-adv-x="523" 
d="M166 -16l17 41l-176 442l148 18l54 -144t53 -144l102 288h152l-216 -546q-24 -59 -83 -101.5t-126 -58.5l-51 119q36 14 75 35t51 51z" />
    <glyph glyph-name="z" unicode="z" horiz-adv-x="460" 
d="M427 402q-54 -71 -109 -142.5t-109 -142.5h219l12 -117h-405l-18 77q44 57 92.5 124t124.5 165h-180l-22 119h388z" />
    <glyph glyph-name="braceleft" unicode="{" horiz-adv-x="309" 
d="M246 396q0 -32 -9.5 -53t-25.5 -34q18 -17 25 -37t7 -43q0 -34 -16 -64t-16 -64q0 -9 8.5 -19t29.5 -10h40l13 -113h-68q-78 0 -114 34t-36 92q0 32 16.5 71.5t16.5 60.5q0 19 -13 30.5t-29 11.5h-45v99h45q16 0 29 11.5t13 30.5q0 34 -16.5 65.5t-16.5 67.5
q0 60 37.5 93t119.5 33h61l-13 -114h-40q-20 0 -28.5 -10t-8.5 -19q0 -30 17 -58.5t17 -61.5z" />
    <glyph glyph-name="bar" unicode="|" horiz-adv-x="304" 
d="M225 701v-712q-37 2 -73 5.5t-73 5.5v713q37 -3 73 -6.5t73 -5.5z" />
    <glyph glyph-name="braceright" unicode="}" horiz-adv-x="309" 
d="M62 221q0 32 9.5 53t25.5 34q-13 12 -23.5 30t-10.5 48q0 32 16 65.5t16 64.5q0 8 -7 18.5t-29 10.5h-41l-11 114h60q81 0 119.5 -33t38.5 -93q0 -33 -17 -72.5t-17 -60.5q0 -19 13 -30.5t29 -11.5h45v-99h-45q-16 0 -29 -11.5t-13 -30.5q0 -33 17 -66.5t17 -65.5
q0 -60 -38.5 -93t-119.5 -33h-60l11 113h41q22 0 29 10t7 19q0 30 -16.5 58t-16.5 62z" />
    <glyph glyph-name="asciitilde" unicode="~" horiz-adv-x="483" 
d="M137 172h-119q0 90 38 136t99 46q50 0 89 -16t70 -16q11 0 21 11t11 30h119q0 -90 -35 -136t-94 -46q-51 0 -88.5 16.5t-72.5 16.5q-11 0 -24 -11.5t-14 -30.5z" />
    <glyph glyph-name="uni00A0" unicode="&#xa0;" horiz-adv-x="231" 
 />
    <glyph glyph-name="exclamdown" unicode="&#xa1;" horiz-adv-x="249" 
d="M45 627q0 33 23 56t56 23q34 0 57 -23t23 -56q0 -34 -23 -57t-57 -23q-33 0 -56 23t-23 57zM183 461l16 -461h-151l17 505z" />
    <glyph glyph-name="cent" unicode="&#xa2;" horiz-adv-x="486" 
d="M300 376q-49 0 -79.5 -37.5t-30.5 -96.5t30.5 -94.5t79.5 -35.5q31 0 56 7t59 23l41 -104q-20 -16 -45.5 -26.5t-50.5 -15.5v-118l-137 10v107q-87 19 -136 83t-49 164q0 99 48.5 164.5t135.5 84.5v127h137v-128q25 -4 50.5 -14.5t46.5 -26.5l-41 -104q-34 16 -59 23.5
t-56 7.5z" />
    <glyph glyph-name="sterling" unicode="&#xa3;" horiz-adv-x="513" 
d="M44 396h77v103q0 84 52 134t139 50q31 0 67.5 -8.5t57.5 -26.5q-11 -25 -22 -51t-21 -52q-15 7 -31 11t-28 4q-34 0 -50 -22.5t-16 -56.5v-85h123l34 -113h-157v-87q0 -23 -4 -44t-12 -38h230q5 -28 10 -57t9 -57h-447v114h7q31 1 45 23t14 56v90h-77v113z" />
    <glyph glyph-name="currency" unicode="&#xa4;" horiz-adv-x="719" 
d="M246 245q1 -49 34.5 -83.5t79.5 -34.5q48 0 82 34.5t34 83.5q0 50 -34.5 83.5t-81.5 33.5q-47 -1 -80 -34.5t-34 -82.5zM361 -13q-36 1 -70.5 9.5t-63.5 23.5l-108 -111l-94 105l104 105q-14 27 -22.5 58.5t-8.5 66.5t8.5 67.5t23.5 58.5l-109 106l100 103l106 -109
q29 15 63 24t71 9q36 0 69.5 -8.5t61.5 -23.5l108 110l95 -106l-103 -102q15 -28 24 -60t9 -67q0 -37 -9 -69t-24 -60l107 -103l-101 -103l-106 108q-28 -14 -61.5 -22.5t-69.5 -9.5z" />
    <glyph glyph-name="yen" unicode="&#xa5;" horiz-adv-x="626" 
d="M537 60h-154v-60h-147v60h-146l-11 103h157v49h-146l-11 102h129q-51 87 -101 174.5t-100 173.5l152 18l149 -272l157 272h154l-207 -366h115l10 -102h-154v-49h144z" />
    <glyph glyph-name="brokenbar" unicode="&#xa6;" horiz-adv-x="304" 
d="M225 701v-299l-146 12v299q37 -3 73 -6.5t73 -5.5zM225 287v-298q-37 2 -73 5.5t-73 5.5v298q104 -7 124 -9t22 -2z" />
    <glyph glyph-name="section" unicode="&#xa7;" horiz-adv-x="656" 
d="M310 299q34 -17 66.5 -36.5t60.5 -42.5q14 8 21.5 20t7.5 25q0 29 -38 54t-84 47q-32 16 -66 35.5t-62 43.5q-13 -7 -19.5 -18t-6.5 -24q0 -31 33.5 -53.5t86.5 -50.5zM141 595q1 79 64 132t177 53q50 0 101.5 -15t91.5 -37l-46 -110l-8 3q-37 15 -69 25t-69 10
q-40 0 -65.5 -16.5t-25.5 -45.5q0 -31 34 -54t86 -49q73 -37 139 -89t66 -138q0 -51 -28 -92.5t-79 -64.5q3 -8 4 -16.5t1 -17.5q-1 -83 -68 -137.5t-191 -54.5q-46 0 -113 18t-96 40l40 114q29 -15 77 -30.5t89 -15.5q54 0 82 18.5t28 49.5q0 28 -38 53t-83 47
q-71 36 -137.5 88t-66.5 140q0 51 28 92.5t78 63.5q-1 7 -2 17.5t-1 18.5z" />
    <glyph glyph-name="dieresis" unicode="&#xa8;" horiz-adv-x="368" 
d="M156 673q0 -29 -20 -49.5t-50 -20.5t-51 20.5t-21 49.5q0 30 21 50.5t51 20.5t50 -20.5t20 -50.5zM354 673q0 -29 -20.5 -49.5t-50.5 -20.5q-28 0 -49.5 20.5t-21.5 49.5q0 30 21.5 50.5t49.5 20.5q30 0 50.5 -20.5t20.5 -50.5z" />
    <glyph glyph-name="copyright" unicode="&#xa9;" horiz-adv-x="872" 
d="M436 -45q-177 0 -282.5 111.5t-105.5 269.5q0 160 105.5 271t282.5 111q178 0 283.5 -111t105.5 -271q0 -158 -105.5 -269.5t-283.5 -111.5zM436 46q133 0 210 84t77 207q0 124 -75 207.5t-212 83.5q-132 0 -210 -83.5t-78 -207.5q0 -123 78 -207t210 -84zM459 451
q-42 0 -67.5 -30.5t-25.5 -83.5q0 -54 25.5 -84t67.5 -30q28 0 50.5 7t52.5 22l38 -101q-33 -26 -76.5 -35.5t-70.5 -9.5q-106 0 -168.5 62t-62.5 169t65 169t166 62q27 0 70 -9.5t77 -34.5l-38 -102q-30 15 -52 22t-51 7z" />
    <glyph glyph-name="ordfeminine" unicode="&#xaa;" horiz-adv-x="356" 
d="M150 452q14 0 28 4.5t26 14.5v19h-48q-14 0 -21.5 -5.5t-7.5 -14.5q0 -7 5.5 -12.5t17.5 -5.5zM167 702q62 0 103 -36t41 -91v-213h-52l-24 26q-16 -14 -40.5 -24t-49.5 -10q-61 0 -91 31t-30 80q0 51 35 79t92 28h48q-4 14 -14.5 21.5t-27.5 7.5q-21 0 -46.5 -6.5
t-44.5 -14.5l-27 92q21 12 60.5 21t67.5 9z" />
    <glyph glyph-name="guillemotleft" unicode="&#xab;" horiz-adv-x="392" 
d="M353 80l-159 142v47l159 143l25 -93l-78 -73l78 -74zM180 80l-159 142v47l159 143l26 -93l-79 -73l79 -74z" />
    <glyph glyph-name="logicalnot" unicode="&#xac;" horiz-adv-x="519" 
d="M501 356v-245l-129 6v179h-349l-9 115h475z" />
    <glyph glyph-name="softhyphen" unicode="&#xad;" horiz-adv-x="131" 
 />
    <glyph glyph-name="registered" unicode="&#xae;" horiz-adv-x="745" 
d="M362 146q-157 0 -249 98t-92 239q0 143 92 241.5t249 98.5q158 0 250 -98.5t92 -241.5q0 -141 -92 -239t-250 -98zM362 227q118 1 185.5 74t67.5 183t-67.5 183t-185.5 73q-119 0 -186 -73t-67 -183t67 -183t186 -74zM350 594h-33v-83h34q29 0 47.5 9t18.5 32
q0 27 -18 34.5t-49 7.5zM421 302l-56 133h-48v-133h-96v370h149q60 0 105 -28.5t45 -88.5q0 -36 -18 -61.5t-45 -38.5l72 -153h-108z" />
    <glyph glyph-name="macron" unicode="&#xaf;" horiz-adv-x="299" 
d="M14 729h271v-116h-271v116z" />
    <glyph glyph-name="degree" unicode="&#xb0;" horiz-adv-x="266" 
d="M258 603q0 -51 -38 -85t-87 -34q-51 0 -88.5 34t-37.5 85q0 49 37.5 84.5t88.5 35.5q49 0 87 -35.5t38 -84.5zM134 637q-14 0 -24.5 -10.5t-10.5 -23.5q0 -14 10.5 -26t24.5 -12t24 11t10 24q0 15 -10 26t-24 11z" />
    <glyph glyph-name="plusminus" unicode="&#xb1;" horiz-adv-x="476" 
d="M455 296h-153v-153l-123 6v147h-147l-11 100h158v148h123v-148h143zM454 0h-423l-8 101h425z" />
    <glyph glyph-name="twosuperior" unicode="&#xb2;" horiz-adv-x="404" 
d="M348 638q0 -46 -23.5 -85t-77.5 -85l-43 -35h144l14 -96h-328v85l134 112q30 25 44.5 48.5t14.5 51.5q0 14 -13 25t-35 11q-27 0 -57 -18t-37 -24l-49 86q22 18 59.5 37.5t90.5 19.5q87 0 124.5 -43t37.5 -90z" />
    <glyph glyph-name="threesuperior" unicode="&#xb3;" horiz-adv-x="426" 
d="M365 639q0 -32 -19 -60.5t-41 -38.5q23 -8 46 -39.5t23 -73.5q0 -63 -50.5 -105.5t-134.5 -42.5q-42 0 -87.5 15t-82.5 35l57 86q31 -19 53.5 -27.5t50.5 -8.5q30 0 48 13.5t18 35.5q0 29 -19 44.5t-53 15.5h-46l-13 96h53q42 0 56 16t14 34q0 12 -12 23.5t-44 11.5
q-28 0 -51 -10.5t-44 -26.5l-53 85q37 26 78 40t86 14q81 0 124 -38.5t43 -93.5z" />
    <glyph glyph-name="acute" unicode="&#xb4;" horiz-adv-x="241" 
d="M79 764h149l-101 -175h-113z" />
    <glyph glyph-name="mu" unicode="&#xb5;" horiz-adv-x="588" 
d="M248 -19q-10 0 -19.5 1t-16.5 3v-194l-146 -10v703h146v-298q0 -37 20 -60t56 -23q23 0 50 11.5t50 26.5v343h147v-484h-75q-10 11 -18.5 22.5t-17.5 22.5q-33 -27 -81.5 -45.5t-94.5 -18.5z" />
    <glyph glyph-name="paragraph" unicode="&#xb6;" horiz-adv-x="980" 
d="M702 0v564h-195v-564h-147v221h-24q-113 0 -201 56.5t-88 176.5q0 122 81.5 174t195.5 52h634v-116h-109v-564h-147z" />
    <glyph glyph-name="periodcentered" unicode="&#xb7;" horiz-adv-x="179" 
d="M168 262q0 -33 -22.5 -56t-55.5 -23q-34 0 -57 23t-23 56q0 34 23 57t57 23q33 0 55.5 -23t22.5 -57z" />
    <glyph glyph-name="cedilla" unicode="&#xb8;" horiz-adv-x="261" 
d="M92 13h104l-18 -45q32 -12 50.5 -40t18.5 -54q0 -54 -40 -81.5t-91 -27.5q-22 0 -52.5 9t-49.5 24l33 79q12 -6 30.5 -12t31.5 -6q12 0 22.5 3.5t10.5 13.5q0 15 -23.5 26.5t-63.5 16.5z" />
    <glyph glyph-name="onesuperior" unicode="&#xb9;" horiz-adv-x="387" 
d="M59 432h89v187l-46 -23l-51 94l139 73h82v-331h63q7 -67 8.5 -80t1.5 -15h-277z" />
    <glyph glyph-name="ordmasculine" unicode="&#xba;" horiz-adv-x="393" 
d="M24 528q0 80 46.5 127t124.5 47q83 0 128 -48.5t45 -127.5q0 -78 -48.5 -125t-129.5 -47q-78 0 -122 47.5t-44 126.5zM197 601q-25 0 -39.5 -17t-14.5 -56q0 -36 11.5 -55t38.5 -19q28 0 42 17.5t14 54.5q0 34 -11 54.5t-41 20.5z" />
    <glyph glyph-name="guillemotright" unicode="&#xbb;" horiz-adv-x="392" 
d="M38 412l159 -143v-47l-159 -142l-26 93l79 73l-79 73zM211 412l160 -143v-47l-160 -142l-25 93l78 73l-78 73z" />
    <glyph glyph-name="onequarter" unicode="&#xbc;" horiz-adv-x="949" 
d="M59 432h89v187l-46 -23l-51 94l139 73h82v-331h63q7 -67 8.5 -80t1.5 -15h-277zM656 493q-71 -123 -142 -248t-143 -245h-148l283 493h150zM910 -79h-77v-86h-126v86h-204l-14 98l254 304h90v-302h87q-3 -24 -5.5 -49.5t-4.5 -50.5zM625 21h82v98z" />
    <glyph glyph-name="onehalf" unicode="&#xbd;" horiz-adv-x="970" 
d="M59 432h89v187l-46 -23l-51 94l139 73h82v-331h63q7 -67 8.5 -80t1.5 -15h-277zM663 493l-285 -493h-149l283 493h151zM923 191q0 -46 -23 -84.5t-77 -84.5q-11 -10 -22 -18t-21 -18h144q4 -24 7 -47.5t6 -47.5h-327v85q34 27 67 55t67 56q30 25 44.5 48.5t14.5 51.5
q0 14 -13 25.5t-35 11.5q-16 0 -48 -15.5t-47 -26.5q-12 21 -24.5 42.5t-23.5 43.5q22 17 59 36.5t90 19.5q87 0 124.5 -43t37.5 -90z" />
    <glyph glyph-name="threequarters" unicode="&#xbe;" horiz-adv-x="959" 
d="M668 494l-285 -494h-151l285 494h151zM365 639q0 -32 -19 -60.5t-41 -38.5q23 -8 46 -39.5t23 -73.5q0 -63 -50.5 -105.5t-134.5 -42.5q-42 0 -87.5 15t-82.5 35l57 86q31 -19 53.5 -27.5t50.5 -8.5q30 0 48 13.5t18 35.5q0 29 -19 44.5t-53 15.5h-46l-13 96h53
q42 0 56 16t14 34q0 12 -12 23.5t-44 11.5q-28 0 -51 -10.5t-44 -26.5l-53 85q37 26 78 40t86 14q81 0 124 -38.5t43 -93.5zM921 -79h-77v-86h-126v86h-204l-14 98l254 304h90v-301h86zM635 22h83v97z" />
    <glyph glyph-name="questiondown" unicode="&#xbf;" horiz-adv-x="468" 
d="M205 585q0 33 23 56t56 23q34 0 57 -23t23 -56q0 -34 -23 -57t-57 -23q-33 0 -56 23t-23 57zM38 146q0 57 45 111t123 91l16 129l109 -39l8 -163q-70 -22 -115 -57t-45 -72q0 -28 21.5 -45t52.5 -17q30 0 73.5 13t97.5 48l19 -127q-47 -29 -95 -42t-99 -13
q-101 0 -156 51t-55 132z" />
    <glyph glyph-name="Agrave" unicode="&#xc0;" horiz-adv-x="671" 
d="M203 913h147l64 -174h-111zM333 489l-81 -220h164zM403 680l260 -662l-146 -18l-57 151h-250l-56 -151h-147l262 680h134z" />
    <glyph glyph-name="Aacute" unicode="&#xc1;" horiz-adv-x="671" 
d="M319 913h147l-100 -174h-111zM333 489l-81 -220h164zM403 680l260 -662l-146 -18l-57 151h-250l-56 -151h-147l262 680h134z" />
    <glyph glyph-name="Acircumflex" unicode="&#xc2;" horiz-adv-x="671" 
d="M268 739h-141l159 176h83l159 -176h-136l-62 64zM333 489l-81 -220h164zM403 680l260 -662l-146 -18l-57 151h-250l-56 -151h-147l262 680h134z" />
    <glyph glyph-name="Atilde" unicode="&#xc3;" horiz-adv-x="671" 
d="M257 750h-99q0 75 35.5 104t78.5 29q34 0 58 -17t50 -17q10 0 17.5 9.5t7.5 20.5h94q0 -75 -34.5 -104.5t-77.5 -29.5q-34 0 -56.5 17.5t-47.5 17.5q-10 0 -18 -10t-8 -20zM333 489l-81 -220h164zM403 680l260 -662l-146 -18l-57 151h-250l-56 -151h-147l262 680h134z
" />
    <glyph glyph-name="Adieresis" unicode="&#xc4;" horiz-adv-x="671" 
d="M303 823q0 -29 -20 -49.5t-50 -20.5q-29 0 -50 20.5t-21 49.5q0 30 21 50.5t50 20.5q30 0 50 -20.5t20 -50.5zM501 823q0 -29 -20 -49.5t-51 -20.5q-28 0 -49.5 20.5t-21.5 49.5q0 30 21.5 50.5t49.5 20.5q31 0 51 -20.5t20 -50.5zM333 489l-81 -220h164zM403 680
l260 -662l-146 -18l-57 151h-250l-56 -151h-147l262 680h134z" />
    <glyph glyph-name="Aring" unicode="&#xc5;" horiz-adv-x="671" 
d="M445 848q0 -46 -34 -75t-79 -29q-46 0 -79 29t-33 75q0 45 33 75.5t79 30.5q45 0 79 -30.5t34 -75.5zM368 848q0 15 -10 25t-25 10t-26 -10t-11 -25t11 -26t26 -11t25 11t10 26zM333 489l-81 -220h164zM403 680l260 -662l-146 -18l-57 151h-250l-56 -151h-147l262 680
h134z" />
    <glyph glyph-name="AE" unicode="&#xc6;" horiz-adv-x="971" 
d="M3 19l455 661h431l18 -116h-293v-164h191l19 -116h-210v-170h317q4 -28 9 -57t10 -57h-484v149h-218q-26 -37 -52 -74.5t-52 -74.5zM328 266h138v202z" />
    <glyph glyph-name="Ccedilla" unicode="&#xc7;" horiz-adv-x="597" 
d="M364 571q-74 0 -117 -63t-43 -170q0 -98 39 -163.5t118 -65.5q42 0 78 9.5t65 23.5l55 -110q-30 -16 -70 -27t-78 -15l-8 -22q32 -12 50.5 -40t18.5 -54q0 -54 -40 -81.5t-91 -27.5q-22 0 -52.5 9t-49.5 24l33 79q12 -6 30.5 -12t31.5 -6q12 0 22.5 3.5t10.5 13.5
q0 15 -23.5 26.5t-63.5 16.5l28 72q-132 17 -194.5 113t-62.5 233q0 157 82.5 257t232.5 100q37 0 90.5 -11.5t96.5 -36.5l-45 -103q-47 15 -75 21.5t-69 6.5z" />
    <glyph glyph-name="Egrave" unicode="&#xc8;" horiz-adv-x="583" 
d="M178 912h147q16 -43 32 -87t32 -87h-111q-25 43 -50 87t-50 87zM562 0h-483v680h421q4 -29 9 -58l10 -58h-294v-164h191l20 -116h-211v-170h317z" />
    <glyph glyph-name="Eacute" unicode="&#xc9;" horiz-adv-x="583" 
d="M285 912h148l-101 -174h-111zM562 0h-483v680h421q4 -29 9 -58l10 -58h-294v-164h191l20 -116h-211v-170h317z" />
    <glyph glyph-name="Ecircumflex" unicode="&#xca;" horiz-adv-x="583" 
d="M233 739h-140l159 175h83l159 -175h-137q-15 16 -30.5 32t-30.5 32zM562 0h-483v680h421q4 -29 9 -58l10 -58h-294v-164h191l20 -116h-211v-170h317z" />
    <glyph glyph-name="Edieresis" unicode="&#xcb;" horiz-adv-x="583" 
d="M268 823q0 -29 -20 -49.5t-50 -20.5q-29 0 -50 20.5t-21 49.5q0 30 21 50.5t50 20.5q30 0 50 -20.5t20 -50.5zM467 823q0 -29 -20.5 -49.5t-51.5 -20.5q-28 0 -49.5 20.5t-21.5 49.5q0 30 21.5 50.5t49.5 20.5q31 0 51.5 -20.5t20.5 -50.5zM563 0h-484v680h421l19 -116
h-293v-163h191l19 -116h-210v-170h317z" />
    <glyph glyph-name="Igrave" unicode="&#xcc;" horiz-adv-x="305" 
d="M27 912h148l63 -174h-111q-25 43 -50 87t-50 87zM225 680v-680h-146v680h146z" />
    <glyph glyph-name="Iacute" unicode="&#xcd;" horiz-adv-x="305" 
d="M134 912h148q-25 -43 -50 -87t-50 -87h-112q16 43 32 87t32 87zM225 680v-680h-146v680h146z" />
    <glyph glyph-name="Icircumflex" unicode="&#xce;" horiz-adv-x="305" 
d="M91 739h-139l158 175h83l159 -175h-137q-15 16 -30.5 32t-30.5 32zM225 680v-680h-146v680h146z" />
    <glyph glyph-name="Idieresis" unicode="&#xcf;" horiz-adv-x="305" 
d="M121 823q0 -30 -20 -50t-49 -20q-30 0 -50.5 20t-20.5 50q0 29 20.5 50t50.5 21q29 0 49 -21t20 -50zM320 823q0 -30 -20.5 -50t-51.5 -20q-28 0 -49 20t-21 50q0 29 21 50t49 21q31 0 51.5 -21t20.5 -50zM225 680v-680h-146v680h146z" />
    <glyph glyph-name="Eth" unicode="&#xd0;" horiz-adv-x="716" 
d="M349 0h-263v284h-61q-4 28 -7 57t-6 57h74v282h263q160 0 238.5 -94.5t78.5 -241.5q0 -158 -84.5 -251t-232.5 -93zM325 284h-92v-164h111q76 0 123.5 52.5t47.5 171.5q0 99 -40.5 157t-124.5 58h-117v-161h80z" />
    <glyph glyph-name="Ntilde" unicode="&#xd1;" horiz-adv-x="746" 
d="M301 750h-99q0 75 35.5 104t78.5 29q34 0 58 -17.5t50 -17.5q10 0 17.5 10t7.5 20h94q0 -75 -34.5 -104t-77.5 -29q-34 0 -56.5 17.5t-47.5 17.5q-10 0 -18 -10.5t-8 -19.5zM666 680v-680h-143l-298 428v-428h-146v680h142l298 -432v432h147z" />
    <glyph glyph-name="Ograve" unicode="&#xd2;" horiz-adv-x="742" 
d="M244 913h147l64 -174h-111zM370 695q162 0 241 -102.5t79 -248.5q0 -158 -84.5 -258t-235.5 -100q-160 0 -239.5 102.5t-79.5 248.5q0 157 84.5 257t234.5 101zM369 109q78 0 123.5 58t45.5 177q0 99 -39.5 163t-126.5 64q-75 0 -121.5 -63t-46.5 -170
q0 -100 39.5 -164.5t125.5 -64.5z" />
    <glyph glyph-name="Oacute" unicode="&#xd3;" horiz-adv-x="742" 
d="M356 913h148l-100 -174h-112zM370 695q162 0 241 -102.5t79 -248.5q0 -158 -84.5 -258t-235.5 -100q-160 0 -239.5 102.5t-79.5 248.5q0 157 84.5 257t234.5 101zM369 109q78 0 123.5 58t45.5 177q0 99 -39.5 163t-126.5 64q-75 0 -121.5 -63t-46.5 -170
q0 -100 39.5 -164.5t125.5 -64.5z" />
    <glyph glyph-name="Ocircumflex" unicode="&#xd4;" horiz-adv-x="742" 
d="M308 739h-141l160 176h83l159 -176h-137l-61 64zM370 695q162 0 241 -102.5t79 -248.5q0 -158 -84.5 -258t-235.5 -100q-160 0 -239.5 102.5t-79.5 248.5q0 157 84.5 257t234.5 101zM369 109q78 0 123.5 58t45.5 177q0 99 -39.5 163t-126.5 64q-75 0 -121.5 -63
t-46.5 -170q0 -100 39.5 -164.5t125.5 -64.5z" />
    <glyph glyph-name="Otilde" unicode="&#xd5;" horiz-adv-x="742" 
d="M296 750h-99q0 75 35.5 104t77.5 29q35 0 59 -17t49 -17q10 0 18 9.5t8 20.5h94q0 -75 -34.5 -104.5t-77.5 -29.5q-34 0 -56.5 17.5t-47.5 17.5q-10 0 -18 -10t-8 -20zM370 695q162 0 241 -102.5t79 -248.5q0 -158 -84.5 -258t-235.5 -100q-160 0 -239.5 102.5
t-79.5 248.5q0 157 84.5 257t234.5 101zM369 109q78 0 123.5 58t45.5 177q0 99 -39.5 163t-126.5 64q-75 0 -121.5 -63t-46.5 -170q0 -100 39.5 -164.5t125.5 -64.5z" />
    <glyph glyph-name="Odieresis" unicode="&#xd6;" horiz-adv-x="742" 
d="M342 823q0 -29 -20 -49.5t-50 -20.5t-51 20.5t-21 49.5q0 30 21 50.5t51 20.5t50 -20.5t20 -50.5zM540 823q0 -29 -20.5 -49.5t-50.5 -20.5q-28 0 -49.5 20.5t-21.5 49.5q0 30 21.5 50.5t49.5 20.5q30 0 50.5 -20.5t20.5 -50.5zM370 695q162 0 241 -102.5t79 -248.5
q0 -158 -84.5 -258t-235.5 -100q-160 0 -239.5 102.5t-79.5 248.5q0 157 84.5 257t234.5 101zM369 109q78 0 123.5 58t45.5 177q0 99 -39.5 163t-126.5 64q-75 0 -121.5 -63t-46.5 -170q0 -100 39.5 -164.5t125.5 -64.5z" />
    <glyph glyph-name="multiply" unicode="&#xd7;" horiz-adv-x="563" 
d="M20 46q44 53 87.5 106t86.5 106l-166 208l135 20l113 -142l115 140h151l-193 -234q39 -51 88 -111.5t88 -109.5h-148l-109 135l-114 -140q-34 6 -67 11t-67 11z" />
    <glyph glyph-name="Oslash" unicode="&#xd8;" horiz-adv-x="742" 
d="M370 695q162 0 241 -102.5t79 -248.5q0 -158 -84.5 -258t-235.5 -100q-160 0 -239.5 102.5t-79.5 248.5q0 157 84.5 257t234.5 101zM204 338q0 -48 9 -88.5t26 -69.5l161 389q-7 1 -14 1.5t-14 0.5q-75 0 -121.5 -63t-46.5 -170zM369 109q78 0 123.5 58t45.5 177
q0 43 -7.5 80.5t-22.5 65.5l-161 -379q4 -1 11 -1.5t11 -0.5z" />
    <glyph glyph-name="Ugrave" unicode="&#xd9;" horiz-adv-x="719" 
d="M240 912h147q16 -43 32 -87t32 -87h-111q-25 43 -50 87t-50 87zM219 680v-420q0 -78 39 -114.5t100 -36.5q63 0 101.5 37.5t38.5 113.5v420h147v-429q0 -117 -78 -189.5t-209 -72.5q-130 0 -208 71.5t-78 190.5v429h147z" />
    <glyph glyph-name="Uacute" unicode="&#xda;" horiz-adv-x="719" 
d="M327 912h148q-25 -43 -50 -87t-50 -87h-112q16 43 32 87t32 87zM219 680v-420q0 -78 39 -114.5t100 -36.5q63 0 101.5 37.5t38.5 113.5v420h147v-429q0 -117 -78 -189.5t-209 -72.5q-130 0 -208 71.5t-78 190.5v429h147z" />
    <glyph glyph-name="Ucircumflex" unicode="&#xdb;" horiz-adv-x="719" 
d="M297 739h-141l159 175h83l159 -175h-136l-62 64zM219 680v-420q0 -78 39 -114.5t100 -36.5q63 0 101.5 37.5t38.5 113.5v420h147v-429q0 -117 -78 -189.5t-209 -72.5q-130 0 -208 71.5t-78 190.5v429h147z" />
    <glyph glyph-name="Udieresis" unicode="&#xdc;" horiz-adv-x="719" 
d="M330 823q0 -30 -20 -50t-50 -20q-29 0 -50 20t-21 50q0 29 21 50t50 21q30 0 50 -21t20 -50zM528 823q0 -30 -20 -50t-51 -20q-28 0 -49.5 20t-21.5 50q0 29 21.5 50t49.5 21q31 0 51 -21t20 -50zM219 680v-420q0 -78 39 -114.5t100 -36.5q63 0 101.5 37.5t38.5 113.5
v420h147v-429q0 -117 -78 -189.5t-209 -72.5q-130 0 -208 71.5t-78 190.5v429h147z" />
    <glyph glyph-name="Yacute" unicode="&#xdd;" horiz-adv-x="626" 
d="M277 913h148l-101 -174h-111zM236 0v266l-229 397l152 17l150 -271l157 271h153l-236 -418v-262h-147z" />
    <glyph glyph-name="Thorn" unicode="&#xde;" horiz-adv-x="626" 
d="M225 680v-109h91q112 0 192.5 -53.5t80.5 -172.5t-87.5 -174.5t-194.5 -55.5h-82v-115h-146v680h146zM311 453h-86v-219h88q53 0 86 27t36 79q0 58 -33 85.5t-91 27.5z" />
    <glyph glyph-name="germandbls" unicode="&#xdf;" horiz-adv-x="645" 
d="M310 702q104 0 178.5 -50t74.5 -146q0 -37 -20.5 -77.5t-53.5 -59.5q46 -13 83.5 -61.5t37.5 -110.5q0 -90 -66.5 -143.5t-175.5 -53.5h-98v121h86q41 0 71 23t30 60q0 40 -27.5 65.5t-64.5 25.5h-89v112h32q48 0 75.5 26.5t27.5 60.5q0 37 -26.5 59.5t-68.5 22.5
t-72.5 -29t-30.5 -81v-466h-147v473q0 102 65 165.5t179 63.5z" />
    <glyph glyph-name="agrave" unicode="&#xe0;" horiz-adv-x="514" 
d="M125 764h149l65 -175h-113zM219 106q23 0 47 10.5t46 30.5v61h-84q-29 0 -45 -17t-16 -40q0 -18 15 -31.5t37 -13.5zM251 499q91 0 149.5 -52t58.5 -134v-313h-72l-32 40q-25 -22 -61.5 -37t-74.5 -15q-90 0 -133.5 44.5t-43.5 116.5q0 76 51.5 115t134.5 39h83
q-2 31 -21.5 49t-51.5 18q-31 0 -69 -9t-66 -22l-39 116q31 18 89 31t98 13z" />
    <glyph glyph-name="aacute" unicode="&#xe1;" horiz-adv-x="514" 
d="M232 764h149l-101 -175h-112zM219 106q23 0 47 10.5t46 30.5v61h-84q-29 0 -45 -17t-16 -40q0 -18 15 -31.5t37 -13.5zM251 499q91 0 149.5 -52t58.5 -134v-313h-72l-32 40q-25 -22 -61.5 -37t-74.5 -15q-90 0 -133.5 44.5t-43.5 116.5q0 76 51.5 115t134.5 39h83
q-2 31 -21.5 49t-51.5 18q-31 0 -69 -9t-66 -22l-39 116q31 18 89 31t98 13z" />
    <glyph glyph-name="acircumflex" unicode="&#xe2;" horiz-adv-x="514" 
d="M202 589h-141l160 175h82l160 -175h-137l-62 64zM219 106q23 0 47 10.5t46 30.5v61h-84q-29 0 -45 -17t-16 -40q0 -18 15 -31.5t37 -13.5zM251 499q91 0 149.5 -52t58.5 -134v-313h-72l-32 40q-25 -22 -61.5 -37t-74.5 -15q-90 0 -133.5 44.5t-43.5 116.5q0 76 51.5 115
t134.5 39h83q-2 31 -21.5 49t-51.5 18q-31 0 -69 -9t-66 -22l-39 116q31 18 89 31t98 13z" />
    <glyph glyph-name="atilde" unicode="&#xe3;" horiz-adv-x="514" 
d="M182 600h-100q0 75 36 104t79 29q34 0 58 -17t49 -17q10 0 18 9.5t8 20.5h95q0 -75 -35 -104.5t-78 -29.5q-35 0 -57 17.5t-47 17.5q-10 0 -18 -10t-8 -20zM219 106q23 0 47 10.5t46 30.5v61h-84q-29 0 -45 -17t-16 -40q0 -18 15 -31.5t37 -13.5zM251 499q91 0 149.5 -52
t58.5 -134v-313h-72l-32 40q-25 -22 -61.5 -37t-74.5 -15q-90 0 -133.5 44.5t-43.5 116.5q0 76 51.5 115t134.5 39h83q-2 31 -21.5 49t-51.5 18q-31 0 -69 -9t-66 -22l-39 116q31 18 89 31t98 13z" />
    <glyph glyph-name="adieresis" unicode="&#xe4;" horiz-adv-x="514" 
d="M232 673q0 -29 -20.5 -49.5t-50.5 -20.5q-29 0 -50 20.5t-21 49.5q0 30 21 50.5t50 20.5q30 0 50.5 -20.5t20.5 -50.5zM430 673q0 -29 -20 -49.5t-51 -20.5q-28 0 -49.5 20.5t-21.5 49.5q0 30 21.5 50.5t49.5 20.5q31 0 51 -20.5t20 -50.5zM219 106q23 0 47 10.5t46 30.5
v61h-84q-29 0 -45 -17t-16 -40q0 -18 15 -31.5t37 -13.5zM251 499q91 0 149.5 -52t58.5 -134v-313h-72l-32 40q-25 -22 -61.5 -37t-74.5 -15q-90 0 -133.5 44.5t-43.5 116.5q0 76 51.5 115t134.5 39h83q-2 31 -21.5 49t-51.5 18q-31 0 -69 -9t-66 -22l-39 116q31 18 89 31
t98 13z" />
    <glyph glyph-name="aring" unicode="&#xe5;" horiz-adv-x="514" 
d="M371 698q0 -46 -34 -75t-79 -29q-46 0 -79.5 29t-33.5 75q0 45 33.5 75.5t79.5 30.5q45 0 79 -30.5t34 -75.5zM294 698q0 15 -10 25t-26 10q-14 0 -25 -10t-11 -25t11 -26t25 -11q16 0 26 11t10 26zM219 106q23 0 47 10.5t46 30.5v61h-84q-29 0 -45 -17t-16 -40
q0 -18 15 -31.5t37 -13.5zM251 499q91 0 149.5 -52t58.5 -134v-313h-72l-32 40q-25 -22 -61.5 -37t-74.5 -15q-90 0 -133.5 44.5t-43.5 116.5q0 76 51.5 115t134.5 39h83q-2 31 -21.5 49t-51.5 18q-31 0 -69 -9t-66 -22l-39 116q31 18 89 31t98 13z" />
    <glyph glyph-name="ae" unicode="&#xe6;" horiz-adv-x="822" 
d="M42 145q0 76 51.5 113.5t134.5 37.5h83q-2 28 -18 51t-56 23q-31 0 -69 -9.5t-65 -21.5l-39 115q31 19 88.5 32t98.5 13q43 0 82.5 -15t66.5 -39q31 25 72 39.5t89 14.5q116 0 171 -75.5t55 -178.5v-47h-317q10 -42 41 -65t82 -23q34 0 62 7.5t61 23.5q10 -25 21 -51.5
t22 -51.5q-37 -28 -90 -38.5t-84 -10.5q-66 0 -118.5 18.5t-87.5 54.5q-24 -28 -67.5 -50.5t-92.5 -22.5q-90 0 -133.5 42.5t-43.5 113.5zM558 376q-34 0 -58 -21.5t-32 -62.5h178q-7 38 -29 61t-59 23zM219 105q29 0 55.5 14t48.5 38q-3 10 -5 21.5t-4 23.5h-87
q-29 0 -45 -16t-16 -38q0 -18 15 -30.5t38 -12.5z" />
    <glyph glyph-name="ccedilla" unicode="&#xe7;" horiz-adv-x="486" 
d="M300 376q-49 0 -79.5 -37.5t-30.5 -96.5t30.5 -94.5t79.5 -35.5q31 0 56 7t59 23l41 -104q-25 -19 -57 -30t-60 -16l-9 -24q31 -12 49.5 -40t18.5 -54q0 -54 -39.5 -81.5t-90.5 -27.5q-23 0 -53.5 9t-49.5 24l33 79q12 -6 31 -12t32 -6q12 0 21.5 3.5t9.5 13.5
q0 15 -22.5 26.5t-62.5 16.5l29 75q-93 14 -145.5 79.5t-52.5 168.5q0 118 68.5 187.5t186.5 69.5q31 0 78.5 -11t84.5 -39l-41 -104q-34 16 -59 23.5t-56 7.5z" />
    <glyph glyph-name="egrave" unicode="&#xe8;" horiz-adv-x="548" 
d="M157 764h148l66 -175h-112zM288 499q114 0 169 -75t55 -178v-48h-316q10 -41 41.5 -64t80.5 -23q33 0 61.5 7.5t61.5 23.5l43 -104q-37 -28 -90 -39t-84 -11q-123 0 -197.5 66.5t-74.5 187.5q0 118 69 187.5t181 69.5zM284 377q-34 0 -58 -22t-31 -62h177q-7 38 -29 61
t-59 23z" />
    <glyph glyph-name="eacute" unicode="&#xe9;" horiz-adv-x="548" 
d="M267 764h150l-102 -175h-112zM288 499q114 0 169 -75t55 -178v-48h-316q10 -41 41.5 -64t80.5 -23q33 0 61.5 7.5t61.5 23.5l43 -104q-37 -28 -90 -39t-84 -11q-123 0 -197.5 66.5t-74.5 187.5q0 118 69 187.5t181 69.5zM284 377q-34 0 -58 -22t-31 -62h177q-7 38 -29 61
t-59 23z" />
    <glyph glyph-name="ecircumflex" unicode="&#xea;" horiz-adv-x="548" 
d="M230 589h-141l160 175h82l160 -175h-136l-62 64zM288 499q114 0 169 -75t55 -178v-48h-316q10 -41 41.5 -64t80.5 -23q33 0 61.5 7.5t61.5 23.5l43 -104q-37 -28 -90 -39t-84 -11q-123 0 -197.5 66.5t-74.5 187.5q0 118 69 187.5t181 69.5zM284 377q-34 0 -58 -22
t-31 -62h177q-7 38 -29 61t-59 23z" />
    <glyph glyph-name="edieresis" unicode="&#xeb;" horiz-adv-x="548" 
d="M456 673q0 -29 -20.5 -49.5t-50.5 -20.5q-29 0 -50 20.5t-21 49.5q0 30 21 50.5t50 20.5q30 0 50.5 -20.5t20.5 -50.5zM258 673q0 -29 -20.5 -49.5t-50.5 -20.5q-28 0 -50 20.5t-22 49.5q0 30 22 50.5t50 20.5q30 0 50.5 -20.5t20.5 -50.5zM288 499q114 0 169 -75
t55 -178v-48h-316q10 -41 41.5 -64t80.5 -23q33 0 61.5 7.5t61.5 23.5l43 -104q-37 -28 -90 -39t-84 -11q-123 0 -197.5 66.5t-74.5 187.5q0 118 69 187.5t181 69.5zM284 377q-34 0 -58 -22t-31 -62h177q-7 38 -29 61t-59 23z" />
    <glyph glyph-name="igrave" unicode="&#xec;" horiz-adv-x="271" 
d="M-1 764h149l63 -176h-112zM208 485v-485h-147v485h147z" />
    <glyph glyph-name="iacute" unicode="&#xed;" horiz-adv-x="271" 
d="M123 764h150l-102 -176h-113zM208 485v-485h-147v485h147z" />
    <glyph glyph-name="icircumflex" unicode="&#xee;" horiz-adv-x="271" 
d="M76 588h-140l158 176h82l160 -176h-137q-15 16 -30.5 32t-30.5 32q-16 -16 -31.5 -32t-30.5 -32zM208 485v-485h-147v485h147z" />
    <glyph glyph-name="idieresis" unicode="&#xef;" horiz-adv-x="271" 
d="M107 673q0 -30 -20.5 -50t-50.5 -20q-28 0 -48.5 20t-20.5 50q0 29 20.5 50t48.5 21q30 0 50.5 -21t20.5 -50zM305 673q0 -30 -20.5 -50t-50.5 -20q-29 0 -50 20t-21 50q0 29 21 50t50 21q30 0 50.5 -21t20.5 -50zM208 485v-485h-147v485h147z" />
    <glyph glyph-name="eth" unicode="&#xf0;" horiz-adv-x="578" 
d="M420 611l-37 -29q64 -61 105 -143t41 -174q0 -138 -77.5 -207.5t-192.5 -69.5q-102 0 -165 66.5t-63 152.5q0 84 64 143t164 59q26 0 54 -10.5t53 -26.5q-13 37 -36.5 70t-51.5 59l-97 -75l-64 90l66 51q-21 11 -42 19t-40 12l67 100q31 -6 62 -19t62 -29l66 52zM263 107
q52 0 83.5 33.5t40.5 90.5q-14 27 -45.5 50.5t-73.5 23.5q-47 0 -72 -31.5t-25 -71.5q0 -35 24.5 -65t67.5 -30z" />
    <glyph glyph-name="ntilde" unicode="&#xf1;" horiz-adv-x="595" 
d="M230 600h-100q0 75 36 104t79 29q34 0 58 -17t50 -17q10 0 18 9.5t8 20.5h94q0 -75 -35 -104.5t-78 -29.5q-35 0 -56.5 17.5t-47.5 17.5q-10 0 -18 -10t-8 -20zM354 503q100 0 142.5 -57.5t42.5 -142.5v-303h-147v297q0 40 -20.5 61.5t-56.5 21.5q-24 0 -53.5 -12.5
t-53.5 -28.5v-339h-147v485h76l39 -49q32 28 82 47.5t96 19.5z" />
    <glyph glyph-name="ograve" unicode="&#xf2;" horiz-adv-x="597" 
d="M173 764h150l64 -175h-113zM298 499q120 0 190.5 -69.5t70.5 -190.5q0 -118 -75 -184.5t-193 -66.5q-116 0 -184.5 67.5t-68.5 188.5q0 119 72 187t188 68zM293 112q51 0 82.5 30.5t31.5 96.5q0 62 -28 99.5t-79 37.5t-80.5 -33t-29.5 -98q0 -64 26 -98.5t77 -34.5z" />
    <glyph glyph-name="oacute" unicode="&#xf3;" horiz-adv-x="597" 
d="M276 764h148l-100 -175h-113zM298 499q120 0 190.5 -69.5t70.5 -190.5q0 -118 -75 -184.5t-193 -66.5q-116 0 -184.5 67.5t-68.5 188.5q0 119 72 187t188 68zM293 112q51 0 82.5 30.5t31.5 96.5q0 62 -28 99.5t-79 37.5t-80.5 -33t-29.5 -98q0 -64 26 -98.5t77 -34.5z
" />
    <glyph glyph-name="ocircumflex" unicode="&#xf4;" horiz-adv-x="597" 
d="M236 589h-141l160 175h82l160 -175h-137l-61 64zM298 499q120 0 190.5 -69.5t70.5 -190.5q0 -118 -75 -184.5t-193 -66.5q-116 0 -184.5 67.5t-68.5 188.5q0 119 72 187t188 68zM293 112q51 0 82.5 30.5t31.5 96.5q0 62 -28 99.5t-79 37.5t-80.5 -33t-29.5 -98
q0 -64 26 -98.5t77 -34.5z" />
    <glyph glyph-name="otilde" unicode="&#xf5;" horiz-adv-x="597" 
d="M223 600h-100q0 75 35.5 104t78.5 29q34 0 58 -17t49 -17q11 0 18.5 9.5t7.5 20.5h96q0 -75 -35.5 -104.5t-78.5 -29.5q-34 0 -56.5 17.5t-47.5 17.5q-10 0 -17.5 -10t-7.5 -20zM298 499q120 0 190.5 -69.5t70.5 -190.5q0 -118 -75 -184.5t-193 -66.5q-116 0 -184.5 67.5
t-68.5 188.5q0 119 72 187t188 68zM293 112q51 0 82.5 30.5t31.5 96.5q0 62 -28 99.5t-79 37.5t-80.5 -33t-29.5 -98q0 -64 26 -98.5t77 -34.5z" />
    <glyph glyph-name="odieresis" unicode="&#xf6;" horiz-adv-x="597" 
d="M268 673q0 -29 -20.5 -49.5t-50.5 -20.5q-28 0 -49 20.5t-21 49.5q0 30 21 50.5t49 20.5q30 0 50.5 -20.5t20.5 -50.5zM466 673q0 -29 -20 -49.5t-51 -20.5q-28 0 -49.5 20.5t-21.5 49.5q0 30 21.5 50.5t49.5 20.5q31 0 51 -20.5t20 -50.5zM298 499q120 0 190.5 -69.5
t70.5 -190.5q0 -118 -75 -184.5t-193 -66.5q-116 0 -184.5 67.5t-68.5 188.5q0 119 72 187t188 68zM293 112q51 0 82.5 30.5t31.5 96.5q0 62 -28 99.5t-79 37.5t-80.5 -33t-29.5 -98q0 -64 26 -98.5t77 -34.5z" />
    <glyph glyph-name="divide" unicode="&#xf7;" horiz-adv-x="485" 
d="M324 444q0 -34 -24.5 -57.5t-58.5 -23.5t-58 23.5t-24 57.5t24 58t58 24t58.5 -24t24.5 -58zM467 218h-440l-10 112h440zM324 98q0 -34 -24.5 -58t-58.5 -24t-58 24t-24 58t24 58t58 24t58.5 -24t24.5 -58z" />
    <glyph glyph-name="oslash" unicode="&#xf8;" horiz-adv-x="597" 
d="M38 244q0 118 71.5 186.5t187.5 68.5q121 0 191 -69.5t70 -190.5q0 -118 -75 -184t-193 -66q-116 0 -184 66.5t-68 188.5zM300 378q-52 0 -82.5 -34.5t-30.5 -98.5q0 -18 2 -34t6 -29l111 196h-6zM409 239q0 17 -3 33.5t-7 29.5q-28 -49 -56 -96.5t-56 -96.5
q53 0 87.5 31t34.5 99z" />
    <glyph glyph-name="ugrave" unicode="&#xf9;" horiz-adv-x="588" 
d="M161 764h149l65 -175h-112zM238 -19q-100 0 -141.5 58t-41.5 142v304h148v-298q0 -40 19.5 -61.5t55.5 -21.5q23 0 50.5 11.5t50.5 26.5v343h147v-485h-76l-37 46q-32 -27 -80.5 -46t-94.5 -19z" />
    <glyph glyph-name="uacute" unicode="&#xfa;" horiz-adv-x="588" 
d="M272 764h150l-102 -175h-112zM238 -19q-100 0 -141.5 58t-41.5 142v304h148v-298q0 -40 19.5 -61.5t55.5 -21.5q23 0 50.5 11.5t50.5 26.5v343h147v-485h-76l-37 46q-32 -27 -80.5 -46t-94.5 -19z" />
    <glyph glyph-name="ucircumflex" unicode="&#xfb;" horiz-adv-x="588" 
d="M233 589h-141l160 175h82l160 -175h-137l-61 64zM238 -19q-100 0 -141.5 58t-41.5 142v304h148v-298q0 -40 19.5 -61.5t55.5 -21.5q23 0 50.5 11.5t50.5 26.5v343h147v-485h-76l-37 46q-32 -27 -80.5 -46t-94.5 -19z" />
    <glyph glyph-name="udieresis" unicode="&#xfc;" horiz-adv-x="588" 
d="M463 673q0 -29 -20 -49.5t-50 -20.5q-29 0 -50 20.5t-21 49.5q0 30 21 50.5t50 20.5q30 0 50 -20.5t20 -50.5zM265 673q0 -29 -20 -49.5t-50 -20.5q-29 0 -50.5 20.5t-21.5 49.5q0 30 21.5 50.5t50.5 20.5q30 0 50 -20.5t20 -50.5zM238 -19q-100 0 -141.5 58t-41.5 142
v304h148v-298q0 -40 19.5 -61.5t55.5 -21.5q23 0 50.5 11.5t50.5 26.5v343h147v-485h-76l-37 46q-32 -27 -80.5 -46t-94.5 -19z" />
    <glyph glyph-name="yacute" unicode="&#xfd;" horiz-adv-x="523" 
d="M233 764h150l-102 -176h-113zM166 -16l17 41l-176 442l148 18l54 -144t53 -144l102 288h152l-216 -546q-24 -59 -83 -101.5t-126 -58.5l-51 119q36 14 75 35t51 51z" />
    <glyph glyph-name="thorn" unicode="&#xfe;" horiz-adv-x="591" 
d="M401 246q0 52 -24 93t-88 41q-20 0 -40 -7t-37 -17v-216q18 -13 40 -21t42 -8q59 0 83 44.5t24 90.5zM212 699v-227q28 15 58 23t57 8q111 0 168 -73.5t57 -182.5q0 -110 -57.5 -184t-170.5 -74q-25 0 -55 8t-57 21v-227l-146 -10v909z" />
    <glyph glyph-name="ydieresis" unicode="&#xff;" horiz-adv-x="523" 
d="M432 673q0 -30 -20 -50t-50 -20q-29 0 -50 20t-21 50q0 29 21 50t50 21q30 0 50 -21t20 -50zM235 673q0 -30 -21 -50t-51 -20q-28 0 -49.5 20t-21.5 50q0 29 21.5 50t49.5 21q30 0 51 -21t21 -50zM166 -16l17 41l-176 442l148 18l54 -144t53 -144l102 288h152l-216 -546
q-24 -59 -83 -101.5t-126 -58.5l-51 119q36 14 75 35t51 51z" />
    <glyph glyph-name="Amacron" unicode="&#x100;" horiz-adv-x="671" 
d="M194 879h272v-116h-272v116zM333 489l-81 -220h164zM403 680l260 -662l-146 -18l-57 151h-250l-56 -151h-147l262 680h134z" />
    <glyph glyph-name="amacron" unicode="&#x101;" horiz-adv-x="514" 
d="M126 729h271v-116h-271v116zM219 106q23 0 47 10.5t46 30.5v61h-84q-29 0 -45 -17t-16 -40q0 -18 15 -31.5t37 -13.5zM251 499q91 0 149.5 -52t58.5 -134v-313h-72l-32 40q-25 -22 -61.5 -37t-74.5 -15q-90 0 -133.5 44.5t-43.5 116.5q0 76 51.5 115t134.5 39h83
q-2 31 -21.5 49t-51.5 18q-31 0 -69 -9t-66 -22l-39 116q31 18 89 31t98 13z" />
    <glyph glyph-name="Abreve" unicode="&#x102;" horiz-adv-x="671" 
d="M333 739q-78 1 -118 51t-40 121h102q0 -25 13 -45.5t43 -20.5q29 0 43 20.5t14 45.5h101q0 -71 -40 -121t-118 -51zM333 489l-81 -220h164zM403 680l260 -662l-146 -18l-57 151h-250l-56 -151h-147l262 680h134z" />
    <glyph glyph-name="abreve" unicode="&#x103;" horiz-adv-x="514" 
d="M258 589q-78 1 -118.5 51t-40.5 121h103q0 -25 12.5 -45.5t43.5 -20.5q29 0 42.5 20.5t13.5 45.5h102q0 -71 -40.5 -121t-117.5 -51zM219 106q23 0 47 10.5t46 30.5v61h-84q-29 0 -45 -17t-16 -40q0 -18 15 -31.5t37 -13.5zM251 499q91 0 149.5 -52t58.5 -134v-313h-72
l-32 40q-25 -22 -61.5 -37t-74.5 -15q-90 0 -133.5 44.5t-43.5 116.5q0 76 51.5 115t134.5 39h83q-2 31 -21.5 49t-51.5 18q-31 0 -69 -9t-66 -22l-39 116q31 18 89 31t98 13z" />
    <glyph glyph-name="Aogonek" unicode="&#x104;" horiz-adv-x="671" 
d="M515 3l-28 74t-27 74h-251l-55 -151h-147l262 680h133l261 -663q-16 -13 -40 -45.5t-24 -52.5q0 -12 7 -21t23 -9q7 0 18.5 4.5t23.5 13.5l45 -87q-22 -19 -49.5 -28t-59.5 -9q-59 0 -93 37.5t-34 86.5q0 23 9.5 51t25.5 45zM332 488q-20 -54 -40 -109.5t-41 -110.5h165z
" />
    <glyph glyph-name="aogonek" unicode="&#x105;" horiz-adv-x="514" 
d="M251 499q91 0 149.5 -52t58.5 -134v-313q-13 -15 -24 -38t-11 -44q0 -11 7 -20t23 -9q7 0 18 4t24 14l45 -87q-21 -19 -49.5 -28.5t-60.5 -9.5q-58 0 -92 37.5t-34 86.5q0 40 17.5 72t38.5 54l-6 8q-25 -22 -61.5 -37t-74.5 -15q-90 0 -133.5 44.5t-43.5 116.5
q0 76 51.5 115t134.5 39h83q-2 31 -21.5 49t-51.5 18q-31 0 -69 -9t-66 -22l-39 116q31 18 89 31t98 13zM219 106q23 0 47 10.5t46 30.5v61h-84q-29 0 -45 -17t-16 -40q0 -18 15 -31.5t37 -13.5z" />
    <glyph glyph-name="Cacute" unicode="&#x106;" horiz-adv-x="597" 
d="M336 913h148l-100 -174h-112zM364 571q-74 0 -117 -63t-43 -170q0 -98 39 -163.5t118 -65.5q42 0 78 9.5t65 23.5l55 -110q-39 -21 -94 -33.5t-101 -12.5q-161 0 -237 101t-76 250q0 157 82.5 257t232.5 100q37 0 90.5 -11.5t96.5 -36.5l-45 -103q-47 15 -75 21.5
t-69 6.5z" />
    <glyph glyph-name="cacute" unicode="&#x107;" horiz-adv-x="486" 
d="M270 764h150l-102 -175h-112zM300 376q-49 0 -79.5 -37.5t-30.5 -96.5t30.5 -94.5t79.5 -35.5q31 0 56 7t59 23l41 -104q-36 -28 -84 -39t-79 -11q-118 0 -186.5 68t-68.5 186t68.5 187.5t186.5 69.5q31 0 78.5 -11t84.5 -39l-41 -104q-34 16 -59 23.5t-56 7.5z" />
    <glyph glyph-name="Ccaron" unicode="&#x10c;" horiz-adv-x="597" 
d="M163 915h141l62 -64l62 64h137l-160 -176h-83zM364 571q-74 0 -117 -63t-43 -170q0 -98 39 -163.5t118 -65.5q42 0 78 9.5t65 23.5l55 -110q-39 -21 -94 -33.5t-101 -12.5q-161 0 -237 101t-76 250q0 157 82.5 257t232.5 100q37 0 90.5 -11.5t96.5 -36.5l-45 -103
q-47 15 -75 21.5t-69 6.5z" />
    <glyph glyph-name="ccaron" unicode="&#x10d;" horiz-adv-x="486" 
d="M73 764h141l62 -64l63 64h136l-160 -175h-82zM300 376q-49 0 -79.5 -37.5t-30.5 -96.5t30.5 -94.5t79.5 -35.5q31 0 56 7t59 23l41 -104q-36 -28 -84 -39t-79 -11q-118 0 -186.5 68t-68.5 186t68.5 187.5t186.5 69.5q31 0 78.5 -11t84.5 -39l-41 -104q-34 16 -59 23.5
t-56 7.5z" />
    <glyph glyph-name="Dcaron" unicode="&#x10e;" horiz-adv-x="708" 
d="M122 914h141q15 -16 30.5 -32t31.5 -32q15 16 30.5 32t31.5 32h136l-159 -175h-83zM342 0h-263v680h263q159 0 238 -94.5t79 -241.5q0 -158 -85 -251t-232 -93zM344 559h-119v-439h112q76 0 123 52.5t47 171.5q0 99 -40 157t-123 58z" />
    <glyph glyph-name="dcaron" unicode="&#x10f;" horiz-adv-x="786" 
d="M776 647q0 -57 -40 -116t-101 -89l-30 68q22 17 39.5 35t23.5 44q-19 4 -36 25.5t-17 47.5q0 28 23 54t57 26q33 0 57 -26t24 -69zM301 112q19 0 42 8t42 20v206q-19 15 -43 24.5t-46 9.5q-59 0 -82.5 -44t-23.5 -90q0 -53 24 -93.5t87 -40.5zM533 706v-706h-76l-35 48
q-29 -25 -71.5 -42.5t-88.5 -17.5q-110 0 -167 73.5t-57 182.5q0 110 59.5 184.5t172.5 74.5q25 0 56 -8t59 -23v223z" />
    <glyph glyph-name="Dcroat" unicode="&#x110;" horiz-adv-x="716" 
d="M349 0h-263v284h-61q-4 28 -7 57t-6 57h74v282h263q160 0 238.5 -94.5t78.5 -241.5q0 -158 -84.5 -251t-232.5 -93zM325 284h-92v-164h111q76 0 123.5 52.5t47.5 171.5q0 99 -40.5 157t-124.5 58h-117v-161h80z" />
    <glyph glyph-name="dcroat" unicode="&#x111;" horiz-adv-x="598" 
d="M189 245q0 -53 24 -93.5t87 -40.5q19 0 42.5 8.5t42.5 19.5v207q-20 14 -44 24t-45 10q-60 0 -83.5 -44.5t-23.5 -90.5zM590 540h-58v-540h-76l-34 47q-29 -25 -72 -41.5t-88 -16.5q-110 0 -167 73t-57 182q0 110 59 184.5t172 74.5q26 0 57 -8.5t59 -23.5v69h-80
l-14 100h94v55l147 11v-66h45q4 -25 7 -50z" />
    <glyph glyph-name="Emacron" unicode="&#x112;" horiz-adv-x="583" 
d="M157 879h272v-116h-272v116zM563 0h-484v680h421l19 -116h-293v-163h191l19 -116h-210v-170h317z" />
    <glyph glyph-name="emacron" unicode="&#x113;" horiz-adv-x="548" 
d="M146 729h271v-116h-271v116zM288 499q114 0 169 -75t55 -178v-48h-316q10 -41 41.5 -64t80.5 -23q33 0 61.5 7.5t61.5 23.5l43 -104q-37 -28 -90 -39t-84 -11q-123 0 -197.5 66.5t-74.5 187.5q0 118 69 187.5t181 69.5zM284 377q-34 0 -58 -22t-31 -62h177q-7 38 -29 61
t-59 23z" />
    <glyph glyph-name="Edotaccent" unicode="&#x116;" horiz-adv-x="583" 
d="M375 823q0 -34 -22 -56.5t-56 -22.5q-33 0 -56.5 22.5t-23.5 56.5q0 33 23.5 56.5t56.5 23.5q34 0 56 -23.5t22 -56.5zM562 0h-483v680h421q4 -29 9 -58l10 -58h-294v-164h191l20 -116h-211v-170h317z" />
    <glyph glyph-name="edotaccent" unicode="&#x117;" horiz-adv-x="548" 
d="M363 673q0 -34 -22 -56.5t-56 -22.5q-33 0 -56.5 22.5t-23.5 56.5t23.5 57t56.5 23q34 0 56 -23t22 -57zM288 499q114 0 169 -75t55 -178v-48h-316q10 -41 41.5 -64t80.5 -23q33 0 61.5 7.5t61.5 23.5l43 -104q-37 -28 -90 -39t-84 -11q-123 0 -197.5 66.5t-74.5 187.5
q0 118 69 187.5t181 69.5zM284 377q-34 0 -58 -22t-31 -62h177q-7 38 -29 61t-59 23z" />
    <glyph glyph-name="Eogonek" unicode="&#x118;" horiz-adv-x="583" 
d="M562 0h-77q-12 -14 -23.5 -38t-11.5 -43q0 -12 7.5 -21t22.5 -9q7 0 18.5 4.5t23.5 13.5l45 -87q-22 -19 -49.5 -28t-59.5 -9q-59 0 -92.5 37.5t-33.5 86.5q0 19 9 47.5t21 45.5h-283v680h421q4 -29 9 -58l10 -58h-294v-164h191l20 -116h-211v-170h317z" />
    <glyph glyph-name="eogonek" unicode="&#x119;" horiz-adv-x="548" 
d="M288 499q114 0 169 -75t55 -178v-48h-316q10 -41 41.5 -64t80.5 -23q33 0 61.5 7.5t61.5 23.5l43 -104q-16 -12 -36.5 -21t-41.5 -15q-13 -14 -24.5 -39t-11.5 -45q0 -11 6.5 -20t22.5 -9q8 0 19 4t23 14l45 -87q-22 -19 -49.5 -28.5t-59.5 -9.5q-58 0 -92 37.5t-34 86.5
q0 17 6.5 41t16.5 43q-108 9 -172 74t-64 178q0 118 69 187.5t181 69.5zM284 377q-34 0 -58 -22t-31 -62h177q-7 38 -29 61t-59 23z" />
    <glyph glyph-name="Ecaron" unicode="&#x11a;" horiz-adv-x="583" 
d="M91 914h141q16 -16 31.5 -32t30.5 -32q16 16 31.5 32t30.5 32h137l-80 -88t-80 -87h-82q-40 43 -80 87zM562 0h-483v680h421q4 -29 9 -58l10 -58h-294v-164h191l20 -116h-211v-170h317z" />
    <glyph glyph-name="ecaron" unicode="&#x11b;" horiz-adv-x="548" 
d="M84 764h141l63 -64l61 64h137l-159 -175h-83zM288 499q114 0 169 -75t55 -178v-48h-316q10 -41 41.5 -64t80.5 -23q33 0 61.5 7.5t61.5 23.5l43 -104q-37 -28 -90 -39t-84 -11q-123 0 -197.5 66.5t-74.5 187.5q0 118 69 187.5t181 69.5zM284 377q-34 0 -58 -22t-31 -62
h177q-7 38 -29 61t-59 23z" />
    <glyph glyph-name="Gbreve" unicode="&#x11e;" horiz-adv-x="663" 
d="M394 739q-78 1 -118 51t-40 121h103q0 -25 12.5 -45.5t42.5 -20.5t43.5 20.5t13.5 45.5h101q0 -71 -40 -121t-118 -51zM392 571q-81 0 -134.5 -58t-53.5 -175q0 -111 46 -170t127 -59q27 0 48.5 2.5t39.5 6.5v150h-133v111h265v-343q-40 -22 -99.5 -36t-119.5 -14
q-161 0 -244 99t-83 252q0 159 93 258t246 99q37 0 96 -11.5t102 -36.5l-46 -103q-47 15 -78 21.5t-72 6.5z" />
    <glyph glyph-name="gbreve" unicode="&#x11f;" horiz-adv-x="598" 
d="M293 588q-78 1 -118 51.5t-40 120.5h102q0 -25 13 -45.5t43 -20.5q24 0 40.5 20t16.5 46h102q0 -70 -40.5 -120.5t-118.5 -51.5zM189 245q0 -53 24 -93.5t87 -40.5q19 0 42.5 8.5t42.5 19.5v207q-20 14 -44 24t-45 10q-60 0 -83.5 -44.5t-23.5 -90.5zM532 484v-484
q0 -94 -62.5 -152t-191.5 -58q-31 0 -91 14t-101 42l44 103q46 -22 78 -31t67 -9q54 0 82 24t28 66v22q-28 -15 -60 -23.5t-63 -8.5q-110 0 -167 73t-57 182q0 110 59 184.5t172 74.5q37 0 81 -16.5t76 -42.5l31 40h75z" />
    <glyph glyph-name="Gcedilla" unicode="&#x122;" horiz-adv-x="663" 
d="M392 571q-81 0 -134.5 -58t-53.5 -175q0 -111 46 -170t127 -59q27 0 48.5 2.5t39.5 6.5v150h-133v111h265v-343q-30 -16 -73 -28.5t-90 -17.5l-8 -22q31 -12 49.5 -40t18.5 -54q0 -54 -40.5 -81.5t-90.5 -27.5q-23 0 -53 9t-49 24l32 79q13 -6 31.5 -12t31.5 -6
q12 0 22 3.5t10 13.5q0 15 -23 26.5t-63 16.5l27 70q-137 15 -207.5 111t-70.5 237q0 159 93 258t246 99q37 0 96 -11.5t102 -36.5l-46 -103q-47 15 -78 21.5t-72 6.5z" />
    <glyph glyph-name="gcedilla" unicode="&#x123;" horiz-adv-x="598" 
d="M199 636q0 56 38 105.5t92 74.5l30 -68q-13 -6 -29.5 -20.5t-21.5 -33.5q17 -4 34.5 -25.5t17.5 -48.5q0 -29 -23.5 -54.5t-56.5 -25.5q-34 0 -57.5 26.5t-23.5 69.5zM189 245q0 -53 24 -93.5t87 -40.5q19 0 42.5 8.5t42.5 19.5v207q-20 14 -44 24t-45 10
q-60 0 -83.5 -44.5t-23.5 -90.5zM532 484v-484q0 -94 -62.5 -152t-191.5 -58q-31 0 -91 14t-101 42l44 103q46 -22 78 -31.5t67 -9.5q54 0 82 24.5t28 66.5v22q-28 -15 -60 -23.5t-63 -8.5q-110 0 -167 73t-57 182q0 110 59 184.5t172 74.5q37 0 81 -16.5t76 -42.5l31 40h75
z" />
    <glyph glyph-name="Imacron" unicode="&#x12a;" horiz-adv-x="305" 
d="M14 879h272v-116h-272v116zM225 680v-680h-146v680h146z" />
    <glyph glyph-name="imacron" unicode="&#x12b;" horiz-adv-x="271" 
d="M0 729h270v-116h-270v116zM208 485v-485h-147v485h147z" />
    <glyph glyph-name="Iogonek" unicode="&#x12e;" horiz-adv-x="305" 
d="M225 680v-680q-20 -7 -37 -33t-17 -48q0 -12 7 -21t23 -9q7 0 18.5 4.5t23.5 13.5l45 -87q-22 -19 -49.5 -28t-59.5 -9q-59 0 -92.5 37.5t-33.5 86.5q0 19 8.5 47.5t17.5 45.5v680h146z" />
    <glyph glyph-name="iogonek" unicode="&#x12f;" horiz-adv-x="271" 
d="M217 634q0 -34 -24.5 -57.5t-58.5 -23.5t-57 23.5t-23 57.5t23 58t57 24t58.5 -24t24.5 -58zM208 485v-485h-10q-13 -14 -24.5 -38t-11.5 -43q0 -12 7.5 -21t23.5 -9q7 0 18 4.5t23 13.5l46 -87q-22 -19 -50 -28t-60 -9q-59 0 -93 37.5t-34 86.5q0 19 9 47.5t21 45.5h-12
v485h147z" />
    <glyph glyph-name="Idotaccent" unicode="&#x130;" horiz-adv-x="305" 
d="M226 823q0 -34 -22 -56.5t-56 -22.5q-33 0 -56.5 22.5t-23.5 56.5q0 33 23.5 56.5t56.5 23.5q34 0 56 -23.5t22 -56.5zM225 680v-680h-146v680h146z" />
    <glyph glyph-name="dotlessi" unicode="&#x131;" horiz-adv-x="271" 
d="M208 485v-485h-147v485h147z" />
    <glyph glyph-name="Kcedilla" unicode="&#x136;" horiz-adv-x="659" 
d="M217 680v-269l261 284l111 -84l-211 -228l281 -383h-185l-196 276l-61 -66v-210h-147v680h147zM412 -116q0 -57 -38 -106.5t-92 -73.5l-30 67q13 7 29 21.5t23 33.5q-18 4 -35 25.5t-17 48.5q0 29 23 54t57 25q33 0 56.5 -26t23.5 -69z" />
    <glyph glyph-name="kcedilla" unicode="&#x137;" horiz-adv-x="540" 
d="M212 706v-386l199 179q21 -26 42.5 -52t42.5 -51l-135 -113q43 -71 87.5 -142t87.5 -141h-165l-114 196q-11 -10 -22.5 -19.5t-22.5 -18.5v-158h-146v695zM360 -116q0 -57 -38.5 -106.5t-91.5 -73.5l-31 67q13 7 29.5 21.5t22.5 33.5q-17 4 -34.5 25.5t-17.5 48.5
q0 29 23 54t56 25q34 0 58 -26t24 -69z" />
    <glyph glyph-name="Lacute" unicode="&#x139;" horiz-adv-x="551" 
d="M158 912h147q-25 -43 -50 -87t-50 -87h-111q16 43 32 87t32 87zM541 0h-462v680h146v-566h297q4 -28 9 -57t10 -57z" />
    <glyph glyph-name="lacute" unicode="&#x13a;" horiz-adv-x="278" 
d="M140 868h149q-25 -37 -49 -74l-48 -74h-111q14 37 29 74zM212 691v-691h-146v680z" />
    <glyph glyph-name="Lcedilla" unicode="&#x13b;" horiz-adv-x="551" 
d="M541 0h-462v680h146v-566h297q4 -28 9 -57t10 -57zM395 -116q0 -57 -38 -106.5t-92 -73.5l-30 67q13 7 29.5 21.5t22.5 33.5q-18 4 -35 25.5t-17 48.5q0 29 22.5 54t56.5 25t57.5 -26t23.5 -69z" />
    <glyph glyph-name="lcedilla" unicode="&#x13c;" horiz-adv-x="278" 
d="M212 706v-706h-146v695zM225 -116q0 -57 -38 -106.5t-92 -73.5l-30 67q13 7 29.5 21.5t22.5 33.5q-18 4 -35 25.5t-17 48.5q0 29 23 54t57 25q33 0 56.5 -26t23.5 -69z" />
    <glyph glyph-name="Lcaron" unicode="&#x13d;" horiz-adv-x="551" 
d="M501 647q0 -57 -40 -116t-100 -88l-31 67q22 17 39 35t23 44q-17 4 -34 25.5t-17 47.5q0 29 22.5 54.5t56.5 25.5t57.5 -26t23.5 -69zM541 0h-462v680h147v-565h296z" />
    <glyph glyph-name="lcaron" unicode="&#x13e;" horiz-adv-x="466" 
d="M456 647q0 -57 -40.5 -116t-100.5 -89l-30 67q22 17 39 35.5t23 43.5q-18 4 -34.5 25.5t-16.5 48.5q0 28 22.5 54t55.5 26q34 0 58 -26.5t24 -68.5zM212 706v-706h-146v695z" />
    <glyph glyph-name="Lslash" unicode="&#x141;" horiz-adv-x="574" 
d="M563 0h-462v210q-10 -7 -20.5 -14.5t-20.5 -14.5l-56 104l97 69v326h147v-224q25 17 48.5 34.5t48.5 33.5l57 -104l-154 -107v-199h297z" />
    <glyph glyph-name="lslash" unicode="&#x142;" horiz-adv-x="306" 
d="M339 428q-28 -21 -57 -42t-57 -42v-344h-147v236q-16 -11 -32.5 -23t-32.5 -24q-11 28 -22.5 56.5t-23.5 56.5l111 83v310l147 11v-214l66 49z" />
    <glyph glyph-name="Nacute" unicode="&#x143;" horiz-adv-x="746" 
d="M360 912h148l-101 -174h-111q16 43 32 87t32 87zM666 680v-680h-143l-298 428v-428h-146v680h142l298 -432v432h147z" />
    <glyph glyph-name="nacute" unicode="&#x144;" horiz-adv-x="595" 
d="M274 764h148l-101 -175h-112zM354 503q100 0 142.5 -57.5t42.5 -142.5v-303h-147v297q0 40 -20.5 61.5t-56.5 21.5q-24 0 -53.5 -12.5t-53.5 -28.5v-339h-147v485h76l39 -49q32 28 82 47.5t96 19.5z" />
    <glyph glyph-name="Ncedilla" unicode="&#x145;" horiz-adv-x="746" 
d="M666 680v-680h-143l-298 428v-428h-146v680h142l298 -432v432h147zM457 -116q0 -57 -38 -106.5t-91 -73.5l-31 67q13 7 29.5 21.5t22.5 33.5q-17 4 -34 25.5t-17 48.5q0 29 22.5 54t55.5 25q34 0 57.5 -26t23.5 -69z" />
    <glyph glyph-name="ncedilla" unicode="&#x146;" horiz-adv-x="595" 
d="M354 503q100 0 142.5 -57.5t42.5 -142.5v-303h-147v297q0 40 -20.5 61.5t-56.5 21.5q-24 0 -53.5 -12.5t-53.5 -28.5v-339h-147v485h76l39 -49q32 28 82 47.5t96 19.5zM376 -117q0 -57 -38 -106.5t-91 -73.5l-31 68q13 6 29.5 20.5t22.5 33.5q-17 4 -34 25.5t-17 48.5
q0 29 22.5 54.5t56.5 25.5t57 -26.5t23 -69.5z" />
    <glyph glyph-name="Ncaron" unicode="&#x147;" horiz-adv-x="746" 
d="M175 914h140l63 -64q15 16 30.5 32t30.5 32h137l-159 -175h-83zM666 680v-680h-143l-298 428v-428h-146v680h142l298 -432v432h147z" />
    <glyph glyph-name="ncaron" unicode="&#x148;" horiz-adv-x="595" 
d="M108 764h142l62 -64l62 64h135l-159 -175h-82zM354 503q100 0 142.5 -57.5t42.5 -142.5v-303h-147v297q0 40 -20.5 61.5t-56.5 21.5q-24 0 -53.5 -12.5t-53.5 -28.5v-339h-147v485h76l39 -49q32 28 82 47.5t96 19.5z" />
    <glyph glyph-name="Omacron" unicode="&#x14c;" horiz-adv-x="742" 
d="M231 879h272v-116h-272v116zM370 695q162 0 241 -102.5t79 -248.5q0 -158 -84.5 -258t-235.5 -100q-160 0 -239.5 102.5t-79.5 248.5q0 157 84.5 257t234.5 101zM369 109q78 0 123.5 58t45.5 177q0 99 -39.5 163t-126.5 64q-75 0 -121.5 -63t-46.5 -170
q0 -100 39.5 -164.5t125.5 -64.5z" />
    <glyph glyph-name="omacron" unicode="&#x14d;" horiz-adv-x="597" 
d="M158 729h272v-116h-272v116zM298 499q120 0 190.5 -69.5t70.5 -190.5q0 -118 -75 -184.5t-193 -66.5q-116 0 -184.5 67.5t-68.5 188.5q0 119 72 187t188 68zM293 112q51 0 82.5 30.5t31.5 96.5q0 62 -28 99.5t-79 37.5t-80.5 -33t-29.5 -98q0 -64 26 -98.5t77 -34.5z" />
    <glyph glyph-name="Ohungarumlaut" unicode="&#x150;" horiz-adv-x="742" 
d="M474 913h137l-101 -174h-100zM278 913h137l-100 -174h-101zM370 695q162 0 241 -102.5t79 -248.5q0 -158 -84.5 -258t-235.5 -100q-160 0 -239.5 102.5t-79.5 248.5q0 157 84.5 257t234.5 101zM369 109q78 0 123.5 58t45.5 177q0 99 -39.5 163t-126.5 64
q-75 0 -121.5 -63t-46.5 -170q0 -100 39.5 -164.5t125.5 -64.5z" />
    <glyph glyph-name="ohungarumlaut" unicode="&#x151;" horiz-adv-x="597" 
d="M397 764h138l-102 -175h-102zM198 764h140l-102 -175h-102zM298 499q120 0 190.5 -69.5t70.5 -190.5q0 -118 -75 -184.5t-193 -66.5q-116 0 -184.5 67.5t-68.5 188.5q0 119 72 187t188 68zM293 112q51 0 82.5 30.5t31.5 96.5q0 62 -28 99.5t-79 37.5t-80.5 -33t-29.5 -98
q0 -64 26 -98.5t77 -34.5z" />
    <glyph glyph-name="OE" unicode="&#x152;" horiz-adv-x="1018" 
d="M379 571q-73 0 -124.5 -61.5t-51.5 -171.5q0 -98 44.5 -164t123.5 -66q41 0 76 9t67 25v401q-40 12 -66 20t-69 8zM996 0h-482v9q-34 -10 -71.5 -16t-68.5 -6q-161 0 -242 100t-81 250q0 157 88 256.5t238 99.5q27 0 63.5 -6.5t73.5 -19.5v13h420l20 -116h-294v-164h191
l20 -116h-211v-170h317z" />
    <glyph glyph-name="oe" unicode="&#x153;" horiz-adv-x="889" 
d="M629 499q116 0 171 -75t55 -178v-48h-317q10 -41 41 -64t81 -23q34 0 62.5 7.5t61.5 23.5l43 -104q-37 -28 -90 -39t-84 -11q-54 0 -100 13t-80 38q-35 -26 -80.5 -38.5t-85.5 -12.5q-123 0 -196 68t-73 186t73 187.5t196 69.5q41 0 85.5 -12t78.5 -37q31 24 71.5 36.5
t86.5 12.5zM627 377q-36 0 -59.5 -22t-30.5 -62h177q-7 38 -28.5 61t-58.5 23zM315 376q-58 0 -91.5 -37.5t-33.5 -96.5t33.5 -94.5t91.5 -35.5q24 0 44 4t43 14q-11 24 -16.5 52.5t-5.5 59.5q0 32 5.5 61t15.5 54q-22 9 -42 14t-44 5z" />
    <glyph glyph-name="Racute" unicode="&#x154;" horiz-adv-x="652" 
d="M278 912h148q-25 -43 -50 -87t-50 -87h-111zM311 560h-86v-199h88q53 0 87.5 24.5t34.5 73.5q0 53 -33 77t-91 24zM480 0q-34 60 -67 122t-66 122q-10 -1 -20 -1h-20h-82v-243h-146v680h237q112 0 192.5 -52t80.5 -165q0 -63 -30.5 -108.5t-77.5 -70.5
q40 -71 80.5 -142.5t80.5 -141.5h-162z" />
    <glyph glyph-name="racute" unicode="&#x155;" horiz-adv-x="370" 
d="M164 764h149l-102 -176h-112q16 44 32.5 88t32.5 88zM334 485l30 -118q-34 0 -76 -16t-80 -49v-302h-147v484h75l44 -64q30 25 72 45t82 20z" />
    <glyph glyph-name="Rcedilla" unicode="&#x156;" horiz-adv-x="652" 
d="M311 560h-86v-199h88q53 0 87.5 24.5t34.5 73.5q0 53 -33 77t-91 24zM480 0q-34 60 -67 122t-66 122q-10 -1 -20 -1h-20h-82v-243h-146v680h237q112 0 192.5 -52t80.5 -165q0 -63 -30.5 -108.5t-77.5 -70.5q40 -71 80.5 -142.5t80.5 -141.5h-162zM424 -116
q0 -57 -38 -106.5t-92 -73.5l-31 67q14 7 30.5 21.5t23.5 33.5q-19 4 -36 25.5t-17 48.5q0 29 22.5 54t56.5 25t57.5 -26t23.5 -69z" />
    <glyph glyph-name="rcedilla" unicode="&#x157;" horiz-adv-x="370" 
d="M334 485l30 -118q-34 0 -76 -16t-80 -49v-302h-147v484h75l44 -64q30 25 72 45t82 20zM219 -116q0 -57 -37.5 -106.5t-91.5 -73.5l-31 67q13 7 30 21.5t23 33.5q-19 4 -36 25.5t-17 48.5q0 29 23 54t57 25q33 0 56.5 -26t23.5 -69z" />
    <glyph glyph-name="Rcaron" unicode="&#x158;" horiz-adv-x="652" 
d="M103 914h141q16 -16 31.5 -32t30.5 -32l62 64h137l-80 -88t-80 -87h-83zM311 560h-86v-199h88q53 0 87.5 24.5t34.5 73.5q0 53 -33 77t-91 24zM480 0q-34 60 -67 122t-66 122q-10 -1 -20 -1h-20h-82v-243h-146v680h237q112 0 192.5 -52t80.5 -165q0 -63 -30.5 -108.5
t-77.5 -70.5q40 -71 80.5 -142.5t80.5 -141.5h-162z" />
    <glyph glyph-name="rcaron" unicode="&#x159;" horiz-adv-x="370" 
d="M-15 764h140l62 -64l62 64h137q-40 -44 -80.5 -88t-80.5 -88h-81zM334 485l30 -118q-34 0 -76 -16t-80 -49v-302h-147v484h75l44 -64q30 25 72 45t82 20z" />
    <glyph glyph-name="Sacute" unicode="&#x15a;" horiz-adv-x="556" 
d="M250 913h147l-100 -174h-111zM477 642l-47 -110q-39 16 -72.5 27t-73.5 11t-65.5 -16t-25.5 -46q0 -31 33.5 -53t86.5 -49q73 -37 139.5 -89.5t66.5 -138.5q0 -82 -68 -136.5t-192 -54.5q-46 0 -113 17.5t-95 39.5l39 116q29 -16 77 -31.5t89 -15.5q55 0 83 18.5t28 48.5
q0 29 -38 54t-84 47q-68 34 -135.5 86.5t-67.5 141.5q0 79 63.5 132.5t176.5 53.5q51 0 103 -15.5t92 -37.5z" />
    <glyph glyph-name="sacute" unicode="&#x15b;" horiz-adv-x="446" 
d="M206 764h149l-101 -175h-113zM249 307q61 -22 114 -60.5t53 -102.5q0 -73 -51 -114.5t-151 -41.5q-31 0 -87.5 14t-93.5 42l43 104q33 -16 68.5 -26t61.5 -10q30 0 45 8.5t15 20.5q0 16 -15.5 28.5t-49.5 23.5q-59 19 -112 55t-53 99q0 72 52.5 112t145.5 40
q30 0 81.5 -13t89.5 -41l-43 -104q-33 16 -64 25.5t-62 9.5q-24 0 -36 -8.5t-12 -21.5q0 -10 13.5 -18.5t47.5 -20.5z" />
    <glyph glyph-name="Scedilla" unicode="&#x15e;" horiz-adv-x="556" 
d="M42 507q1 81 64 134.5t176 53.5q51 0 103 -15.5t92 -37.5l-47 -110q-39 16 -72.5 27t-73.5 11t-65.5 -16t-25.5 -46q0 -31 33.5 -53t86.5 -49q73 -37 139.5 -89.5t66.5 -138.5q0 -73 -53.5 -124.5t-152.5 -62.5l-9 -23q31 -12 49.5 -40t18.5 -54q0 -54 -40 -81.5
t-90 -27.5q-23 0 -53 9t-49 24l32 79q13 -6 31.5 -12t30.5 -6q13 0 23 3.5t10 13.5q0 15 -23 26.5t-63 16.5l28 72q-44 7 -90 22t-68 31l39 116q29 -16 77 -31.5t89 -15.5q55 0 83 18.5t28 48.5q0 29 -38 54t-84 47q-71 36 -137 87.5t-66 138.5z" />
    <glyph glyph-name="scedilla" unicode="&#x15f;" horiz-adv-x="446" 
d="M249 307q61 -22 114 -60.5t53 -102.5t-39.5 -104t-115.5 -49l-9 -23q31 -12 49.5 -40t18.5 -54q0 -54 -40 -81.5t-90 -27.5q-23 0 -53 9t-49 24l32 79q13 -6 31.5 -12t31.5 -6q12 0 22 3.5t10 13.5q0 15 -23.5 26.5t-63.5 16.5l31 76q-32 6 -67 18t-59 31l43 104
q33 -16 68.5 -26t61.5 -10q30 0 45 8.5t15 20.5q0 16 -15.5 28.5t-49.5 23.5q-59 19 -112 55t-53 99q0 72 52.5 112t145.5 40q30 0 81.5 -13t89.5 -41l-43 -104q-33 16 -64 25.5t-62 9.5q-24 0 -36 -8.5t-12 -21.5q0 -10 13.5 -18.5t47.5 -20.5z" />
    <glyph glyph-name="Scaron" unicode="&#x160;" horiz-adv-x="556" 
d="M94 915h141l62 -64l61 64h137l-159 -176h-83zM477 642l-47 -110q-39 16 -72.5 27t-73.5 11t-65.5 -16t-25.5 -46q0 -31 33.5 -53t86.5 -49q73 -37 139.5 -89.5t66.5 -138.5q0 -82 -68 -136.5t-192 -54.5q-46 0 -113 17.5t-95 39.5l39 116q29 -16 77 -31.5t89 -15.5
q55 0 83 18.5t28 48.5q0 29 -38 54t-84 47q-68 34 -135.5 86.5t-67.5 141.5q0 79 63.5 132.5t176.5 53.5q51 0 103 -15.5t92 -37.5z" />
    <glyph glyph-name="scaron" unicode="&#x161;" horiz-adv-x="446" 
d="M24 764h141l63 -64l62 64h135l-159 -175h-82zM249 307q61 -22 114 -60.5t53 -102.5q0 -73 -51 -114.5t-151 -41.5q-31 0 -87.5 14t-93.5 42l43 104q33 -16 68.5 -26t61.5 -10q30 0 45 8.5t15 20.5q0 16 -15.5 28.5t-49.5 23.5q-59 19 -112 55t-53 99q0 72 52.5 112
t145.5 40q30 0 81.5 -13t89.5 -41l-43 -104q-33 16 -64 25.5t-62 9.5q-24 0 -36 -8.5t-12 -21.5q0 -10 13.5 -18.5t47.5 -20.5z" />
    <glyph glyph-name="Tcedilla" unicode="&#x162;" horiz-adv-x="594" 
d="M7 680h560l20 -116h-228v-564h-20l-12 -32q31 -12 49.5 -39.5t18.5 -53.5q0 -54 -40.5 -81.5t-90.5 -27.5q-22 0 -52.5 9t-49.5 23l33 80q12 -6 30.5 -12.5t31.5 -6.5q12 0 22 4t10 14q0 14 -23 26t-63 16q8 20 16 41t16 40h-23v564h-205v116z" />
    <glyph glyph-name="tcedilla" unicode="&#x163;" horiz-adv-x="403" 
d="M393 17q-15 -13 -41.5 -21.5t-51.5 -10.5l-6 -17q31 -12 49.5 -39.5t18.5 -53.5q0 -54 -39.5 -81.5t-90.5 -27.5q-23 0 -53.5 9t-49.5 23l33 80q12 -6 31 -12.5t32 -6.5q12 0 22 4t10 14q0 14 -23 26t-63 16q7 19 14.5 37.5t15.5 37.5q-64 18 -95 66t-31 126v177h-68v114
h68v121l147 23v-144h97l33 -114h-130v-178q0 -35 17.5 -57t51.5 -22q13 0 28.5 3.5t30.5 11.5q10 -26 21 -52.5t22 -51.5z" />
    <glyph glyph-name="Tcaron" unicode="&#x164;" horiz-adv-x="594" 
d="M95 914h140l63 -64q15 16 30.5 32t30.5 32h137l-159 -175h-83zM7 680h560l20 -116h-228v-564h-147v564h-205v116z" />
    <glyph glyph-name="tcaron" unicode="&#x165;" horiz-adv-x="568" 
d="M558 647q0 -57 -40 -116t-100 -89l-31 68q22 17 39 35t24 44q-18 4 -35.5 25.5t-17.5 47.5q0 28 23.5 54t56.5 26t57 -26t24 -69zM283 -17q-90 0 -148.5 46t-58.5 135v200h-69v114h69v120l146 24v-144h98l32 -114h-130v-178q0 -35 18 -57.5t52 -22.5q13 0 28 4t30 11
l43 -104q-17 -14 -50 -24t-60 -10z" />
    <glyph glyph-name="Umacron" unicode="&#x16a;" horiz-adv-x="719" 
d="M223 879h271v-116h-271v116zM219 680v-420q0 -78 39 -114.5t100 -36.5q63 0 101.5 37.5t38.5 113.5v420h147v-429q0 -117 -78 -189.5t-209 -72.5q-130 0 -208 71.5t-78 190.5v429h147z" />
    <glyph glyph-name="umacron" unicode="&#x16b;" horiz-adv-x="588" 
d="M151 729h272v-116h-272v116zM238 -19q-100 0 -141.5 58t-41.5 142v304h148v-298q0 -40 19.5 -61.5t55.5 -21.5q23 0 50.5 11.5t50.5 26.5v343h147v-485h-76l-37 46q-32 -27 -80.5 -46t-94.5 -19z" />
    <glyph glyph-name="Uring" unicode="&#x16e;" horiz-adv-x="719" 
d="M466 847q0 -46 -34 -74.5t-78 -28.5q-46 0 -79 28.5t-33 74.5q0 45 33 75.5t79 30.5q44 0 78 -30.5t34 -75.5zM390 847q0 15 -10 25t-25 10q-16 0 -26.5 -10t-10.5 -25q0 -14 10.5 -25.5t26.5 -11.5q15 0 25 11.5t10 25.5zM219 680v-420q0 -78 39 -114.5t100 -36.5
q63 0 101.5 37.5t38.5 113.5v420h147v-429q0 -117 -78 -189.5t-209 -72.5q-130 0 -208 71.5t-78 190.5v429h147z" />
    <glyph glyph-name="uring" unicode="&#x16f;" horiz-adv-x="588" 
d="M403 698q0 -46 -34 -75t-78 -29q-46 0 -79.5 29t-33.5 75q0 45 33.5 75.5t79.5 30.5q44 0 78 -30.5t34 -75.5zM326 698q0 15 -10 25t-25 10t-25.5 -10t-10.5 -25t10.5 -26t25.5 -11t25 11t10 26zM238 -19q-100 0 -141.5 58t-41.5 142v304h148v-298q0 -40 19.5 -61.5
t55.5 -21.5q23 0 50.5 11.5t50.5 26.5v343h147v-485h-76l-37 46q-32 -27 -80.5 -46t-94.5 -19z" />
    <glyph glyph-name="Uhungarumlaut" unicode="&#x170;" horiz-adv-x="719" 
d="M454 912h138q-25 -43 -50.5 -87t-50.5 -87h-101q16 43 32 87t32 87zM259 912h137l-101 -174h-100zM219 680v-420q0 -78 39 -114.5t100 -36.5q63 0 101.5 37.5t38.5 113.5v420h147v-429q0 -117 -78 -189.5t-209 -72.5q-130 0 -208 71.5t-78 190.5v429h147z" />
    <glyph glyph-name="uhungarumlaut" unicode="&#x171;" horiz-adv-x="588" 
d="M198 764h139l-101 -175h-103zM396 764h139l-102 -175h-102zM238 -19q-100 0 -141.5 58t-41.5 142v304h148v-298q0 -40 19.5 -61.5t55.5 -21.5q23 0 50.5 11.5t50.5 26.5v343h147v-485h-76l-37 46q-32 -27 -80.5 -46t-94.5 -19z" />
    <glyph glyph-name="Uogonek" unicode="&#x172;" horiz-adv-x="719" 
d="M219 680v-420q0 -78 39 -114.5t100 -36.5q63 0 101.5 37.5t38.5 113.5v420h147v-429q0 -92 -48 -157t-132 -91q-13 -12 -25.5 -38t-12.5 -46q0 -12 7 -21t23 -9q7 0 18.5 4.5t23.5 13.5l45 -87q-22 -19 -49.5 -28t-59.5 -9q-57 0 -92 37.5t-35 86.5q0 16 7 40t16 43
q-118 7 -188.5 78t-70.5 183v429h147z" />
    <glyph glyph-name="uogonek" unicode="&#x173;" horiz-adv-x="588" 
d="M238 -19q-100 0 -141.5 58t-41.5 142v304h148v-298q0 -40 19.5 -61.5t55.5 -21.5q23 0 50.5 11.5t50.5 26.5v343h147v-485q-13 -13 -24.5 -36.5t-11.5 -45.5q0 -11 7 -20t23 -9q7 0 18.5 4t23.5 14l45 -87q-22 -19 -49.5 -28.5t-59.5 -9.5q-59 0 -92.5 37.5t-33.5 86.5
q0 40 17 72.5t36 52.5l-12 15q-32 -27 -80.5 -46t-94.5 -19z" />
    <glyph glyph-name="Ydieresis" unicode="&#x178;" horiz-adv-x="626" 
d="M481 823q0 -29 -20 -49.5t-51 -20.5q-28 0 -49.5 20.5t-21.5 49.5q0 30 21.5 50.5t49.5 20.5q31 0 51 -20.5t20 -50.5zM283 823q0 -29 -20 -49.5t-50 -20.5q-29 0 -50.5 20.5t-21.5 49.5q0 30 21.5 50.5t50.5 20.5q30 0 50 -20.5t20 -50.5zM236 0v266l-229 397l152 17
l150 -271l157 271h153l-236 -418v-262h-147z" />
    <glyph glyph-name="Zacute" unicode="&#x179;" horiz-adv-x="587" 
d="M262 912h147q-25 -43 -50 -87t-50 -87h-111q16 43 32 87t32 87zM564 569l-374 -455h363l15 -114h-535l-16 109l364 455h-320l-15 116h502z" />
    <glyph glyph-name="zacute" unicode="&#x17a;" horiz-adv-x="460" 
d="M226 764h149l-102 -176h-112q16 44 32.5 88t32.5 88zM427 409l-218 -292h219l12 -117h-405l-18 77l217 296h-180l-22 119h388z" />
    <glyph glyph-name="Zdotaccent" unicode="&#x17b;" horiz-adv-x="587" 
d="M374 823q0 -34 -22 -56.5t-56 -22.5q-33 0 -56.5 22.5t-23.5 56.5q0 33 23.5 56.5t56.5 23.5q34 0 56 -23.5t22 -56.5zM564 569l-374 -455h363l15 -114h-535l-16 109l364 455h-320l-15 116h502z" />
    <glyph glyph-name="zdotaccent" unicode="&#x17c;" horiz-adv-x="460" 
d="M326 673q0 -34 -23 -56.5t-56 -22.5q-34 0 -57 22.5t-23 56.5q0 33 23 56.5t57 23.5q33 0 56 -23.5t23 -56.5zM427 409l-218 -292h219l12 -117h-405l-18 77l217 296h-180l-22 119h388z" />
    <glyph glyph-name="Zcaron" unicode="&#x17d;" horiz-adv-x="587" 
d="M99 914h140l63 -64q15 16 30.5 32t30.5 32h137l-159 -175h-83zM564 569l-374 -455h363l15 -114h-535l-16 109l364 455h-320l-15 116h502z" />
    <glyph glyph-name="zcaron" unicode="&#x17e;" horiz-adv-x="460" 
d="M37 764h141q15 -16 30.5 -32t31.5 -32q16 16 31.5 32t30.5 32h137l-160 -176h-82zM427 409l-218 -292h219l12 -117h-405l-18 77l217 296h-180l-22 119h388z" />
    <glyph glyph-name="florin" unicode="&#x192;" horiz-adv-x="405" 
d="M30 -123q-28 0 -61 10t-49 24l42 104q15 -7 31 -11t29 -4q34 0 49.5 22t15.5 57v273h-76v115h76v50q0 89 57.5 137t147.5 48q27 0 60 -10.5t49 -24.5l-42 -104q-16 7 -31.5 11t-27.5 4q-34 0 -50 -22t-16 -57v-32h106l33 -115h-139v-292q0 -87 -57 -135t-147 -48z" />
    <glyph glyph-name="Scommaaccent" unicode="&#x218;" horiz-adv-x="556" 
d="M42 507q1 81 64 134.5t176 53.5q51 0 103 -15.5t92 -37.5l-47 -110q-39 16 -72.5 27t-73.5 11t-65.5 -16t-25.5 -46q0 -31 33 -53t87 -50q73 -37 139.5 -89t66.5 -138q0 -82 -68 -136.5t-192 -54.5q-46 0 -113 17.5t-95 39.5l39 116q29 -16 77 -31.5t89 -15.5
q55 0 83 18.5t28 48.5q0 29 -38 54t-84 47q-71 36 -137 87.5t-66 138.5zM342 -117q0 -57 -38 -106.5t-91 -73.5l-31 68q13 6 29 20.5t23 33.5q-18 4 -35 25.5t-17 48.5q0 29 23 54.5t57 25.5q33 0 56.5 -26.5t23.5 -69.5z" />
    <glyph glyph-name="scommaaccent" unicode="&#x219;" horiz-adv-x="446" 
d="M249 307q61 -22 114 -60.5t53 -102.5q0 -73 -51 -114.5t-151 -41.5q-31 0 -87.5 14t-93.5 42l43 104q33 -16 68.5 -26t61.5 -10q30 0 45 8.5t15 20.5q0 16 -15.5 28.5t-49.5 23.5q-59 19 -112 55t-53 99q0 72 52.5 112t145.5 40q30 0 81.5 -13t89.5 -41l-43 -104
q-33 16 -64 25.5t-62 9.5q-24 0 -36 -8.5t-12 -21.5q0 -10 13.5 -18.5t47.5 -20.5zM302 -117q0 -57 -38 -106.5t-92 -73.5l-30 68q13 6 29.5 20.5t21.5 33.5q-17 4 -34.5 25.5t-17.5 48.5q0 29 23.5 54.5t56.5 25.5t57 -26.5t24 -69.5z" />
    <glyph glyph-name="uni021A" unicode="&#x21a;" horiz-adv-x="594" 
d="M7 680h560l20 -116h-228v-564h-147v564h-205v116zM367 -116q0 -57 -38 -106.5t-92 -73.5l-30 67q13 7 29.5 21.5t22.5 33.5q-18 4 -35.5 25.5t-17.5 48.5q0 29 23 54t57 25t57.5 -26t23.5 -69z" />
    <glyph glyph-name="uni021B" unicode="&#x21b;" horiz-adv-x="403" 
d="M283 -17q-90 0 -148.5 46t-58.5 135v200h-69v114h69v120l146 24v-144h98l32 -114h-130v-178q0 -35 18 -57.5t52 -22.5q13 0 28 4t30 11l43 -104q-17 -14 -50 -24t-60 -10zM344 -117q0 -57 -37.5 -106.5t-91.5 -73.5l-31 68q13 6 29.5 20.5t23.5 33.5q-18 4 -35.5 25.5
t-17.5 48.5q0 29 23 54.5t57 25.5q33 0 56.5 -26.5t23.5 -69.5z" />
    <glyph glyph-name="circumflex" unicode="&#x2c6;" horiz-adv-x="429" 
d="M155 589h-141l159 175h83l159 -175h-136l-62 64z" />
    <glyph glyph-name="caron" unicode="&#x2c7;" horiz-adv-x="429" 
d="M14 764h141l62 -64l62 64h136l-159 -175h-83z" />
    <glyph glyph-name="uni02C9" unicode="&#x2c9;" horiz-adv-x="299" 
d="M14 729h271v-116h-271v116z" />
    <glyph glyph-name="breve" unicode="&#x2d8;" horiz-adv-x="344" 
d="M172 589q-78 1 -118 51t-40 121h102q0 -25 13 -45.5t43 -20.5q29 0 43 20.5t14 45.5h101q0 -71 -40 -121t-118 -51z" />
    <glyph glyph-name="dotaccent" unicode="&#x2d9;" horiz-adv-x="187" 
d="M172 673q0 -34 -22 -56.5t-56 -22.5q-33 0 -56.5 22.5t-23.5 56.5t23.5 57t56.5 23q34 0 56 -23t22 -57z" />
    <glyph glyph-name="ring" unicode="&#x2da;" horiz-adv-x="246" 
d="M235 698q0 -46 -33.5 -75t-78.5 -29q-46 0 -79 29t-33 75q0 45 33 75.5t79 30.5q45 0 78.5 -30.5t33.5 -75.5zM159 698q0 15 -10 25t-25 10t-26 -10t-11 -25t11 -26t26 -11t25 11t10 26z" />
    <glyph glyph-name="ogonek" unicode="&#x2db;" horiz-adv-x="264" 
d="M48 5h124q-13 -13 -26.5 -39.5t-13.5 -47.5q0 -11 7.5 -20t23.5 -9q7 0 18 4t24 14l45 -87q-22 -19 -49.5 -28.5t-59.5 -9.5q-60 0 -93.5 37.5t-33.5 86.5q0 21 10.5 52t23.5 47z" />
    <glyph glyph-name="tilde" unicode="&#x2dc;" horiz-adv-x="370" 
d="M114 600h-99q0 75 35.5 104t77.5 29q35 0 59 -17t49 -17q10 0 18 9.5t8 20.5h94q0 -75 -34.5 -104.5t-77.5 -29.5q-34 0 -56.5 17.5t-47.5 17.5q-10 0 -18 -10t-8 -20z" />
    <glyph glyph-name="hungarumlaut" unicode="&#x2dd;" horiz-adv-x="429" 
d="M276 764h139l-102 -175h-101zM79 764h138l-101 -175h-102z" />
    <glyph glyph-name="pi" unicode="&#x3c0;" horiz-adv-x="748" 
d="M467 0v370h-186v-370h-146v370h-97v115h672v-115h-96v-370h-147z" />
    <glyph glyph-name="dv_CandrabinduInverted" unicode="&#x900;" horiz-adv-x="0" 
d="M511 937l-107 -66q-25 48 -64.5 70t-79.5 22t-81.5 -23.5t-63.5 -68.5l-107 66q40 80 109.5 113t142.5 33q72 0 141.5 -33t109.5 -113zM179 835q0 34 23.5 57.5t56.5 23.5q34 0 57.5 -23.5t23.5 -57.5q0 -33 -23.5 -56.5t-57.5 -23.5q-33 0 -56.5 23.5t-23.5 56.5z" />
    <glyph glyph-name="dv_Candrabindu" unicode="&#x901;" horiz-adv-x="0" 
d="M223 999q0 33 23.5 57t56.5 24q34 0 57.5 -24t23.5 -57q0 -34 -23.5 -57.5t-57.5 -23.5q-33 0 -56.5 23.5t-23.5 57.5zM304 751q-73 0 -142.5 33t-109.5 113l108 66q21 -45 62.5 -68.5t81.5 -23.5t79.5 22t64.5 70l107 -66q-40 -80 -109.5 -113t-141.5 -33z" />
    <glyph glyph-name="dv_Anusvara" unicode="&#x902;" horiz-adv-x="0" 
d="M13 853q0 34 23.5 58.5t57.5 24.5q35 0 59 -24.5t24 -58.5t-24 -58t-59 -24q-34 0 -57.5 24t-23.5 58z" />
    <glyph glyph-name="dv_Visarga" unicode="&#x903;" horiz-adv-x="222" 
d="M29 456q0 34 24 58t58 24t58.5 -24t24.5 -58t-24.5 -58t-58.5 -24t-58 24t-24 58zM29 120q0 33 24 57.5t58 24.5t58.5 -24.5t24.5 -57.5q0 -35 -24.5 -58.5t-58.5 -23.5t-58 23.5t-24 58.5z" />
    <glyph glyph-name="dv_ShortA" unicode="&#x904;" horiz-adv-x="975" 
d="M546 919q0 -29 16 -40t43 -11h71q81 0 137.5 -42.5t56.5 -103.5v-42h99l17 -122h-112v-574l-154 16v293h-213q20 -17 31 -45.5t11 -57.5q0 -87 -68 -146t-196 -59q-60 0 -120 15t-106 40l28 125q47 -28 93 -41.5t94 -13.5q49 0 84.5 22.5t35.5 64.5q0 46 -31.5 72
t-106.5 26h-101l-16 113h121q60 0 90 26.5t30 64.5q0 30 -25 52.5t-71 22.5q-45 0 -89 -13.5t-98 -46.5l-25 125q49 28 107 44t117 16q122 0 181 -56.5t59 -137.5q0 -25 -12.5 -52.5t-30.5 -44.5h227v150h-95l-17 122h120q0 30 -17 47.5t-45 17.5h-63q-87 1 -139.5 40.5
t-52.5 102.5v50z" />
    <glyph glyph-name="dv_A" unicode="&#x905;" horiz-adv-x="975" 
d="M720 0v293h-213q20 -17 31 -45.5t11 -57.5q0 -87 -68 -146t-196 -59q-60 0 -120 15t-106 40l28 125q47 -28 93 -41.5t94 -13.5q49 0 84.5 22.5t35.5 64.5q0 46 -31.5 72t-106.5 26h-101l-16 113h121q60 0 90 26.5t30 64.5q0 30 -25 52.5t-71 22.5q-45 0 -89 -13.5
t-98 -46.5l-25 125q49 28 107 44t117 16q122 0 181 -56.5t59 -137.5q0 -25 -12.5 -52.5t-30.5 -44.5h227v150h-95l-17 122h361l17 -122h-112v-574z" />
    <glyph glyph-name="dv_Aa" unicode="&#x906;" horiz-adv-x="1320" 
d="M1064 0v558h-191v-574l-153 16v293h-214q21 -18 31.5 -46.5t10.5 -57.5q0 -87 -67.5 -145.5t-195.5 -58.5q-60 0 -120 15t-106 40l27 124q47 -28 93.5 -41.5t94.5 -13.5q49 0 84 22.5t35 64.5q0 47 -31.5 73t-106.5 26h-100l-17 112h121q58 0 89 27.5t31 63.5
q0 31 -25 53t-71 22q-45 0 -88.5 -13.5t-98.5 -46.5l-24 126q49 28 106.5 44t117.5 16q121 0 180 -57t59 -138q0 -25 -12.5 -52.5t-30.5 -44.5h228v151h-96l-16 122h706l17 -122h-111v-574z" />
    <glyph glyph-name="dv_I" unicode="&#x907;" horiz-adv-x="566" 
d="M283 110q38 1 61 15.5t23 36.5q0 17 -11.5 29.5t-37.5 12.5h-87q-66 0 -122 42t-56 116q0 78 51 117.5t125 39.5h92v39h-319l-13 122h575l13 -122h-111v-166h-229q-18 0 -28.5 -8.5t-10.5 -21.5q0 -12 11.5 -22t29.5 -10h72q92 0 152.5 -38.5t60.5 -128.5
q0 -67 -58.5 -120t-162.5 -58q20 -27 40.5 -53t25.5 -33l-101 -72l-126 169q-31 15 -61 45.5t-30 74.5q0 31 21 50t52 19q37 0 68 -21t45 -51q11 -1 22.5 -2t23.5 -1z" />
    <glyph glyph-name="dv_Ii" unicode="&#x908;" horiz-adv-x="566" 
d="M283 110q38 1 61 15.5t23 36.5q0 17 -11.5 29.5t-37.5 12.5h-87q-66 0 -122 42t-56 116q0 78 51 117.5t125 39.5h92v39h-319l-13 122h303q-15 23 -24 56t-9 59q0 63 44.5 113t120.5 50q45 0 82 -17.5t55 -37.5l-59 -101q-14 13 -27.5 20t-29.5 7q-22 0 -35 -16t-13 -35
q0 -27 12.5 -53.5t26.5 -44.5h128l13 -122h-111v-166h-229q-18 0 -28.5 -8.5t-10.5 -21.5q0 -12 11.5 -22t29.5 -10h72q92 0 152.5 -38.5t60.5 -128.5q0 -67 -58.5 -120t-162.5 -58q20 -27 40.5 -53t25.5 -33l-101 -72l-126 169q-31 15 -61 45.5t-30 74.5q0 31 21 50t52 19
q37 0 68 -21t45 -51q11 -1 22.5 -2t23.5 -1z" />
    <glyph glyph-name="dv_U" unicode="&#x909;" horiz-adv-x="622" 
d="M633 558h-105q4 -12 6 -26t2 -27q0 -48 -23.5 -93.5t-69.5 -65.5q49 -14 78 -57t29 -96q0 -87 -69 -147.5t-196 -60.5q-59 0 -119 15t-106 40l28 125q46 -28 92 -41.5t94 -13.5q50 0 85 22.5t35 64.5q0 46 -32 72t-106 26h-101l-16 113h122q60 0 89.5 26.5t29.5 64.5
q0 18 -9 33.5t-26 25.5h-339l-17 122h627z" />
    <glyph glyph-name="dv_Uu" unicode="&#x90a;" horiz-adv-x="905" 
d="M640 273q-36 0 -57.5 -13.5t-37.5 -31.5q2 -8 3 -17t1 -18q0 -87 -68.5 -147.5t-196.5 -60.5q-58 0 -118 15t-107 40l28 125q47 -28 93 -41.5t94 -13.5q49 0 84 22.5t35 64.5q0 46 -31.5 72t-106.5 26h-100l-16 113h121q60 0 90 26.5t30 64.5q0 18 -9.5 33.5t-26.5 25.5
h-338l-17 122h910l17 -122h-389q4 -12 6.5 -26t2.5 -27q0 -48 -23.5 -93.5t-69.5 -65.5q9 -2 19.5 -7.5t17.5 -9.5q25 25 68 46.5t98 21.5q106 0 165 -57t59 -150q0 -103 -69 -155.5t-162 -53.5l-26 124q55 0 84 23.5t29 61.5q0 37 -23 60t-63 23z" />
    <glyph glyph-name="dv_VocalicR" unicode="&#x90b;" horiz-adv-x="920" 
d="M359 0v165l-197 -123l-83 114q59 36 118 72.5t118 71.5q-34 29 -61.5 39.5t-51.5 10.5q-10 0 -43.5 -10.5t-70.5 -27.5l-58 128q35 17 89.5 31t73.5 14q44 0 82 -8t84 -36v117h-354q-4 31 -8 61t-8 61h925l17 -122h-417v-194q28 3 66 12.5t50 19.5q-6 12 -9.5 26t-3.5 31
q0 37 22 54.5t51 17.5q47 0 85 -26.5t38 -70.5q0 -12 -3.5 -26t-11.5 -23q40 -43 59.5 -92t19.5 -85q0 -83 -51.5 -124.5t-129.5 -41.5q-30 0 -61 5t-57 15l34 119q33 -10 45.5 -12.5t30.5 -2.5q22 0 35.5 11.5t13.5 30.5q0 16 -7 40.5t-26 52.5q-28 -22 -89 -37t-101 -17
v-257z" />
    <glyph glyph-name="dv_VocalicL" unicode="&#x90c;" horiz-adv-x="872" 
d="M697 -52q10 0 30 2.5t44 10.5l25 -120q-27 -8 -55 -11t-54 -3q-64 0 -118 42t-54 120q0 55 29.5 94t72.5 56v164q-6 30 -23.5 48.5t-42.5 18.5q-29 0 -48 -28t-19 -71v-142l-136 14v128q0 43 -17.5 69.5t-59.5 26.5q-32 0 -52 -20t-20 -45q0 -45 21 -102t84 -184
l-131 -41q-60 115 -89 188t-29 149q0 75 62 129.5t151 54.5q45 0 83.5 -16.5t62.5 -41.5q24 26 59.5 42t79.5 16q16 0 33 -3t31 -10v75h-611l-17 122h877l17 -122h-111v-528h-81q-22 0 -35 -11.5t-13 -28.5q0 -19 14.5 -30.5t39.5 -11.5z" />
    <glyph glyph-name="dv_CandraE" unicode="&#x90d;" horiz-adv-x="752" 
d="M379 752q-72 0 -141 33t-109 113l107 66q22 -45 62.5 -68.5t80.5 -23.5t79 22.5t65 69.5l106 -66q-40 -81 -109 -113.5t-141 -32.5zM499 285v273h-244v-383q0 -23 6.5 -45t32.5 -38l249 -156l-74 -116l-268 159q-54 31 -77.5 72t-23.5 108v399h-94l-17 122h759l16 -122
h-110v-294q0 -75 -50 -120t-149 -78l-66 116q58 20 84 41t26 62z" />
    <glyph glyph-name="dv_ShortE" unicode="&#x90e;" horiz-adv-x="752" 
d="M230 919q0 -29 16 -40t44 -11h160q80 0 136.5 -42.5t56.5 -103.5v-42h105l16 -122h-110v-294q0 -75 -50 -120t-149 -78l-66 116q59 20 84.5 41t25.5 62v273h-244v-383q0 -23 6.5 -45t32.5 -38l249 -156l-74 -116l-268 159q-54 31 -77.5 72t-23.5 108v399h-94l-17 122h513
q0 30 -17 47.5t-45 17.5h-152q-87 0 -140 40t-53 103v50z" />
    <glyph glyph-name="dv_E" unicode="&#x90f;" horiz-adv-x="752" 
d="M499 285v273h-244v-383q0 -23 6.5 -45t32.5 -38l249 -156l-74 -116l-268 159q-54 31 -77.5 72t-23.5 108v399h-94l-17 122h759l16 -122h-110v-294q0 -75 -50 -120t-149 -78l-66 116q58 20 84 41t26 62z" />
    <glyph glyph-name="dv_Ai" unicode="&#x910;" horiz-adv-x="752" 
d="M499 285v273h-244v-383q0 -23 6.5 -45t32.5 -38l249 -156l-74 -116l-268 159q-54 31 -77.5 72t-23.5 108v399h-94l-17 122h462l-224 204l115 81l287 -285h119l16 -122h-110v-294q0 -75 -50 -120t-149 -78l-66 116q58 20 84 41t26 62z" />
    <glyph glyph-name="dv_CandraO" unicode="&#x911;" horiz-adv-x="1320" 
d="M1118 963l107 -65q-39 -81 -108 -113.5t-142 -32.5q-72 0 -141 32.5t-108 113.5l106 65q22 -45 63 -68.5t80 -23.5q40 0 79 22.5t64 69.5zM1064 0v558h-191v-574l-153 16v293h-214q21 -18 31.5 -46.5t10.5 -57.5q0 -87 -67.5 -145.5t-195.5 -58.5q-60 0 -120 15t-106 40
l27 124q47 -28 93.5 -41.5t94.5 -13.5q49 0 84 22.5t35 64.5q0 47 -31.5 73t-106.5 26h-100l-17 112h121q58 0 89 27.5t31 63.5q0 31 -25 53t-71 22q-45 0 -88.5 -13.5t-98.5 -46.5l-24 126q49 28 106.5 44t117.5 16q121 0 180 -57t59 -138q0 -25 -12.5 -52.5t-30.5 -44.5
h228v151h-96l-16 122h706l17 -122h-111v-574z" />
    <glyph glyph-name="dv_ShortO" unicode="&#x912;" horiz-adv-x="1320" 
d="M720 0v293h-213q20 -17 31 -45.5t11 -57.5q0 -87 -68 -146t-196 -59q-60 0 -120 15t-106 40l28 125q47 -28 93 -41.5t94 -13.5q49 0 84.5 22.5t35.5 64.5q0 46 -31.5 72t-106.5 26h-101l-16 113h121q60 0 90 26.5t30 64.5q0 30 -25 52.5t-71 22.5q-45 0 -89 -13.5
t-98 -46.5l-25 125q49 28 107 44t117 16q122 0 181 -56.5t59 -137.5q0 -25 -12.5 -52.5t-30.5 -44.5h227v150h-95l-17 122h463q0 30 -17 47.5t-46 17.5h-137q-87 0 -140 40t-53 103v50l136 -19q0 -29 15.5 -40t42.5 -11h147q80 0 136 -42.5t56 -103.5v-42h103l17 -122h-111
v-574l-155 16v558h-191v-574z" />
    <glyph glyph-name="dv_O" unicode="&#x913;" horiz-adv-x="1320" 
d="M720 0v293h-213q20 -17 31 -45.5t11 -57.5q0 -87 -68 -146t-196 -59q-60 0 -120 15t-106 40l28 125q47 -28 93 -41.5t94 -13.5q49 0 84.5 22.5t35.5 64.5q0 46 -31.5 72t-106.5 26h-101l-16 113h121q60 0 90 26.5t30 64.5q0 30 -25 52.5t-71 22.5q-45 0 -89 -13.5
t-98 -46.5l-25 125q49 28 107 44t117 16q122 0 181 -56.5t59 -137.5q0 -25 -12.5 -52.5t-30.5 -44.5h227v150h-95l-17 122h408l-223 204l115 81l287 -285h119l17 -122h-111v-574l-155 16v558h-191v-574z" />
    <glyph glyph-name="dv_Au" unicode="&#x914;" horiz-adv-x="1320" 
d="M720 0v293h-213q20 -17 31 -45.5t11 -57.5q0 -87 -68 -146t-196 -59q-60 0 -120 15t-106 40l28 125q47 -28 93 -41.5t94 -13.5q49 0 84.5 22.5t35.5 64.5q0 46 -31.5 72t-106.5 26h-101l-16 113h121q60 0 90 26.5t30 64.5q0 30 -25 52.5t-71 22.5q-45 0 -89 -13.5
t-98 -46.5l-25 125q49 28 107 44t117 16q122 0 181 -56.5t59 -137.5q0 -25 -12.5 -52.5t-30.5 -44.5h227v150h-95l-17 122h445q-24 24 -50.5 37.5t-77.5 13.5h-103l-29 131h126q27 0 51 -2t47 -12l-45 132l139 39l78 -339h125l17 -122h-111v-574l-155 16v558h-191v-574z" />
    <glyph glyph-name="dv_Ka" unicode="&#x915;" horiz-adv-x="916" 
d="M39 275q0 93 64.5 156t169.5 63q28 0 63 -10.5t48 -23.5v98h-379q-4 31 -8 61t-8 61h921l16 -122h-388v-97q12 11 46 22.5t62 11.5q106 0 171 -63t65 -157q0 -109 -75 -165.5t-168 -57.5q-8 32 -15.5 64.5t-15.5 64.5q54 0 88.5 26t34.5 69q0 40 -26 67t-66 27
q-43 0 -66 -18t-35 -36v-332l-154 16v90q-13 -13 -48 -23.5t-63 -10.5q-105 0 -169.5 63t-64.5 156zM288 181q36 0 60 16.5t36 34.5v85q-12 18 -36 35t-60 17q-40 0 -69.5 -27t-29.5 -68q0 -40 29.5 -66.5t69.5 -26.5z" />
    <glyph glyph-name="dv_Kha" unicode="&#x916;" horiz-adv-x="1001" 
d="M484 109q26 0 53 6t50 18q-60 19 -97.5 68t-37.5 112q0 85 58.5 143.5t155.5 58.5q22 0 44 -4t35 -10v57h-361q8 -24 12 -51t4 -47q0 -72 -35.5 -126t-92.5 -80q20 -46 72 -95.5t140 -49.5zM676 390q-30 0 -50.5 -20.5t-20.5 -54.5t21 -54t50 -20q34 0 51.5 23t17.5 51
q0 31 -18 53t-51 22zM745 0v65q-51 -40 -119 -62.5t-145 -22.5q-154 0 -244 79.5t-118 170.5q-40 0 -64 10t-28 37q0 51 43.5 98.5t91.5 47.5q16 0 29.5 -16t20.5 -35q18 11 30.5 37.5t12.5 52.5q0 28 -8 54t-24 42h-218q-4 31 -8 61t-8 61h1006l16 -122h-111v-574z" />
    <glyph glyph-name="dv_Ga" unicode="&#x917;" horiz-adv-x="730" 
d="M629 -16l-155 16v558h-186q0 -87 -0.5 -175t-0.5 -175q0 -39 -17 -61t-53 -22q-57 0 -107 48.5t-50 105.5q0 28 20.5 44.5t51.5 16.5v218h-127q-4 31 -8 61t-8 61h734l17 -122h-111v-574z" />
    <glyph glyph-name="dv_Gha" unicode="&#x918;" horiz-adv-x="735" 
d="M479 0v121q-29 -23 -79 -41.5t-100 -18.5q-103 0 -169.5 51t-66.5 150q0 40 17.5 77.5t43.5 58.5q-23 23 -36.5 55.5t-13.5 66.5q0 6 1.5 17t3.5 21h-75q-4 31 -8 61t-8 61h739l17 -122h-111v-574zM302 194q63 0 116 42.5t61 120.5v201h-241q-7 -6 -11 -18.5t-4 -22.5
q0 -26 20.5 -45t60.5 -19h53q6 -29 11.5 -59t10.5 -60h-62q-49 0 -73.5 -20t-24.5 -52t24 -50t59 -18z" />
    <glyph glyph-name="dv_Nga" unicode="&#x919;" horiz-adv-x="681" 
d="M517 354q0 34 24 58t58 24t58.5 -24t24.5 -58t-24.5 -58t-58.5 -24t-58 24t-24 58zM272 110q43 0 65.5 15t22.5 37q0 17 -11.5 29.5t-36.5 12.5h-84q-66 0 -122 42t-56 116q0 78 50.5 117.5t125.5 39.5h97v39h-317l-17 122h686l17 -122h-233v-166h-225q-18 0 -28.5 -8.5
t-10.5 -21.5q0 -12 11.5 -22t28.5 -10h69q92 0 152.5 -38.5t60.5 -128.5q0 -69 -61 -123.5t-176 -54.5q-59 0 -120 13.5t-107 38.5l27 125q47 -28 95 -40t97 -12z" />
    <glyph glyph-name="dv_Ca" unicode="&#x91a;" horiz-adv-x="736" 
d="M481 0v82q-25 -9 -59 -15t-60 -6q-99 0 -172.5 52.5t-73.5 153.5q0 22 4.5 41.5t12.5 37.5h-90l-16 121h363l18 -121h-42q-53 -1 -79.5 -21.5t-26.5 -57.5t30.5 -58.5t71.5 -21.5q34 0 71.5 19.5t47.5 48.5v303h-475l-17 122h741l17 -122h-112v-574z" />
    <glyph glyph-name="dv_Cha" unicode="&#x91b;" horiz-adv-x="832" 
d="M87 500q0 14 2.5 29t7.5 29h-91l-17 122h837l17 -122h-143v-57q43 -21 61.5 -62.5t18.5 -81.5q0 -126 -111.5 -249t-307.5 -123q-132 0 -209.5 58t-77.5 156q0 49 27.5 91.5t74.5 57.5q-44 22 -66.5 66t-22.5 86zM483 381q0 44 23.5 77t61.5 48v52h-287
q-18 -10 -27 -26.5t-9 -32.5q0 -37 27.5 -63.5t87.5 -26.5h24l15 -115h-32q-70 0 -102.5 -23.5t-32.5 -66.5q0 -40 39.5 -64t97.5 -24q82 0 144.5 39.5t90.5 88.5q-51 5 -86 42.5t-35 94.5z" />
    <glyph glyph-name="dv_Ja" unicode="&#x91c;" horiz-adv-x="826" 
d="M572 0v345h-106q5 -16 9 -35.5t4 -39.5q0 -116 -75 -171t-171 -55q-61 0 -119 20.5t-99 47.5l26 139q46 -37 93.5 -58t92.5 -21q49 0 78.5 26t29.5 66q0 33 -20.5 57t-68.5 24h-66l-18 120h410v93h-566l-17 122h832l17 -122h-112v-574z" />
    <glyph glyph-name="dv_Jha" unicode="&#x91d;" horiz-adv-x="901" 
d="M645 558h-180v-166h-229q-18 0 -28 -9t-10 -21t11.5 -22.5t28.5 -10.5h72q55 0 100 -13.5t73 -42.5q40 0 81 0.5t81 0.5v284zM645 0v162h-122q-10 -66 -60 -119t-161 -57q1 -1 2 -3l2 -4q22 -28 37 -47.5l25 -32.5l-101 -72l-125 169q-31 15 -61.5 45.5t-30.5 74.5
q0 31 21 50t52 19q37 0 68 -21.5t46 -51.5q10 -1 21.5 -2t23.5 -1q39 0 61.5 16t22.5 37q0 17 -11 29.5t-37 12.5h-88q-66 0 -121.5 42t-55.5 116q0 77 50.5 117t125.5 40h92v39h-316q-4 31 -8 61t-8 61h906l17 -122h-112v-574z" />
    <glyph glyph-name="dv_Nya" unicode="&#x91e;" horiz-adv-x="823" 
d="M230 183q43 0 71.5 27t28.5 72q0 42 -27.5 69.5t-71.5 27.5q-20 0 -48.5 -3.5t-62.5 -13.5l-34 119q45 16 81.5 20.5t67.5 4.5q84 0 148 -42.5t83 -124.5h101v219h-562q-4 31 -8 61t-8 61h828l17 -122h-113v-574l-154 16v216h-103q-18 -80 -81.5 -120t-147.5 -40
q-60 0 -117.5 20t-99.5 48l28 139q39 -38 88.5 -59t95.5 -21z" />
    <glyph glyph-name="dv_Tta" unicode="&#x91f;" horiz-adv-x="666" 
d="M378 109q48 0 100 12.5t103 48.5l24 -132q-42 -26 -105 -40.5t-127 -14.5q-124 0 -220.5 59t-96.5 195q0 125 98.5 188.5t229.5 63.5v69h-379q-4 31 -8 61t-8 61h671l16 -122h-137v-193q-39 0 -77.5 -0.5t-77.5 -0.5q-77 0 -128 -35t-51 -93q0 -73 55 -100t118 -27z" />
    <glyph glyph-name="dv_Ttha" unicode="&#x920;" horiz-adv-x="723" 
d="M57 236q0 107 65 168t165 77v77h-281l-17 122h728l17 -122h-291v-77q93 -15 160.5 -72t67.5 -171q0 -126 -90 -191t-218 -65q-118 0 -212 58.5t-94 195.5zM521 236q0 69 -48 97t-110 28q-70 0 -114 -35t-44 -92q0 -69 48.5 -97.5t109.5 -28.5q72 0 115 34.5t43 93.5z" />
    <glyph glyph-name="dv_Dda" unicode="&#x921;" horiz-adv-x="549" 
d="M272 110q43 0 65.5 15t22.5 37q0 17 -11.5 29.5t-36.5 12.5h-84q-66 0 -122 42t-56 116q0 78 50.5 117.5t125.5 39.5h97v39h-317l-17 122h554l17 -122h-101v-166h-225q-18 0 -28.5 -8.5t-10.5 -21.5q0 -12 11.5 -22t28.5 -10h69q92 0 152.5 -38.5t60.5 -128.5
q0 -69 -61 -123.5t-176 -54.5q-59 0 -120 13.5t-107 38.5l27 125q47 -28 95 -40t97 -12z" />
    <glyph glyph-name="dv_Ddha" unicode="&#x922;" horiz-adv-x="656" 
d="M54 246q0 129 99 193.5t230 64.5v54h-378q-4 31 -8 61t-8 61h662l17 -122h-131v-60q0 -30 0.5 -60t0.5 -59h-157q-78 0 -129 -35t-51 -101q0 -57 37.5 -99t107.5 -43q-7 10 -9 25.5t-2 34.5q0 46 35.5 85t99.5 39q56 0 95 -36.5t39 -92.5q0 -77 -64 -125.5t-172 -48.5
q-113 0 -213.5 57t-100.5 207z" />
    <glyph glyph-name="dv_Nna" unicode="&#x923;" horiz-adv-x="983" 
d="M728 0v558h-167v-219q0 -110 -72 -167t-167 -57q-96 0 -168 57t-72 167v219h-77q-4 31 -8 61t-8 61h989l17 -122h-113v-574zM322 243q49 0 68 34.5t19 100.5v180h-175v-180q0 -65 18.5 -100t69.5 -35z" />
    <glyph glyph-name="dv_Ta" unicode="&#x924;" horiz-adv-x="707" 
d="M453 0v342h-168q-37 0 -58 -15t-21 -43q0 -40 37.5 -106t98.5 -162l-138 -38q-49 71 -99 157t-50 158q0 81 50 126.5t137 45.5h211v93h-447l-17 122h713l16 -122h-111v-574z" />
    <glyph glyph-name="dv_Tha" unicode="&#x925;" horiz-adv-x="742" 
d="M487 0v172q-24 -12 -55.5 -19t-74.5 -7q-94 0 -170.5 63t-76.5 147l29 36q21 7 54 27.5t34 67.5q-5 -11 -22.5 -19.5t-39.5 -8.5q-46 0 -82.5 29.5t-36.5 80.5q0 57 41.5 93.5t105.5 36.5q75 0 123.5 -55.5t48.5 -135.5q0 -68 -29 -112t-69 -71q13 -17 37.5 -34t66.5 -17
t76 22t40 58v204h-84l-16 122h349l17 -122h-111v-574z" />
    <glyph glyph-name="dv_Da" unicode="&#x926;" horiz-adv-x="636" 
d="M601 -1q-31 -11 -63.5 -23t-63.5 -24l-61 113q-22 -4 -42.5 -6t-33.5 -2q-129 0 -208 59.5t-79 176.5q0 112 84.5 167.5t206.5 55.5v42h-336q-4 31 -8 61t-8 61h641l17 -122h-148v-162h-151q-69 0 -114.5 -26t-45.5 -78t44 -80t110 -28h9t9 1q4 38 21.5 64t58.5 26
q43 0 82 -26t39 -68q0 -16 -8 -34t-21 -34z" />
    <glyph glyph-name="dv_Dha" unicode="&#x927;" horiz-adv-x="769" 
d="M514 0v124q-29 -25 -82 -47.5t-118 -22.5q-126 0 -194 57.5t-68 150.5q0 40 21.5 79.5t51.5 56.5q-25 19 -42 54t-17 69q0 68 50.5 120t134.5 52q49 0 82.5 -17t53.5 -36l-73 -99q-15 10 -27 13.5t-26 3.5q-18 0 -32.5 -13.5t-14.5 -30.5q0 -26 20.5 -43.5t60.5 -17.5h42
l33 -119h-71q-43 0 -68 -19.5t-25 -52.5q0 -32 28.5 -52.5t81.5 -20.5q79 0 138.5 60.5t59.5 162.5v146h-84l-16 122h349l17 -122h-112v-574z" />
    <glyph glyph-name="dv_Na" unicode="&#x928;" horiz-adv-x="674" 
d="M425 0v268h-184q0 -28 -13 -56t-41 -28q-53 0 -107.5 41.5t-54.5 100.5q0 29 21 46.5t57 17.5h322v168h-419l-17 122h686l17 -122h-112v-574z" />
    <glyph glyph-name="dv_Nnna" unicode="&#x929;" horiz-adv-x="681" 
d="M425 0v268h-184q0 -28 -11 -56t-43 -28q-53 0 -107.5 41.5t-54.5 100.5q0 29 21 46.5t57 17.5h322v168h-419l-17 122h686l17 -122h-112v-574zM98 0q0 34 24 58.5t58 24.5t58.5 -24.5t24.5 -58.5t-24.5 -58t-58.5 -24t-58 24t-24 58z" />
    <glyph glyph-name="dv_Pa" unicode="&#x92a;" horiz-adv-x="700" 
d="M445 0v167q-20 -11 -55 -19.5t-64 -8.5q-99 0 -174 59t-75 169v191h-72q-4 31 -8 61t-8 61h705l17 -122h-112v-574zM334 267q42 0 72 22.5t39 56.5v212h-217v-182q0 -53 27.5 -81t78.5 -28z" />
    <glyph glyph-name="dv_Pha" unicode="&#x92b;" horiz-adv-x="977" 
d="M334 267q42 0 73 22.5t38 56.5v212h-217v-182q0 -53 27.5 -81t78.5 -28zM445 0v167q-20 -11 -55 -19.5t-64 -8.5q-99 0 -174 59t-75 169v191h-72q-4 31 -8 61t-8 61h982l17 -122h-389v-96q16 12 49 21.5t60 9.5q106 0 171 -63t65 -157q0 -109 -75.5 -165.5t-168.5 -57.5
l-30 129q54 0 88.5 26.5t34.5 68.5q0 40 -26 67t-66 27q-43 0 -66 -18t-36 -36v-330z" />
    <glyph glyph-name="dv_Ba" unicode="&#x92c;" horiz-adv-x="648" 
d="M389 0v83q-18 -12 -51 -20.5t-61 -8.5q-105 0 -171.5 64t-66.5 157q0 94 66.5 157.5t171.5 63.5q28 0 61 -8.5t51 -19.5v90h-384q-4 31 -8 61t-8 61h649l17 -122h-112v-574zM383 224q1 1 3 3.5t3 5.5v84q-13 19 -37 37t-65 18q-7 0 -15 -1t-15 -4zM332 185
q-31 36 -63 72.5t-64 71.5q-7 -10 -11.5 -24t-4.5 -29q0 -47 31.5 -72t72.5 -25q11 0 21.5 2t17.5 4z" />
    <glyph glyph-name="dv_Bha" unicode="&#x92d;" horiz-adv-x="811" 
d="M555 0v201h-209q0 -34 -14 -57.5t-45 -23.5q-60 0 -108 40t-48 98q0 30 20.5 47t56.5 17v107q-6 -1 -11.5 -1h-9.5q-63 0 -102.5 38t-39.5 100q0 59 43.5 95.5t101.5 36.5q77 0 121 -48.5t44 -132.5v-195h200v236h-94q-4 31 -8.5 61t-8.5 61h361l17 -122h-111v-574z" />
    <glyph glyph-name="dv_Ma" unicode="&#x92e;" horiz-adv-x="718" 
d="M463 0v201h-211q0 -28 -12.5 -56t-43.5 -28q-59 0 -108.5 41t-49.5 100q0 30 21 47t56 17v236h-110q-4 31 -8 61t-8 61h723l17 -122h-111v-574zM463 558h-201v-236h201v236z" />
    <glyph glyph-name="dv_Ya" unicode="&#x92f;" horiz-adv-x="680" 
d="M425 0v171q-24 -11 -56 -18t-75 -7q-93 0 -169.5 63t-76.5 147l29 31q20 7 37 33.5t17 63.5q0 22 -12.5 44t-30.5 30h-82l-17 122h686l16 -122h-111v-574zM309 274q41 0 75 21.5t41 56.5v206h-166q6 -16 10.5 -38.5t4.5 -41.5q0 -45 -17 -82t-55 -65q13 -19 37.5 -38
t69.5 -19z" />
    <glyph glyph-name="dv_Ra" unicode="&#x930;" horiz-adv-x="480" 
d="M491 558h-103q9 -24 12.5 -50.5t3.5 -47.5q0 -67 -37.5 -125t-103.5 -86l149 -238l-140 -36l-146 255q-2 0 -15.5 0.5t-15.5 0.5q-25 0 -42.5 12.5t-21.5 33.5q0 51 41.5 98.5t90.5 47.5q16 0 29 -17t20 -36q23 15 35 42t12 52q0 28 -8 53.5t-24 40.5h-221l-17 122h485z
" />
    <glyph glyph-name="dv_Rra" unicode="&#x931;" horiz-adv-x="480" 
d="M491 558h-103q9 -24 12.5 -50.5t3.5 -47.5q0 -67 -37.5 -125t-103.5 -86l149 -238l-140 -36l-146 255q-2 0 -15.5 0.5t-15.5 0.5q-25 0 -42.5 12.5t-21.5 33.5q0 51 41.5 98.5t90.5 47.5q16 0 29 -17t20 -36q23 15 35 42t12 52q0 28 -8 53.5t-24 40.5h-221l-17 122h485z
M4 0q0 34 24 58.5t58 24.5t58 -24.5t24 -58.5t-24 -58t-58 -24t-58 24t-24 58z" />
    <glyph glyph-name="dv_La" unicode="&#x932;" horiz-adv-x="872" 
d="M617 0v303q-6 30 -23.5 48.5t-42.5 18.5q-29 0 -48 -28t-19 -71v-142l-136 14v128q0 43 -17.5 69.5t-59.5 26.5q-32 0 -52 -20t-20 -45q0 -45 21 -102t84 -184l-131 -41q-60 115 -89 188t-29 149q0 75 62 129.5t151 54.5q45 0 83.5 -16.5t62.5 -41.5q24 26 59.5 42
t79.5 16q16 0 33 -3t31 -10v75h-611l-17 122h877l17 -122h-111v-574z" />
    <glyph glyph-name="dv_Lla" unicode="&#x933;" horiz-adv-x="918" 
d="M637 372q-40 0 -70 -39t-43 -84l-6 -20q20 -31 51.5 -50.5t67.5 -19.5q46 0 75 34t29 80q0 40 -29 69.5t-75 29.5zM288 157q40 0 76 48t43 95q-19 31 -51 50t-68 19q-45 0 -74.5 -34t-29.5 -80q0 -39 29.5 -68.5t74.5 -29.5zM470 420q16 21 40 39.5t52 29.5v69h-557
q-4 31 -8 61t-8 61h923l17 -122h-216v-63q77 -19 123 -79t46 -145q0 -104 -68.5 -174.5t-172.5 -70.5q-56 0 -103.5 23t-81.5 60q-26 -34 -71.5 -59.5t-98.5 -25.5q-105 0 -173.5 65t-68.5 169q0 106 68 175.5t172 69.5q57 0 104.5 -23t81.5 -60z" />
    <glyph glyph-name="dv_Llla" unicode="&#x934;" horiz-adv-x="918" 
d="M637 372q-40 0 -70 -39t-43 -84l-6 -20q20 -31 51.5 -50.5t67.5 -19.5q46 0 75 34t29 80q0 40 -29 69.5t-75 29.5zM288 157q40 0 76 48t43 95q-19 31 -51 50t-68 19q-45 0 -74.5 -34t-29.5 -80q0 -39 29.5 -68.5t74.5 -29.5zM470 420q16 21 40 39.5t52 29.5v69h-557
q-4 31 -8 61t-8 61h923l17 -122h-216v-63q77 -19 123 -79t46 -145q0 -104 -68.5 -174.5t-172.5 -70.5q-56 0 -103.5 23t-81.5 60q-26 -34 -71.5 -59.5t-98.5 -25.5q-105 0 -173.5 65t-68.5 169q0 106 68 175.5t172 69.5q57 0 104.5 -23t81.5 -60zM376 -88q0 34 24 58t58 24
t58.5 -24t24.5 -58t-24.5 -58t-58.5 -24t-58 24t-24 58z" />
    <glyph glyph-name="dv_Va" unicode="&#x935;" horiz-adv-x="639" 
d="M39 275q0 93 64.5 156.5t169.5 63.5q28 0 63.5 -10.5t47.5 -23.5v97h-378l-17 122h644l17 -122h-111v-574l-155 16v90q-12 -13 -47.5 -23.5t-63.5 -10.5q-105 0 -169.5 63t-64.5 156zM289 181q36 0 59.5 17t35.5 35v84q-12 19 -35.5 35.5t-59.5 16.5q-40 0 -70 -26.5
t-30 -67.5q0 -40 30 -67t70 -27z" />
    <glyph glyph-name="dv_Sha" unicode="&#x936;" horiz-adv-x="832" 
d="M577 0v558h-95l-16 122h360l17 -122h-112v-574zM291 444q0 13 -2.5 27.5t-6.5 21.5q-14 -22 -44 -32.5t-59 -10.5q-54 0 -93.5 31.5t-39.5 85.5q0 59 44.5 95.5t110.5 36.5q110 0 173 -76t63 -172q0 -67 -41.5 -130.5t-111.5 -88.5l147 -221l-140 -36l-144 238
q-1 0 -15 0.5t-15 0.5q-25 0 -43 12t-22 34q0 51 41.5 98.5t90.5 47.5q16 0 30 -19t21 -37q28 13 42 41.5t14 52.5z" />
    <glyph glyph-name="dv_Ssa" unicode="&#x937;" horiz-adv-x="700" 
d="M445 0v167q-20 -11 -54.5 -19t-63.5 -8q-99 0 -174.5 58.5t-75.5 168.5v191h-71l-17 122h705l17 -122h-111v-574zM445 558h-157l157 -200v200zM334 268q22 0 42.5 6t33.5 18q-28 37 -90 119t-91 117v-151q0 -54 27.5 -81.5t77.5 -27.5z" />
    <glyph glyph-name="dv_Sa" unicode="&#x938;" horiz-adv-x="835" 
d="M580 558h-192q8 -24 11.5 -51t3.5 -47q0 -24 -3.5 -46t-13.5 -42h194v186zM125 230q-37 0 -62.5 8t-32.5 39q0 51 42 98.5t90 47.5q16 0 29.5 -17t20.5 -36q22 14 34.5 41.5t12.5 52.5q0 28 -8.5 53.5t-23.5 40.5h-222q-4 31 -8 61t-8 61h841l17 -122h-112v-574l-155 16
v259h-296q-5 -2 -10.5 -5t-11.5 -5l149 -239q-35 -8 -70 -16.5t-69 -17.5z" />
    <glyph glyph-name="dv_Ha" unicode="&#x939;" horiz-adv-x="564" 
d="M511 235q0 -37 -16.5 -70.5t-49.5 -53.5l-104 68q15 10 22.5 20.5t7.5 26.5t-21 31t-59 15q-35 0 -57.5 -20.5t-22.5 -48.5q0 -51 59.5 -72t120.5 -25l-31 -123q-122 5 -207 60t-85 160q0 31 10 59.5t29 52.5q-16 16 -24.5 38.5t-8.5 50.5q0 69 49.5 103t115.5 34h63v17
h-298l-15 122h569l17 -122h-110v-131h-205q-19 0 -26.5 -5.5t-7.5 -15.5q0 -5 2 -9.5t6 -6.5q13 3 27.5 5t30.5 2q97 0 158 -47.5t61 -114.5z" />
    <glyph glyph-name="dv_MatraOe" unicode="&#x93a;" horiz-adv-x="0" 
d="M-3 680h-151v224l151 -16v-208z" />
    <glyph glyph-name="dv_MatraOoe" unicode="&#x93b;" 
d="M99 0v558h-94q-4 31 -8 61t-8 61h112v224l151 -16v-208h96l18 -122h-112v-574z" />
    <glyph glyph-name="dv_Nukta" unicode="&#x93c;" horiz-adv-x="0" 
d="M13 -134q0 34 23.5 58t57.5 24q35 0 59 -24t24 -58t-24 -58t-59 -24q-34 0 -57.5 24t-23.5 58z" />
    <glyph glyph-name="dv_Avagraha" unicode="&#x93d;" horiz-adv-x="572" 
d="M277 114q40 0 64 17.5t24 48.5q0 43 -41 103.5t-98 123.5l-149 169v104h413l21 -122h-232l52 -65q49 -63 115 -151t66 -164q0 -80 -59.5 -137.5t-179.5 -57.5q-43 0 -111 18t-125 58l69 124q46 -32 89.5 -50.5t81.5 -18.5z" />
    <glyph glyph-name="dv_MatraAa" unicode="&#x93e;" 
d="M100 0v558h-94l-17 122h360l17 -122h-111v-574z" />
    <glyph glyph-name="dv_MatraI" unicode="&#x93f;" 
d="M313 827q-51 0 -77 -24.5t-26 -50.5q0 -25 8 -43t16 -29h115l17 -122h-111v-574l-155 16v558h-94l-17 122h89q-7 12 -14 35t-7 54q0 84 63 138.5t175 54.5q123 0 273 -55.5t231 -105.5l-62 -104q-100 55 -218 92.5t-206 37.5z" />
    <glyph glyph-name="dv_MatraIi" unicode="&#x940;" 
d="M100 0v558h-94l-17 122h92q-17 43 -56.5 92t-84.5 49q-12 0 -18.5 -9t-6.5 -17q0 -13 8 -27t19 -26l-149 -30q-14 17 -22 40.5t-8 54.5q0 60 47.5 102.5t121.5 42.5q106 0 187.5 -88t119.5 -184h110l17 -122h-111v-574z" />
    <glyph glyph-name="dv_MatraU" unicode="&#x941;" horiz-adv-x="0" 
d="M-161 -221q23 0 35 12t12 29t-12.5 30t-34.5 13h-74v119h81q66 0 117 -43t51 -120q0 -75 -52.5 -119t-124.5 -44q-74 0 -145.5 50.5t-129.5 143.5l95 63q51 -63 95 -98.5t87 -35.5z" />
    <glyph glyph-name="dv_MatraUu" unicode="&#x942;" horiz-adv-x="0" 
d="M-179 -140q-23 0 -34.5 -12.5t-11.5 -29.5q0 -18 12 -30t34 -12h74v-120h-81q-66 0 -117 43.5t-51 120.5q0 75 52.5 118.5t124.5 43.5q74 0 146 -50.5t129 -143.5l-94 -63q-51 63 -95.5 99t-87.5 36z" />
    <glyph glyph-name="dv_MatraVocalicR" unicode="&#x943;" horiz-adv-x="0" 
d="M-167 -221q9 0 29.5 2.5t42.5 9.5l26 -119q-27 -9 -55 -12.5t-54 -3.5q-64 0 -118 42.5t-54 120.5q0 77 52.5 120t113.5 43h91v-123h-81q-22 0 -35 -11t-13 -28q0 -19 15 -30t40 -11z" />
    <glyph glyph-name="dv_MatraVocalicRr" unicode="&#x944;" horiz-adv-x="0" 
d="M-278 -124q0 58 38.5 82t81.5 24h64v-93h-44q-10 0 -18.5 -3.5t-8.5 -11.5q0 -7 9.5 -9.5t17.5 -2.5h40l-21 -77q-23 0 -36.5 -3t-13.5 -10t8.5 -11t22.5 -4h40l-23 -92h-37q-43 0 -81.5 24.5t-38.5 80.5q0 14 6 28.5t15 25.5q-10 11 -15.5 24.5t-5.5 27.5z" />
    <glyph glyph-name="dv_MatraCandraE" unicode="&#x945;" horiz-adv-x="0" 
d="M258 752q-72 0 -141 33t-109 113l107 66q22 -45 62.5 -68.5t80.5 -23.5t79 22.5t64 69.5l107 -66q-40 -81 -109 -113.5t-141 -32.5z" />
    <glyph glyph-name="dv_MatraShortE" unicode="&#x946;" horiz-adv-x="0" 
d="M-427 919q0 -29 16 -40t43 -11h81q80 0 136.5 -42.5t56.5 -103.5v-93h-141v54q0 30 -17 46t-45 16h-73q-87 1 -139.5 40.5t-52.5 102.5v50z" />
    <glyph glyph-name="dv_MatraE" unicode="&#x947;" horiz-adv-x="0" 
d="M-43 624l-167 -6l-291 266l116 81z" />
    <glyph glyph-name="dv_MatraAi" unicode="&#x948;" horiz-adv-x="0" 
d="M-113 675l-131 -1q-27 26 -53.5 41.5t-80.5 15.5h-104l-29 131h127q27 0 50.5 -2t45.5 -12q-2 8 -22 66.5t-22 65.5l139 39z" />
    <glyph glyph-name="dv_MatraCandraO" unicode="&#x949;" 
d="M178 752q-73 0 -142 33t-108 113l107 66q22 -45 62.5 -68.5t80.5 -23.5t79 22.5t65 69.5l106 -66q-40 -81 -109 -113.5t-141 -32.5zM100 0v558h-94l-17 122h360l17 -122h-111v-574z" />
    <glyph glyph-name="dv_MatraShortO" unicode="&#x94a;" 
d="M-103 919q0 -29 16 -40t43 -11h100q81 0 137 -42.5t56 -103.5v-42h100l17 -122h-111v-574l-155 16v558h-94l-17 122h120q0 30 -17 47.5t-46 17.5h-91q-87 1 -140 40.5t-53 102.5v50z" />
    <glyph glyph-name="dv_MatraO" unicode="&#x94b;" 
d="M99 0v558h-94q-4 31 -8 61t-8 61h66l-222 204l115 81q70 -71 141.5 -142.5t143.5 -142.5h115l18 -122h-112v-574z" />
    <glyph glyph-name="dv_MatraAu" unicode="&#x94c;" 
d="M99 0v558h-94q-4 31 -8 61t-8 61h113q-25 23 -51 37t-76 14h-104l-29 130h126q27 0 51 -2t46 -12q-10 32 -22 66.5t-22 65.5l138 39q20 -84 39.5 -169t38.5 -169h111l18 -122h-112v-574z" />
    <glyph glyph-name="dv_Halant" unicode="&#x94d;" horiz-adv-x="0" 
d="M-94 -371l-236 208l104 95l222 -222z" />
    <glyph glyph-name="dv_PrishtaMatraE" unicode="&#x94e;" horiz-adv-x="354" 
d="M100 0v680h249l17 -122h-112v-574z" />
    <glyph glyph-name="dv_MatraAw" unicode="&#x94f;" 
d="M243 680h105l18 -122h-112v-574l-155 16v558h-94q-4 31 -8 61t-8 61h120q-3 11 -11 18t-20 7h-99q-84 0 -135 43t-51 113v38l116 -19q0 -34 17 -52t48 -18h86q-43 16 -70 51t-27 86v40q28 -5 57.5 -10.5t57.5 -9.5q0 -34 16.5 -58.5t41.5 -34.5q51 -19 79 -58.5t28 -96.5
v-39z" />
    <glyph glyph-name="dv_Om" unicode="&#x950;" horiz-adv-x="902" 
d="M572 876q0 34 23 57.5t57 23.5q33 0 56.5 -23.5t23.5 -57.5q0 -33 -23.5 -56t-56.5 -23q-34 0 -57 23t-23 56zM797 849l106 -66q-40 -80 -109.5 -115t-141.5 -35t-141.5 35t-108.5 115l106 66q22 -45 63.5 -70.5t80.5 -25.5q40 0 79.5 24t65.5 72zM535 504
q0 -45 -23 -91.5t-70 -67.5q10 -2 19.5 -7t17.5 -10q26 25 69 47t97 22q106 0 165 -55.5t59 -148.5q0 -109 -69 -159.5t-162 -51.5q-7 30 -13 61t-13 62q56 0 85 23t29 61q0 37 -23.5 60t-63.5 23q-35 0 -57 -13.5t-37 -30.5q1 -8 2 -17t1 -19q0 -87 -67.5 -147t-195.5 -60
q-60 0 -120 15t-106 40l27 124q47 -28 93.5 -41.5t94.5 -13.5q49 0 84 22.5t35 64.5q0 47 -31.5 73t-106.5 26h-100l-17 112h121q61 0 90.5 27t29.5 64q0 31 -25 53t-71 22q-45 0 -88.5 -13.5t-98.5 -46.5l-24 126q49 28 106.5 44t117.5 16q121 0 180 -57t59 -138z" />
    <glyph glyph-name="dv_Udatta" unicode="&#x951;" horiz-adv-x="0" 
d="M144 744h-112l-14 217h141z" />
    <glyph glyph-name="dv_Anudatta" unicode="&#x952;" horiz-adv-x="0" 
d="M568 -192h-534l-16 121h534z" />
    <glyph glyph-name="dv_Graveaccent" unicode="&#x953;" horiz-adv-x="0" 
d="M245 744h-99l-141 218h143z" />
    <glyph glyph-name="dv_Acuteaccent" unicode="&#x954;" horiz-adv-x="0" 
d="M113 744h-100l98 218h143z" />
    <glyph glyph-name="dv_MatraCandraLongE" unicode="&#x955;" horiz-adv-x="0" 
d="M396 1084l106 -59q-44 -87 -110.5 -114.5t-136.5 -27.5q-71 0 -137.5 28t-109.5 114q27 15 53.5 30t53.5 29q23 -49 65.5 -68.5t74.5 -19.5q33 0 72 17t69 71zM512 747h-475q-4 28 -8 54.5t-8 54.5h475q4 -28 8 -54.5t8 -54.5z" />
    <glyph glyph-name="dv_MatraUe" unicode="&#x956;" horiz-adv-x="0" 
d="M394 -53l110 -67q-41 -79 -109 -109t-140 -30t-140 30t-109 109l110 67q23 -47 65.5 -66.5t73.5 -19.5q32 0 72.5 18.5t66.5 67.5z" />
    <glyph glyph-name="dv_MatraUue" unicode="&#x957;" horiz-adv-x="0" 
d="M459 -52l103 -58q-49 -83 -117 -107t-114 -24q-47 0 -114 25t-114 106l103 59q17 -46 52.5 -65t72.5 -19q32 0 68.5 15.5t59.5 67.5zM544 -174l100 -61q-53 -81 -140.5 -112t-172.5 -31q-81 0 -173 31t-144 109l100 63q34 -41 92.5 -66t124.5 -25t120.5 22.5t92.5 69.5z
" />
    <glyph glyph-name="dv_Qa" unicode="&#x958;" horiz-adv-x="916" 
d="M284 181q46 0 66.5 18.5t33.5 37.5v77q-12 18 -33 37t-67 19q-40 0 -67.5 -27t-27.5 -67q0 -42 27.5 -68.5t67.5 -26.5zM384 0v86q-16 -12 -49.5 -21t-61.5 -9q-105 0 -169.5 63t-64.5 156q0 94 64.5 157t169.5 63q28 0 61.5 -9t49.5 -22v94h-379q-4 31 -8 61t-8 61h921
l16 -122h-388v-94q16 12 48.5 21.5t59.5 9.5q106 0 171 -63t65 -157q0 -109 -75 -165.5t-168 -57.5q-8 32 -15.5 64.5t-15.5 64.5q54 0 88.5 26t34.5 69q0 40 -26 67t-66 27q-43 0 -66 -18t-35 -36v-332zM89 -82q0 34 24 58t58 24t58 -24t24 -58t-24 -58t-58 -24t-58 24
t-24 58z" />
    <glyph glyph-name="dv_Khha" unicode="&#x959;" horiz-adv-x="1001" 
d="M484 109q26 0 53 6t50 18q-60 19 -97.5 68t-37.5 112q0 85 58.5 143.5t155.5 58.5q22 0 44 -4t35 -10v57h-361q8 -24 12 -51t4 -47q0 -72 -35.5 -126t-92.5 -80q20 -46 72 -95.5t140 -49.5zM676 390q-30 0 -50.5 -20.5t-20.5 -54.5t21 -54t50 -20q34 0 51.5 23t17.5 51
q0 31 -18 53t-51 22zM30 -5q0 34 24 58t58 24t58 -24t24 -58t-24 -58t-58 -24t-58 24t-24 58zM745 0v65q-51 -40 -119 -62.5t-145 -22.5q-154 0 -244 79.5t-118 170.5q-40 0 -64 10t-28 37q0 51 43.5 98.5t91.5 47.5q16 0 29.5 -16t20.5 -35q18 11 30.5 37.5t12.5 52.5
q0 28 -8 54t-24 42h-218q-4 31 -8 61t-8 61h1006l16 -122h-111v-574z" />
    <glyph glyph-name="dv_Ghha" unicode="&#x95a;" horiz-adv-x="730" 
d="M629 -16l-155 16v558h-186q0 -87 -0.5 -175t-0.5 -175q0 -39 -17 -61t-53 -22q-57 0 -107 48.5t-50 105.5q0 28 20.5 44.5t51.5 16.5v218h-127q-4 31 -8 61t-8 61h734l17 -122h-111v-574zM119 -12q0 33 24 57t58 24t58 -24t24 -57q0 -34 -24 -58t-58 -24t-58 24t-24 58z
" />
    <glyph glyph-name="dv_Za" unicode="&#x95b;" horiz-adv-x="826" 
d="M572 0v345h-106q5 -16 9 -35.5t4 -39.5q0 -116 -75 -171t-171 -55q-61 0 -119 20.5t-99 47.5l26 139q46 -37 93.5 -58t92.5 -21q49 0 78.5 26t29.5 66q0 33 -20.5 57t-68.5 24h-66l-18 120h410v93h-566l-17 122h832l17 -122h-112v-574zM153 -89q0 34 24 58.5t58 24.5
t58.5 -24.5t24.5 -58.5t-24.5 -58t-58.5 -24t-58 24t-24 58z" />
    <glyph glyph-name="dv_Dddha" unicode="&#x95c;" horiz-adv-x="549" 
d="M272 110q43 0 65.5 15t22.5 37q0 17 -11.5 29.5t-36.5 12.5h-84q-66 0 -122 42t-56 116q0 78 50.5 117.5t125.5 39.5h97v39h-317l-17 122h554l17 -122h-101v-166h-225q-18 0 -28.5 -8.5t-10.5 -21.5q0 -12 11.5 -22t28.5 -10h69q92 0 152.5 -38.5t60.5 -128.5
q0 -69 -61 -123.5t-176 -54.5q-59 0 -120 13.5t-107 38.5l27 125q47 -28 95 -40t97 -12zM200 -131q0 34 24 58t58 24t58.5 -24t24.5 -58t-24.5 -58t-58.5 -24t-58 24t-24 58z" />
    <glyph glyph-name="dv_Rha" unicode="&#x95d;" horiz-adv-x="647" 
d="M54 246q0 129 99 193.5t230 64.5v54h-378q-4 31 -8 61t-8 61h662l17 -122h-131v-60q0 -30 0.5 -60t0.5 -59h-157q-78 0 -129 -35t-51 -101q0 -57 37.5 -99t107.5 -43q-7 10 -9 25.5t-2 34.5q0 46 35.5 85t99.5 39q56 0 95 -36.5t39 -92.5q0 -77 -64 -125.5t-172 -48.5
q-113 0 -213.5 57t-100.5 207zM288 -127q0 33 23.5 57.5t57.5 24.5t58.5 -24.5t24.5 -57.5q0 -34 -24.5 -58.5t-58.5 -24.5t-57.5 24.5t-23.5 58.5z" />
    <glyph glyph-name="dv_Fa" unicode="&#x95e;" horiz-adv-x="977" 
d="M334 267q42 0 73 22.5t38 56.5v212h-217v-182q0 -53 27.5 -81t78.5 -28zM445 0v167q-20 -11 -55 -19.5t-64 -8.5q-99 0 -174 59t-75 169v191h-72q-4 31 -8 61t-8 61h982l17 -122h-389v-96q16 12 49 21.5t60 9.5q106 0 171 -63t65 -157q0 -109 -75.5 -165.5t-168.5 -57.5
l-30 129q54 0 88.5 26.5t34.5 68.5q0 40 -26 67t-66 27q-43 0 -66 -18t-36 -36v-330zM124 0q0 34 23.5 58t57.5 24t59 -24t25 -58q0 -33 -25 -57t-59 -24t-57.5 24t-23.5 57z" />
    <glyph glyph-name="dv_Yya" unicode="&#x95f;" horiz-adv-x="680" 
d="M425 0v171q-24 -11 -56 -18t-75 -7q-93 0 -169.5 63t-76.5 147l29 31q20 7 37 33.5t17 63.5q0 22 -12.5 44t-30.5 30h-82l-17 122h686l16 -122h-111v-574zM309 274q41 0 75 21.5t41 56.5v206h-166q6 -16 10.5 -38.5t4.5 -41.5q0 -45 -17 -82t-55 -65q13 -19 37.5 -38
t69.5 -19zM105 0q0 34 23.5 58t57.5 24t58.5 -24t24.5 -58t-24.5 -58t-58.5 -24t-57.5 24t-23.5 58z" />
    <glyph glyph-name="dv_VocalicRr" unicode="&#x960;" horiz-adv-x="917" 
d="M877 209q0 -55 -41 -88t-43 -58q0 -12 7 -16t17 -4h36l-21 -104h-19q-18 0 -30.5 -5.5t-12.5 -15.5q0 -11 9.5 -16.5t19.5 -5.5h42l-23 -108h-42q-44 0 -87.5 33.5t-43.5 93.5q0 19 6.5 39.5t16.5 34.5q-7 11 -12 25t-5 33q0 46 43 85t43 74q0 22 -10.5 44t-30.5 45
q-27 -21 -83.5 -35.5t-98.5 -18.5v-257l-155 16v165l-197 -123l-83 114q59 36 118 72.5t118 71.5q-34 29 -61.5 39.5t-51.5 10.5q-10 0 -43.5 -10.5t-70.5 -27.5l-58 128q35 17 89.5 31t73.5 14q44 0 82 -8t84 -36v117h-354q-4 31 -8 61t-8 61h921l17 -122h-413v-193
q29 4 63 12.5t46 18.5q-7 12 -11 26t-4 31q0 37 22.5 54.5t52.5 17.5q47 0 84.5 -26.5t37.5 -70.5q0 -12 -4 -26t-11 -23q39 -41 63 -84t24 -86z" />
    <glyph glyph-name="dv_VocalicLl" unicode="&#x961;" horiz-adv-x="872" 
d="M583 40q0 26 9.5 45.5t24.5 32.5v185q-6 30 -23.5 48.5t-42.5 18.5q-29 0 -48 -28t-19 -71v-142l-136 14v128q0 43 -17.5 69.5t-59.5 26.5q-32 0 -52 -20t-20 -45q0 -45 21 -102t84 -184l-131 -41q-60 115 -89 188t-29 149q0 75 62 129.5t151 54.5q45 0 83.5 -16.5
t62.5 -41.5q24 26 59.5 42t79.5 16q16 0 33 -3t31 -10v75h-611l-17 122h877l17 -122h-111v-501h-44q-9 0 -18 -4t-9 -14t9.5 -14t17.5 -4h40l-22 -76q-26 0 -38 -4t-12 -13q0 -10 8 -14.5t24 -4.5h39l-22 -92h-41q-43 0 -82 26t-39 83q0 14 8.5 32t18.5 25q-13 10 -20 26.5
t-7 30.5z" />
    <glyph glyph-name="dv_MatraVocalicL" unicode="&#x962;" horiz-adv-x="0" 
d="M292 -160v-101l-98 25v76q0 18 -11.5 26.5t-25.5 8.5q-13 0 -21.5 -8t-8.5 -17q0 -25 13 -54t42 -83l20 -39l-109 -25q-38 73 -57.5 119.5t-19.5 92.5q0 49 38 84.5t98 35.5q29 0 53.5 -13t37.5 -33q13 19 39.5 32.5t54.5 13.5q59 0 96 -36t37 -84q0 -28 -12 -51.5
t-19 -38.5q-1 -1 -1 -3.5v-4.5q0 -5 2.5 -9t9.5 -4h20l-26 -97h-35q-26 0 -58 16t-32 57q0 40 19.5 68t19.5 56q0 11 -9.5 18t-20.5 7q-13 0 -24.5 -9.5t-11.5 -25.5z" />
    <glyph glyph-name="dv_MatraVocalicLl" unicode="&#x963;" horiz-adv-x="0" 
d="M289 -160v-101l-99 25v76q0 18 -11 26.5t-25 8.5q-13 0 -22 -8t-9 -17q0 -30 18 -65.5t58 -110.5l-109 -25q-38 73 -57.5 119.5t-19.5 92.5q0 49 38 84.5t98 35.5q29 0 53 -13t37 -33q13 19 40 32.5t55 13.5q59 0 95.5 -36t36.5 -84q0 -31 -14 -54.5t-14 -39.5
q0 -6 3.5 -9.5t13.5 -3.5h15l-23 -83h-32q-9 0 -15.5 -3.5t-6.5 -10.5q0 -8 7.5 -11.5t15.5 -3.5h39l-24 -76h-23q-40 0 -67 21t-27 67q0 13 6.5 26t16.5 20q-5 6 -7.5 16t-2.5 18q0 40 15 63t16 49q0 11 -8.5 20t-25.5 9q-13 0 -24 -9.5t-11 -25.5z" />
    <glyph glyph-name="dv_Danda" unicode="&#x964;" horiz-adv-x="448" 
d="M301 755v-771l-155 16v771z" />
    <glyph glyph-name="dv_DoubleDanda" unicode="&#x965;" horiz-adv-x="831" 
d="M684 755v-771l-152 16v771zM297 755v-771l-151 16v771z" />
    <glyph glyph-name="dv_Zero" unicode="&#x966;" horiz-adv-x="676" 
d="M52 339q0 117 80.5 200.5t205.5 83.5t206 -83t81 -201q0 -117 -80.5 -200t-205.5 -83t-206 83t-81 200zM340 180q63 0 103 46t40 113q0 68 -41 114t-104 46t-103.5 -46t-40.5 -114q0 -67 41.5 -113t104.5 -46z" />
    <glyph glyph-name="dv_One" unicode="&#x967;" horiz-adv-x="416" 
d="M49 337l105 83q-29 10 -61.5 47t-32.5 80q0 69 46.5 110.5t107.5 41.5q73 0 116 -45.5t43 -113.5q0 -48 -27.5 -100.5t-89.5 -100.5l-64 -49l192 -274l-143 -35l-195 304z" />
    <glyph glyph-name="dv_Two" unicode="&#x968;" horiz-adv-x="534" 
d="M334 468q0 39 -28.5 70t-72.5 31q-37 0 -73.5 -16t-59.5 -32l-54 114q30 23 84 43.5t105 20.5q125 0 185 -77.5t60 -155.5q0 -63 -40 -125.5t-119 -93.5l146 -236l-140 -36l-145 255q-2 0 -15.5 0.5t-15.5 0.5q-25 0 -43 12.5t-22 33.5q0 51 42 98.5t91 47.5
q16 0 30.5 -17.5t21.5 -36.5q34 12 48.5 43.5t14.5 55.5z" />
    <glyph glyph-name="dv_Three" unicode="&#x969;" horiz-adv-x="557" 
d="M491 521q0 -38 -20 -78t-60 -58q41 -15 66.5 -53t25.5 -81q0 -73 -54 -127t-146 -62q16 -20 31.5 -39.5t30.5 -38.5q-25 -18 -50.5 -36t-50.5 -35q-31 42 -63 83.5t-63 84.5q-31 14 -61 44.5t-30 73.5q0 33 21.5 51.5t51.5 18.5q36 0 71 -24.5t48 -58.5q39 0 73 17t34 48
t-26.5 55t-81.5 24h-86q-4 28 -8 57t-8 57h108q41 0 65 20t24 51q0 21 -19 38t-56 17q-41 0 -86 -17.5t-77 -39.5l-21 129q46 28 99 42.5t110 14.5q104 0 156 -54.5t52 -123.5z" />
    <glyph glyph-name="dv_Four" unicode="&#x96a;" horiz-adv-x="711" 
d="M157 163q0 51 31 106.5t78 110.5q-49 53 -111.5 111t-113.5 104l-8 7l89 113q96 -88 146 -136t88 -89q37 41 86.5 89t146.5 136l90 -113q-53 -47 -118.5 -107t-115.5 -115q47 -56 77.5 -111t30.5 -106q0 -81 -55 -131t-142 -50t-143 50t-56 131zM356 115q22 0 36.5 14
t14.5 36t-15 47.5t-36 53.5q-22 -28 -37 -53.5t-15 -47.5t15 -36t37 -14z" />
    <glyph glyph-name="dv_Five" unicode="&#x96b;" horiz-adv-x="587" 
d="M387 110q24 0 34.5 12t10.5 26q0 21 -6 43.5t-16 40.5q-17 -4 -33 -5.5t-29 -1.5q-106 0 -191 56t-85 178v221h155v-221q0 -57 31.5 -81.5t82.5 -25.5q-2 7 -3.5 14.5t-1.5 15.5q1 28 23 55.5t59 27.5q46 0 80.5 -30t34.5 -74q0 -16 -5 -33t-14 -27q22 -32 38 -79t16 -78
q0 -66 -34.5 -113.5t-132.5 -47.5q-16 0 -52.5 3.5t-75.5 19.5l34 120q37 -12 51.5 -14t28.5 -2z" />
    <glyph glyph-name="dv_Six" unicode="&#x96c;" horiz-adv-x="593" 
d="M65 521q0 69 52.5 123.5t156.5 54.5q57 0 110 -14.5t98 -42.5l-20 -129q-32 22 -76.5 39.5t-84.5 17.5t-58.5 -16.5t-18.5 -39.5q0 -31 23 -50.5t66 -19.5h100q0 -10 -0.5 -19t-0.5 -19q0 -19 0.5 -38t0.5 -38h-94q-55 0 -82 -24t-27 -57q0 -32 30.5 -49.5t67.5 -17.5h11
q3 0 6 0.5t6 1.5q0 40 20 66.5t61 26.5q39 0 78 -26.5t39 -68.5q0 -17 -7.5 -36t-20.5 -35q13 -24 30 -50.5t39 -63.5l-125 -48l-63 113q-21 -6 -45.5 -7.5t-46.5 -1.5q-106 0 -171 55.5t-65 140.5q0 43 24.5 82t66.5 54q-40 18 -60 58t-20 78z" />
    <glyph glyph-name="dv_Seven" unicode="&#x96d;" horiz-adv-x="752" 
d="M463 497q-19 0 -36.5 -15.5t-17.5 -40.5q0 -27 17 -41.5t43 -14.5q19 0 38 7t34 22q-8 36 -27.5 59.5t-50.5 23.5zM461 254q-84 0 -141.5 50.5t-57.5 128.5q0 84 55 140.5t140 56.5q124 0 188 -90.5t64 -237.5q0 -131 -88 -225.5t-248 -94.5q-169 0 -256.5 101t-87.5 282
h156q0 -116 50.5 -179.5t137.5 -63.5q74 0 119 43t53 111q-20 -10 -43 -16t-41 -6z" />
    <glyph glyph-name="dv_Eight" unicode="&#x96e;" horiz-adv-x="587" 
d="M299 123q41 0 76 31.5t35 124.5l132 -38v-13q0 -77 -53 -161.5t-195 -84.5q-116 0 -181.5 68.5t-65.5 171.5q0 137 105 277.5t195 215.5l89 -109q-110 -103 -173 -195t-63 -186q0 -43 25.5 -72.5t73.5 -29.5z" />
    <glyph glyph-name="dv_Nine" unicode="&#x96f;" horiz-adv-x="491" 
d="M437 513q0 -72 -53 -113.5t-124 -48.5l22 -27q63 -94 81.5 -131t18.5 -80q0 -54 -46 -89.5t-122 -50.5l-24 115q24 7 36.5 13.5t12.5 25.5q0 12 -28.5 53t-71.5 104q-37 54 -66.5 106.5t-29.5 107.5q0 74 51.5 135t149.5 61q93 0 143 -54.5t50 -126.5z" />
    <glyph glyph-name="dv_Abbreviation" unicode="&#x970;" horiz-adv-x="581" 
d="M541 285q0 -101 -71 -173t-178 -72q-110 0 -181 72.5t-71 176.5q0 101 71.5 172.5t181.5 71.5q105 0 176.5 -72.5t71.5 -175.5zM400 287q0 54 -32 85.5t-76 31.5q-45 0 -77.5 -33t-32.5 -84q0 -56 32 -88.5t78 -32.5q43 0 75.5 33t32.5 88z" />
    <glyph glyph-name="dv_Highspacedot" unicode="&#x971;" horiz-adv-x="244" 
d="M40 295q0 34 23.5 58t57.5 24q35 0 59 -24t24 -58t-24 -58t-59 -24q-34 0 -57.5 24t-23.5 58z" />
    <glyph glyph-name="dv_CandraA" unicode="&#x972;" horiz-adv-x="994" 
d="M799 752q-73 0 -141 33t-108 113l106 66q22 -45 62.5 -68.5t80.5 -23.5t79 22.5t64 69.5l107 -66q-40 -81 -108.5 -113.5t-141.5 -32.5zM720 0v293h-213q20 -17 31 -45.5t11 -57.5q0 -87 -68 -146t-196 -59q-60 0 -120 15t-106 40l28 125q47 -28 93 -41.5t94 -13.5
q49 0 84.5 22.5t35.5 64.5q0 46 -31.5 72t-106.5 26h-101l-16 113h121q60 0 90 26.5t30 64.5q0 30 -25 52.5t-71 22.5q-45 0 -89 -13.5t-98 -46.5l-25 125q49 28 107 44t117 16q122 0 181 -56.5t59 -137.5q0 -25 -12.5 -52.5t-30.5 -44.5h227v150h-95l-17 122h361l17 -122
h-112v-574z" />
    <glyph glyph-name="dv_Oe" unicode="&#x973;" horiz-adv-x="975" 
d="M720 0v293h-214q21 -18 31.5 -46.5t10.5 -57.5q0 -87 -67.5 -145.5t-195.5 -58.5q-60 0 -120 15t-106 40l27 124q47 -28 93.5 -41.5t94.5 -13.5q49 0 84 22.5t35 64.5q0 47 -31.5 73t-106.5 26h-100l-17 112h121q61 0 90.5 27t29.5 64q0 31 -25 53t-71 22
q-45 0 -88.5 -13.5t-98.5 -46.5l-24 126q49 28 106.5 44t117.5 16q121 0 180 -57t59 -138q0 -25 -12.5 -52.5t-30.5 -44.5h228v151h-96l-16 122h113v224l151 -16v-208h97l16 -122h-112v-574z" />
    <glyph glyph-name="dv_Ooe" unicode="&#x974;" horiz-adv-x="1320" 
d="M720 0v293h-213q20 -17 31 -45.5t11 -57.5q0 -87 -68 -146t-196 -59q-60 0 -120 15t-106 40l28 125q47 -28 93 -41.5t94 -13.5q49 0 84.5 22.5t35.5 64.5q0 46 -31.5 72t-106.5 26h-101l-16 113h121q60 0 90 26.5t30 64.5q0 30 -25 52.5t-71 22.5q-45 0 -89 -13.5
t-98 -46.5l-25 125q49 28 107 44t117 16q122 0 181 -56.5t59 -137.5q0 -25 -12.5 -52.5t-30.5 -44.5h227v150h-95l-17 122h455v224l150 -16v-208h101l17 -122h-111v-574l-155 16v558h-191v-574z" />
    <glyph glyph-name="dv_Aw" unicode="&#x975;" horiz-adv-x="1320" 
d="M720 0v293h-213q20 -17 31 -45.5t11 -57.5q0 -87 -68 -146t-196 -59q-60 0 -120 15t-106 40l28 125q47 -28 93 -41.5t94 -13.5q49 0 84.5 22.5t35.5 64.5q0 46 -31.5 72t-106.5 26h-101l-16 113h121q60 0 90 26.5t30 64.5q0 30 -25 52.5t-71 22.5q-45 0 -89 -13.5
t-98 -46.5l-25 125q49 28 107 44t117 16q122 0 181 -56.5t59 -137.5q0 -25 -12.5 -52.5t-30.5 -44.5h227v150h-95l-17 122h464q-3 12 -11 19t-20 7h-100q-84 0 -135 42.5t-51 112.5v39l116 -20q0 -33 16.5 -51t48.5 -18h86q-43 16 -70 51t-27 86v39l116 -20
q0 -34 16.5 -58.5t41.5 -34.5q51 -19 79 -58t28 -96v-40h108l17 -122h-111v-574l-155 16v558h-191v-574z" />
    <glyph glyph-name="dv_Ue" unicode="&#x976;" horiz-adv-x="975" 
d="M720 0v293h-214q21 -18 31.5 -46.5t10.5 -57.5q0 -87 -67.5 -145.5t-195.5 -58.5q-60 0 -120 15t-106 40l27 124q47 -28 93.5 -41.5t94.5 -13.5q49 0 84 22.5t35 64.5q0 47 -31.5 73t-106.5 26h-100l-17 112h121q61 0 90.5 27t29.5 64q0 31 -25 53t-71 22
q-45 0 -88.5 -13.5t-98.5 -46.5l-24 126q49 28 106.5 44t117.5 16q121 0 180 -57t59 -138q0 -25 -12.5 -52.5t-30.5 -44.5h228v151h-96l-16 122h361l16 -122h-112v-574zM688 -53q27 -17 54.5 -34t54.5 -33q-40 -79 -108.5 -109t-140.5 -30t-140 30t-108 109l110 67
q23 -47 65 -66.5t73 -19.5q32 0 73 18.5t67 67.5z" />
    <glyph glyph-name="dv_Uue" unicode="&#x977;" horiz-adv-x="975" 
d="M720 0v293h-213q20 -17 31 -45.5t11 -57.5q0 -87 -68 -146t-196 -59q-60 0 -120 15t-106 40l28 125q47 -28 93 -41.5t94 -13.5q49 0 84.5 22.5t35.5 64.5q0 46 -31.5 72t-106.5 26h-101l-16 113h121q60 0 90 26.5t30 64.5q0 30 -25 52.5t-71 22.5q-45 0 -89 -13.5
t-98 -46.5l-25 125q49 28 107 44t117 16q122 0 181 -56.5t59 -137.5q0 -25 -12.5 -52.5t-30.5 -44.5h227v150h-95l-17 122h361l17 -122h-112v-574zM668 -52l103 -58q-49 -83 -117 -107t-114 -24q-47 0 -114 25t-114 106l103 59q17 -46 52.5 -65t72.5 -19q32 0 68.5 15.5
t59.5 67.5zM753 -174l100 -61q-53 -81 -140.5 -112t-172.5 -31q-81 0 -173 31t-144 109l100 63q34 -41 92.5 -66t124.5 -25t120.5 22.5t92.5 69.5z" />
    <glyph glyph-name="dv_MarwariDda" unicode="&#x978;" horiz-adv-x="664" 
d="M262 558v-199h95q102 0 175.5 -56.5t73.5 -162.5v-155q-9 0 -82 7.5l-73 7.5v140q0 45 -24.5 71t-70.5 26h-96q-4 -43 -22 -61.5t-43 -18.5q-60 0 -108.5 39t-48.5 99q0 29 21 46t56 17v200h-110q-4 31 -8 61t-8 61h669l17 -122h-413z" />
    <glyph glyph-name="dv_Zha" unicode="&#x979;" horiz-adv-x="826" 
d="M572 0v345h-106q5 -16 9 -35.5t4 -39.5q0 -116 -75 -171t-171 -55q-61 0 -119 20.5t-99 47.5l26 139q46 -37 93.5 -58t92.5 -21q49 0 78.5 26t29.5 66q0 33 -20.5 57t-68.5 24h-66l-18 120h410v93h-566l-17 122h832l17 -122h-112v-574zM38 -61q0 33 23.5 57t56.5 24
q34 0 58 -24t24 -57q0 -34 -24 -57t-58 -23q-33 0 -56.5 23t-23.5 57zM273 -61q0 33 23 57t57 24t57.5 -24t23.5 -57q0 -34 -23.5 -57t-57.5 -23t-57 23t-23 57zM156 -206q0 32 23 56t57 24q33 0 57 -24t24 -56q0 -34 -24 -58t-57 -24q-34 0 -57 24t-23 58z" />
    <glyph glyph-name="dv_HeavyYa" unicode="&#x97a;" horiz-adv-x="680" 
d="M425 0v171q-24 -12 -56.5 -18.5t-74.5 -6.5q-93 0 -169.5 63t-76.5 147q7 7 14 15.5t14 15.5q21 7 38 33.5t17 63.5q0 22 -12.5 44t-30.5 30h-83q-4 31 -8 61t-8 61h685l17 -122h-112v-574zM425 558h-133l133 -188v188zM391 303q-32 47 -62.5 91.5t-58.5 84.5
q0 -45 -16 -83t-53 -66q13 -18 38 -37t69 -19q22 0 45 8t38 21z" />
    <glyph glyph-name="dv_Gga" unicode="&#x97b;" horiz-adv-x="730" 
d="M629 -16l-155 16v558h-186q0 -87 -0.5 -175t-0.5 -175q0 -39 -17 -61t-53 -22q-57 0 -107 48.5t-50 105.5q0 28 20.5 44.5t51.5 16.5v218h-127q-4 31 -8 61t-8 61h734l17 -122h-111v-574zM648 -191h-562l-16 120h561z" />
    <glyph glyph-name="dv_Jja" unicode="&#x97c;" horiz-adv-x="826" 
d="M572 0v345h-106q5 -16 9 -35.5t4 -39.5q0 -116 -75 -171t-171 -55q-61 0 -119 20.5t-99 47.5l26 139q46 -37 93.5 -58t92.5 -21q49 0 78.5 26t29.5 66q0 33 -20.5 57t-68.5 24h-66l-18 120h410v93h-566l-17 122h832l17 -122h-112v-574zM703 -192h-621l-16 121h620z" />
    <glyph glyph-name="dv_GlottalStop" unicode="&#x97d;" horiz-adv-x="563" 
d="M519 486q0 -65 -48.5 -131t-129.5 -103q0 -19 0.5 -124.5t0.5 -124.5l-156 47v281q78 25 126.5 66t48.5 87q0 40 -23.5 62.5t-59.5 22.5q-46 0 -95.5 -21t-105.5 -59l-21 141q51 32 108 50.5t123 18.5q114 0 173 -64t59 -149z" />
    <glyph glyph-name="dv_Ddda" unicode="&#x97e;" horiz-adv-x="549" 
d="M272 110q43 0 65.5 15t22.5 37q0 17 -11.5 29.5t-36.5 12.5h-84q-66 0 -122 42t-56 116q0 78 50.5 117.5t125.5 39.5h97v39h-317l-17 122h554l17 -122h-101v-166h-225q-18 0 -28.5 -8.5t-10.5 -21.5q0 -12 11.5 -22t28.5 -10h69q92 0 152.5 -38.5t60.5 -128.5
q0 -69 -61 -123.5t-176 -54.5q-59 0 -120 13.5t-107 38.5l27 125q47 -28 95 -40t97 -12zM506 -192h-438l-17 121h438z" />
    <glyph glyph-name="dv_Bba" unicode="&#x97f;" horiz-adv-x="644" 
d="M389 0v83q-18 -12 -51 -20.5t-61 -8.5q-105 0 -171.5 64t-66.5 157q0 94 66.5 157.5t171.5 63.5q28 0 61 -8.5t51 -19.5v90h-384q-4 31 -8 61t-8 61h649l17 -122h-112v-574zM383 224q1 1 3 3.5t3 5.5v84q-13 19 -37 37t-65 18q-7 0 -15 -1t-15 -4zM332 185
q-31 36 -63 72.5t-64 71.5q-7 -10 -11.5 -24t-4.5 -29q0 -47 31.5 -72t72.5 -25q11 0 21.5 2t17.5 4zM568 -191h-483l-17 120h483z" />
    <glyph glyph-name="uni200C" unicode="&#x200c;" horiz-adv-x="0" 
d="M-30 1237h60v-1305h-60v1305z" />
    <glyph glyph-name="uni200D" unicode="&#x200d;" horiz-adv-x="0" 
d="M74 1320l40 -40l-74 -74l74 -74l-39 -39l-45 44v-1205h-60v1204l-44 -43l-39 39l74 74l-74 74l40 40l73 -74z" />
    <glyph glyph-name="endash" unicode="&#x2013;" horiz-adv-x="421" 
d="M404 216h-376l-11 116h377z" />
    <glyph glyph-name="emdash" unicode="&#x2014;" horiz-adv-x="531" 
d="M514 216h-486l-11 116h488z" />
    <glyph glyph-name="quoteleft" unicode="&#x2018;" horiz-adv-x="188" 
d="M10 538q0 57 40 116.5t100 87.5l32 -67q-22 -17 -39.5 -34.5t-23.5 -44.5q17 -4 34 -25.5t17 -48.5q0 -28 -22.5 -54t-56.5 -26t-57.5 27t-23.5 69z" />
    <glyph glyph-name="quoteright" unicode="&#x2019;" horiz-adv-x="188" 
d="M178 647q0 -57 -40 -116t-100 -89l-31 68q22 17 39 35t23 44q-17 4 -34 25.5t-17 47.5q0 28 22.5 54t56.5 26t57.5 -26t23.5 -69z" />
    <glyph glyph-name="quotesinglbase" unicode="&#x201a;" horiz-adv-x="188" 
d="M178 51q0 -57 -40 -116t-100 -89l-31 68q22 17 39 35t23 43q-17 4 -34 26t-17 48q0 29 22.5 54.5t56.5 25.5t57.5 -26.5t23.5 -68.5z" />
    <glyph glyph-name="quotedblleft" unicode="&#x201c;" horiz-adv-x="381" 
d="M10 538q0 57 40 116.5t100 87.5l32 -67q-22 -17 -39.5 -34.5t-23.5 -44.5q17 -4 34 -25.5t17 -48.5q0 -28 -22.5 -54t-56.5 -26t-57.5 27t-23.5 69zM203 538q0 57 40 116.5t100 87.5l32 -67q-22 -17 -39.5 -34.5t-23.5 -44.5q17 -4 34.5 -25.5t17.5 -48.5
q0 -28 -23.5 -54t-56.5 -26t-57 27t-24 69z" />
    <glyph glyph-name="quotedblright" unicode="&#x201d;" horiz-adv-x="381" 
d="M371 647q0 -57 -40 -116t-100 -89l-31 68q22 17 39 35t24 44q-18 4 -35 25.5t-17 47.5q0 28 23 54t57 26q33 0 56.5 -26t23.5 -69zM178 647q0 -57 -40 -116t-100 -89l-31 68q22 17 39 35t23 44q-17 4 -34 25.5t-17 47.5q0 28 22.5 54t56.5 26t57.5 -26t23.5 -69z" />
    <glyph glyph-name="quotedblbase" unicode="&#x201e;" horiz-adv-x="381" 
d="M371 51q0 -57 -40 -116t-100 -89l-31 68q22 17 39 35t24 43q-18 4 -35 26t-17 48q0 29 23 54.5t57 25.5q33 0 56.5 -26.5t23.5 -68.5zM178 51q0 -57 -40 -116t-100 -89l-31 68q22 17 39 35t23 43q-17 4 -34 26t-17 48q0 29 22.5 54.5t56.5 25.5t57.5 -26.5t23.5 -68.5z
" />
    <glyph glyph-name="dagger" unicode="&#x2020;" horiz-adv-x="454" 
d="M305 780v-155h107l18 -129h-136v-496h-142v496h-109l-19 129h128v155h153z" />
    <glyph glyph-name="daggerdbl" unicode="&#x2021;" horiz-adv-x="481" 
d="M157 -6l5 160h-112l-19 129h131v213h-112l-19 129h128v155h161v-155h111l18 -129h-129v-213h111l18 -129h-132l5 -153z" />
    <glyph glyph-name="bullet" unicode="&#x2022;" horiz-adv-x="289" 
d="M31 330q0 46 33 80t80 34t80.5 -34t33.5 -80q0 -47 -33.5 -79.5t-80.5 -32.5t-80 32.5t-33 79.5z" />
    <glyph glyph-name="ellipsis" unicode="&#x2026;" horiz-adv-x="526" 
d="M155 72q0 -31 -21 -51.5t-51 -20.5t-51.5 20.5t-21.5 51.5t21.5 52t51.5 21t51 -21t21 -52zM516 71q0 -30 -21 -50.5t-52 -20.5q-29 0 -50 20.5t-21 50.5q0 31 21 52t50 21q31 0 52 -21t21 -52zM336 71q0 -30 -21 -50.5t-50 -20.5q-31 0 -52 20.5t-21 50.5q0 31 21 52
t52 21q29 0 50 -21t21 -52z" />
    <glyph glyph-name="perthousand" unicode="&#x2030;" horiz-adv-x="1352" 
d="M701 706l-299 -706h-149l297 706h151zM27 528q0 81 51 127.5t120 46.5q72 0 121.5 -46.5t49.5 -127.5q0 -80 -51.5 -127t-121.5 -47q-69 0 -119 46.5t-50 127.5zM199 598q-22 0 -37.5 -17.5t-15.5 -51.5q0 -37 14 -54.5t37 -17.5t38.5 17.5t15.5 52.5q0 34 -14 52.5
t-38 18.5zM982 174q0 81 50.5 127t121.5 46q70 0 120 -46t50 -127q0 -80 -51.5 -127t-120.5 -47q-70 0 -120 46.5t-50 127.5zM586 174q0 81 50.5 127t120.5 46q71 0 120.5 -46t49.5 -127q0 -80 -51.5 -127t-120.5 -47q-70 0 -119.5 46.5t-49.5 127.5zM1154 244
q-22 0 -38 -17.5t-16 -51.5q0 -37 14 -55t39 -18q23 0 38 18t15 53q0 34 -14 52.5t-38 18.5zM757 244q-22 0 -37.5 -17.5t-15.5 -51.5q0 -37 14 -55t38 -18q23 0 38 18t15 53q0 34 -14 52.5t-38 18.5z" />
    <glyph glyph-name="guilsinglleft" unicode="&#x2039;" horiz-adv-x="231" 
d="M190 75l-169 145v54l169 147l26 -107l-76 -67l76 -66z" />
    <glyph glyph-name="guilsinglright" unicode="&#x203a;" horiz-adv-x="231" 
d="M42 421l169 -147v-53l-169 -146l-26 106l74 66l-74 67z" />
    <glyph glyph-name="fraction" unicode="&#x2044;" horiz-adv-x="462" 
d="M457 706l-299 -706h-152l298 706h153z" />
    <glyph glyph-name="Euro" unicode="&#x20ac;" horiz-adv-x="651" 
d="M510 202h-212q19 -43 53.5 -68.5t84.5 -25.5q42 0 74.5 9.5t61.5 23.5q14 -27 28 -54.5t27 -54.5q-38 -22 -92 -33.5t-99 -11.5q-122 0 -192 60t-96 155h-102l-12 102h98q-1 8 -1.5 16.5t-0.5 16.5t0.5 17t1.5 18h-86l-12 103h115q29 97 102.5 157.5t186.5 60.5
q37 0 88.5 -11.5t94.5 -36.5l-45 -103q-56 19 -80.5 24t-55.5 5q-49 0 -85 -25t-57 -71h202l10 -103h-237q0 -8 -0.5 -16.5t-0.5 -17.5t0.5 -17.5t0.5 -16.5h227z" />
    <glyph glyph-name="Turkishlira" unicode="&#x20ba;" horiz-adv-x="607" 
d="M261 706v-98q34 11 67.5 23t67.5 24q6 -26 12 -52.5t13 -51.5l-160 -56v-39l135 48q6 -26 12 -52.5t13 -51.5l-160 -57v-212q73 1 121.5 53.5t48.5 145.5q37 0 75.5 -0.5t75.5 -0.5q0 -149 -89 -239t-232 -90h-147v291q-17 -6 -34.5 -11.5t-33.5 -11.5l-16 107
q21 7 42 14.5t42 14.5v39l-68 -25l-16 108q21 7 42 14.5t42 14.5v139z" />
    <glyph glyph-name="Ruble" unicode="&#x20bd;" horiz-adv-x="655" 
d="M510 99h-245v-99h-147v99h-66l-11 109h77v43h-76v118h76v311h226q112 0 192 -47.5t80 -166.5q0 -118 -86 -166.5t-194 -48.5h-71v-43h235zM340 560h-75v-191h77q53 0 85.5 20.5t35.5 71.5q0 60 -32.5 79.5t-90.5 19.5z" />
    <glyph glyph-name="litre" unicode="&#x2113;" horiz-adv-x="458" 
d="M20 285q17 8 37 19t41 24v215q0 74 51.5 116.5t119.5 42.5q67 0 113 -40t46 -111q0 -72 -54 -145t-128 -133v-95q0 -32 12.5 -48.5t41.5 -16.5q10 0 28 3.5t39 18.5l47 -96q-26 -23 -61.5 -36t-66.5 -13q-90 0 -139 44t-49 129v13l-21 -10.5t-22 -9.5zM244 537v-102
q20 25 32.5 53t12.5 57q0 19 -6.5 26.5t-16.5 7.5t-16 -10t-6 -32z" />
    <glyph glyph-name="trademark" unicode="&#x2122;" horiz-adv-x="804" 
d="M30 680h330l12 -83h-126v-297h-102v297h-114v83zM574 406l-68 75v-181h-104v380h61l127 -152l117 151q3 0 12 0.5t46 0.5v-380h-104v171l-26 -30t-25 -30z" />
    <glyph glyph-name="Ohm" unicode="&#x2126;" horiz-adv-x="743" 
d="M370 571q-75 0 -121 -61.5t-46 -167.5q0 -72 24.5 -137.5t73.5 -87.5v-117h-245l-8 117h78q-37 43 -56 104.5t-19 122.5q0 157 85 254t234 97q151 0 236 -97t85 -254q0 -61 -19 -122.5t-56 -104.5h78l-9 -117h-245q1 87 1 102v15q49 23 73.5 88t24.5 137q0 106 -46 167.5
t-123 61.5z" />
    <glyph glyph-name="estimated" unicode="&#x212e;" horiz-adv-x="530" 
d="M273 499q116 0 170.5 -75t54.5 -178v-48h-316q10 -41 41 -64t80 -23q34 0 63 7.5t62 23.5l42 -104q-37 -28 -90 -39t-84 -11q-124 0 -198 66.5t-74 187.5q0 118 69.5 187.5t179.5 69.5zM270 377q-34 0 -57.5 -22t-31.5 -62h176q-6 38 -28 61t-59 23z" />
    <glyph glyph-name="partialdiff" unicode="&#x2202;" horiz-adv-x="578" 
d="M259 421q23 0 47.5 -7.5t46.5 -19.5q-35 54 -95.5 93t-120.5 52l68 99q141 -28 232.5 -138.5t91.5 -226.5q0 -139 -77.5 -208t-192.5 -69q-102 0 -165 67t-63 152q0 83 64 144.5t164 61.5zM263 116q51 0 82.5 32t40.5 88q-14 27 -45.5 50.5t-72.5 23.5q-47 0 -72 -30
t-25 -70q0 -36 24.5 -65t67.5 -29z" />
    <glyph glyph-name="Delta" unicode="&#x2206;" horiz-adv-x="667" 
d="M389 680l271 -662l-137 -18h-516l272 680h110zM331 471l-137 -354h277z" />
    <glyph glyph-name="product" unicode="&#x220f;" horiz-adv-x="691" 
d="M464 0v565h-239v-565h-146v680h533v-680h-148z" />
    <glyph glyph-name="summation" unicode="&#x2211;" horiz-adv-x="493" 
d="M480 0h-447v110l163 234l-160 224v112h383l20 -116h-240l135 -195v-48l-139 -207h266q4 -28 9 -57t10 -57z" />
    <glyph glyph-name="minus" unicode="&#x2212;" horiz-adv-x="459" 
d="M442 216h-415l-10 116h414z" />
    <glyph glyph-name="divisionslash" unicode="&#x2215;" horiz-adv-x="462" 
d="M457 706l-299 -706h-152l298 706h153z" />
    <glyph glyph-name="bulletmath" unicode="&#x2219;" horiz-adv-x="289" 
d="M31 330q0 46 33 80t80 34t80.5 -34t33.5 -80q0 -47 -33.5 -79.5t-80.5 -32.5t-80 32.5t-33 79.5z" />
    <glyph glyph-name="radical" unicode="&#x221a;" horiz-adv-x="664" 
d="M659 706l-298 -706h-179l-176 331h158l104 -192l240 567h151z" />
    <glyph glyph-name="infinity" unicode="&#x221e;" horiz-adv-x="862" 
d="M595 351q-36 -1 -65 -37.5t-41 -79.5l-5 -18q19 -29 48 -47.5t63 -18.5q43 0 70.5 32.5t27.5 75.5q0 37 -27.5 65t-70.5 28zM267 148q37 0 70 46t40 91q-18 27 -47.5 45.5t-62.5 18.5q-43 0 -70.5 -32t-27.5 -75q0 -37 27.5 -65.5t70.5 -28.5zM437 397q25 33 68 56.5
t92 23.5q103 0 167 -61t64 -160t-65 -165.5t-164 -66.5q-53 0 -98 22t-76 57q-25 -33 -68 -57t-92 -24q-101 0 -166.5 61.5t-65.5 160.5q0 100 65.5 166t164.5 66q53 0 97.5 -22.5t76.5 -56.5z" />
    <glyph glyph-name="integral" unicode="&#x222b;" horiz-adv-x="478" 
d="M112 -179q-28 0 -59 10.5t-47 24.5l41 103q16 -7 29.5 -10.5t26.5 -3.5q34 0 48 22t14 57v575q0 88 55.5 136t146.5 48q28 0 59 -10t47 -24l-43 -104q-15 7 -28.5 11t-26.5 4q-34 0 -48.5 -22t-14.5 -57v-575q0 -89 -54.5 -137t-145.5 -48z" />
    <glyph glyph-name="approxequal" unicode="&#x2248;" horiz-adv-x="524" 
d="M364 291q-41 0 -90.5 19.5t-99.5 19.5q-13 0 -29 -12t-17 -34l-107 21q0 81 45.5 109.5t99.5 28.5q34 0 92 -19.5t98 -19.5q13 0 25 12t13 34l108 -21q0 -81 -42 -109.5t-96 -28.5zM364 87q-41 0 -90.5 19.5t-99.5 19.5q-13 0 -29 -11.5t-17 -33.5l-107 20q0 83 45 111
t100 28q34 0 92 -19.5t98 -19.5q13 1 25 12t13 34l108 -20q0 -81 -42 -110.5t-96 -29.5z" />
    <glyph glyph-name="notequal" unicode="&#x2260;" horiz-adv-x="516" 
d="M444 517l-46 -103h88l9 -112h-146l-43 -98h180l9 -112h-240l-48 -107l-133 5q12 25 23 51t23 51h-89l-11 112h149l45 98h-183l-11 112h242l47 103h135z" />
    <glyph glyph-name="lessequal" unicode="&#x2264;" horiz-adv-x="366" 
d="M321 128l-298 161v80l298 162l25 -119l-160 -83l160 -82zM347 0h-318l-8 101h319z" />
    <glyph glyph-name="greaterequal" unicode="&#x2265;" horiz-adv-x="366" 
d="M342 288q-74 -40 -148.5 -80.5t-148.5 -80.5q-7 30 -13.5 59.5t-12.5 59.5l159 82q-40 20 -79.5 41t-79.5 42q6 30 12.5 59.5t13.5 59.5q74 -40 148.5 -80.5t148.5 -81.5v-80zM343 0h-318l-8 100h318z" />
    <glyph glyph-name="lozenge" unicode="&#x25ca;" horiz-adv-x="573" 
d="M258 0l-237 279v41l237 280h58l236 -280v-41l-236 -279h-58zM161 299l125 -149l126 149l-126 150z" />
    <glyph glyph-name="uni25CC" unicode="&#x25cc;" horiz-adv-x="672" 
d="M303 542q0 14 9 23.5t23 9.5t23.5 -9.5t9.5 -23.5t-9.5 -23t-23.5 -9t-23 9t-9 23zM403 525q0 14 9 23.5t23 9.5t23.5 -9.5t9.5 -23.5t-9.5 -23t-23.5 -9t-23 9t-9 23zM269 525q0 -14 -9 -23t-23 -9t-23.5 9t-9.5 23t9.5 23.5t23.5 9.5t23 -9.5t9 -23.5zM488 469
q0 14 9 23.5t23 9.5t23.5 -9.5t9.5 -23.5t-9.5 -23t-23.5 -9t-23 9t-9 23zM184 469q0 -14 -9 -23t-23 -9t-23.5 9t-9.5 23t9.5 23.5t23.5 9.5t23 -9.5t9 -23.5zM541 381q0 14 9 23.5t23 9.5t23.5 -9.5t9.5 -23.5t-9.5 -23t-23.5 -9t-23 9t-9 23zM131 381q0 -14 -9 -23
t-23 -9t-23.5 9t-9.5 23t9.5 23.5t23.5 9.5t23 -9.5t9 -23.5zM557 286q0 14 9 23.5t23 9.5t23.5 -9.5t9.5 -23.5t-9.5 -23t-23.5 -9t-23 9t-9 23zM115 286q0 -14 -9 -23t-23 -9t-23.5 9t-9.5 23t9.5 23.5t23.5 9.5t23 -9.5t9 -23.5zM541 193q0 14 9 23.5t23 9.5t23.5 -9.5
t9.5 -23.5t-9.5 -23t-23.5 -9t-23 9t-9 23zM131 193q0 -14 -9 -23t-23 -9t-23.5 9t-9.5 23t9.5 23.5t23.5 9.5t23 -9.5t9 -23.5zM489 104q0 14 9 23.5t23 9.5t23.5 -9.5t9.5 -23.5t-9.5 -23t-23.5 -9t-23 9t-9 23zM183 104q0 -14 -9 -23t-23 -9t-23.5 9t-9.5 23t9.5 23.5
t23.5 9.5t23 -9.5t9 -23.5zM269 49q0 -14 -9 -23t-23 -9t-23.5 9t-9.5 23t9.5 23.5t23.5 9.5t23 -9.5t9 -23.5zM403 49q0 14 9 23.5t23 9.5t23.5 -9.5t9.5 -23.5t-9.5 -23t-23.5 -9t-23 9t-9 23zM303 32q0 14 9 23.5t23 9.5t23.5 -9.5t9.5 -23.5t-9.5 -23t-23.5 -9t-23 9
t-9 23z" />
    <glyph glyph-name="commaaccent" unicode="&#xf6c3;" horiz-adv-x="187" 
d="M173 -117q0 -57 -38 -106.5t-92 -73.5l-30 68q13 6 29.5 20.5t22.5 33.5q-18 4 -35 25.5t-17 48.5q0 29 23 54.5t57 25.5q33 0 56.5 -26.5t23.5 -69.5z" />
    <glyph glyph-name="fi" unicode="&#xfb01;" horiz-adv-x="677" 
d="M292 702q27 0 60 -10.5t49 -24.5l-42 -104q-16 7 -31.5 11t-27.5 4q-34 0 -50 -22t-16 -58v-31h106l33 -115h-139v-352h-147v352h-77v115h77v50q0 88 57 136.5t148 48.5zM621 634q0 -34 -24.5 -57.5t-58.5 -23.5t-57 23.5t-23 57.5t23 58t57 24t58.5 -24t24.5 -58z
M612 485v-485h-147v485h147z" />
    <glyph glyph-name="fl" unicode="&#xfb02;" horiz-adv-x="683" 
d="M292 702q27 0 60 -10.5t49 -24.5l-42 -104q-16 7 -31.5 11t-27.5 4q-34 0 -50 -22t-16 -58v-31h106l33 -115h-139v-352h-147v352h-77v115h77v50q0 88 57 136.5t148 48.5zM616 706v-706h-146v695z" />
    <glyph glyph-name="dv_La.MAR" horiz-adv-x="820" 
d="M268 496q44 0 83.5 -17t63.5 -42q13 15 32 27.5t41 19.5v74h-482l-17 122h826l17 -122h-196v-75q60 -20 97.5 -67t37.5 -104q0 -76 -29.5 -149t-88.5 -188l-129 41q62 127 82.5 184t20.5 102q0 25 -20 45t-52 20q-34 0 -52.5 -26.5t-18.5 -69.5v-142l-136 14v128
q0 43 -17.5 69.5t-59.5 26.5q-32 0 -52 -20t-20 -45q0 -45 21 -102t84 -184l-131 -41q-60 115 -89 188t-29 149q0 75 62 129.5t151 54.5z" />
    <glyph glyph-name="dv_Sha.MAR" horiz-adv-x="831" 
d="M575 0v558h-272v-42q76 -22 110 -78.5t34 -116.5q0 -59 -36.5 -108.5t-109.5 -81.5l80 -123l-143 -36l-78 141l-25 1q-25 1 -44 13t-23 34q0 51 41 97.5t89 46.5q16 0 29.5 -16t21.5 -33q28 11 40 29t12 37q0 36 -26.5 54.5t-60.5 18.5q-31 0 -63.5 -14t-54.5 -30
l-56 116q19 16 49 29.5t63 21.5v40h-146l-17 122h836l17 -122h-112v-574z" />
    <glyph glyph-name="dv_oldJha" horiz-adv-x="1088" 
d="M555 0v201h-209q0 -34 -14 -57.5t-45 -23.5q-60 0 -108 40t-48 98q0 30 20.5 47t56.5 17v107q-6 -1 -11.5 -1h-9.5q-63 0 -102.5 38t-39.5 100q0 59 43.5 95.5t101.5 36.5q77 0 121 -48.5t44 -132.5v-195h200v236h-94q-4 31 -8.5 61t-8.5 61h639l16 -122h-388v-96
q15 12 47.5 21.5t60.5 9.5q106 0 170.5 -63t64.5 -157q0 -109 -75 -165.5t-168 -57.5l-30 129q54 0 88 26.5t34 68.5q0 40 -26 67t-66 27q-43 0 -66 -18t-34 -36v-330z" />
    <glyph glyph-name="dv_KSsa" horiz-adv-x="812" 
d="M557 0v308h-70q-56 0 -121 13.5t-116 39.5q-27 -22 -48.5 -53t-21.5 -50q0 -32 23 -50.5t49 -18.5q4 0 10.5 0.5t13.5 1.5q0 37 21 61.5t59 24.5q40 0 78 -26t38 -68q0 -16 -8 -35t-20 -35q15 -28 32 -58t32 -56l-125 -46l-58 113q-19 -4 -39.5 -6.5t-33.5 -2.5
q-87 0 -152 50t-65 149q0 52 34 101t74 77q-22 22 -37 48.5t-15 64.5q0 58 40.5 104.5t112.5 46.5t111 -44.5t39 -101.5q0 -31 -6.5 -53t-25.5 -44q27 -12 62.5 -17t63.5 -5h69v247h250l16 -122h-111v-574z" />
    <glyph glyph-name="dv_JNya" horiz-adv-x="844" 
d="M587 0v344h-103q6 -16 9.5 -35t3.5 -40q0 -120 -75 -168.5t-159 -56.5q24 -29 39.5 -48t22.5 -27l-101 -73l-126 168q-31 15 -61 46t-30 74q0 31 20.5 50t51.5 19q38 0 70.5 -23.5t46.5 -54.5q13 -2 25 -3t24 -1q47 0 75 29t28 69q0 27 -20 51t-64 24h-66q-4 31 -8.5 61
t-8.5 60h406v93h-582q-4 31 -8 61t-8 61h848l17 -122h-111v-574z" />
    <glyph glyph-name="dv_Jha.NEP" horiz-adv-x="537" 
d="M216 127q-25 0 -54.5 10t-36.5 39q0 51 40.5 97t88.5 46q15 0 29 -16t22 -33q25 9 38 25.5t13 37.5q0 32 -24 48t-61 16q-19 -29 -55 -54t-86 -25q-35 0 -67 11t-55 33l58 98q15 -11 25 -14.5t19 -3.5q19 0 25.5 12t6.5 28q0 13 -10.5 38t-21.5 38h-105q-4 31 -8 61
t-8 61h541l17 -122h-300q4 -5 7.5 -12.5t7.5 -15.5q119 -1 180.5 -59.5t61.5 -139.5q0 -59 -36.5 -110t-109.5 -76l92 -145q-36 -8 -71.5 -17t-71.5 -18q-22 40 -45.5 80.5t-45.5 81.5z" />
    <glyph glyph-name="dv_Reph" horiz-adv-x="0" 
d="M-107 674h-145q-16 22 -27 57.5t-11 63.5q0 63 44.5 113t120.5 50q45 0 82 -17.5t55 -37.5l-59 -101q-14 13 -27.5 20t-29.5 7q-22 0 -35 -16t-13 -35q0 -29 14.5 -57.5t30.5 -46.5z" />
    <glyph glyph-name="dv_Reph.MAR" horiz-adv-x="532" 
d="M543 558h-537l-17 122h537zM266 195q-72 0 -141 33t-109 113l108 65q21 -45 61.5 -68t80.5 -23t79.5 22t64.5 69l106 -65q-40 -81 -108.5 -113.5t-141.5 -32.5z" />
    <glyph glyph-name="dv_Rakar" horiz-adv-x="0" 
d="M91 -187l-102 63l160 145h100l157 -145l-93 -63l-111 98l-56 -49t-55 -49z" />
    <glyph glyph-name="dv_MatraI.1" 
d="M317 827q-51 0 -79 -24t-28 -53q0 -25 8 -42.5t16 -27.5h115l17 -122h-111v-574l-155 16v558h-94l-17 122h89q-7 12 -14 35t-7 54q0 87 65 140t176 53q153 0 332 -55.5t268 -105.5l-61 -104q-101 52 -255.5 91t-264.5 39z" />
    <glyph glyph-name="dv_MatraI.2" 
d="M303 962q208 0 499 -66t392 -98l-59 -101q-112 31 -382 80.5t-431 49.5q-58 0 -85 -24t-27 -53q0 -25 8 -42.5t16 -27.5h115l17 -122h-111v-574l-155 16v558h-94l-17 122h89q-7 12 -14 35t-7 54q0 87 65 140t181 53z" />
    <glyph glyph-name="dv_MatraI.3" 
d="M303 962q163 0 392 -65t326 -99l-60 -101q-116 34 -316.5 82t-322.5 48q-58 0 -85 -24t-27 -53q0 -25 8 -42.5t16 -27.5h115l17 -122h-111v-574l-155 16v558h-94l-17 122h89q-7 12 -14 35t-7 54q0 87 65 140t181 53z" />
    <glyph glyph-name="dv_MatraI.4" 
d="M300 827q-51 0 -70.5 -24.5t-19.5 -50.5q0 -25 8 -43t16 -29h115l17 -122h-111v-574l-155 16v558h-94l-17 122h89q-7 12 -14 35t-7 54q0 84 56.5 138.5t167.5 54.5q116 0 216.5 -57.5t157.5 -103.5l-62 -104q-74 51 -143 90.5t-150 39.5z" />
    <glyph glyph-name="dv_MatraIReph" 
d="M313 827q-51 0 -77 -24.5t-26 -50.5q0 -25 8 -43t16 -29h115l17 -122h-111v-574l-155 16v558h-94l-17 122h89q-7 12 -14 35t-7 54q0 84 63 138.5t175 54.5q98 0 216.5 -37.5t208.5 -81.5q13 47 54.5 81t101.5 34q45 0 82 -17.5t55 -37.5l-59 -101q-14 13 -27.5 20
t-29.5 7q-22 0 -35 -16t-13 -35q0 -29 14.5 -57.5t30.5 -46.5h-145q-4 4 -7.5 10.5t-6.5 12.5q-100 55 -217.5 92.5t-204.5 37.5z" />
    <glyph glyph-name="dv_MatraIReph.1" 
d="M317 827q-51 0 -79 -24t-28 -53q0 -25 8 -42.5t16 -27.5h115l17 -122h-111v-574l-155 16v558h-94l-17 122h89q-7 12 -14 35t-7 54q0 87 65 140t176 53q125 0 270.5 -38.5t249.5 -83.5q13 49 54.5 83.5t103.5 34.5q45 0 82 -17.5t55 -37.5l-59 -101q-14 13 -27.5 20
t-29.5 7q-23 0 -35.5 -16t-12.5 -35q0 -29 14.5 -57.5t29.5 -46.5h-144q-4 4 -7.5 10.5t-7.5 13.5q-101 51 -254 90t-263 39z" />
    <glyph glyph-name="dv_MatraIReph.2" 
d="M1253 674h-145q-6 7 -11 16t-9 19q-135 34 -376.5 76t-389.5 42q-58 0 -85 -24t-27 -53q0 -25 8 -42.5t16 -27.5h115l17 -122h-111v-574l-155 16v558h-94l-17 122h89q-7 12 -14 35t-7 54q0 87 65 140t181 53q166 0 394.5 -45t377.5 -85q11 51 53.5 88.5t106.5 37.5
q45 0 82 -17.5t55 -37.5l-59 -101q-14 13 -27.5 20t-29.5 7q-22 0 -35 -16t-13 -35q0 -29 14.5 -57.5t30.5 -46.5z" />
    <glyph glyph-name="dv_MatraIReph.3" 
d="M1103 674h-145q-4 6 -8.5 13.5t-8.5 15.5q-123 36 -312 80t-307 44q-58 0 -85 -24t-27 -53q0 -25 8 -42.5t16 -27.5h115l17 -122h-111v-574l-155 16v558h-94l-17 122h89q-7 12 -14 35t-7 54q0 87 65 140t181 53q134 0 315 -45.5t307 -86.5q10 51 53 89.5t108 38.5
q44 0 81.5 -17.5t54.5 -37.5l-59 -101q-14 13 -27.5 20t-29.5 7q-22 0 -35 -16t-13 -35q0 -29 14.5 -57.5t30.5 -46.5z" />
    <glyph glyph-name="dv_MatraIReph.4" 
d="M300 827q-51 0 -70.5 -24.5t-19.5 -50.5q0 -25 8 -43t16 -29h115l17 -122h-111v-574l-155 16v558h-94l-17 122h89q-7 12 -14 35t-7 54q0 84 56.5 138.5t167.5 54.5q79 0 153 -29t134 -66q18 39 56.5 65t92.5 26q44 0 81.5 -17.5t54.5 -37.5l-59 -101q-14 13 -27.5 20
t-29.5 7q-22 0 -34.5 -16t-12.5 -35q0 -29 14 -57.5t30 -46.5h-145q-7 9 -13.5 21.5t-10.5 25.5q-67 45 -131 75.5t-134 30.5z" />
    <glyph glyph-name="dv_MatraIi.1" 
d="M100 0v558h-94l-17 122h88q-43 45 -154.5 93.5t-227.5 48.5q-31 0 -46.5 -12.5t-15.5 -21.5q0 -16 7.5 -26t18.5 -20l-148 -30q-14 17 -22.5 40.5t-8.5 54.5q0 60 55 102.5t148 42.5q181 0 342.5 -93.5t212.5 -178.5h111l17 -122h-111v-574z" />
    <glyph glyph-name="dv_MatraIi.2" 
d="M100 0v558h-94l-17 122h91q-28 45 -96 93t-139 48q-24 0 -35 -12.5t-11 -22.5q0 -14 7 -24t18 -20l-148 -30q-14 17 -22 40.5t-8 54.5q0 60 49.5 102.5t130.5 42.5q123 0 243 -88t169 -184h111l17 -122h-111v-574z" />
    <glyph glyph-name="dv_MatraIiReph.1" 
d="M100 0v558h-94l-17 122h88q-43 45 -154.5 93.5t-227.5 48.5q-31 0 -46.5 -12.5t-15.5 -21.5q0 -16 7.5 -26t18.5 -20l-148 -30q-14 17 -22.5 40.5t-8.5 54.5q0 60 55 102.5t148 42.5q103 0 204 -34.5t181 -83.5q12 51 54 87.5t107 36.5q44 0 81.5 -17.5t54.5 -37.5
l-59 -101q-14 13 -27.5 20t-29.5 7q-22 0 -35 -16t-13 -35q0 -27 12.5 -53.5t26.5 -44.5h109l17 -122h-111v-574z" />
    <glyph glyph-name="dv_MatraIiReph.2" 
d="M100 0v558h-94l-17 122h91q-28 45 -96 93t-139 48q-24 0 -35 -12.5t-11 -22.5q0 -14 7 -24t18 -20l-148 -30q-14 17 -22 40.5t-8 54.5q0 60 49.5 102.5t130.5 42.5q64 0 129.5 -26.5t122.5 -66.5q17 42 57 70.5t96 28.5q45 0 82 -17.5t55 -37.5l-59 -101q-14 13 -27.5 20
t-29.5 7q-23 0 -35.5 -16t-12.5 -35q0 -27 12.5 -53.5t26.5 -44.5h106l17 -122h-111v-574z" />
    <glyph glyph-name="dv_MatraIiReph" 
d="M99 0v558h-94q-4 31 -8 61t-8 61h91q-17 43 -56 92t-83 49q-12 0 -18.5 -9t-6.5 -18q0 -13 7.5 -26.5t19.5 -25.5l-149 -30q-15 17 -23 40.5t-8 54.5q0 60 47.5 102.5t122.5 42.5q46 0 86.5 -17.5t76.5 -47.5q21 31 56 51t82 20q44 0 81.5 -18t54.5 -38
q-14 -25 -29 -50.5t-30 -50.5q-14 13 -27.5 20.5t-29.5 7.5q-22 0 -34.5 -16t-12.5 -36q0 -24 9 -47t19 -42l4 -8h109l18 -122h-112v-574z" />
    <glyph glyph-name="dv_MatraEReph" horiz-adv-x="0" 
d="M-66 631h-176q-83 76 -148 136.5t-126 116.5l115 81l122 -122q13 40 48 67t86 27q37 0 68.5 -11t54.5 -34l-57 -97q-14 11 -25 14.5t-19 3.5q-19 0 -26 -11.5t-7 -28.5q0 -34 32.5 -75t57.5 -67z" />
    <glyph glyph-name="dv_MatraAiReph" horiz-adv-x="0" 
d="M-110 675l-130 -1q-27 26 -53.5 41.5t-80.5 15.5h-104l-29 131h127q27 0 50.5 -2t45.5 -12q-2 8 -22 66.5t-22 65.5l139 39l17 -74q11 4 23.5 6t25.5 2q37 0 68 -11t54 -35l-58 -97q-14 11 -24.5 15t-18.5 4q-16 0 -25.5 -9.5t-9.5 -23.5v-4.5t1 -4.5z" />
    <glyph glyph-name="dv_MatraOReph" 
d="M100 0v558h-94l-17 122h66l-223 204l115 81l117 -117q15 46 56 78t101 32q45 0 82 -17.5t55 -37.5l-60 -101q-14 13 -27 20t-29 7q-23 0 -35.5 -16t-12.5 -35q0 -27 12.5 -53.5t26.5 -44.5h116l17 -122h-111v-574z" />
    <glyph glyph-name="dv_MatraAuReph" 
d="M99 0v558h-94q-4 31 -8 61t-8 61h113q-25 23 -51 37t-76 14h-104l-29 130h126q27 0 51 -2t46 -12q-10 32 -22 66.5t-22 65.5l138 39l17 -74q15 6 31 10t35 4q44 0 81.5 -18t54.5 -38q-14 -25 -29 -50.5t-30 -50.5q-14 13 -27 20.5t-30 7.5q-19 0 -31.5 -16.5t-12.5 -33.5
v-5t1 -5q7 -37 11 -54t7 -35h111l18 -122h-112v-574z" />
    <glyph glyph-name="dv_RakarMatraU" horiz-adv-x="0" 
d="M91 -184l-102 64l160 141h100l157 -141l-93 -64l-111 95q-8 -7 -56 -47.5t-55 -47.5zM203 -380q23 0 34.5 12t11.5 30q0 17 -12 29.5t-34 12.5h-74v119h81q66 0 117 -42.5t51 -120.5q0 -75 -52 -118.5t-124 -43.5q-75 0 -146.5 50.5t-128.5 143.5l93 63q51 -63 95.5 -99
t87.5 -36z" />
    <glyph glyph-name="dv_RakarMatraUu" horiz-adv-x="0" 
d="M91 -184l-102 64l160 141h100l157 -141l-93 -64l-111 95q-8 -7 -56 -47.5t-55 -47.5zM201 -299q-23 0 -34.5 -12t-11.5 -29q0 -18 12.5 -30.5t33.5 -12.5h75v-119h-81q-66 0 -117.5 43t-51.5 120q0 76 52.5 119t124.5 43q75 0 146 -50t128 -143l-93 -63
q-51 63 -95.5 98.5t-87.5 35.5z" />
    <glyph glyph-name="dv_KRa" horiz-adv-x="916" 
d="M288 198q36 0 60 17t36 35v84q-12 19 -36 35.5t-60 16.5q-40 0 -69.5 -26.5t-29.5 -67.5q0 -40 29.5 -67t69.5 -27zM39 292q0 93 64.5 156.5t169.5 63.5q28 0 63 -10.5t48 -23.5v80h-379q-4 31 -8 61t-8 61h921l16 -122h-388v-80q12 11 46 22.5t62 11.5q106 0 171 -63
t65 -157q0 -109 -75 -165.5t-168 -57.5q-8 32 -15.5 64.5t-15.5 64.5q54 0 88.5 26.5t34.5 68.5q0 40 -26 67t-66 27q-43 0 -66 -18t-35 -35v-350l-154 16v73q-61 -35 -123.5 -69.5t-123.5 -69.5q-24 23 -48.5 46t-49.5 45l125 71q-58 25 -91.5 77.5t-33.5 118.5z" />
    <glyph glyph-name="dv_KRa.NEP" horiz-adv-x="892" 
d="M360 0v165l-198 -123l-83 115l237 144q-34 28 -61.5 39t-52.5 11q-10 0 -43 -11t-71 -28l-58 129q36 17 90 30.5t73 13.5q45 0 83 -7.5t84 -35.5v116h-354l-17 122h899l16 -122h-390v-93q16 11 49 20.5t60 9.5q106 0 171 -63t65 -157q0 -109 -75.5 -165.5t-168.5 -57.5
l-30 129q54 0 88 26.5t34 68.5q0 40 -25.5 67t-65.5 27q-43 0 -66 -18t-36 -35v-333z" />
    <glyph glyph-name="dv_KhRa" horiz-adv-x="1001" 
d="M493 127q19 0 37.5 4.5t34.5 14.5q-54 21 -84 69t-30 102q0 84 60.5 141t154.5 57q20 0 43 -4t36 -10v57h-361q8 -24 12 -51t4 -47q0 -72 -35 -125.5t-91 -79.5q21 -44 78 -86t141 -42zM676 390q-30 0 -50.5 -20.5t-20.5 -54.5t21 -54t50 -20q34 0 51.5 23t17.5 51
q0 31 -18 53t-51 22zM745 0v86q-75 -52 -151.5 -104.5t-152.5 -103.5l-97 96q15 10 29.5 19.5t29.5 18.5q-113 19 -185.5 81.5t-98.5 136.5q-40 0 -64 10t-28 37q0 51 43.5 98.5t91.5 47.5q16 0 29.5 -16t20.5 -35q18 11 30.5 37.5t12.5 52.5q0 28 -8 54t-24 42h-218
q-4 31 -8 61t-8 61h1006l16 -122h-111v-574z" />
    <glyph glyph-name="dv_GRa" horiz-adv-x="730" 
d="M474 0v122l-273 -193l-97 97l370 251v281h-186v-317q0 -38 -17 -60.5t-53 -22.5q-59 0 -110.5 50t-51.5 107q0 31 24.5 44.5t52.5 13.5v185h-127l-17 122h735l16 -122h-111v-574z" />
    <glyph glyph-name="dv_GhRa" horiz-adv-x="735" 
d="M302 194q51 0 93.5 31.5t83.5 59.5v273h-241q-7 -6 -11 -18.5t-4 -22.5q0 -26 20.5 -45t60.5 -19h53q6 -29 11.5 -59t10.5 -60h-62q-49 0 -73.5 -20t-24.5 -52t24 -50t59 -18zM206 -70l-97 96l77 54q-56 22 -89 68t-33 114q0 40 16.5 77t44.5 59q-23 23 -36.5 55.5
t-13.5 66.5q0 6 1.5 17t3.5 21h-75q-4 31 -8 61t-8 61h739l17 -122h-111v-574l-155 16v130z" />
    <glyph glyph-name="dv_CRa" horiz-adv-x="736" 
d="M481 0v52.5t-1 52.5l-272 -175q-25 23 -51 45.5t-51 44.5l146 90q-60 21 -98 68t-38 119q0 22 4.5 41.5t12.5 37.5h-90l-16 121h363q4 -31 8.5 -60.5t8.5 -60.5h-41q-53 -3 -79.5 -24t-26.5 -55q0 -37 30 -58.5t72 -21.5q34 0 71.5 19t47.5 49v273h-476q-4 31 -8 61
t-8 61h740l17 -122h-111v-574z" />
    <glyph glyph-name="dv_JRa" horiz-adv-x="884" 
d="M630 0v113l-188 -190l-108 81l296 289v58h-164q5 -16 9 -35t4 -40q0 -116 -75 -170.5t-171 -54.5q-61 0 -119 20.5t-99 47.5l26 139q46 -37 93.5 -58.5t92.5 -21.5q49 0 78.5 26.5t29.5 65.5q0 34 -20.5 57.5t-68.5 23.5h-66l-18 121h468v86h-624l-17 122h890l17 -122
h-113v-574z" />
    <glyph glyph-name="dv_JhRa" horiz-adv-x="954" 
d="M697 558h-232v-166h-229q-18 0 -28 -9t-10 -21t11.5 -22.5t28.5 -10.5h46q65 0 115.5 -10.5t82.5 -44.5q54 0 108 0.5t107 0.5v283zM697 0v95q-23 -33 -47 -65.5t-47 -64.5l-120 57l116 142h-76q-1 -6 -1.5 -12t-1.5 -10q-7 -60 -64 -106t-154 -50q1 -1 2 -3l2 -4
q22 -28 37 -47.5l25 -32.5l-101 -72l-125 169q-31 15 -61.5 45.5t-30.5 74.5q0 31 21 50t52 19q37 0 68 -21.5t46 -51.5q10 -1 21.5 -2t23.5 -1q39 0 61.5 16t22.5 37q0 17 -11 29.5t-37 12.5h-88q-66 0 -121.5 42t-55.5 116q0 77 50.5 117t125.5 40h92v39h-316q-4 31 -8 61
t-8 61h958l17 -122h-111v-574z" />
    <glyph glyph-name="dv_TRa" horiz-adv-x="616" 
d="M360 0v165l-198 -123l-83 115l237 144q-34 28 -61.5 39t-52.5 11q-10 0 -43 -11t-71 -28l-58 129q36 17 90 30.5t73 13.5q45 0 83 -7.5t84 -35.5v116h-354l-17 122h621l17 -122h-112v-574z" />
    <glyph glyph-name="dv_TRa.alt" horiz-adv-x="740" 
d="M486 0v237l-109 -107l-94 86l148 129h-146q-37 0 -58 -15t-21 -43q0 -39 37.5 -107t98.5 -164l-138 -38q-49 71 -99 158.5t-50 159.5q0 81 50 126.5t137 45.5h244v90h-480l-17 122h746l16 -122h-111v-574z" />
    <glyph glyph-name="dv_ThRa" horiz-adv-x="742" 
d="M487 0v169l-291 -235l-101 90l181 135q-69 22 -117.5 76.5t-48.5 120.5l29 36q21 7 54 27.5t34 67.5q-5 -11 -22.5 -19.5t-39.5 -8.5q-46 0 -82.5 29.5t-36.5 80.5q0 57 41.5 93.5t105.5 36.5q75 0 123.5 -55.5t48.5 -135.5q0 -68 -29 -112t-69 -71q13 -17 37.5 -34
t66.5 -17t76 22t40 58v204h-84l-16 122h349l17 -122h-111v-574z" />
    <glyph glyph-name="dv_DRa" horiz-adv-x="636" 
d="M601 -1q-31 -11 -63.5 -23t-63.5 -24l-61 112l-92 -159l-141 34q19 31 39 62.5t39 63.5q-96 15 -152 72t-56 156q0 112 84.5 167.5t206.5 55.5v42h-336q-4 31 -8 61t-8 61h641l17 -122h-148v-162h-151q-69 0 -114.5 -26t-45.5 -78t44 -80t110 -28h9t9 1q4 38 21.5 64
t58.5 26q43 0 82 -26t39 -68q0 -16 -8 -34t-21 -34z" />
    <glyph glyph-name="dv_DhRa" horiz-adv-x="769" 
d="M514 0v131l-273 -202l-97 97l60 43q-75 21 -113 72.5t-38 120.5q0 40 21.5 80t50.5 57q-25 19 -41.5 53.5t-16.5 68.5q0 68 50 120.5t134 52.5q49 0 82.5 -17.5t53.5 -36.5l-73 -99q-15 11 -27 14t-26 3q-17 0 -32 -13t-15 -30q0 -26 21 -43.5t61 -17.5h42l33 -120h-72
q-43 0 -67.5 -19.5t-24.5 -52.5q0 -31 28.5 -55.5t80.5 -24.5q18 0 36 4t36 11l126 88v273h-84l-16 122h350l16 -122h-111v-574z" />
    <glyph glyph-name="dv_NRa" horiz-adv-x="660" 
d="M405 0v169l-220 -228l-99 90l265 259l-137 57q-8 -21 -27.5 -46t-56.5 -25q-46 5 -76.5 57t-30.5 95q0 28 14.5 58t50.5 30q9 0 19 -2.5t21 -6.5l277 -109v160h-399l-17 122h666l16 -122h-111v-574z" />
    <glyph glyph-name="dv_PRa" horiz-adv-x="700" 
d="M334 267q42 0 72 22.5t39 56.5v212h-217v-182q0 -53 27.5 -81t78.5 -28zM445 0v154l-273 -220l-101 89l172 129q-72 19 -119 74.5t-47 140.5v191h-72q-4 31 -8 61t-8 61h705l17 -122h-112v-574z" />
    <glyph glyph-name="dv_PhRa" horiz-adv-x="977" 
d="M334 267q42 0 73 22.5t38 56.5v212h-217v-182q0 -53 27.5 -81t78.5 -28zM445 0v154l-273 -220l-101 89l172 129q-72 19 -119 74.5t-47 140.5v191h-72q-4 31 -8 61t-8 61h982l17 -122h-389v-96q16 12 49 21.5t60 9.5q106 0 171 -63t65 -157q0 -109 -75.5 -165.5
t-168.5 -57.5l-30 129q54 0 88.5 26.5t34.5 68.5q0 40 -26 67t-66 27q-43 0 -66 -18t-36 -36v-330z" />
    <glyph glyph-name="dv_BRa" horiz-adv-x="643" 
d="M383 240l4 12v83q-13 18 -36.5 35.5t-63.5 17.5q-7 0 -15 -1.5t-15 -4.5zM332 201l-127 144q-7 -11 -11.5 -24.5t-4.5 -29.5q0 -46 31.5 -71.5t72.5 -25.5q11 0 21.5 1.5t17.5 5.5zM387 0v75l-250 -141q-24 23 -48.5 46t-49.5 45l123 69q-57 27 -90 79t-33 117
q0 94 66.5 158t171.5 64q27 0 59 -8.5t51 -19.5v74h-382q-4 31 -8 61t-8 61h648l16 -122h-112v-574z" />
    <glyph glyph-name="dv_BhRa" horiz-adv-x="811" 
d="M556 0v138l-256 -214l-103 89l247 193h-94q0 -28 -15 -52.5t-42 -24.5q-59 0 -108.5 38t-49.5 97q0 29 19.5 45.5t53.5 17.5v102h-20q-63 0 -102.5 37.5t-39.5 99.5q0 60 43.5 96.5t101.5 36.5q77 0 121 -48.5t44 -132.5v-191h200v231h-94l-17 122h361l16 -122h-111v-574
z" />
    <glyph glyph-name="dv_MRa" horiz-adv-x="715" 
d="M460 558h-198v-231h198v231zM460 0v138q-64 -54 -128.5 -107t-128.5 -106q-25 22 -51 44t-52 43l247 194h-95q0 -34 -14 -53t-47 -19q-58 0 -105.5 36.5t-47.5 93.5q0 29 21 46t56 17v231h-110q-4 31 -8 61t-8 61h720l17 -122h-112v-574z" />
    <glyph glyph-name="dv_YRa" horiz-adv-x="680" 
d="M309 274q41 0 75 21.5t41 56.5v206h-166q6 -16 10.5 -38.5t4.5 -41.5q0 -45 -17 -82t-55 -65q13 -19 37.5 -38t69.5 -19zM425 0v164l-285 -230l-101 90l180 134q-70 21 -120.5 76t-50.5 122l29 31q20 7 37 33.5t17 63.5q0 22 -12.5 44t-30.5 30h-82l-17 122h686l16 -122
h-111v-574z" />
    <glyph glyph-name="dv_LRa" horiz-adv-x="872" 
d="M616 0v122l-144 -192q-26 21 -52.5 42.5t-52.5 41.5q61 76 122.5 154t122.5 154q-7 24 -24 38.5t-38 14.5q-29 0 -47.5 -28t-18.5 -71v-90q-34 4 -68 7.5t-68 6.5v76q0 43 -17.5 69.5t-59.5 26.5q-33 0 -53 -20t-20 -45q0 -45 21 -105t84 -186q-32 -10 -65 -20t-65 -20
q-60 113 -89.5 189t-29.5 152q0 75 62 129.5t151 54.5q45 0 84 -16.5t63 -41.5q23 26 59 42t80 16q15 0 32 -3.5t31 -10.5v71h-611q-4 31 -8 61t-8 61h877l17 -122h-112v-574z" />
    <glyph glyph-name="dv_VRa" horiz-adv-x="639" 
d="M283 198q47 0 68 19t33 37v77q-12 18 -33.5 37t-67.5 19q-40 0 -67 -27t-27 -67q0 -41 27 -67.5t67 -27.5zM384 0v74l-246 -141l-98 93l124 70q-58 25 -91.5 77.5t-33.5 118.5q0 94 64.5 157t169.5 63q28 0 61.5 -9t49.5 -21v76h-378l-17 122h644l17 -122h-111v-574z" />
    <glyph glyph-name="dv_ShRa" horiz-adv-x="712" 
d="M457 0v179l-282 -197l-49 130l220 154l-89 65l-177 -131l-57 124l132 98q-18 23 -33.5 53t-15.5 74q0 60 44 104.5t108 44.5t108 -43t44 -106q0 -31 -12 -67t-37 -60l96 -76v334h250l16 -122h-111v-574z" />
    <glyph glyph-name="dv_SsRa" horiz-adv-x="700" 
d="M445 558h-157l157 -200v200zM334 268q22 0 42.5 6t33.5 18q-28 37 -90 119t-91 117v-151q0 -54 27.5 -81.5t77.5 -27.5zM445 0v155l-273 -221l-101 90l172 128q-71 20 -118.5 75t-47.5 140v191h-71l-17 122h705l17 -122h-111v-574z" />
    <glyph glyph-name="dv_SRa" horiz-adv-x="835" 
d="M580 558h-192q8 -24 11.5 -51t3.5 -47q0 -24 -3.5 -46t-13.5 -42h194v186zM284 259q-5 -2 -10.5 -5t-11.5 -5q21 -33 41.5 -66.5t40.5 -65.5l154 142h-214zM125 230q-37 0 -62.5 8t-32.5 39q0 51 42 98.5t90 47.5q16 0 29.5 -17t20.5 -36q22 14 34.5 41.5t12.5 52.5
q0 28 -8.5 53.5t-23.5 40.5h-222q-4 31 -8 61t-8 61h841l17 -122h-112v-574l-155 16v169l-169 -159q-35 -8 -70 -16.5t-69 -17.5z" />
    <glyph glyph-name="dv_HRa" horiz-adv-x="568" 
d="M515 235q0 -37 -15.5 -70.5t-48.5 -53.5l-94 65q10 9 15.5 21.5t5.5 27.5q0 9 -6 17.5t-16 13.5l-23 -105l-93 16l25 104q-26 -7 -41.5 -28t-15.5 -49q0 -51 59.5 -76t120.5 -29l-32 -123q-121 5 -206 64t-85 164q0 35 13 67t32 54q-16 16 -24 38.5t-8 50.5q0 69 49 103
t115 34h64v17h-302l-15 122h573l17 -122h-111v-131h-205q-19 0 -26.5 -5.5t-7.5 -15.5q0 -5 2 -9.5t7 -6.5q13 3 27 5t30 2q97 0 158.5 -47.5t61.5 -114.5z" />
    <glyph glyph-name="dv_QRa" horiz-adv-x="916" 
d="M288 198q36 0 60 17t36 35v84q-12 19 -36 35.5t-60 16.5q-40 0 -69.5 -26.5t-29.5 -67.5q0 -40 29.5 -67t69.5 -27zM39 292q0 93 64.5 156.5t169.5 63.5q28 0 63 -10.5t48 -23.5v80h-379q-4 31 -8 61t-8 61h921l16 -122h-388v-80q12 11 46 22.5t62 11.5q106 0 171 -63
t65 -157q0 -109 -75 -165.5t-168 -57.5q-8 32 -15.5 64.5t-15.5 64.5q54 0 88.5 26.5t34.5 68.5q0 40 -26 67t-66 27q-43 0 -66 -18t-35 -35v-350l-154 16v74l-232 -130q-28 20 -56.5 41t-56.5 40l125 71q-58 25 -91.5 77.5t-33.5 118.5zM232 -88q0 34 24 58t58 24t58.5 -24
t24.5 -58t-24.5 -58t-58.5 -24t-58 24t-24 58z" />
    <glyph glyph-name="dv_KhhRa" horiz-adv-x="1001" 
d="M493 127q19 0 39 4t33 15q-54 21 -84 69t-30 102q0 84 60.5 141t154.5 57q20 0 43 -4t36 -10v57h-361q8 -24 12 -51t4 -47q0 -72 -35 -125.5t-91 -79.5q21 -44 78 -86t141 -42zM676 390q-30 0 -50.5 -20.5t-20.5 -54.5t21 -54t50 -20q34 0 51.5 23t17.5 51q0 31 -18 53
t-51 22zM745 0v86q-75 -52 -151.5 -104.5t-152.5 -103.5l-97 96q15 10 29.5 19.5t29.5 18.5q-113 19 -185.5 81.5t-98.5 136.5q-40 0 -64 10t-28 37q0 51 43.5 98.5t91.5 47.5q16 0 29.5 -16t20.5 -35q18 11 30.5 37.5t12.5 52.5q0 28 -8 54t-24 42h-218q-4 31 -8 61t-8 61
h1006l16 -122h-111v-574zM30 -5q0 34 24 58t58 24t58 -24t24 -58t-24 -58t-58 -24t-58 24t-24 58z" />
    <glyph glyph-name="dv_GhhRa" horiz-adv-x="730" 
d="M474 0v122l-273 -193l-97 97l370 251v281h-186v-317q0 -38 -17 -60.5t-53 -22.5q-59 0 -110.5 51.5t-51.5 105.5q0 31 24.5 44.5t52.5 13.5v185h-127l-17 122h735l16 -122h-111v-574zM308 -89q0 34 24 58.5t58 24.5t58.5 -24.5t24.5 -58.5t-24.5 -58t-58.5 -24t-58 24
t-24 58z" />
    <glyph glyph-name="dv_ZRa" horiz-adv-x="884" 
d="M630 0v113l-188 -190l-108 81l296 289v58h-164q5 -16 9 -35t4 -40q0 -116 -75 -170.5t-171 -54.5q-61 0 -119 20.5t-99 47.5l26 139q46 -37 95.5 -58.5t90.5 -21.5q49 0 78.5 26.5t29.5 65.5q0 34 -20.5 57.5t-68.5 23.5h-66l-18 121h468v86h-624l-17 122h890l17 -122
h-113v-574zM73 -89q0 34 24 58.5t58 24.5t58.5 -24.5t24.5 -58.5t-24.5 -58t-58.5 -24t-58 24t-24 58z" />
    <glyph glyph-name="dv_FRa" horiz-adv-x="977" 
d="M334 267q42 0 73 22.5t38 56.5v212h-217v-182q0 -53 27.5 -81t78.5 -28zM445 0v154l-273 -220l-101 89l172 129q-72 19 -119 74.5t-47 140.5v191h-72q-4 31 -8 61t-8 61h982l17 -122h-389v-96q16 12 49 21.5t60 9.5q106 0 171 -63t65 -157q0 -109 -75.5 -165.5
t-168.5 -57.5l-30 129q54 0 88.5 26.5t34.5 68.5q0 40 -26 67t-66 27q-43 0 -66 -18t-36 -36v-330zM272 -74q0 34 23.5 57.5t57.5 23.5t59 -23.5t25 -57.5t-25 -58t-59 -24t-57.5 24t-23.5 58z" />
    <glyph glyph-name="dv_YyRa" horiz-adv-x="680" 
d="M309 274q41 0 75 21.5t41 56.5v206h-166q6 -16 10.5 -38.5t4.5 -41.5q0 -45 -17 -82t-55 -65q13 -19 37.5 -38t69.5 -19zM425 0v164l-285 -230l-101 90l180 134q-70 21 -120.5 76t-50.5 122l29 31q20 7 37 33.5t17 63.5q0 22 -12.5 44t-30.5 30h-82l-17 122h686l16 -122
h-111v-574zM247 -74q0 34 24 58t58 24t58.5 -24t24.5 -58t-24.5 -58t-58.5 -24t-58 24t-24 58z" />
    <glyph glyph-name="dv_KSsRa" horiz-adv-x="921" 
d="M665 0v198l-54 -71l-129 48q28 34 56 67l56 66h-80q-60 0 -133 11t-131 42q-27 -22 -48.5 -53t-21.5 -50q0 -32 23 -50.5t49 -18.5q4 0 10.5 0.5t13.5 1.5q0 37 21 61.5t59 24.5q39 0 77.5 -26.5t38.5 -67.5q0 -16 -8 -35t-20 -35q15 -28 32 -58t32 -56l-125 -46l-58 113
q-19 -4 -39.5 -6.5t-33.5 -2.5q-87 0 -152 50t-65 149q0 52 34 101t74 77q-22 22 -37 48.5t-15 64.5q0 58 40.5 104.5t112.5 46.5q73 0 111.5 -45.5t38.5 -100.5q0 -31 -6.5 -53t-25.5 -44q34 -13 77 -17.5t80 -4.5h146v247h250l16 -122h-111v-574z" />
    <glyph glyph-name="dv_KR.half" horiz-adv-x="709" 
d="M288 198q36 0 60 17t36 35v84q-12 19 -36 35.5t-60 16.5q-40 0 -69.5 -26.5t-29.5 -67.5q0 -40 29.5 -67t69.5 -27zM39 292q0 93 64.5 156.5t169.5 63.5q28 0 63 -10.5t48 -23.5v80h-379q-4 31 -8 61t-8 61h714l17 -122h-182v-84q12 11 46 20t62 9h173v-121h-180
q-41 0 -65 -18t-36 -35v-345l-154 16v74l-232 -130q-28 20 -56.5 41t-56.5 40l125 71q-58 25 -91.5 77.5t-33.5 118.5z" />
    <glyph glyph-name="dv_GhR.half" horiz-adv-x="378" 
d="M514 310l2 -152l-309 -229l-97 97l77 54q-56 22 -89 68.5t-33 113.5q0 40 16.5 77.5t44.5 59.5q-23 22 -36.5 54.5t-13.5 66.5q0 6 1.5 17t3.5 21h-75l-17 122h385l17 -122h-153q-7 -5 -11 -17.5t-4 -23.5q0 -26 21 -44.5t61 -18.5h53l22 -120h-72q-43 0 -66 -21t-23 -51
q0 -31 24.5 -49.5t59.5 -18.5q16 0 31.5 3t30.5 8z" />
    <glyph glyph-name="dv_TR.half" horiz-adv-x="258" 
d="M270 558h-265q-4 31 -8 61t-8 61h264zM360 441q1 -46 4.5 -136t3.5 -135q-51 -31 -103 -63.5t-103 -64.5l-83 114q59 36 118 72.5t118 71.5q-34 29 -61.5 39.5t-51.5 10.5q-10 0 -43.5 -10.5t-70.5 -27.5l-58 128q35 17 89.5 31t73.5 14q45 0 83 -8t84 -36z" />
    <glyph glyph-name="dv_DhR.half" horiz-adv-x="409" 
d="M548 310l2 -152l-309 -229l-97 97l60 43q-75 21 -113 72.5t-38 120.5q0 40 21.5 80t50.5 57q-25 19 -41.5 53.5t-16.5 68.5q0 68 50 120.5t134 52.5q49 0 82.5 -17.5t53.5 -36.5l-73 -99q-15 11 -27 14t-26 3q-17 0 -32 -13t-15 -30q0 -26 21 -43.5t61 -17.5h42l33 -120
h-72q-43 0 -67.5 -19.5t-24.5 -52.5q0 -31 28.5 -55.5t80.5 -24.5q18 0 36 4t36 11z" />
    <glyph glyph-name="dv_PR.half" horiz-adv-x="341" 
d="M493 340q-9 -116 -10 -135.5l-1 -19.5l-310 -251l-101 89l172 129q-72 19 -119 74.5t-47 140.5v191h-72q-4 31 -8 61t-8 61h346l17 -122h-124v-182q0 -48 24 -76t68 -31q43 0 80.5 16.5t92.5 54.5z" />
    <glyph glyph-name="dv_VR.half" horiz-adv-x="540" 
d="M551 558h-546q-4 31 -8 61t-8 61h545zM39 288q0 94 66 157t175 63q110 0 175 -63.5t65 -155.5q0 -55 -25 -107t-60 -80q-110 -62 -176 -99.5t-122 -68.5q-24 23 -48.5 46t-49.5 45l123 69q-57 26 -90 78t-33 116zM279 383q-39 0 -64.5 -27t-25.5 -67t26 -67.5t64 -27.5
q40 0 65 27t25 68q0 40 -25 67t-65 27z" />
    <glyph glyph-name="dv_ShR.half" horiz-adv-x="362" 
d="M257 698q65 0 109 -43.5t44 -106.5q0 -31 -12 -67t-38 -60l127 -100v-123l-313 -216l-48 129q54 39 109.5 77t110.5 77q-22 16 -44.5 33t-45.5 33q-44 -33 -88.5 -66t-88.5 -65l-56 124l66 48t66 49q-19 23 -34.5 53t-15.5 74q0 61 44 105.5t108 44.5z" />
    <glyph glyph-name="dv_SsR.half" horiz-adv-x="339" 
d="M493 296q-9 -83 -10 -97l-1 -14l-310 -251l-101 89l172 129q-72 19 -119 74.5t-47 140.5v191h-72q-4 31 -8 61t-8 61h344l17 -122h-63zM410 292q-42 56 -90.5 119t-91.5 117v-124q0 -65 22 -101t84 -36q22 0 42 6.5t34 18.5z" />
    <glyph glyph-name="dv_SR.half" horiz-adv-x="484" 
d="M610 372l31 -149l-16 -14q-54 -49 -107 -99t-107 -100q-35 -8 -70 -16.5t-69 -17.5l-147 254q-37 0 -62.5 8t-32.5 39q0 51 42 98.5t90 47.5q16 0 29.5 -17t20.5 -36q22 14 34.5 41.5t12.5 52.5q0 28 -8.5 53.5t-23.5 40.5h-222q-4 31 -8 61t-8 61h489l17 -122h-107
q8 -24 11.5 -51t3.5 -47q0 -24 -3.5 -46t-13.5 -42h224zM284 259q-5 -2 -10.5 -5t-11.5 -5q21 -33 41.5 -66.5t40.5 -65.5l154 142h-214z" />
    <glyph glyph-name="dv_GR.half" horiz-adv-x="375" 
d="M386 558h-98v-318q0 -35 -16 -57.5t-46 -22.5q-52 0 -111 45t-59 104q0 31 24 47.5t52 16.5v185h-127q-4 31 -8 61t-8 61h380zM508 300q1 -38 1 -76.5v-76.5q-76 -54 -154 -108.5t-154 -108.5l-97 96z" />
    <glyph glyph-name="dv_DR.half" horiz-adv-x="636" 
d="M601 -1q-31 -11 -63.5 -23t-63.5 -24l-61 112q-22 -40 -45.5 -79.5t-46.5 -79.5l-141 34q19 31 39 62.5t39 63.5q-96 15 -152 72t-56 156q0 112 84.5 167.5t206.5 55.5v42h-336q-4 31 -8 61t-8 61h641l17 -122h-148v-162h-151q-69 0 -114.5 -26t-45.5 -78t44 -80t110 -28
h9t9 1q4 38 21.5 64t58.5 26q43 0 82 -26t39 -68q0 -16 -8 -34t-21 -34zM534 -370q-58 51 -117 104t-118 104q26 23 52 47.5t51 47.5l223 -223z" />
    <glyph glyph-name="dv_BhR.half" horiz-adv-x="454" 
d="M599 311q4 -31 6.5 -63t6.5 -63l-312 -260l-52 44t-52 43l247 194h-93q0 -28 -15 -52.5t-42 -24.5q-59 0 -109 38t-50 97q0 29 21 45.5t53 17.5v102q-6 -1 -11.5 -1h-9.5q-63 0 -102.5 38t-39.5 100q0 59 43.5 95.5t101.5 36.5q77 0 121 -48.5t44 -132.5v-190h201z" />
    <glyph glyph-name="dv_ChRYa" horiz-adv-x="1445" 
d="M1190 558h-909q-19 -10 -27.5 -27t-8.5 -33q0 -36 27.5 -62.5t87.5 -26.5h23l15 -116h-31q-72 0 -104 -25t-32 -65t39.5 -64t97.5 -24q82 0 145 40t90 88q-51 6 -86 43.5t-35 94.5q0 60 42.5 98t102.5 38q22 0 41 -5t34 -13h193q75 0 111 -33.5t36 -73.5q0 -43 -21 -66.5
t-49 -42.5q13 -17 36 -35t65 -18q43 0 76.5 22t40.5 59v247zM812 382l-35 -4q1 -5 2 -10.5t1 -10.5q0 -113 -89 -225.5t-249 -138.5l126 -116l-94 -63q-28 24 -56 48.5t-56 49.5q-26 -24 -55.5 -50t-54.5 -48l-101 63l127 116q-96 15 -150.5 69.5t-54.5 135.5q0 49 28 92
t75 58q-44 21 -66.5 65.5t-22.5 85.5q0 15 2.5 30t6.5 29h-91q-4 31 -8 61t-8 61h1450l17 -122h-111v-574l-155 16v129q-22 -13 -51 -20t-72 -7q-93 0 -169 63.5t-76 147.5q5 7 10.5 13t11.5 12q16 7 30.5 10.5t15.5 16.5q-7 10 -31.5 13.5t-46.5 3.5z" />
    <glyph glyph-name="dv_TtTtYa" horiz-adv-x="1178" 
d="M470 558v-57h159q75 0 110.5 -33.5t35.5 -73.5q0 -44 -20.5 -67t-48.5 -42q13 -17 35.5 -34.5t65.5 -17.5t76.5 22t39.5 59v244h-453zM309 384q-51 0 -80.5 -23t-29.5 -61q0 -40 36 -65t92 -25q43 0 87 13.5t87 42.5q5 -34 11.5 -67t12.5 -66q-10 -7 -24.5 -14.5
t-30.5 -12.5v-198h-161q-51 0 -80.5 -25t-29.5 -59q0 -41 36 -66t92 -25q43 0 87 14t87 42q5 -33 11.5 -66t12.5 -66q-30 -21 -86 -36.5t-115 -15.5q-116 0 -194 53t-78 164q0 107 76 159t186 53v48q-113 2 -187.5 55t-74.5 161q0 106 76 158.5t186 54.5v47h-309
q-4 31 -8 61t-8 61h1184l16 -122h-110v-574l-156 16v130q-22 -12 -50.5 -18.5t-71.5 -6.5q-93 0 -169.5 63t-76.5 147l23 26q16 6 30 9.5t15 17.5q-6 10 -28 13t-41 3h-245z" />
    <glyph glyph-name="dv_TthTthYa" horiz-adv-x="1263" 
d="M1007 558h-613v-55q27 -5 51.5 -15.5t45.5 -23.5h222q57 0 102 -33.5t45 -73.5q0 -43 -21 -66.5t-49 -42.5q13 -17 36 -35t65 -18q40 0 75 21.5t41 58.5v283zM317 201q51 1 85 27.5t34 63.5q0 31 -30 59.5t-89 28.5t-88.5 -28.5t-29.5 -59.5q0 -37 34.5 -63.5t83.5 -27.5
zM238 502v56h-233q-4 31 -8 61t-8 61h1268l17 -122h-112v-574l-155 16v93q-22 -12 -50.5 -18.5t-71.5 -6.5q-93 0 -169.5 63t-76.5 147l23 25q16 7 30.5 10.5t14.5 16.5q0 10 -12.5 13.5t-25.5 3.5h-95q4 -15 7 -30t3 -30q0 -84 -55 -136.5t-135 -68.5v-48
q85 -16 137.5 -75.5t52.5 -139.5q0 -103 -80 -158.5t-186 -55.5q-107 0 -187 55.5t-80 158.5q0 79 51.5 138.5t135.5 75.5v50q-79 17 -133 69t-54 135q0 80 51.5 139.5t135.5 75.5zM317 -266q51 0 85 26.5t34 63.5q0 31 -30 59.5t-89 28.5t-88.5 -28.5t-29.5 -59.5
q0 -37 34.5 -63.5t83.5 -26.5z" />
    <glyph glyph-name="dv_DdDdYa" horiz-adv-x="1081" 
d="M825 558h-443v-33h149q75 0 110.5 -32.5t35.5 -72.5q0 -43 -21 -67t-49 -42q13 -17 36 -35t65 -18q43 0 76.5 22t40.5 59v219zM-11 680h1085l18 -122h-112v-574l-155 16v156q-22 -11 -50.5 -18t-71.5 -7q-93 0 -169.5 62.5t-76.5 146.5q5 7 10.5 13.5t11.5 13.5
q16 5 30 9t15 17q-4 10 -24 13t-39 3h-255q-13 0 -20.5 -5.5t-7.5 -12.5q0 -9 8 -14.5t21 -5.5h47q76 0 125.5 -34t49.5 -109q0 -28 -12 -54.5t-35 -45.5v-194h-176q-13 0 -20.5 -6t-7.5 -14q0 -9 8 -14t21 -5h47q76 0 125.5 -34t49.5 -109q0 -57 -50 -102.5t-145 -45.5
q-48 0 -98 12t-89 32l23 119q40 -23 85 -33.5t77 -10.5q24 0 37 7t13 20q0 12 -8.5 19t-27.5 7h-54q-54 0 -100.5 39t-46.5 99q0 64 42 101t103 37h59v28h-15q-48 0 -98 12t-89 31l23 120q40 -23 85 -33.5t77 -10.5q24 0 37 7.5t13 20.5q0 11 -8.5 18t-27.5 7h-54
q-54 0 -100.5 39t-46.5 100q0 64 42 101t103 37h59v29h-244q-4 31 -8 61t-8 61z" />
    <glyph glyph-name="dv_DdhDdhYa" horiz-adv-x="1199" 
d="M943 558h-473v-50h179q78 0 109.5 -35.5t31.5 -72.5t-19 -64.5t-45 -43.5q13 -17 35.5 -35t65.5 -18q42 0 76 22t40 58v239zM595 391h-286q-51 0 -79 -25t-28 -62q0 -27 16.5 -58.5t63.5 -39.5q0 52 34 91t91 39q46 0 84 -28.5t38 -86.5q0 -32 -15.5 -60.5t-43.5 -47.5
v-191h-161q-50 0 -78.5 -25t-28.5 -61q0 -27 16.5 -59t63.5 -40q0 52 34 91.5t91 39.5q46 0 84 -28.5t38 -87.5q0 -62 -55 -104.5t-143 -42.5q-118 0 -198.5 57.5t-80.5 169.5q0 106 76 160t186 56v27q-112 4 -187 61t-75 165q0 106 77 160.5t185 56.5v40h-309q-4 31 -8 61
t-8 61h1204l16 -122h-111v-574l-155 16v137q-22 -12 -50.5 -19t-71.5 -7q-93 0 -169.5 63.5t-76.5 147.5q5 6 10.5 12t12.5 12q15 7 30 10.5t15 17.5q0 10 -16.5 13.5t-31.5 3.5z" />
    <glyph glyph-name="dv_DdhRYa" horiz-adv-x="1248" 
d="M993 558h-456v-61h162q72 0 109 -33t37 -74q0 -44 -20.5 -67t-48.5 -42q13 -17 36 -35t64 -18q40 0 75 22t42 58v250zM54 246q0 129 99 193.5t230 64.5v54h-378q-4 31 -8 61t-8 61h1254l17 -122h-112v-574l-155 16v126q-23 -11 -51.5 -18t-70.5 -7q-93 0 -169.5 63
t-76.5 147l22 25q16 6 30.5 9.5t15.5 17.5q-4 10 -26 13t-41 3h-245q-78 0 -129 -35t-51 -101q0 -57 37.5 -99t107.5 -43q-7 10 -9 25.5t-2 34.5q0 46 35.5 85t99.5 39q56 0 95 -36.5t39 -92.5q0 -61 -41 -105t-113 -60l125 -114l-95 -63q-27 24 -55 48.5t-55 49.5l-111 -98
l-101 63l124 113q-90 15 -159 74.5t-69 181.5z" />
    <glyph glyph-name="dv_DGRa" horiz-adv-x="636" 
d="M601 -1q-31 -10 -61.5 -21.5t-61.5 -22.5l-43 84l-45 -118q-34 7 -68 14.5t-68 14.5q10 28 22 54.5t22 54.5q-16 1 -31 3t-29 5v-140q0 -34 -13.5 -55t-46.5 -21q-52 0 -99.5 44.5t-47.5 94.5q0 28 21.5 43t50.5 15v93q-25 28 -39 66t-14 86q0 113 84.5 168t206.5 55v42
h-336q-4 31 -8 61t-8 61h641l17 -122h-148v-162h-151q-69 0 -114.5 -26t-45.5 -78t44 -80t110 -28h9t9 1q4 38 21.5 64t58.5 26q43 0 82 -26t39 -68q0 -16 -8 -34t-21 -34z" />
    <glyph glyph-name="dv_DDYa" horiz-adv-x="1172" 
d="M469 558v-33h154q74 0 110 -32t36 -72q0 -43 -20.5 -67t-49.5 -42q13 -17 35.5 -35t65.5 -18q41 0 75.5 22t41.5 58v219h-448zM65 169q0 28 12 56t40 54q-21 19 -33 46t-12 58q0 66 48 105.5t120 39.5h74v30h-309q-4 31 -8 61t-8 61h1177l17 -122h-112v-574l-154 16v157
q-23 -12 -51.5 -18.5t-71.5 -6.5q-93 0 -169.5 62.5t-76.5 146.5q6 7 11.5 13.5t11.5 12.5q16 6 30 10t15 17q-4 10 -26 13t-42 3h-290q-15 0 -25 -9.5t-10 -22.5q0 -12 10 -22t23 -10q10 0 21 1t24 1h135l16 -114h-129q-48 0 -75.5 -16.5t-27.5 -47.5q0 -27 25.5 -42.5
t66.5 -15.5h9.5t11.5 1l3 4q3 31 24.5 50t54.5 19q40 0 78.5 -26t38.5 -69q0 -16 -7.5 -35t-20.5 -34q15 -27 32 -57t31 -57q-31 -11 -62 -23l-62 -24q-16 31 -32 63t-32 63q-19 -1 -37.5 -2.5t-35.5 -1.5q-90 0 -165.5 42.5t-75.5 143.5z" />
    <glyph glyph-name="dv_DBRa" horiz-adv-x="638" 
d="M429 33l-16 32q-17 -3 -32.5 -5t-28.5 -3l64 -65q5 8 8.5 18.5t4.5 22.5zM346 -43q5 0 10 0.5t10 1.5l-96 98q-1 -6 -2 -11.5t-1 -11.5q0 -34 22.5 -55.5t56.5 -21.5zM640 -83l-127 -46l-22 44q-13 -15 -30 -28.5t-37 -23.5l-71 -113q-35 11 -70.5 21.5t-70.5 21.5
q13 16 25 33.5t24 33.5q-56 21 -88.5 68t-32.5 107q0 17 3.5 34.5t9.5 30.5q-49 28 -76 77t-27 116q0 113 84.5 168t206.5 55v42h-336q-4 31 -8 61t-8 61h641l17 -122h-148v-162h-151q-69 0 -114.5 -26t-45.5 -78t44 -80t110 -28h9t9 1q4 39 23 63.5t59 24.5t79.5 -24.5
t39.5 -67.5q0 -16 -8 -34t-21 -34q14 -24 50.5 -92.5t57.5 -103.5z" />
    <glyph glyph-name="dv_DRYa" horiz-adv-x="846" 
d="M343 105q14 0 29.5 2t31.5 5q46 40 93 79.5t93 79.5v287h-121v-148h-211q-15 0 -25 -9.5t-10 -22.5q0 -12 11 -22t28 -10h175q4 -28 8 -56.5t8 -56.5h-118q-56 0 -85.5 -13.5t-29.5 -43.5q0 -31 31 -51t92 -20zM305 -141l-93 90l45 39q-89 12 -140.5 57t-51.5 124
q0 28 12 56t40 54q-22 19 -33.5 46t-11.5 58q0 66 48 105.5t120 39.5h74v30h-309q-4 31 -8 61t-8 61h851l17 -122h-112v-574l-155 16v116z" />
    <glyph glyph-name="dv_DVYa" horiz-adv-x="1220" 
d="M499 558v-48h171q75 0 110.5 -32t35.5 -72q0 -43 -20.5 -66.5t-48.5 -42.5q13 -17 35.5 -34.5t65.5 -17.5q41 0 75.5 21.5t41.5 58.5v233h-466zM430 31l-17 34q-22 -4 -42.5 -6t-33.5 -2q-16 0 -30.5 1t-27.5 2q-2 -6 -3.5 -12.5t-1.5 -13.5q0 -34 24 -53.5t52 -20.5
q33 1 56 20t24 51zM348 396q-69 0 -114.5 -26t-45.5 -78q0 -53 46.5 -80.5t112.5 -27.5q3 0 6 0.5t7 0.5q4 38 21.5 64t58.5 26q43 0 82 -26t39 -68q0 -16 -8 -34t-21 -34q14 -24 50.5 -92.5t57.5 -103.5l-127 -46q-4 8 -8.5 16.5t-8.5 16.5q-25 -22 -61.5 -37.5
t-84.5 -15.5q-93 0 -148 52t-55 132q0 16 3 32.5t8 29.5q-51 28 -79.5 77.5t-28.5 118.5q0 112 84.5 167.5t206.5 55.5v42h-336q-4 31 -8 61t-8 61h1225l17 -122h-112v-574l-154 16v142q-23 -12 -51.5 -18.5t-71.5 -6.5q-93 0 -169.5 63t-76.5 147l23 26q16 5 30 9t15 18
q-4 10 -25.5 13t-40.5 3h-250z" />
    <glyph glyph-name="dv_DVRa" horiz-adv-x="638" 
d="M430 31l-17 34q-22 -4 -42.5 -6t-33.5 -2q-16 0 -30.5 1t-27.5 2q-2 -6 -3.5 -12.5t-1.5 -13.5q0 -34 24 -53.5t52 -20.5q33 1 56 20t24 51zM640 -83l-127 -46l-22 43q-13 -13 -29 -25t-35 -21l-69 -110l-141 42q12 16 24 33t23 33q-54 19 -85.5 64t-31.5 105
q0 16 3 32.5t8 29.5q-51 28 -79.5 77.5t-28.5 118.5q0 113 84.5 168t206.5 55v42h-336q-4 31 -8 61t-8 61h641l17 -122h-148v-162h-151q-69 0 -114.5 -26t-45.5 -78t44 -80t110 -28h9t9 1q4 39 23 63.5t59 24.5t79.5 -24.5t39.5 -67.5q0 -16 -8 -34t-21 -34
q14 -24 50.5 -92.5t57.5 -103.5z" />
    <glyph glyph-name="dv_DhNYa" horiz-adv-x="1115" 
d="M743 274q42 0 76 21t42 56v207h-168q6 -16 11.5 -39t5.5 -42q0 -44 -18 -81.5t-56 -65.5q13 -18 37.5 -37t69.5 -19zM83 -65q0 46 44 77.5t79 55.5q-68 19 -111 68t-43 126q0 37 20.5 77t52.5 59q-27 20 -43 55.5t-16 67.5q0 74 54 123t131 49q41 0 76 -14.5t60 -38.5
l-73 -99q-13 9 -25 13t-28 4q-18 0 -32.5 -13.5t-14.5 -30.5q0 -43 37.5 -52t85.5 -9l33 -119h-39q-51 0 -88 -12.5t-37 -59.5q0 -37 33 -58t79 -21q54 0 98 32t87 63q-10 19 -15 38.5t-5 39.5l29 31q20 7 37 33.5t17 63.5q0 22 -13 44t-31 30h-55l-17 122h659l17 -122h-112
v-574l-153 16v171q-25 -12 -57 -18.5t-74 -6.5q-38 0 -75 11t-68 31q-73 -53 -146.5 -107t-146.5 -105q8 -16 15 -33.5t7 -34.5q0 -33 -35.5 -48t-63.5 -15q-39 1 -86.5 25t-47.5 65z" />
    <glyph glyph-name="dv_NNYa" horiz-adv-x="971" 
d="M599 274q41 0 74.5 21.5t41.5 56.5v206h-167q7 -16 12 -38.5t5 -41.5q0 -45 -17 -82t-57 -65q14 -19 38.5 -38t69.5 -19zM715 0v171q-24 -11 -56 -18t-74 -7q-47 0 -90.5 16t-77.5 44l-141 -82q7 -13 12.5 -27t5.5 -27t-5.5 -24.5t-16.5 -19.5q-16 -12 -38 -18t-45 -6
q-38 0 -87.5 23t-49.5 72q0 19 11.5 36t33.5 29l241 140l-118 56q-10 -22 -27.5 -40t-40.5 -18q-46 0 -80.5 53.5t-34.5 96.5q0 31 17.5 56t52.5 25q10 0 21.5 -2.5t21.5 -6.5l246 -109q10 12 18 30.5t8 40.5t-13 44t-32 30h-371l-17 122h975l18 -122h-112v-574z" />
    <glyph glyph-name="dv_PTthYa" horiz-adv-x="1200" 
d="M304 378q37 0 55 26t18 73v81h-148v-81q0 -47 20.5 -73t54.5 -26zM945 558h-415v-48h120q75 0 110.5 -33.5t35.5 -73.5q0 -44 -20.5 -67.5t-48.5 -41.5q13 -17 36 -35t65 -18t76 22t41 58v237zM301 -29q-108 0 -170.5 58t-62.5 145q0 41 18 80.5t49 66.5q-29 28 -43.5 68
t-14.5 92v77h-72q-4 31 -8 61t-8 61h1205l17 -122h-112v-574l-154 16v139q-23 -12 -51.5 -19t-70.5 -7q-93 0 -170 63t-77 147l23 26q16 6 30 9.5t15 16.5q-5 10 -26 13.5t-41 3.5h-59q-7 -22 -19 -40.5t-28 -32.5q30 -27 47.5 -65.5t17.5 -78.5q0 -87 -63 -145.5
t-172 -58.5zM302 92q38 0 62 24t24 58q0 32 -24.5 56t-61.5 24h-4q-38 0 -60 -25.5t-22 -54.5q0 -34 24 -58t62 -24z" />
    <glyph glyph-name="dv_BhRYa" horiz-adv-x="1133" 
d="M762 274q42 0 75.5 21.5t40.5 56.5v206h-166q6 -16 11 -38.5t5 -41.5q0 -45 -17.5 -82t-54.5 -65q13 -19 37 -38t69 -19zM878 0v171q-23 -11 -55 -18t-74 -7q-37 0 -72 10.5t-64 29.5l-313 -262l-103 89l247 193h-94q0 -28 -15 -52.5t-42 -24.5q-59 0 -108.5 38t-49.5 97
q0 29 19.5 45.5t53.5 17.5v102h-20q-63 0 -102.5 37.5t-39.5 99.5q0 60 43.5 96.5t101.5 36.5q77 0 121 -48.5t44 -132.5v-191h148q-1 6 -1.5 14.5t-0.5 14.5l29 31q20 7 37 33.5t17 63.5q0 22 -13 44t-31 30h-83l-16 122h687l16 -122h-112v-574z" />
    <glyph glyph-name="dv_ShRYa" horiz-adv-x="1057" 
d="M465 558h-57q1 -5 1 -10v-10q-1 -28 -13 -61.5t-36 -55.5l36 -28t36 -29q5 6 10.5 11.5t9.5 11.5q22 7 39 33.5t17 63.5q0 22 -13 44t-30 30zM686 274q41 0 74.5 21t40.5 56v207h-166q6 -16 11 -39t5 -42q0 -44 -17 -81.5t-56 -65.5q14 -18 38.5 -37t69.5 -19zM257 698
q22 0 38 -5.5t31 -12.5h725l17 -122h-111v-574l-156 16v171q-23 -12 -55 -18.5t-75 -6.5q-48 0 -92.5 17t-78.5 45l-326 -226l-48 129q54 39 109.5 77t110.5 77q-22 16 -44.5 33t-45.5 33q-44 -33 -88.5 -66t-88.5 -65l-56 124l66 48t66 49q-19 23 -34.5 53t-15.5 74
q0 61 44 105.5t108 44.5z" />
    <glyph glyph-name="dv_SsTtYa" horiz-adv-x="1164" 
d="M375 449q1 7 1.5 14t0.5 14v81h-91zM945 558h-415v-48h120q75 0 110.5 -33.5t35.5 -73.5q0 -44 -20.5 -67.5t-48.5 -41.5q13 -17 36 -35t65 -18t76 22t41 58v237zM304 378q10 0 19.5 2t16.5 6l-111 137v-46q0 -47 20.5 -73t54.5 -26zM318 92q43 0 84 13t81 41l23 -127
q-31 -20 -81.5 -33.5t-111.5 -13.5q-117 0 -181 58t-64 145q0 40 18 79.5t49 66.5q-27 25 -42.5 61t-15.5 80v96h-72q-4 31 -8 61t-8 61h1205l17 -122h-112v-574l-154 16v139q-23 -12 -51.5 -19t-70.5 -7q-93 0 -170 63t-77 147l23 26q16 6 30 9.5t15 16.5q-5 10 -26 13.5
t-41 3.5h-59q-22 -66 -83 -100.5t-133 -34.5h-5q-37 0 -59 -27t-22 -55q0 -37 28.5 -60t73.5 -23z" />
    <glyph glyph-name="dv_SsTtVa" horiz-adv-x="600" 
d="M376 449q1 7 1.5 14.5t0.5 14.5v80h-92zM305 378q10 0 19.5 2.5t16.5 6.5l-112 137v-46q0 -48 21 -74t55 -26zM303 257h-5t-5 1q-34 -3 -55.5 -28.5t-21.5 -53.5q0 -37 28.5 -62t74.5 -25q43 0 84 13.5t81 40.5l22 -127q-1 -1 -6.5 -4t-7.5 -4v-369l-149 17v41
q-15 -8 -41.5 -13t-48.5 -5q-80 0 -138 54.5t-59 147.5q0 46 16.5 88.5t46.5 71.5q-25 27 -37.5 61t-12.5 73q0 41 17.5 80.5t48.5 65.5q-26 25 -41.5 61t-15.5 80v96h-72l-17 122h606l17 -122h-82v-96q0 -99 -69.5 -152t-157.5 -53zM314 -32q-12 0 -24.5 0.5t-24.5 3.5
q-26 -7 -44.5 -32t-18.5 -59q0 -39 24 -56t46 -17q24 0 43.5 11.5t27.5 27.5v123q-6 -1 -14.5 -1.5t-14.5 -0.5z" />
    <glyph glyph-name="dv_SsTthYa" horiz-adv-x="1200" 
d="M375 449q1 7 1.5 14t0.5 14v81h-91zM945 558h-415v-48h120q75 0 110.5 -33.5t35.5 -73.5q0 -44 -20.5 -67.5t-48.5 -41.5q13 -17 36 -35t65 -18t76 22t41 58v237zM304 378q10 0 19.5 2t16.5 6l-111 137v-46q0 -47 20.5 -73t54.5 -26zM301 -29q-108 0 -170.5 58t-62.5 145
q0 41 18 80.5t49 66.5q-29 28 -43.5 68t-14.5 92v77h-72q-4 31 -8 61t-8 61h1205l17 -122h-112v-574l-154 16v139q-23 -12 -51.5 -19t-70.5 -7q-93 0 -170 63t-77 147l23 26q16 6 30 9.5t15 16.5q-5 10 -26 13.5t-41 3.5h-59q-7 -22 -19 -40.5t-28 -32.5q30 -27 47.5 -65.5
t17.5 -78.5q0 -87 -63 -145.5t-172 -58.5zM302 92q38 0 62 24t24 58q0 32 -24.5 56t-61.5 24h-4q-38 0 -60 -25.5t-22 -54.5q0 -34 24 -58t62 -24z" />
    <glyph glyph-name="dv_HMYa" horiz-adv-x="1534" 
d="M1278 0v171q-24 -12 -56 -18.5t-75 -6.5t-85 15t-75 40h-245q0 -28 -12.5 -56t-43.5 -28q-60 0 -107.5 40t-47.5 103v8h-240q-35 0 -57.5 -20t-22.5 -49q0 -51 59 -70t120 -23l-31 -122q-121 5 -206 58.5t-85 158.5q0 31 9.5 60.5t28.5 52.5q-16 16 -24 39t-8 51
q0 67 49.5 102t114.5 35h64v17h-298q-3 31 -7 61t-8 61h1539l16 -122h-112v-574zM234 382q15 3 32.5 5t37.5 2h301v169h-141v-132h-205q-19 0 -26 -6t-7 -16q0 -6 2 -12.5t6 -9.5zM752 558v-236h153q-2 8 -3 16.5t-1 17.5l29 31q20 7 37.5 33.5t17.5 63.5q0 22 -13.5 44
t-30.5 30h-189zM1162 274q41 0 75 21t41 56v207h-167q6 -16 11 -39t5 -42q0 -44 -17 -81.5t-56 -65.5q13 -18 38 -37t70 -19z" />
    <glyph glyph-name="dv_NgYa" horiz-adv-x="1330" 
d="M1074 558h-616v-48h322q77 0 109.5 -35t32.5 -73q0 -36 -19.5 -63.5t-45.5 -44.5q13 -17 36 -35t66 -18q41 0 75.5 22t39.5 58v237zM519 284q0 34 24 58.5t58 24.5t58.5 -24.5t24.5 -58.5t-24.5 -58t-58.5 -24t-58 24t-24 58zM-11 680h1335l17 -122h-112v-574l-155 16
v139q-23 -12 -51 -18.5t-70 -6.5q-93 0 -170 63t-77 147l23 26q16 5 30.5 9t15.5 18q-6 10 -28.5 12.5t-42.5 2.5h-470q-18 0 -28.5 -9t-10.5 -21t11 -22.5t29 -10.5h69q91 0 151.5 -38.5t60.5 -128.5q0 -69 -60.5 -123t-176.5 -54q-58 0 -119.5 13.5t-107.5 37.5l27 125
q47 -28 95.5 -40t96.5 -12q43 0 66 15.5t23 37.5q0 17 -11.5 29.5t-37.5 12.5h-84q-66 0 -122 42t-56 116q0 77 51 117t125 40h97v39h-317q-4 31 -8 61t-8 61z" />
    <glyph glyph-name="dv_TtTta" horiz-adv-x="594" 
d="M327 -267q43 0 87 14t87 42q5 -33 11.5 -66t12.5 -66q-30 -21 -86 -36.5t-115 -15.5q-116 0 -194 53t-78 164q0 107 76 159t186 53v48q-113 2 -187.5 55t-74.5 161q0 106 76 158.5t186 54.5v47h-309q-4 31 -8 61t-8 61h599l17 -122h-135v-174h-161q-51 0 -80.5 -25
t-29.5 -59q0 -40 36 -65t92 -25q43 0 87 13.5t87 42.5q5 -34 11.5 -67t12.5 -66q-10 -7 -24.5 -14.5t-30.5 -12.5v-198h-161q-51 0 -80.5 -25t-29.5 -59q0 -41 36 -66t92 -25z" />
    <glyph glyph-name="dv_TtTtha" horiz-adv-x="609" 
d="M239 33v57q-83 16 -135 67t-52 141q0 106 76 158.5t186 54.5v47h-309q-4 31 -8 61t-8 61h615l16 -122h-150v-174h-161q-51 0 -80.5 -25t-29.5 -59q0 -40 36 -65t92 -25q43 0 87 13.5t87 42.5q5 -34 11.5 -67t12.5 -66q-21 -16 -55.5 -27.5t-74.5 -18.5v-53
q86 -16 138 -75.5t52 -139.5q0 -103 -80 -158.5t-186 -55.5q-107 0 -187 55.5t-80 158.5q0 79 51.5 138.5t135.5 75.5zM318 -266q51 0 85 26.5t34 63.5q0 31 -30 59.5t-89 28.5t-88.5 -28.5t-29.5 -59.5q0 -37 34.5 -63.5t83.5 -26.5z" />
    <glyph glyph-name="dv_TtDdha" horiz-adv-x="594" 
d="M470 106v-184h-161q-50 0 -78.5 -25t-28.5 -61q0 -27 16.5 -59t63.5 -40q0 52 34 91.5t91 39.5q46 0 84 -28.5t38 -87.5q0 -62 -55 -104.5t-143 -42.5q-118 0 -198.5 57.5t-80.5 169.5q0 106 76 160t186 56v34q-113 2 -187.5 55t-74.5 161q0 106 76 158.5t186 54.5v47
h-309q-4 31 -8 61t-8 61h599l17 -122h-135v-174h-161q-51 0 -80.5 -25t-29.5 -59q0 -40 36 -65t92 -25q43 0 87 13.5t87 42.5q5 -34 11.5 -67t12.5 -66q-10 -7 -24.5 -14.5t-30.5 -12.5z" />
    <glyph glyph-name="dv_TtYa" horiz-adv-x="1258" 
d="M539 558v-77h169q75 0 110.5 -33t35.5 -73q0 -44 -20.5 -67.5t-49.5 -42.5q13 -17 36 -34.5t65 -17.5q41 0 75.5 21.5t41.5 58.5v265h-463zM384 364q-77 0 -128 -35t-51 -93q0 -73 55 -100t118 -27q48 0 100 12.5t103 48.5l24 -132q-42 -26 -105 -40.5t-127 -14.5
q-124 0 -220.5 59t-96.5 195q0 125 98.5 188.5t229.5 63.5v69h-379q-4 31 -8 61t-8 61h1262l17 -122h-111v-574l-155 16v111q-23 -12 -51.5 -19t-70.5 -7q-93 0 -169.5 63t-76.5 147q5 6 10.5 12.5t11.5 12.5q16 7 30 10.5t15 17.5q-6 10 -28 13t-44 3h-245z" />
    <glyph glyph-name="dv_TtVa" horiz-adv-x="666" 
d="M378 109q48 0 100 12.5t103 48.5l24 -132q-7 -5 -16 -9t-18 -9v-378q-38 4 -77 8.5t-78 8.5v51q-16 -13 -46 -20.5t-55 -7.5q-99 0 -167 59t-68 157q0 46 16.5 84t44.5 66q-38 31 -61.5 78t-23.5 111q0 125 98.5 188.5t229.5 63.5v69h-379q-4 31 -8 61t-8 61h671l16 -122
h-137v-193q-39 0 -77.5 -0.5t-77.5 -0.5q-77 0 -128 -35t-51 -93q0 -73 55 -100t118 -27zM373 -17q-19 0 -37.5 1.5t-36.5 3.5q-27 -6 -47 -29t-20 -57q0 -41 27.5 -63.5t61.5 -22.5q41 0 62.5 15.5t32.5 32.5v121q-10 -1 -21 -1.5t-22 -0.5z" />
    <glyph glyph-name="dv_TthTtha" horiz-adv-x="627" 
d="M238 502v56h-233q-4 31 -8 61t-8 61h632l16 -122h-243v-55q85 -15 137.5 -75t52.5 -141q0 -84 -55 -136.5t-135 -68.5v-48q85 -16 137.5 -75.5t52.5 -139.5q0 -103 -80 -158.5t-186 -55.5q-107 0 -187 55.5t-80 158.5q0 79 51.5 138.5t135.5 75.5v50q-79 17 -133 69
t-54 135q0 80 51.5 139.5t135.5 75.5zM317 201q51 1 85 27.5t34 63.5q0 31 -30 59.5t-89 28.5t-88.5 -28.5t-29.5 -59.5q0 -37 34.5 -63.5t83.5 -27.5zM317 -266q51 0 85 26.5t34 63.5q0 31 -30 59.5t-89 28.5t-88.5 -28.5t-29.5 -59.5q0 -37 34.5 -63.5t83.5 -26.5z" />
    <glyph glyph-name="dv_TthYa" horiz-adv-x="1326" 
d="M442 480q19 -3 37 -7.5t36 -10.5h261q75 0 110.5 -33.5t35.5 -73.5q0 -43 -20.5 -66.5t-48.5 -42.5q13 -17 36 -35t65 -18q40 0 75 21.5t41 58.5v285h-628v-78zM362 361q-70 0 -113.5 -35t-43.5 -92q0 -69 48.5 -97.5t108.5 -28.5q72 0 115.5 34.5t43.5 93.5
q0 68 -48 96.5t-111 28.5zM56 236q0 107 65.5 168t165.5 77v77h-282q-4 31 -8 61t-8 61h1331l17 -122h-112v-574l-155 16v91q-22 -12 -50.5 -18.5t-71.5 -6.5q-93 0 -169.5 63t-76.5 147l23 25q16 7 30 10.5t15 16.5q-4 10 -24.5 13.5t-39.5 3.5h-58q10 -22 16.5 -49.5
t6.5 -58.5q0 -125 -90.5 -189.5t-218.5 -64.5q-117 0 -211.5 58t-94.5 195z" />
    <glyph glyph-name="dv_DdTta" horiz-adv-x="465" 
d="M267 -267q42 0 87 14t86 42q6 -33 12.5 -66t11.5 -66q-29 -21 -85.5 -36.5t-115.5 -15.5q-115 0 -192.5 53t-77.5 164q0 107 76 158.5t178 53.5v41q-2 0 -5 -0.5t-5 -0.5q-49 0 -100 11.5t-90 31.5l23 121q40 -24 85 -34.5t77 -10.5q24 0 37 8t13 21q0 11 -8.5 19
t-27.5 8h-54q-54 0 -100.5 39t-46.5 100q0 65 42 101.5t103 36.5h59v32h-244q-4 31 -8 61t-8 61h470l17 -122h-94v-151h-176q-13 0 -20.5 -6t-7.5 -13q0 -9 8 -14.5t21 -5.5h47q76 0 125.5 -35.5t49.5 -110.5q0 -19 -6.5 -38t-18.5 -35v-241h-154q-52 0 -81 -23t-29 -61
q0 -40 35.5 -65.5t91.5 -25.5z" />
    <glyph glyph-name="dv_DdDda" horiz-adv-x="465" 
d="M232 -277q25 0 37.5 7t12.5 20q0 11 -8.5 18t-27.5 7h-53q-55 0 -101.5 39t-46.5 100q0 65 42 102t104 37h59v27h-15q-49 0 -99 12t-89 32l24 120q39 -23 84.5 -33.5t76.5 -10.5q25 0 37.5 7t12.5 20q0 11 -8.5 18t-27.5 7h-53q-55 0 -101.5 39t-46.5 100q0 65 42 101.5
t104 36.5h59v29h-244l-17 122h471l16 -122h-93v-148h-176q-13 0 -20.5 -6t-7.5 -13q0 -9 8 -14.5t21 -5.5h47q75 0 125 -34t50 -109q0 -28 -12.5 -54t-34.5 -46v-195h-176q-13 0 -20.5 -6t-7.5 -14t8 -13t21 -5h47q75 0 125 -34.5t50 -109.5q0 -57 -50 -102t-145 -45
q-49 0 -99 11.5t-89 31.5l24 120q39 -23 84.5 -33.5t76.5 -10.5z" />
    <glyph glyph-name="dv_DdDdha" horiz-adv-x="465" 
d="M429 222q0 -19 -6.5 -40t-19.5 -37v-223h-154q-52 0 -81 -24t-29 -64q0 -26 19 -56.5t63 -40.5q0 54 34 92.5t91 38.5q46 0 84.5 -28.5t38.5 -87.5q0 -62 -55 -104.5t-143 -42.5q-119 0 -198.5 56.5t-79.5 168.5q0 105 72 159.5t182 58.5v27q-2 0 -5 -0.5t-5 -0.5
q-49 0 -100 11.5t-90 31.5l23 121q40 -24 85 -34.5t77 -10.5q24 0 37 8t13 21q0 11 -8.5 19t-27.5 8h-54q-54 0 -100.5 39t-46.5 100q0 65 42 101.5t103 36.5h59v32h-244q-4 31 -8 61t-8 61h470l17 -122h-94v-151h-176q-13 0 -20.5 -6t-7.5 -13q0 -9 8 -14.5t21 -5.5h47
q76 0 125.5 -35.5t49.5 -110.5z" />
    <glyph glyph-name="dv_DdYa" horiz-adv-x="1176" 
d="M920 558h-462v-48h168q75 0 110.5 -33.5t35.5 -73.5q0 -44 -20.5 -67t-48.5 -42q13 -17 36 -35t65 -18q40 0 74.5 21.5t41.5 58.5v237zM-11 680h1181l17 -122h-112v-574l-155 16v139q-23 -12 -51.5 -18.5t-70.5 -6.5q-93 0 -170 63t-77 147l23 26q16 5 30.5 9t15.5 18
q-6 10 -28 12.5t-42 2.5h-316q-18 0 -28.5 -9t-10.5 -21t11 -22.5t29 -10.5h69q91 0 151.5 -38.5t60.5 -128.5q0 -69 -60.5 -123t-176.5 -54q-58 0 -119.5 13.5t-107.5 37.5l27 125q47 -28 95.5 -40t96.5 -12q43 0 66 15.5t23 37.5q0 17 -11.5 29.5t-37.5 12.5h-84
q-66 0 -122 42t-56 116q0 77 51 117t125 40h97v39h-317q-4 31 -8 61t-8 61z" />
    <glyph glyph-name="dv_DdhDdha" horiz-adv-x="594" 
d="M605 558h-135v-167h-161q-51 0 -79 -25t-28 -62q0 -27 16.5 -58.5t63.5 -39.5q0 52 34 91t91 39q46 0 84 -28.5t38 -86.5q0 -32 -15.5 -60.5t-43.5 -47.5v-191h-161q-50 0 -78.5 -25t-28.5 -61q0 -27 16.5 -59t63.5 -40q0 52 34 91.5t91 39.5q46 0 84 -28.5t38 -87.5
q0 -62 -55 -104.5t-143 -42.5q-118 0 -198.5 57.5t-80.5 169.5q0 106 76 160t186 56v27q-112 4 -187 61t-75 165q0 105 76 160t186 57v40h-309q-4 31 -8 61t-8 61h599z" />
    <glyph glyph-name="dv_DdhYa" horiz-adv-x="1248" 
d="M993 558h-456v-61h162q72 0 109 -33t37 -74q0 -44 -20.5 -67t-48.5 -42q13 -17 36 -35t64 -18q40 0 75 22t42 58v250zM54 246q0 130 99 194t230 64v54h-378q-4 31 -8 61t-8 61h1254l17 -122h-112v-574l-155 16v126q-23 -11 -51.5 -18t-70.5 -7q-93 0 -169.5 63t-76.5 147
l22 25q16 6 31 10.5t15 16.5t-20 14t-45 2h-247q-80 0 -130 -36.5t-50 -99.5q0 -22 7 -41t21 -33q14 -28 42.5 -47.5t74.5 -20.5q-7 10 -9 25.5t-2 34.5q0 46 35.5 85t99.5 39q56 0 95 -36.5t39 -92.5q0 -77 -64 -125.5t-172 -48.5q-113 0 -213.5 57t-100.5 207z" />
    <glyph glyph-name="dv_DGa" horiz-adv-x="636" 
d="M601 -1q-31 -11 -63.5 -23t-63.5 -24l-61 113q-22 -4 -42.5 -6t-33.5 -2q-23 0 -44 2t-40 5v-141q0 -37 -14 -57t-47 -20q-55 0 -105 43.5t-50 99.5q0 28 23.5 44t52.5 16v80q-30 29 -46.5 70t-16.5 94q0 113 84.5 168t206.5 55v42h-336q-4 31 -8 61t-8 61h641l17 -122
h-148v-162h-151q-69 0 -114.5 -26t-45.5 -78t44 -80t110 -28h9t9 1q4 38 21.5 64t58.5 26q43 0 82 -26t39 -68q0 -16 -8 -34t-21 -34z" />
    <glyph glyph-name="dv_DDa" horiz-adv-x="578" 
d="M437 346q4 -28 8 -56.5t8 -56.5h-130q-48 0 -75.5 -19t-27.5 -44q0 -27 25.5 -42.5t66.5 -15.5h11t13 1l3 6q11 28 25 47.5t51 19.5q40 0 78.5 -26t38.5 -69q0 -16 -7.5 -35t-20.5 -34q15 -27 32 -57t31 -57q-31 -11 -62 -23l-62 -24q-16 31 -32 63t-32 63
q-19 -1 -37.5 -2.5t-35.5 -1.5q-90 0 -165.5 42.5t-75.5 143.5q0 28 12 56t40 54q-21 19 -33 46t-12 58q0 66 48 105.5t120 39.5h74v30h-309q-4 31 -8 61t-8 61h583l17 -122h-120v-148h-211q-15 0 -25 -9.5t-10 -22.5q0 -12 10 -22t23 -10h181z" />
    <glyph glyph-name="dv_DNa" horiz-adv-x="636" 
d="M601 -1q-31 -11 -63.5 -23t-63.5 -24l-61 113l-46 -74q16 -12 30 -30t14 -38q0 -4 -1 -8.5t-2 -8.5q-10 -35 -52 -53t-80 -18q-10 0 -18.5 1.5t-15.5 3.5q-25 4 -46 22t-21 46q0 4 0.5 7.5t1.5 7.5q0 13 37.5 68.5t47.5 70.5q-97 16 -154.5 74t-57.5 157
q0 112 84.5 167.5t206.5 55.5v42h-336q-4 31 -8 61t-8 61h641l17 -122h-148v-162h-151q-69 0 -114.5 -26t-45.5 -78t44 -80t110 -28h9t9 1q4 38 21.5 64t58.5 26q43 0 82 -26t39 -68q0 -16 -8 -34t-21 -34z" />
    <glyph glyph-name="dv_DBa" horiz-adv-x="638" 
d="M429 33l-16 32q-17 -3 -32.5 -5t-28.5 -3l64 -65q5 8 8.5 18.5t4.5 22.5zM346 -43q5 0 10 0.5t10 1.5l-96 98q-1 -6 -2 -11.5t-1 -11.5q0 -34 22.5 -55.5t56.5 -21.5zM640 -83l-127 -46l-17 34q-25 -25 -65 -42t-88 -17q-93 0 -148 54.5t-55 134.5q0 17 3.5 34.5
t9.5 30.5q-49 28 -76 77t-27 116q0 112 84.5 167.5t206.5 55.5v42h-336q-4 31 -8 61t-8 61h641l17 -122h-148v-162h-151q-69 0 -114.5 -26t-45.5 -78t44 -80t110 -28h9t9 1q4 39 23 63.5t59 24.5t79.5 -24.5t39.5 -67.5q0 -16 -8 -34t-21 -34q14 -24 50.5 -92.5t57.5 -103.5
z" />
    <glyph glyph-name="dv_DMa" horiz-adv-x="880" 
d="M195 362q0 -12 11 -22.5t29 -10.5h224v-160h165v389h-166v-166h-224q-18 0 -28.5 -9t-10.5 -21zM316 169v35h-89q-66 0 -122 42t-56 116q0 77 51 117t125 40h97v39h-317q-4 31 -8 61t-8 61h885l16 -122h-111v-586l-155 16v59h-173q0 -30 -11.5 -53t-33.5 -23
q-58 0 -114 35.5t-56 99.5q0 28 23 45t57 18z" />
    <glyph glyph-name="dv_DYa" horiz-adv-x="846" 
d="M223 378q0 -12 10 -22t23 -10h181q4 -28 8 -56.5t8 -56.5h-118q-56 0 -85.5 -13.5t-29.5 -43.5q0 -31 31 -47.5t92 -16.5q78 0 162.5 52.5t84.5 180.5v213h-121v-148h-211q-15 0 -25 -9.5t-10 -22.5zM65 169q0 28 12 56t40 54q-22 19 -33.5 46t-11.5 58q0 66 48 105.5
t120 39.5h74v30h-309q-4 31 -8 61t-8 61h851l17 -122h-112v-574l-155 16v67q-31 -34 -107.5 -59.5t-145.5 -25.5q-123 0 -197.5 46t-74.5 141z" />
    <glyph glyph-name="dv_DVa" horiz-adv-x="638" 
d="M430 31l-17 34q-22 -4 -42.5 -6t-33.5 -2q-16 0 -30.5 1t-27.5 2q-2 -6 -3.5 -12.5t-1.5 -13.5q0 -34 24 -53.5t52 -20.5q33 1 56 20t24 51zM640 -83l-127 -46q-4 8 -8.5 16.5t-8.5 16.5q-25 -22 -61.5 -37.5t-84.5 -15.5q-93 0 -148 52t-55 132q0 16 3 32.5t8 29.5
q-51 28 -79.5 77.5t-28.5 118.5q0 112 84.5 167.5t206.5 55.5v42h-336q-4 31 -8 61t-8 61h641l17 -122h-148v-162h-151q-69 0 -114.5 -26t-45.5 -78t44 -80t110 -28h9t9 1q4 39 23 63.5t59 24.5t79.5 -24.5t39.5 -67.5q0 -16 -8 -34t-21 -34q14 -24 50.5 -92.5t57.5 -103.5z
" />
    <glyph glyph-name="dv_HMa" horiz-adv-x="988" 
d="M732 0q1 59 1 118v119h-184q0 -35 -15.5 -58.5t-51.5 -23.5q-47 0 -89 32t-55 76q-9 3 -21 5.5t-25 2.5q-35 0 -58 -20t-23 -48q0 -51 59 -72t120 -25l-31 -122q-121 5 -206 59t-85 160q0 31 10 59t29 52q-16 16 -24.5 39t-8.5 51q0 67 49.5 102t114.5 35h64v17h-298
q-3 31 -7 61t-8 61h993l17 -122h-112v-574zM293 396q43 0 79.5 -10.5t63.5 -27.5h297v100t-1 100h-268v-132h-205q-19 0 -26 -5.5t-7 -15.5q0 -5 2 -9t6 -6q13 3 28 4.5t31 1.5z" />
    <glyph glyph-name="dv_HYa" horiz-adv-x="1174" 
d="M291 271q-35 0 -57.5 -20t-22.5 -48q0 -51 59 -72t120 -25l-31 -122q-121 5 -206 59t-85 160q0 31 9.5 59.5t28.5 51.5q-16 16 -24 39t-8 51q0 69 49 103t115 34h64v17h-298q-3 31 -7 61t-8 61h1179l17 -122h-112v-574l-154 16v174q-23 -12 -52 -18.5t-71 -6.5
q-93 0 -169.5 63t-76.5 147l23 25q16 5 30 9t15 18q-5 10 -27 12.5t-41 2.5h-291q-19 0 -26 -5.5t-7 -15.5q0 -5 2 -9t6 -6q13 3 27 4.5t30 1.5q98 0 159 -47t61 -114q0 -38 -16.5 -71t-49.5 -53q-26 16 -52 33.5t-52 34.5q15 10 22.5 20t7.5 26q0 17 -21.5 31.5t-58.5 14.5
zM464 558v-16h160q75 0 110.5 -32.5t35.5 -72.5q0 -43 -20.5 -66.5t-48.5 -42.5q13 -16 36 -34.5t65 -18.5q40 0 75 22t42 59v202h-455z" />
    <glyph glyph-name="dv_KSsMYa" horiz-adv-x="1503" 
d="M362 455q23 -10 52.5 -15.5t54.5 -6.5h105v125h-181v-18q0 -27 -7 -46.5t-24 -38.5zM722 558v-236h152q-1 8 -2 16.5t-1 17.5q7 7 14 15.5t14 15.5q21 7 38.5 33.5t17.5 63.5q0 22 -13.5 44t-31.5 30h-188zM1131 274q41 0 75.5 21t41.5 56v207h-167q6 -16 11 -39t5 -42
q0 -44 -17 -81.5t-56 -65.5q13 -18 38 -37t69 -19zM1248 0v171q-24 -12 -56.5 -18.5t-74.5 -6.5q-43 0 -85 15t-76 40h-244q0 -28 -12.5 -56t-43.5 -28q-59 0 -109 41t-50 100q0 16 6.5 29t18.5 21h-35q-56 0 -121 13.5t-116 39.5q-31 -25 -49 -58t-18 -50q0 -31 22 -47.5
t47 -16.5q4 0 10.5 0.5t13.5 1.5q0 37 21 61.5t59 24.5q40 0 78 -26t38 -68q0 -16 -8 -35t-20 -35q15 -28 32 -58t32 -56l-125 -46l-58 113q-19 -4 -39.5 -6.5t-33.5 -2.5q-87 0 -152 50t-65 149q0 52 34 101t74 77q-22 22 -37 48.5t-15 64.5q0 58 40.5 104.5t112.5 46.5
q22 0 41.5 -5t35.5 -13h1176l17 -122h-112v-574z" />
    <glyph glyph-name="dv_KSPRa" horiz-adv-x="1842" 
d="M1062 460q0 -24 -4.5 -46t-12.5 -42h174v186h-172q7 -24 11 -51t4 -47zM1475 267q43 0 73 22.5t39 56.5v212h-217v-182q0 -53 27.5 -81t77.5 -28zM538 355q14 12 43 21.5t65 9.5h96q16 16 37 26.5t41 10.5q16 0 29.5 -17t20.5 -36q22 14 34.5 41.5t12.5 52.5
q0 28 -8 53.5t-24 40.5h-347v-203zM282 181q46 0 67.5 18.5t34.5 37.5v77q-12 18 -34 37t-68 19q-40 0 -66.5 -27t-26.5 -67q0 -42 26.5 -68.5t66.5 -26.5zM1587 0v154l-274 -220q-25 22 -50.5 44.5t-50.5 44.5l172 129q-46 13 -82 40t-58 67h-301l-22 -10l148 -239
q-34 -8 -70 -16.5t-70 -17.5q-37 63 -73 127t-73 127q-34 0 -57.5 5.5t-33.5 29.5h-53q-46 0 -68 -18t-33 -36v-227l-154 16v86q-16 -12 -49.5 -21t-61.5 -9q-105 0 -169.5 63t-64.5 156q0 94 64.5 157t169.5 63q28 0 61.5 -9t49.5 -22v94h-379q-4 31 -8 61t-8 61h1847
l17 -122h-112v-574z" />
    <glyph glyph-name="dv_KSPLa" horiz-adv-x="2356" 
d="M1219 558h-172q7 -24 11 -51t4 -47q0 -24 -4.5 -46t-12.5 -42h174v186zM2099 558h-730v-182q0 -50 26.5 -79.5t74.5 -29.5q19 0 36.5 5.5t31.5 15.5q-1 6 -1 12v11q0 72 62.5 128.5t149.5 56.5q45 0 84.5 -16.5t63.5 -41.5q24 26 59 42t80 16q15 0 32.5 -3.5t30.5 -10.5
v76zM538 355q14 12 43 21.5t65 9.5h96q16 16 37 26.5t41 10.5q16 0 29.5 -17t20.5 -36q22 14 34.5 41.5t12.5 52.5q0 28 -8 53.5t-24 40.5h-347v-203zM282 181q46 0 67.5 18.5t34.5 37.5v77q-12 18 -34 37t-68 19q-40 0 -66.5 -27t-26.5 -67q0 -42 26.5 -68.5t66.5 -26.5z
M2099 0v303q-5 30 -23 48t-43 18q-29 0 -48 -27.5t-19 -70.5v-142q-34 3 -67.5 6.5t-67.5 7.5v128q0 43 -17.5 69.5t-60.5 26.5q-31 0 -51.5 -20t-20.5 -46q0 -45 21 -102t83 -183q-32 -10 -64.5 -20t-64.5 -20q-28 54 -50.5 99t-37.5 83q-23 -9 -50 -14t-51 -5
q-71 0 -132.5 31.5t-90.5 88.5h-301l-22 -10l148 -239q-34 -8 -70 -16.5t-70 -17.5q-37 63 -73 127t-73 127q-34 0 -57.5 5.5t-33.5 29.5h-53q-46 0 -68 -18t-33 -36v-227l-154 16v86q-16 -12 -49.5 -21t-61.5 -9q-105 0 -169.5 63t-64.5 156q0 94 64.5 157t169.5 63
q28 0 61.5 -9t49.5 -22v94h-379q-4 31 -8 61t-8 61h2360l17 -122h-111v-574z" />
    </font>
</defs>
</svg>
