<svg xmlns="http://www.w3.org/2000/svg" viewBox="0 0 16 16"><path fill="#FF9800" d="M16 8.348C16 12.765 12.417 16 8 16A8.002 8.002 0 0 1 .974 4.174a.152.152 0 0 1 .035-.056c-.348-.521-.501-1.843.382-2.727 0 .369.223 1.002.473 1.475.202.376.417.647.57.612.348-.083 1.565-.083 1.739 0 .286-.368.982-1.391 2.088-1.391-.619.619-2.393 2.783.696 2.783h.696L5.565 6.261s.237.459 0 .696C5.301 6.692 4.174 7.242 4.174 8s.807 1.739 2.435 1.739 1.217-.696 2.087-.696 1.043.696 1.043.696c-1.197 0-2.066 1.391-3.478 1.391.696.515 1.155.696 2.087.696a4.177 4.177 0 0 0 4.174-4.174c0-.932-.306-1.788-.821-2.483a4.2 4.2 0 0 1 1.67 2.984 6.232 6.232 0 0 0 .195-1.544c0-2.094-.89-4.863-2.435-5.913C13.357 1.363 16 3.522 16 7.652v.696z"/></svg>