<?xml version="1.0" standalone="no"?>
<!DOCTYPE svg PUBLIC "-//W3C//DTD SVG 1.1//EN" "http://www.w3.org/Graphics/SVG/1.1/DTD/svg11.dtd">
<svg xmlns="http://www.w3.org/2000/svg">
<metadata>Copyright (C) 2024 by original authors @ fontello.com</metadata>
<defs>
<font id="brand" horiz-adv-x="1000" >
<font-face font-family="brand" font-weight="400" font-stretch="normal" units-per-em="1000" ascent="850" descent="-150" />
<missing-glyph horiz-adv-x="1000" />
<glyph glyph-name="arrow-breadcrumbs" unicode="&#xe800;" d="M296-156c29 0 58 12 79 33l408 392c42 38 46 104 5 146 0 0-5 4-5 4l-408 392c-46 41-117 41-162 0-42-38-42-104-5-146 0 0 5-4 5-4l329-317-329-317c-42-37-46-104-5-146 0 0 5-4 5-4 25-21 54-33 83-33z" horiz-adv-x="1000" />

<glyph glyph-name="arrow-left" unicode="&#xe801;" d="M325 686l-312-313c-17-16-17-46 4-62l308-313c21-21 58-21 79 0v0c21 21 21 59 0 79l-204 209h746c29 0 54 25 54 58v0c0 29-25 58-54 58v0h-746l204 205c21 20 25 58 0 79v0 0c-25 21-58 21-79 0z" horiz-adv-x="1000" />

<glyph glyph-name="arrow-right" unicode="&#xe802;" d="M596 686v0 0c-25-21-21-59 0-79l204-205h-746c-29 0-54-29-54-58v0c0-33 25-58 54-58h746l-204-209c-21-20-21-58 0-79v0c21-21 58-21 79 0l308 313c21 16 21 46 5 62l-5 4-308 309c-21 21-54 21-79 0z" horiz-adv-x="1000" />

<glyph glyph-name="bakery-active" unicode="&#xe803;" d="M867 663h-8c-7 101-92 181-194 181-1 0-1 0-1 0h-469c0 0-1 0-1 0-108 0-194-87-194-194 0-65 32-123 80-158l1 0v-359c0-60 48-108 108-108v0h95v-73c0 0 0 0 0 0 0-60 48-108 108-108 0 0 1 0 1 0h479c1 0 1 0 2 0 60 0 108 48 108 108 0 0 0 0 0 0v0 359c50 35 82 93 82 158 0 107-87 194-194 194-1 0-2 0-3 0l0 0z m-583-570h-95c-22 0-39 18-40 40l0 0v397l-17 10c-37 22-62 63-62 109 0 69 55 125 123 127l0 0h470c65-1 118-50 125-113l0 0h-389c0 0-1 0-1 0-108 0-194-87-194-194 0-65 32-123 80-158l1 0z m645 266l-18-10v-397c0-22-18-40-40-40l0 0h-478c0 0 0 0 0 0-22 0-40 17-41 40l0 0v397l-17 10c-38 22-63 63-63 110 0 70 56 127 127 127 0 0 0 0 0 0h469c1 0 2 0 2 0 70 0 126-57 126-126 0-48-26-90-65-111l-1 0z" horiz-adv-x="1060.5" />

<glyph glyph-name="beer" unicode="&#xe804;" d="M814 196c0-47-38-84-84-84v0h-3v268h87z m-184-172l-4-29c-10-33-37-57-70-63l-1 0h-354c-32 6-58 28-70 57l0 1-5 38v521h4l8-1h12c6 0 11 0 17 1l-1 0 7 1c4 0 8 1 11 2l6 1c6 2 11 4 16 6l-1 0 5 2c6 3 11 5 16 8l-1 0c22-13 48-21 77-21s54 8 77 21l-1 0c22-13 49-21 77-21s55 8 78 21l-1 0c4-3 9-6 14-8l1 0 5-2c4-2 9-4 14-6l1 0 6-1c3-1 7-2 11-2l7-1c4-1 10-1 15-1l0 0h25z m-481 732c18 0 33-8 44-20l0 0c8-9 20-14 33-14s24 5 32 14l0 0c11 11 27 18 44 18s33-7 44-18l0 0c8-9 20-14 33-14s24 5 32 14l0 0c11 11 27 18 44 18s33-7 44-18l0 0c8-9 20-14 33-14s24 5 32 14l0 0c11 12 27 20 44 20h0c33-1 60-28 60-61 0-19-8-35-21-46l0 0c-10-9-24-14-39-14-17 0-33 7-44 19l0 0c-8 9-20 14-32 14s-25-5-33-14l0 0c-11-12-27-19-44-19s-33 7-44 19l0 0c-8 8-20 13-32 13s-25-5-33-13l0 0c-11-12-27-19-44-19s-33 7-44 19l0 0c-8 8-20 13-32 13s-25-5-33-13l0 0c-11-12-26-19-44-19 0 0 0 0 0 0h0c0 0-1 0-1 0-4 0-8 0-11 1l0 0c-27 7-46 31-46 59 0 32 26 59 58 61l0 0z m709-287h-139v128c22 26 35 59 35 96 0 82-66 149-149 149-27 0-52-7-74-20l1 1c-22 13-49 21-77 21s-55-8-78-22l1 1c-22 13-48 20-76 20s-55-7-78-21l1 1c-21 12-46 19-73 19-83 0-149-67-149-149 0-37 13-70 35-96l0 0v-572c0-1 0-2 0-3s0-2 0-3l0 0 6-45c1-3 1-5 2-8l0 1c21-65 76-112 143-123l1 0c1 0 2 0 4 0s2 0 3 0l0 0h362c1 0 2 0 3 0s2 0 3 0l0 0c71 11 127 62 146 128l0 2c1 1 1 3 2 4l0 1 5 35c0 1 0 2 0 3s0 3 0 4l0 0v3h11c0 0 0 0 0 0 95 0 172 77 173 172v228c0 0 0 0 0 1 0 24-20 44-44 44 0 0 0 0 0 0h0z" horiz-adv-x="902.3" />

<glyph glyph-name="close" unicode="&#xe805;" d="M985-72v0l-416 420 416 412c9 9 14 21 14 34s-5 26-14 35l0 0c-9 8-21 14-34 14s-25-6-34-14l0 0-420-415-413 415c-8 7-19 11-31 11-27 0-49-22-49-49 0-12 4-23 11-31l0 0 416-412-416-420c-7-9-11-20-11-32 0-27 22-49 49-49 12 0 23 5 31 12l0 0 413 416 419-416c9-11 23-18 38-18 27 0 49 22 49 49 0 15-7 29-18 38l0 0z" horiz-adv-x="1000" />

<glyph glyph-name="collapse" unicode="&#xe806;" d="M942 398h-896c-29-4-50-29-46-58 4-25 21-46 46-46h896c29-4 54 17 58 46s-17 54-46 58c-4 0-8 0-12 0z" horiz-adv-x="1000" />

<glyph glyph-name="dropdown" unicode="&#xe807;" d="M0 548c0-29 13-58 33-79l392-408c38-42 104-46 146-4 0 0 0 0 0 0s4 4 4 4l392 408c41 46 41 117 0 163-38 41-104 45-146 8 0 0 0 0-4 0 0 0-4-4-4-4l-313-334-317 330c-37 41-104 41-145 4 0 0 0 0 0 0l-9-9c-21-20-29-50-29-79z" horiz-adv-x="1000" />

<glyph glyph-name="expand" unicode="&#xe808;" d="M965 380h-429v428c0 20-16 36-36 36v0 0c-19-1-34-16-35-35l0 0v-429h-429c-20 0-36-16-36-36s16-36 36-36v0h428v-428c0-20 16-36 36-36s36 16 36 36v0 0 428h429c20 0 36 16 36 36s-16 36-36 36v0z" horiz-adv-x="1000" />

<glyph glyph-name="play" unicode="&#xe809;" d="M500-154c-275 0-498 223-498 498s223 498 498 498 498-223 498-498v0c-1-275-223-497-498-498z m-117 398c0-25 25-39 47-28l172 100c9 6 15 16 15 26 0 13-6 22-15 27l-172 100c-22 11-46-3-47-28v-197z" horiz-adv-x="1000" />

<glyph glyph-name="bake" unicode="&#xe80a;" d="M771 298c-17 0-29-12-29-29v-25h-359v25c5 13-4 29-16 33-13 5-29-4-34-16 0-4 0-9 0-13v-54c0-17 13-29 30-29h416c17 0 29 12 29 29v54c-12 13-20 25-37 25z m-617 184v0h-25c-16 0-33-17-33-34s17-33 33-33h21c17 0 33 17 33 33 5 17-8 34-29 34z m0-88v0h-25c-16 0-33-12-37-33 0-17 12-34 33-38 4 0 4 0 8 0h21c17 0 34 13 34 34 0 20-13 37-34 37z m659 225h-513c-50 0-92-42-92-92v-379c0-50 42-91 92-91h513c50 0 87 41 91 91v379c-4 50-41 92-91 92z m20-467c0-12-8-20-20-20h-513c-12 0-21 8-21 20v375c0 13 9 21 21 21h513c12 0 20-8 20-16v-380z m63 567h-788c-58 0-108-46-108-108v-534c0-62 50-108 108-108h780c62 0 108 50 108 108v534c4 62-42 108-100 108z m37-646c0-25-20-41-41-41h-784c-25 0-45 16-45 41 0 0 0 0 0 4v534c0 25 20 41 41 41h784c25 0 41-16 45-41 0 0 0 0 0-4v-534z m-779 504v0h-25c-16 0-33-16-33-33v0c4-21 17-33 37-33h21c17 0 34 16 34 33s-13 33-34 33z m500-241c-12-9-12-29-4-38 4-4 13-8 21-8v0c8 0 12 4 17 8 0 0 45 42 4 117-17 33-9 46-4 50 12 8 12 25 0 37-5 9-21 9-34-4 0 0-46-41-4-116 17-34 4-46 4-46z m-104 0c-12-9-12-29-4-38 4-4 12-8 21-8s12 4 16 8c0 0 46 42 5 117-17 33-9 46-5 50 13 8 13 29 0 37-4 9-25 9-33-4 0 0-46-41-4-116 17-34 4-46 4-46z m-104 0c-13-9-13-29-4-38 4-4 12-8 21-8v0c8 0 12 4 16 8 0 0 46 42 4 117-16 33-8 46-4 50 13 8 13 29 0 37-4 9-25 9-33-4 0 0-46-41-4-116 16-34 4-46 4-46z" horiz-adv-x="1000" />

<glyph glyph-name="bakery" unicode="&#xe80b;" d="M72 220v63l548-282v-62z m548 543v-401l-523 268c194 166 441 146 523 133z m-548-344l548-281v-56l-548 282z m548-201l-548 282v63l548-282z m44 610c-16 4-388 90-654-182v0-1c-2-2-3-3-5-5l0 0-1-2c-1-2-1-4-2-6l0 0c0-1-1-1-1-2l0 0c-1-3-1-5-1-8l0 0s0 0 0 0v-424c0-14 8-26 20-32l0 0 619-318c5-3 10-4 16-4 1 0 1 0 1 0l0 0c20 0 36 16 36 36v0 913c0 17-12 31-28 35l0 0z" horiz-adv-x="692.4" />

<glyph glyph-name="cheese-active" unicode="&#xe80c;" d="M265 199c-59 0-107-48-107-107s48-107 107-107v0c59 0 107 48 107 107s-48 107-107 107v0z m0-131c-13 0-24 11-24 24s11 24 24 24v0c13 0 24-11 24-24s-11-24-24-24v0z m451 774c-4 2-8 2-13 2-8 0-14-2-20-6l0 0-662-358c-7-3-12-9-16-15l0 0h-5v-580c1-23 19-41 42-41 0 0 0 0 0 0h918c0 0 0 0 0 0 23 0 41 18 42 41l0 0v556c20 211-66 331-286 401z m202-915h-836v478h414c20-71 82-122 157-124l0 0c76 0 140 52 158 123l0 1h105z m-347 519c1 11 3 22 6 32l0-1c13 31 42 53 77 54l0 0c1 0 1 0 2 0 34 0 64-22 75-53l0 0 2-7c3-7 4-15 5-23l0 0c0-11-2-22-6-32l0 1c-12-31-42-53-77-54l0 0c0 0-1 0-2 0-34 0-64 22-75 52l0 1c-4 9-6 19-7 30l0 0z m244 42c-20 70-82 121-157 123l0 0c-76-1-139-52-158-122l0-1h-293l501 270c155-54 217-132 214-270z m-231-396c0-79 64-143 143-143s143 64 143 143v0c0 79-64 143-143 143s-143-64-143-143v0z m203-3c0-33-27-60-60-60s-60 27-60 60v0c0 33 27 60 60 60s60-27 60-60v0z" horiz-adv-x="1003.9" />

<glyph glyph-name="chill-time" unicode="&#xe80d;" d="M626 844h-501c-69 0-125-56-125-125v0-750c0-69 56-125 125-125v0h501c69 0 125 56 125 125v0 750c0 69-56 125-125 125v0z m-541-125c0 0 0 0 0 0 0 22 18 41 40 42l0 0h501c23-1 41-19 41-42 0 0 0 0 0 0v0-208h-84v125c-1 23-19 41-42 41 0 0-1 0-1 0l0 0c0 0 0 0 0 0-23 0-41-18-42-41l0 0v-125h-415z m582-750c0 0 0 0 0 0 0-23-18-42-41-42l0 0h-501c-23 0-41 19-41 42 0 0 0 0 0 0v0 459h416v-209c0 0 0 0 0 0 0-23 18-41 40-42l0 0c0 0 1 0 1 0 23 0 42 19 42 42 0 0 0 0 0 0v0 209h84z" horiz-adv-x="750" />

<glyph glyph-name="04-icon-arrow-right" unicode="&#xe80e;" d="M541 396l-436 437a62 62 0 0 1-88-88l392-394-392-394a62 62 0 0 1 88-88l436 439a64 64 0 0 1 0 88z" horiz-adv-x="559" />

<glyph glyph-name="compliments-active" unicode="&#xe80f;" d="M890 835c-6 6-13 9-22 9-1 0-3 0-4 0l0 0c-125-18-270-28-417-28-142 0-282 9-419 28l16-2c-1 0-3 0-5 0-7 0-13-2-18-6l0 0c-6-5-11-13-12-21l0 0c-9-58 24-100 52-138l6 5-5-5 2-2c-64-233-64-451-6-629v-2c-31-46-52-102-58-162l0-1c0-2-1-4-1-6 0-17 14-31 30-31l0 0h5c125 18 270 28 418 28 141 0 281-10 418-28l-16 2c1 0 2 0 3 0 7 0 14 2 19 6l0 0c7 5 12 12 13 21l0 0c3 13 5 28 5 44 0 53-20 101-52 137l0 0c22 98 35 210 35 325 0 103-10 203-30 301l2-10c0 3-2 6-3 9l0 0c28 36 47 80 54 127l0 2c0 1 0 2 0 3 0 10-4 18-10 24l0 0z m-58-923c-114 14-246 23-380 23s-267-9-396-25l15 2c3 12 5 22 9 32l36 5c15 2 27 15 27 30 0 2 0 3 0 5l0 0c-2 14-14 26-29 27l0 0v2c8 12 16 25 26 43 3 4 4 9 4 15 0 12-7 23-17 28l0 0c-4 2-9 3-14 3-2 0-3 0-5 0l0 0c-18 73-29 158-29 245 0 83 10 165 28 243l-1-7c0-18 14-32 32-32s31 14 31 32v0c-4 34-14 65-30 92l1-1c16 1 29 14 29 31 0 17-14 31-31 31-1 0-1 0-2 0l0 0-45 5c-7 9-12 20-17 31l0 1c113-15 244-23 377-23 132 0 263 8 391 24l-15-1c-11-31-27-58-46-81l0 1c-25-28-44-63-53-101l0-1c0-2-1-4-1-7 0-17 14-31 32-31 14 0 27 11 30 25l0 0c2 10 5 18 8 27l0-1c11-69 18-148 18-229 0-93-9-185-25-273l1 9c-3 1-7 2-12 2-17 0-31-14-31-31 0-7 3-14 7-19l0 0c11-13 21-24 29-34 1-2 3-4 4-5v0c36-44 45-68 43-112z m-602 751c40-4 74-8 104-10h2c0 0 1 0 1 0 17 0 30 13 31 29l0 0c0 0 0 1 0 2 0 16-13 30-29 31l0 0c-28 3-60 6-102 11-1 0-2 0-3 0-16 0-29-12-31-27l0 0c0-2 0-4 0-5 0-16 12-29 27-31l0 0z m208-15h14c29 0 58 0 92 3 16 1 29 14 29 31 0 9-5 18-12 24l0 0c-5 4-12 7-19 7-1 0-2 0-3 0l0 0c-35-2-67-3-100-3v0c-17 0-31-14-31-32s14-31 31-31v0z m205 14h4l45 5c16 1 29 14 29 31 0 10-5 19-13 25l0 0c-5 4-12 6-19 6-2 0-3 0-5 0l0 0-46-5c-15-2-27-15-27-31 0-1 0-3 0-4l0 0c2-16 15-27 31-27 0 0 1 0 1 0l0 0z m100-654l-45 5c-1 0-3 0-4 0-7 0-14-2-19-6l0 0c-8-6-13-15-13-25 0-17 13-30 29-31l0 0 44-5h5c1 0 1 0 2 0 17 0 31 14 31 31 0 16-13 30-29 31l0 0z m-298 24h-16c-24 0-47 0-69 0 0 0 0 0 0 0-17 0-31-14-31-31 0-1 0-2 0-2l0 0c1-17 15-29 31-29 1 0 1 0 2 0l0 0c22 0 43 0 66 0h17c17 0 31 14 31 31v0c0 17-14 31-31 31v0z m-170-4c-27-2-55-5-85-8-16-1-29-15-29-31 0-17 13-31 31-31 0 0 1 0 1 0l0 0h4c29 3 57 6 83 7 16 1 29 14 29 31 0 9-5 18-12 24l0 0c-5 5-12 8-20 8-1 0-1 0-2 0l0 0z m339-6c-29 3-58 5-84 7 0 0-1 0-1 0-17 0-30-13-32-29l0 0c0-1 0-2 0-2 0-17 13-30 29-31l0 0c27-2 54-4 82-7h3c16 0 30 13 31 29l0 0c0 1 0 2 0 4 0 16-13 30-29 31l0 0z m-241 335l7-4c5-2 5-4 3-9-7-15-15-29-21-45-4-9-7-20-8-31l0 0c0-1 0-1 0-2 0-6 3-10 8-12l0 0h6c3 2 5 3 0 6-1 2-2 4-2 7 0 1 0 2 0 3l0 0c1 7 3 13 5 18l0 0c8 20 15 36 23 52l-1-3c0 2 0 3 3 4 5-4 8-10 8-17 0-2-1-4-1-5l0 0c-2-7-8-12-15-12-1 0-1 0-1 0l0 0c-2 0-4 0-4-3s2-2 4-3c1 0 3-1 5-1 7 0 14 3 19 7l0 0c5 3 8 8 8 14 0 2-1 3-1 5l0 0c-1 5-3 9-7 13l0 0c-5 3-8 8-8 14 0 4 1 7 3 10l0 0c3 4 0 7-4 9-9 3-13 0-13-8s-2-6-7-4c-2 1-5 2-8 3l0 0c-3 0-5 0-5-3s2-3 4-3z m-21-14c3-2 0-4-2-7-4-9-9-20-13-31l-1-2c0-3-2-6 0-7s9 0 11 3c3 6 7 11 13 15l0 0c-3 3-5 0-7 2v0l9 19c5 10 3 12-7 13-1 0-2 0-3 0-2 0-5-1-7-2l0 0-11-9c0 3 1 6 3 8l0 0c3 6 0 8-5 9-1 0-2 0-3 0-4 0-7-1-10-3l0 0-14-13c1 2 2 5 3 7l0 0c0 3 3 5 4 7 2 1 2 4 2 6 0 5-4 9-9 9 0 0-1 0-1 0l0 0c-1 0-2 0-3 0-3 0-6-1-9-2l0 0c-8-4-14-8-20-13l0 0c-2-2-4-5-4-8v0c-1-11-4-21-9-29l0 0c-2-4-5-7-8-9l0 0c-1-1-2-2-4-2s-3 1-4 2l0 0c-1 1-2 3-2 5 0 1 0 2 0 3l0 0c1 3 2 6 3 9l0 0c5 11 12 21 21 29l0 0c2 0 4 2 3 5s-3 4-6 4c-1 0-1 0-2 0-4 0-7-2-10-4l0 0c-8-8-15-16-21-26l0 0c-9-14-19-26-29-37l0 0c-5-6-12-11-20-13l0 0c-1-1-3-1-4-1-7 0-13 6-13 13v0c0 2-1 5-1 7s1 6 1 8l0 0c8 30 25 55 50 72l0 0c3 2 7 4 12 6l0 0c1 1 3 1 4 1s3 0 4-1l0 0c3-3 0-6 0-8-2-4-5-8-8-11l0 0c-2-2-2-5 0-7s6-4 8 0c5 5 10 12 12 19l0 1c0 1 0 2 0 3 0 3-1 6-4 8l0 0c-6 6-14 9-23 9s-18-3-24-9l0 0c-25-21-43-50-49-82l0-1c0-2 0-4 0-5 0-14 10-26 24-27l0 0c2-1 5-1 8-1 10 0 19 4 26 10l0 0c10 8 18 18 25 28l0 1c2-15 11-19 24-14 15 6 25 20 25 37l0 0c0 5 3 10 6 14l0 0 10 8c2 0 4 3 6 2s0-4 0-6c-8-15-15-32-21-49l0-2c0-2-2-4 0-6 1-1 2-1 4-1 4 0 8 3 9 7l0 0c5 16 15 30 28 40l0 0s3 4 5 3 0-4 0-6l-9-26c-2-7 0-8 6-8s5 3 6 6c5 10 12 19 21 26l0 0c0 3 0 7 4 4z m294-25c4 10 8 18 13 26l0 0c2 3 7 6 5 9s-7 4-11 5c0 0 0 0-1 0-3 0-7-2-9-4l0 0c-8-6-14-14-22-20 3 5 6 11 8 17s-3 7-7 8-6 0-7-5c-1-9-4-17-8-24l0 0c-5-11-14-20-25-25l0 0c-8-3-11 0-9 7 0 4 1 7 2 10 1 4 5 7 9 7 1 0 1 0 2 0l0 0c11 0 16 4 17 15 0 5 2 10-3 12s-12 5-18 0c-14-11-23-28-23-47l0 0c0 0 0-1 0-1 0-6 4-10 10-10 0 0 0 0 0 0h0c1 0 2 0 3 0 8 0 15 2 21 7l0 0 8 7-3-8c0-1-1-1-1-2 0-2 1-3 3-3l0 0c1-1 3-1 4-1 4 0 8 3 8 7l0 0c5 16 14 29 26 40l0 0c2 2 4 4 7 3-2-4-4-8-6-12s-3-9-5-14c-1-3-1-5-1-8s0-6 1-8l0 0c1-3 5-6 8-6 1 0 2 1 3 1l0 0c2 0 5 1 2 4-1 2-2 4-2 7 0 2 0 4 1 6l0 0z m-58 29s2 3 4 0 0-2 0-4c0-10-3-12-14-10 3 6 7 11 11 15l0 0z m-74 4c2 0 0-4 0-6-3-8-6-16-8-24 0-3-4-7 0-8s9-2 11 4c5 11 13 21 22 29l0 0c2 2 4 3 6 4l0 0c0-2 0-3 0-4-3-7-6-13-9-20-2-4-3-9-3-13 0-1 0-2 0-3l0 0c0-6 5-7 10-7s7 3 6 8c0 1-1 3-1 5 0 4 1 8 3 11l0 0c3 7 6 14 10 20s0 7-4 8c-1 0-3 0-4 0-7 0-13-3-17-7l0 0-10-10c0 0 0 1 0 1 0 2 0 4 1 6l0 0c4 8 0 13-9 13-2 0-4-1-5-2l-12-9c3 6 5 11 7 16s2 7-2 9-15 0-15-6c-2-13-6-25-12-36l0 1c-3-8-7-16-9-25l0-1c0-4 0-6 5-5 0 0 0 0 0 0 5 0 8 3 9 7l0 0c5 16 13 30 25 41l0 0s3 4 5 3z m170-62c0 2-2 3-4 3-6 2-11 8-11 16 0 0 0 1 0 2l0 0c0 5 2 10 3 14l0 0c7 17 16 33 27 46l0 0s2 2 2 2c5 1 11 2 17 2s11-1 17-2l-1 0c1 0 3-3 4 0s0 4-3 5c-2 1-4 1-7 2l0 0c-3 0-7 0-11 0s-8 0-11 0l0 0 3 6c2 3 4 6 0 9-1 1-3 2-5 2s-4-1-5-2l0 0c-3-3-5-7-8-11l0 0c-2-3-5-5-9-5 0 0 0 0 0 0h0c-5-1-10-1-15-1-9 0-17 1-25 2l1 0c-2 0-4 0-5 0s2-4 4-4c4-2 10-3 15-3v0h25c-4-7-8-15-12-22-7-11-11-24-13-38l0 0c0-1 0-3 0-4 0-11 8-19 19-19 0 0 1 0 2 0l0 0c3-2 6-3 6 0z m-189 106c0 3-2 4-4 6-3 3-8 4-13 4s-9-1-13-4l0 0c-5-4-10-9-13-15l0 0c-12-22-22-47-29-74l0-2c-1-3-1-5-1-8s0-6 1-8l0 0c2-4 6-6 10-6 2 0 4 0 5 1l0 0c2 0 0 2 0 3-2 2-3 5-3 8 0 2 1 3 1 5l0 0c5 27 15 51 29 72l0 0c4 5 8 9 13 13l0 0c3 3 8 5 13 5 0 0 0 0 0 0l0 0c0-1 2-3 4 0z m44 2c0-3 0-5 3-5 5-1 10-2 16-2 10 0 20 2 29 5l-1 0c1 0 4 0 4 4s-4 0-6 0c-5-2-11-2-17-2s-12 0-17 2l0 0c-1 0-4 0-4 2s2 3 3 4c6 3 13 6 21 7l0 0c3 0 7 0 11 0 18 0 35-1 52-2l-2 0-2-2-10-6c-19-12-42-19-67-19-1 0-1 0-2 0l0 0c-1 0-3 0-4 0-10 0-18 3-25 9l0 0s-3 2-4 0 0-3 0-4c4-5 10-8 17-9l0 0c6-1 14-2 21-2 32 0 62 12 84 31l0 0c1 1 2 2 3 4l0 0c1 0 1 1 1 2s0 2-1 3l0 0c0 0-1 1-2 1s-1-1-2-1l0 0c-6-1-13-2-20-2s-14 1-21 2l1 0c-4 0-9 1-13 1-12 0-24-2-35-6l1 0c-6-3-10-9-12-15l0 0z m175-86c-2 0-4-2-4 2 0 9 0 17 0 26 0 0 0 1 0 1 0 5 3 9 7 10l0 0c2 0 6 2 8 0s0-4-2-7 0-2-2-2-2-4 0-6c1-1 2-1 4-1s2 0 3 1l0 0c7 2 9 8 11 14 0 0 0 1 0 2 0 3-2 6-5 7l0 0c-5 2-10 3-15 3-1 0-1 0-1 0h0c0 0 0 0-1 0-12 0-22-10-22-22 0-2 1-4 1-5l0 0c1-5 2-11 3-17l0-1c0-9-2-10-10-7l-5 3c-2 0-5 3-7 0s0-6 4-7c4-2 9-4 14-4s9 2 13 4l0 0c4 2 10 3 15 4l0 0c3 0 7 0 11 0s7 0 11 0l-1 0c0 4-4 4-6 4-2 0-5 0-7 0-6 0-12-1-17-2l0 0z m-242 32c0 2 6 5 0 7s-8 5-12 0c-7-11-13-23-15-37l0 0c0-8 3-12 11-12 4 0 8 0 3 7-1 1-1 3-1 4s0 3 1 5l0 0c3 10 8 18 13 26l0 0z m12 22c-1 3-4 5-7 5l0 0c-6 0-7-5-8-8s4-4 7-4 6 4 8 7z" horiz-adv-x="899.4" />

<glyph glyph-name="cool-time" unicode="&#xe810;" d="M881 296c-7 12-20 20-35 20-7 0-13-2-19-5l0 0-122-73-182 105 182 105 122-71c5-2 10-3 16-3 22 0 40 17 40 40 0 13-7 26-18 33l0 0-81 48 78 45c11 7 17 19 17 33 0 22-18 40-40 40-6 0-12-2-17-4l0 0-78-45v95c-3 19-20 33-39 33s-37-14-40-33l0 0v-141l-182-105v210l123 70c11 7 17 19 17 33 0 22-18 40-40 40-6 0-12-2-17-4l0 0-83-47v89c0 2 1 4 1 6 0 22-18 40-40 40s-40-18-40-40c0-2 0-4 0-6l0 0v-89l-83 47c-5 2-11 4-17 4-22 0-40-18-40-40 0-14 7-26 17-33l0 0 123-70v-210l-182 105v141c-3 19-20 33-39 33s-37-14-40-33l0 0v-95l-78 45c-6 4-14 7-23 7-22 0-40-18-40-40 0-16 10-30 23-36l0 0 77-45-82-48c-13-7-23-20-23-36 0-22 18-40 40-40 9 0 17 2 23 7l0 0 122 71 182-105-182-106-122 72c-6 4-14 7-23 7-22 0-40-18-40-40 0-16 10-30 23-36l0 0 83-48-78-44c-13-7-23-20-23-36 0-22 18-40 40-40 9 0 17 2 23 7l0 0 78 43v-95c0-2 0-4 0-7 0-22 17-40 40-40s40 18 40 40c0 3-1 5-1 7l0 0v141l182 106v-210l-123-70c-13-7-23-21-23-36 0-22 18-40 40-40 9 0 17 2 23 7l0 0 83 47v-89c0-2 0-4 0-7 0-22 17-40 40-40s40 18 40 40c0 3-1 5-1 7l0 0v89l83-47c6-5 14-7 23-7 22 0 40 18 40 40 0 15-9 29-23 36l0 0-123 70v210l180-105v-141c0-22 18-40 40-40s40 18 40 40v0 94l78-45c7-5 15-8 24-8 22 0 40 18 40 40 0 16-10 31-25 37l0 0-77 45 82 49c13 7 21 20 21 35 0 7-2 14-5 20l0 0z" horiz-adv-x="886.7" />

<glyph glyph-name="entire-collections" unicode="&#xe811;" d="M368 555v0c0 0 0 0 0 0 0-43-35-79-78-79l0 0h-132c-44 0-79 35-79 79v0 131c0 43 35 79 79 79v0h132c43-1 78-36 78-79 0 0 0 0 0 0v0z m-78 289h-132c-87 0-158-71-158-158v0-131c0-87 71-158 158-158v0h132c87 0 157 71 157 158 0 0 0 0 0 0v0 131c0 0 0 0 0 0 0 87-70 157-157 158h0z m631-289v0c0-44-35-79-79-79v0h-131c-44 0-79 35-79 79v0 131c0 43 35 79 79 79v0h131c44 0 79-36 79-79v0z m-79 289h-131c-87 0-158-71-158-158v0-131c0-87 71-158 158-158v0h132c87 0 157 71 157 158 0 0 0 0 0 0v0 131c0 87-71 158-158 158v0z m-474-842v0c0 0 0 0 0 0 0-44-35-79-78-79l0 0h-132c-44 0-79 35-79 79v0 131c0 43 35 79 79 79v0h132c43-1 78-36 78-79 0 0 0 0 0 0v0z m-78 289h-132c-87 0-158-71-158-158v0-132c1-87 71-157 158-157 0 0 0 0 0 0h132c87 0 156 70 157 157v132c0 0 0 0 0 0 0 87-70 157-157 158h0z m631-289v0c0-44-35-79-79-79v0h-131c-44 0-79 35-79 79v0 131c0 43 35 79 79 79v0h132c44 0 79-36 79-79v0z m-79 289h-131c0 0 0 0 0 0-87 0-157-70-158-157v-132c0-88 71-158 158-158v0h132c87 0 157 71 157 158 0 0 0 0 0 0v0 131c0 0 0 0 0 0 0 87-70 157-157 158h0z" horiz-adv-x="1000" />

<glyph glyph-name="compliments-active-1" unicode="&#xe812;" d="M359 370c-7-7-11-17-11-28s4-20 11-27l0 0c7-7 17-12 28-12s20 5 27 12l0 0c7 7 11 17 11 27s-4 21-11 28l0 0c-7 7-17 11-27 11s-21-4-28-11l0 0z m47-28c0 0 0-1 0-1 0-5-2-10-5-13l0 0c-3-4-8-6-14-6 0 0-1 0-1 0l0 0c0 0 0 0 0 0-6 0-10 2-14 6l0 0c-4 4-6 9-6 15s2 11 6 15l0 0c4 3 8 6 14 6 0 0 0 0 0 0h0c0 0 1 0 1 0 6 0 11-2 14-6l0 0c3-4 5-8 5-14 0-1 0-1 0-2l0 0z m161 38v-104h19v38c5-7 13-11 22-11 1 0 2 0 2 0l0 0c10 0 19 5 25 12l0 0c6 7 10 17 10 27s-4 20-10 28l0 0c-6 7-15 12-25 12h0c0 0-1 0-2 0-9 0-17-4-22-11l0 0v9z m25-23c4 3 8 6 14 6 0 0 0 0 0 0h0c0 0 1 0 1 0 6 0 11-2 14-6l0 0c4-4 6-9 6-15s-2-11-6-15l0 0c-3-4-8-6-14-6 0 0-1 0-1 0l0 0c0 0 0 0 0 0-6 0-10 2-14 6l0 0c-3 4-6 9-6 15s3 11 6 15l0 0z m406 26c0 0-1 0-2 0-8 0-16-5-20-11l0 0v9h-19v-75h19v40c0 0 0 1 0 2 0 4 1 9 4 12l0 0c3 3 7 5 11 5 1 0 1 0 1 0l0 0c0 0 1 0 1 0 4 0 8-2 10-4l0 0c3-3 4-7 4-11 0 0 0-1 0-1l0 0v-43h18v46c0 1 0 2 0 3 0 8-2 14-7 20l0 0c-5 5-11 8-19 8 0 0-1 0-1 0l0 0z m63 17h-19v-70c0-1 0-2 0-3 0-7 3-14 8-18l0 0c6-3 12-5 19-5 3 0 6 0 9 1l0 0v16h-9c-2 0-4 1-6 3l0 0c-1 1-1 2-1 4 0 0 0 0 0 1l0 0v31h16v18h-16z m88-60c-2 3-5 5-9 7l0 0-11 3c-4 1-7 2-10 4l0 0q-4 2-4 5c0 2 1 3 3 4l0 0c1 0 3 1 5 1 0 0 1 0 1 0l0 0c0 0 1 0 1 0 5 0 9-3 11-7l0 0 16 9c-3 4-7 8-12 11l0 0c-4 2-10 4-16 4 0 0 0 0 0 0h0c0 0-1 0-2 0-6 0-13-2-18-6l0 0c-5-4-8-10-8-17 0 0 0 0 0 0l0 0c0 0 0 0 0-1 0-4 2-8 4-11l0 0c3-3 6-6 10-7l0 0 11-4c4-1 7-2 9-3l0 0q4-2 4-5t-10-7c0 0 0 0-1 0-6 0-11 4-13 10l0 0-16-9c5-11 16-18 28-18 1 0 2 0 2 0l0 0c1 0 1 0 2 0 7 0 14 2 19 6l0 0c5 4 8 10 8 16 0 1 0 1 0 2l0 0c0 0 0 0 0 1 0 4-1 8-4 12l0 0z m-491 74v-83c0-22 14-25 23-25 1 0 3 0 4 0s3 0 4 0l0 0v15h-5c-6 0-9 4-9 11v82z m248-31c0 0-1 0-2 0-10 0-19-4-26-11l0 0c-6-7-11-17-11-27 0-21 18-39 39-39 6 0 12 1 17 4l0 0c8 4 14 11 18 19l0 0h-22l-5-3c-3-2-6-2-9-2s-6 0-9 2l0 0c-5 2-8 7-9 12l0 0h55c0 1 0 2 0 4s0 3 0 4l0 0c0 0 0 0 0 0 0 11-4 21-11 28l0 0c-6 5-14 9-23 9-1 0-1 0-2 0l0 0z m-19-31c1 4 3 8 6 11l0 0c3 2 8 4 12 4 0 0 1 0 1 0l0 0c0 0 1 0 1 0 4 0 7-1 10-3l0 0c4-3 6-7 7-12l0 0z m-582 12c4 0 7-1 10-3l0 0c3-2 6-5 7-8l0 0 16 10c-3 6-7 10-13 14l0 0c-6 3-12 5-20 5-10 0-20-4-27-11l0 0c-7-8-11-18-11-29s4-21 11-28l0 0c7-7 17-12 27-12 8 0 14 2 20 6l0 0c5 3 10 7 13 13l0 0-16 10c-2-3-4-6-7-7l0 0c-3-2-6-3-10-3h0c0 0 0 0-1 0-5 0-10 2-13 6l0 0c-4 4-6 9-6 15s2 11 6 15l0 0c3 4 8 7 14 7h0z m198-59v42s0 0 0 0 0 3 0 4c0 0 0 0 0 1 0 4-1 8-2 12l0 0c-2 6-6 11-12 14l0 0c-3 1-6 2-10 2 0 0-1 0-1 0l0 0c0 0-1 0-1 0-8 0-15-4-19-10l0 0v8h-19v-74h19v43c0 0 0 1 0 1 0 5 2 9 4 12l0 0c2 2 6 4 9 4 1 0 1 0 1 0l0 0c0 0 0 0 1 0 3 0 6-2 8-4l0 0c2-3 3-6 3-9 0-1 0-1 0-1l0 0v-45z m45 0v47c0 0 0 1 0 1 0 8-3 15-8 21l0 0c-5 5-12 9-20 9 0 0 0 0 0 0h0c0 0 0 0-1 0-5 0-11-2-15-5l0 0c2-3 4-6 5-9l0 0c1-2 1-4 1-6l0 0c1 0 2 0 3 0s2 0 3 0l0 0c0 0 1 0 1 0 3 0 6-1 8-3l0 0c2-3 3-6 3-9 0-1 0-2 0-2l0 0v-44z m261 0v42s0 0 0 0 0 3 0 4c0 1 0 2 0 3 0 4 0 7-1 10l0 0c-2 6-6 11-12 14l0 0c-3 1-6 2-10 2 0 0-1 0-1 0l0 0c0 0-1 0-1 0-8 0-15-4-19-10l0 0v8h-19v-74h19v43c0 1 0 2 0 3 0 3 1 7 3 10l0 0c2 2 6 4 9 4 1 0 1 0 1 0l0 0c0 0 0 0 1 0 3 0 6-2 8-4l0 0c2-3 3-6 3-9 0-1 0-1 0-1l0 0v-45z m45 0v47c0 0 0 1 0 2 0 8-3 14-7 20l0 0c-5 5-12 9-20 9 0 0 0 0 0 0h0c0 0-1 0-2 0-5 0-11-2-15-5l0 0c2-3 4-6 5-9l0 0c1-2 2-4 2-6l0 0c1 0 2 0 3 0s2 0 3 0l0 0c0 0 1 0 1 0 3 0 6-1 8-3l0 0c2-3 3-6 3-9 0-1 0-2 0-2l0 0v-44z m-75-218c-70-76-169-124-280-124-210 0-380 171-380 381s170 380 380 380c96 0 184-36 251-96l0 1-20-21c-61 53-142 86-231 86-193 0-351-157-351-351s158-351 351-351c103 0 195 44 259 114l0 0-20 20c-59-65-144-105-238-105-179 0-323 145-323 323s144 323 323 323c95 0 181-41 240-107l0 0 126 125c-91 98-221 159-366 159-276 0-500-224-500-500s224-500 500-500c145 0 275 61 366 159l0 0-87 84z" horiz-adv-x="1153.3" />

<glyph glyph-name="deli" unicode="&#xe813;" d="M1077 143c5 11 7 24 7 37 0 2 0 3 0 4l0 0c0 26-9 49-24 68l0 0c15 18 24 42 24 68v0c0 17-4 33-10 48l0-1 34 10c17 5 28 21 28 39 0 2 0 4 0 6l0 0c-3 19-20 34-39 34-1 0-1 0-1 0h-5c-26 218-249 388-509 388s-483-166-510-388h-14c-20 0-37-15-40-34l0 0c0-2 0-4 0-5 0-19 11-34 28-40l0 0 34-9c-6-14-9-29-9-46 0-26 9-51 24-70l0 0c-15-19-24-42-24-68v0c0-19 5-36 13-51l0 1c-36-10-65-35-81-66l0-1c-2-5-3-10-3-15 0-14 7-26 18-33l0 0c16-11 34-21 53-30l3-1c13-82 83-144 167-144h674c81 0 149 57 166 134l0 1 26 4 19 4c18 4 31 20 31 39l0 0c-4 51-35 95-79 116l-1 1z m-907-185c26-6 56-9 86-9h0c1 0 2 0 3 0 46 0 91 8 132 24l-3-1c66-24 142-39 221-41l1 0c3 0 7 0 11 0 55 0 107 15 151 41l-1 0h19c27-2 68-5 115-5 30 0 57 0 86 2-17-26-45-42-77-43l0 0h-675c0 0 0 0-1 0-27 0-52 12-68 32l0 0z m565 88c-31-22-69-35-110-35-4 0-8 1-13 1l1 0c-75 2-146 17-213 42l5-1h-3c-4 1-8 2-13 2h0c-4 0-8-1-12-2l0 0h-3c-33-15-71-23-112-23-1 0-2 0-3 0l0 0c-53 0-103 11-149 31l3-1c21 7 45 11 70 13l1 0h855c9-4 16-8 22-14l0 0c-45-7-96-10-149-10-3 0-6 0-8 0l0 0c-1 0-2 0-4 0-48 0-96 2-143 7l6 0c-2 0-3 0-5 0-10 0-18-3-24-9l0 0z m-193 716c-1-4-2-8-2-12 0 0 0-1 0-1l0 0c0 0 0 0 0 0 0-22 17-40 39-41l0 0c0 0 1 0 1 0 22 0 40 18 40 40 0 0 0 0 0 1l0 0c0 0 0 1 0 1 0 4-1 8-2 12l0 0c202-14 364-141 389-307h-858c28 166 192 293 392 307z m34-464l-257 78h512z m409-4h-146l155 48c6-5 9-12 9-20v0c0-13-8-23-19-28l0 0z m-821-82h809c2 0 5-1 8-1s6 1 8 1l0 0c11-5 18-16 18-28 0-17-14-31-31-31h-797c-17 0-31 14-31 31v0c0 0 0 1 0 2 0 11 6 21 16 26l0 0z m147 83h-133c-2 0-5 0-7 0s-6 0-8 0l0 0c-11 5-18 15-18 28v0c0 8 3 16 8 22l0 0z m159 338c0 0 1 0 1 0 22 0 40 18 40 40 0 0 0 0 0 1l0 0c0 22-18 41-41 41s-41-19-41-41v0c0-1 0-1 0-2 0-11 5-22 13-29l0 0c7-6 17-10 27-10 1 0 1 0 1 0l0 0z m133-53c0 0 1 0 1 0 22 0 40 18 40 40 0 0 0 0 0 1l0 0c0 22-18 41-41 41s-41-19-41-41v0c0-1 0-1 0-2 0-11 5-22 13-29l0 0c7-6 17-10 27-10 1 0 1 0 1 0l0 0z m106 64c0 0 1 0 1 0 22 0 40 18 40 40 0 0 0 0 0 1l0 0c0 22-18 41-41 41s-41-19-41-41v0c0-1 0-1 0-2 0-11 5-22 13-29l0 0c7-6 17-10 27-10 1 0 1 0 1 0l0 0z" horiz-adv-x="1157.2" />

<glyph glyph-name="facebook-footer" unicode="&#xe814;" d="M500 844c-276 0-500-224-500-500s224-500 500-500c276 0 500 224 500 500v0c-1 276-224 499-500 500h0z m0-37c256 0 463-207 463-463s-207-463-463-463c-256 0-463 207-463 463v0c1 255 208 462 463 463h0z m-59-584c0 36 0 71 0 107 0 6-1 8-7 8-12 0-23 0-34 0-4 0-6 1-6 5q0 34 0 67c0 5 1 6 6 6 11 0 22 0 34 0 6 0 8 2 8 8q0 25 0 51c0 0 0 0 0 0 0 21 7 41 18 57l0 0c15 19 38 32 64 32 0 0 0 0 0 0h0c26 1 52 0 79 0 3 0 4-1 4-5q0-34 0-67c0-4-1-6-5-6h-37c-1 0-2 0-3 0-14 0-25-11-25-25 0 0 0 0 0 0v0c0-13 0-27 0-40 0-5 3-5 6-5 18 0 38 0 57 0 6 0 8-1 7-7-2-22-4-44-6-67 0-5-3-6-7-6-15 0-31 0-46 0-11 0-10 2-10-9 0-70 0-140 0-210 0-7-1-9-9-9q-39 0-78 0c-7 0-9 2-9 9-1 36-1 71-1 106z" horiz-adv-x="1000" />

<glyph glyph-name="freeze-time" unicode="&#xe815;" d="M414 425c7 7 12 17 12 29v115c0 23-19 42-42 42v0 0c0 0-1 0-1 0-23 0-42-19-42-42 0 0 0 0 0 0v0-71h-71c0 0-1 0-1 0-23 0-42-19-42-42 0-1 0-1 0-1l0 0c0 0 0 0 0 0 0-23 19-42 42-42 0 0 1 0 1 0l0 0h114c0 0 0 0 0 0 12 0 22 4 30 12l0 0z m431-467v0c21 3 36 20 36 41 0 0 0 1 0 1v0 113c0 24-19 43-43 43v0 0c-23-1-42-20-42-43 0 0 0 0 0 0v0-71h-71c0 0 0 0 0 0-23 0-42-19-43-42l0 0c0-24 19-43 43-43v0h120z m-431 12c7 7 12 18 12 29 0 0 0 1 0 1v0 114c0 23-19 42-42 42v0 0c0 0-1 0-1 0-23 0-42-19-42-42 0 0 0 0 0 0v0-72h-71c0 0-1 0-1 0-23 0-42-19-42-42 0 0 0 0 0 0v0c0-1 0-1 0-1 0-24 19-42 42-42 0 0 1 0 1 0l0 0h114c12 0 22 5 30 13l0 0z m538 414h-412v412c-1 23-20 42-43 42 0 0 0 0 0 0h-454c0 0 0 0 0 0-23 0-42-19-43-42l0 0v-910c1-24 20-42 43-42 0 0 0 0 0 0h909c0 0 0 0 0 0 23 0 42 18 43 42l0 0v455c0 11-5 21-13 29l0 0c-7 8-18 13-30 14l0 0z m-42-455h-370v370h370z m-455 370v-370h-370v370z m0 455v-370h-370v369z m537-35v0c-8 10-20 17-34 17-10 0-19-3-26-8l0 0-79-59h-29v29l59 80c5 7 8 15 8 25 0 13-6 25-16 33l0 0c-7 5-15 8-25 8-13 0-25-6-33-16l0 0-35-47-35 46c-8 10-20 16-34 16-9 0-17-3-24-7l0 0c-10-8-16-20-16-34 0-9 3-18 8-25l0 0 59-79v-30h-29l-76 60c-7 5-16 8-25 8-14 0-26-6-34-16l0 0c-5-7-8-16-8-25 0-13 6-25 16-33l0 0 42-36-46-35c-10-8-17-20-17-34 0-9 3-17 8-24l0 0c8-10 20-17 34-17 9 0 17 3 24 8l0 0 82 58h29v-29l-58-76c-5-7-8-16-8-25 0-14 6-25 15-33l0 0c7-6 16-9 27-9 13 0 25 6 33 16l0 0 34 44 32-46c8-11 20-17 34-17 10 0 18 3 25 8l0 0c10 8 16 20 16 33 0 9-3 18-8 25l0 0-58 82v27h29l79-58c7-5 15-8 25-8 13 0 25 6 33 16l0 0c5 7 8 15 8 24 0 14-6 26-16 34l0 0-44 35 45 35c10 8 17 20 17 34 0 9-3 18-8 25l0 0z" horiz-adv-x="1000" />

<glyph glyph-name="floral" unicode="&#xe816;" d="M508 465c68 0 123-55 123-123s-55-123-123-123c-68 0-123 55-123 123v0c1 68 55 122 123 123h0z m0 85c-114 0-207-93-207-207s93-207 207-207c114 0 206 92 207 206v0c0 0 0 0 0 0 0 114-93 207-207 208h0z m-114 211c49 0 72-26 72-82 0-23 19-42 42-42s42 19 42 42v0c0 56 23 82 71 82 61 0 131-43 146-89 3-10 13-39-39-78-12-8-20-21-20-36 0-23 19-42 42-42 11 0 21 4 28 11l0 0c16 13 37 22 60 24l0 0c54 0 94-74 94-140 0-1 0-3 0-4 0-21-6-41-17-57l0 1c-17-22-48-26-91-15-3 1-7 1-11 1-20 0-36-13-41-31l0 0c-1-3-1-6-1-10 0 0 0-1 0-1l0 0c0 0 0-1 0-1 0-19 13-35 30-40l0 0c57-16 83-47 76-94-8-62-70-126-121-126-30 0-54 22-74 66-7 15-21 25-38 25-24 0-43-19-43-43 0-6 2-12 4-17l0 0c9-16 14-35 14-54 0-14-2-26-6-38l0 1c-15-24-40-41-69-45l-1 0h-71c-29 4-54 21-69 44l0 1c-4 11-7 24-7 38 0 19 5 37 14 53l0 0c4 6 6 13 6 21 0 23-19 42-42 42-19 0-34-12-40-28l0 0c-20-44-45-66-75-66-51 0-112 63-121 126-6 46 20 78 76 94 18 5 31 21 31 40 0 0 0 1 0 1v0c0 4-1 8-2 11l0 0c-5 18-21 31-41 31-4 0-8 0-11-1l0 0c-43-11-74-7-90 15-11 15-17 35-17 56 0 1 0 3 0 4l0 0c0 66 40 140 94 140 23-2 44-11 60-24l0 0c6-4 14-6 22-6 23 0 42 19 42 42 0 12-6 23-14 31l0 0c-52 39-42 69-39 78 15 45 85 88 145 88z m0 84c-98-1-199-67-225-147-4-13-7-27-7-42 0-8 1-16 2-24l0 1c-99-9-164-121-164-222 0-2 0-4 0-6 0-40 13-77 34-107l0 1c12-16 27-29 44-38l1 0c-16-25-26-55-26-87 0-9 1-18 2-26l0 1c13-94 103-199 204-199 21 0 41 5 59 13l-1 0c3-11 7-20 11-29l0 1c28-48 75-82 131-91l1 0h96c57 9 105 43 132 90l0 1c4 8 8 17 11 27l0 1c17-8 37-13 58-13l0 0c101 0 191 105 204 199 1 7 2 16 2 25 0 32-10 62-26 87l0 0c18 9 33 22 45 37l0 1c21 29 34 66 34 106 0 2 0 4 0 6l0 0c0 101-65 213-164 222 1 7 2 15 2 23 0 15-3 29-7 43l0-1c-27 81-128 146-226 146-1 0-3 0-4 0-43 0-81-17-109-44l0 0c-28 27-66 44-108 44-2 0-4 0-6 0l0 0z" horiz-adv-x="1015.6" />

<glyph glyph-name="info" unicode="&#xe817;" d="M500 844c-276 0-500-224-500-500s224-500 500-500c276 0 500 224 500 500v0c-1 276-224 499-500 500h0z m0-933c-239 0-433 194-433 433s194 433 433 433c239 0 433-194 433-433v0c0-239-194-433-433-433v0z m111 188h-78v411c0 0 0 0 0 0 0 16-10 29-25 33l0 0h-121c-18-1-32-16-32-34 0-18 15-33 34-33 0 0 1 0 1 0l0 0h77v-377h-82c-17-1-31-16-31-33 0-18 15-33 33-33 1 0 1 0 2 0l0 0h222c18 0 33 15 33 33s-15 33-33 33v0z" horiz-adv-x="1000" />

<glyph glyph-name="google-footer" unicode="&#xe818;" d="M436 360v-47h77c-7-34-36-59-72-59-2 0-3 0-5 0l0 0c-43 5-77 41-77 85s34 81 77 86l0 0c0 0 1 0 1 0 21 0 39-8 53-21l0 0 37 36c-23 21-54 35-89 35 0 0-1 0-2 0l0 0c-75 0-136-61-136-136s61-136 136-136v0c2 0 4 0 6 0 69 0 125 56 125 125 0 3 0 5 0 8l0 0c0 8-1 17-3 25l0-1z m64 484c-276 0-500-224-500-500s224-500 500-500c276 0 500 224 500 500v0c-1 276-224 499-500 500h0z m0-37c256 0 463-207 463-463s-207-463-463-463c-256 0-463 207-463 463v0c1 255 208 462 463 463h0z" horiz-adv-x="1000" />

<glyph glyph-name="grocery-active" unicode="&#xe819;" d="M591 511v0c0 0 0 1 0 1s0 1 0 2l0 0c0 1 0 1 0 2s0 2 0 3l0 0v4c-1 1-2 3-3 4l0 0v2l-3 3c-1 1-3 3-5 4l0 0-61 17 24 177v16c-2 51-42 93-93 98l0 0c-4 0-9 1-15 1-42 0-78-26-94-63l0 0h-4l-15-116c-3 0-6 0-10 0-36 0-67-23-79-56l0 0-4-2c-32-12-57-33-75-61l0 0-108-10c0 0-1 0-1 0-13 0-24-8-29-19l0 0c-1-3-2-7-2-11 0 0 0 0 0 0l0 0-14-587c0 0 0 0 0 0 0-13 8-24 19-28l0 0 108-44 12-3 457 64c15 2 26 14 26 29 0 1 0 1 0 2l0 0z m-395-14l1 5v2c1 1 2 3 3 5l0 0 3 4c13 22 35 37 61 42l0 0c2 0 5 0 7 0s5 0 7 0l0 0c10 0 20-2 29-5l-1 0-6-41z m167 20l30 227v3c3 21 21 38 43 38 0 0 0 0 0 0h6c21-3 37-20 37-42 0-1 0-3 0-4l0 0-28-211z m-195-609v526l365 43 28-513z m-60 559v0 0 0-548l-47 19 13 534z" horiz-adv-x="622.1" />

<glyph glyph-name="instagram-footer" unicode="&#xe81a;" d="M578 525h-154c-58-1-104-48-104-105 0 0 0 0 0 0v0-153c0 0 0 0 0 0 0-58 46-105 104-105h154c58 0 105 47 105 105v0 153c0 58-47 105-105 105v0z m71-260c0-39-31-70-70-70v0h-156c-39 0-70 31-70 70v0 156c1 38 32 69 70 69 0 0 0 0 0 0h157c39 0 70-32 70-70v0z m-148 172c-51-1-93-43-93-94 0-52 42-94 94-94 52 0 94 42 94 94v0c0 0 0 0 0 0 0 52-42 94-94 94 0 0-1 0-1 0h0z m0-155c-34 0-61 27-61 61s27 61 61 61c34 0 61-28 61-61v0c0-34-27-61-61-61v0z m-1 562c-276 0-500-224-500-500s224-500 500-500c276 0 500 224 500 500v0c-1 276-224 499-500 500h0z m0-37c256 0 463-207 463-463s-207-463-463-463c-256 0-463 207-463 463v0c1 255 208 462 463 463h0z" horiz-adv-x="1000" />

<glyph glyph-name="kitchen-active" unicode="&#xe81b;" d="M607 321c20-23 50-37 82-37l0 0c1 0 2 0 3 0 31 0 59 13 79 35l0 0 220 224c6 6 10 14 10 24s-4 18-10 24l0 0-235 242c-5 6-13 10-22 11l0 0c-1 0-2 0-3 0-10 0-18-4-25-10l0 0-220-224c-21-22-33-51-33-83s12-62 33-83l0 0 39-39-68-69-70 72c44 74 19 186-59 266-44 49-107 81-177 84l-1 0c0 0-1 0-2 0-41 0-79-17-107-44l0 0c-68-73-50-202 40-294 44-49 107-81 177-84l1 0c0 0 1 0 1 0 29 0 57 8 80 22l-1 0 71-73-104-107-8 8c-5 6-13 10-22 11l0 0c-1 0-1 0-2 0-10 0-19-4-26-10l0 0-212-219c-6-6-10-15-10-24v0c0 0 0-1 0-1 0-9 4-17 10-23l0 0 64-66c6-6 14-10 23-10 1 0 1 0 1 0l0 0c0 0 1 0 1 0 10 0 18 4 25 10l0 0 211 220c6 6 10 14 10 24s-4 18-10 24l0 0-8 8 104 108 103-108-8-8c-6-6-10-15-10-24 0-1 0-1 0-1l0 0c0-9 4-17 10-23l0 0 213-220c6-6 14-10 24-10 0 0 0 0 0 0h0c0 0 1 0 1 0 9 0 17 4 23 10l0 0 66 66c6 6 10 14 10 24s-4 18-10 24l0 0-214 219c-6 6-15 10-24 10s-18-4-24-10l0 0-8-7-105 107 67 70z m50 47l-120 124c-9 9-15 21-15 35s6 26 15 35l0 0 194 200 188-192-196-202c-8-8-20-13-32-13-1 0-1 0-2 0l0 0c-12 0-24 5-32 13l0 0z m-397 39c-51 4-96 27-129 62l0 0c-63 65-81 155-39 196 15 14 35 23 58 23 0 0 1 0 1 0l0 0c52-4 98-27 131-62l0 0c63-65 81-155 39-196-14-15-34-23-56-23-2 0-4 0-5 0l0 0z m28-308l-164-172-17 17 166 172z m337 0l4 5 5 4c2 2 4 4 5 6l0 0 2 3 166-171-17-18z m152 588v0c-6 6-14 10-23 10s-18-4-24-10l0 0-146-145c-6-6-10-15-10-24s4-18 10-24l0 0c6-6 14-10 23-10 1 0 2 0 2 0l0 0c9 0 18 4 24 10l0 0 145 145c6 6 10 14 10 23 0 10-4 19-11 25l0 0z m73-120c4 5 6 12 6 20 0 18-15 34-34 34-7 0-14-3-20-7l0 0-146-145c-6-6-10-15-10-24s4-18 10-24l0 0c6-6 14-10 23-10 1 0 2 0 2 0l0 0c9 0 18 4 24 10l0 0z" horiz-adv-x="1001" />

<glyph glyph-name="macerate" unicode="&#xe81c;" d="M1078 357c8 8 13 19 13 32 0 25-20 45-45 45-13 0-25-5-33-13l0 0c-32-32-53-74-58-121l0-1c-64 4-124 11-183 22l9-1c-70 14-151 23-234 24l-1 0c-74 0-146-8-215-23l7 1c-60-13-130-21-201-23l-2 0c-5 48-26 90-58 122l0 0c-8 8-19 13-32 13-25 0-45-20-45-45 0-13 5-24 13-32v0c20-20 32-47 33-77l0 0v-324c1-62 52-112 114-112 1 0 1 0 2 0l0 0h767c1 0 2 0 3 0 62 0 113 50 114 112l0 0v323c0 0 0 0 0 1 0 30 12 57 32 77l0 0z m-149-422h-768c0 0-1 0-1 0-12 0-22 9-23 21l0 0v252c79 3 153 12 226 27l-9-1c58 12 124 20 192 20h0c78-1 154-9 228-23l-8 1c54-11 119-19 186-22l3 0v-253c0-13-11-22-23-22-1 0-2 0-3 0l0 0z m-883 545h99c9 0 17 2 24 7l0 0c143 87 261 130 376 130s233-42 376-130c7-5 15-7 24-7h101c2-1 4-1 7-1 25 0 46 21 46 46s-21 46-46 46c-3 0-5 0-7 0l0 0h-87c-68 44-147 81-231 108l-7 2c3 5 4 11 4 18v0c0 0 0 0 0 0 0 80-65 145-145 145 0 0-1 0-1 0h-66c0 0-1 0-1 0-80 0-145-65-145-145 0 0 0 0 0 0v0c0-7 2-13 4-18l0 0c-91-29-170-66-242-113l4 3h-87c-22-4-39-23-39-46s17-42 39-45l0 0z m633 173v0z m-167 100h67c29-1 52-23 54-52l0 0c-26 4-56 7-87 7s-61-3-90-8l3 1c2 28 25 51 53 52l0 0z m-141-577c-24 0-43-19-43-43s19-43 43-43c24 0 43 19 43 43v0c0 24-19 43-43 43v0z m144-68c-20 0-37-17-37-37s17-37 37-37c20 0 37 16 37 37v0c0 20-17 37-37 37v0z m-215-12c-20 0-36-16-36-36s16-36 36-36c20 0 36 16 36 36v0c0 20-16 36-36 36v0z m397 42c-24 0-43-19-43-43s19-43 43-43c24 0 43 19 43 43v0c0 24-19 43-43 43v0z m127-52c-19 0-35-16-35-35s16-35 35-35c19 0 35 15 35 35v0c0 19-16 35-35 35v0z" horiz-adv-x="1090.8" />

<glyph glyph-name="left-with-bg" unicode="&#xe81d;" d="M500-154c-275 0-498 223-498 498s223 498 498 498 498-223 498-498c0 0 0 0 0 0-1-275-223-497-498-498z m-66 626l-117-117c-6-6-6-17 2-23l115-118c8-7 22-7 30 0v0c8 8 8 22 0 30l-76 78h279c11 0 21 10 21 22v0c0 11-10 22-21 22v0h-279l76 76c8 8 9 22 0 30v0 0c-9 10-22 10-30 0z" horiz-adv-x="1000" />

<glyph glyph-name="mail-white" unicode="&#xe81f;" d="M500 844c-276 0-500-224-500-500s224-500 500-500c276 0 500 224 500 500v0c-1 276-224 499-500 500h0z m-475-500c0 263 213 476 476 476s476-213 476-476c0-263-213-476-476-476 0 0-1 0-1 0h0c-262 0-475 213-475 476 0 0 0 0 0 0v0z m623-116h-294c-9 0-16 7-16 16v0 193l129-126c9-9 22-15 36-15s26 6 35 15l0 0 125 123v-190c0-9-7-16-16-16v0z m-8 228l-126-122c-3-3-8-5-12-5s-10 2-13 5l0 0-126 122z m29 28v0c-6 3-13 5-21 5h-294c-6 0-13-2-18-4l0 0-2-2c-17-8-28-25-28-44v-195c1-27 22-49 49-49l0 0h293c27 0 49 22 49 49l0 0v196c0 19-11 36-28 44l0 0z" horiz-adv-x="1000" />

<glyph glyph-name="marinate" unicode="&#xe820;" d="M234 606l209-139c6-4 12-6 20-6 9 0 18 4 24 10l0 0 139 140c6 6 10 15 10 25 0 8-2 15-7 21l0 0-140 174c-6 8-16 13-27 13-8 0-16-3-22-8l0 0-209-174c-8-7-13-16-13-27 0-12 7-23 16-29l0 0z m223 153l98-122-97-97-146 98z m647-389c11 8 18 22 18 37 0 26-21 47-47 47-15 0-28-7-37-18l0 0c-33-33-55-76-60-124l0-1c-67 4-128 12-188 24l9-1c-72 14-155 22-239 23l-1 0c-75 0-149-8-220-23l7 1c-61-13-132-22-205-24l-2 0c-5 49-27 92-60 125l0 0c-7 5-17 8-27 8-26 0-47-21-47-47 0-10 4-20 9-27l0 0c20-21 33-49 33-80 0 0 0 0 0 0v0-331c2-64 53-114 117-114 0 0 1 0 1 0h787c0 0 1 0 1 0 64 0 115 50 117 114l0 0v330c0 0 0 0 0 0 0 32 13 60 34 81l0 0z m-152-434h-787c0 0-1 0-1 0-13 0-23 9-24 22l0 0v259c80 2 157 12 231 27l-9-1c59 12 127 20 196 20h0c81-1 159-9 234-25l-8 2c56-11 122-19 189-23l4 0v-258c0-13-11-23-24-23 0 0-1 0-1 0l0 0z" horiz-adv-x="1117.2" />

<glyph glyph-name="pinterest-footer" unicode="&#xe822;" d="M477 273c-10-55-23-106-60-133-12 81 17 143 30 208-23 37 3 114 50 95 59-23-50-141 23-155 76-16 107 132 60 180-68 70-199 2-183-97 4-25 29-32 10-66-44 10-57 45-56 91 3 75 68 128 133 135 83 9 160-30 171-108 12-88-37-183-125-176-24 2-34 14-53 26z m23 571c-276 0-500-224-500-500s224-500 500-500c276 0 500 224 500 500v0c-1 276-224 499-500 500h0z m0-37c256 0 463-207 463-463s-207-463-463-463c-256 0-463 207-463 463v0c1 255 208 462 463 463h0z" horiz-adv-x="1000" />

<glyph glyph-name="produce-active" unicode="&#xe823;" d="M751 568c-72 118-200 195-346 195-42 0-82-6-120-18l3 1-38 63c-23 38-82 47-127 19s-67-82-43-122l38-62c-73-73-118-174-118-286 0-77 22-149 59-210l-1 2c89-147 311-306 500-306v0c2 0 4 0 6 0 48 0 93 13 131 35l-1 0c89 54 140 169 144 323 0 7 0 15 0 23 0 125-32 244-89 346l2-3z m-573 47c7 6 11 14 11 24 0 6-1 11-4 16l0 0-51 84c-4 6 2 24 21 35 7 5 16 7 26 8l0 0c1 0 1 0 2 0 5 0 10-2 13-6l0 0 51-84c6-9 15-15 27-15 4 0 8 0 11 2l0 0c36 14 77 22 120 22h0c46 0 90-9 130-26l-2 1-98-16c-16-3-28-16-28-33 0-5 1-9 3-13l0 0 56-132-154 86c-5 3-11 5-17 5-17 0-32-14-33-31l0 0-15-187-68 114c-6 9-16 16-28 16h0c0 0 0 0-1 0-11 0-20-5-27-13l0 0-58-77c9 88 51 165 113 219l0 1z m483-682c-28-17-62-26-98-26-1 0-3 0-5 0l0 0c-165 0-367 146-446 276-19 31-34 67-42 106l0 2 78 102 97-162c6-11 17-17 29-17 18 0 33 14 33 32l0 0 19 239 193-108c5-3 11-5 17-5 18 0 33 15 33 33 0 5-1 10-3 14l0 0-78 182 134 22c30-25 55-53 75-86l1-1c98-165 122-507-37-603z m-42 563c-4-4-7-10-7-16 0-4 2-9 4-12l0 0c7-10 30-34 38-30s-2 37-9 48c-4 7-11 11-19 11-2 0-5 0-7-1l0 0z m-25-450c-4-4-7-10-7-16 0-4 2-9 4-12l0 0c6-11 29-35 38-31s-3 37-9 48c-3 7-10 12-18 12-3 0-6 0-8-1l0 0z m-440 171c-4-4-7-10-7-16 0-4 2-9 4-12l0 0c7-11 30-35 38-30s-2 36-9 47c-3 7-11 12-19 12-2 0-5 0-7-1l0 0z m270-96c-4 3-9 6-15 6-5 0-9-2-13-5l0 0c-2-3-3-7-3-11 0-7 4-13 9-17l0 0c10-8 40-23 46-16s-14 35-24 43z m193 134c-7-4-12-11-12-19 0-3 0-5 1-7l0 0c3-12 18-42 28-40s9 36 6 48-14 21-23 18z" horiz-adv-x="838.9" />

<glyph glyph-name="right-with-bg" unicode="&#xe824;" d="M500-154c-275 0-498 223-498 498s223 498 498 498 498-223 498-498v0c-1-275-223-497-498-498z m36 626v0 0c-9-8-8-22 0-30l77-76h-280c-11 0-20-11-20-22v0c0-12 9-22 20-22h280l-77-78c-8-8-8-22 0-30v0c8-7 22-7 30 0l115 118c8 6 8 17 2 23l-117 117c-8 10-21 10-30 0z" horiz-adv-x="1000" />

<glyph glyph-name="nutella-cafe" unicode="&#xe825;" d="M838 702h-838v-354c0-150 121-271 271-271h-221c-25 0-46-20-46-45s21-46 46-46h658c25 0 46 21 46 46s-21 45-46 45h-237c150 0 271 121 271 271v29h91c92 0 163 75 163 163s-71 162-158 162c0 0 0 0 0 0z m-188-354c0-100-79-179-179-179h-200c-100 0-179 79-179 179v263h558v-263z m188 125h-92v138h92c37 0 70-29 70-71s-33-67-70-67c0 0 0 0 0 0z" horiz-adv-x="1000" />

<glyph glyph-name="meat" unicode="&#xe826;" d="M754 694c-33 17-71 25-108 25-88 0-150-54-208-100v0c-5-4-9-8-13-12l-17-17c-37-33-87-50-137-42-75 9-154-8-217-50-41-33-62-87-50-141 46-217 204-321 546-380 25-4 50-4 75-8 29 0 63 4 92 8 158 34 275 171 283 330 13 170-87 329-246 387z m167-375c-8-129-100-237-225-262-46-9-92-9-138-5-350 59-445 171-483 321-4 21 4 46 21 59 37 25 83 37 129 37 13 0 25 0 38 0 70-8 141 13 195 58l9 5c8 8 16 12 25 20 50 42 100 88 162 88 25 0 54-8 75-21 125-46 200-171 192-300z m-213 254v0c-16 9-37 13-54 13-41 0-83-34-125-71-12-13-16-33-8-54 8-9 17-13 25-13s21 4 25 9l21 12c16 17 37 33 58 42 8 0 13 0 21-4l8-9c71-25 117-96 113-171-4-70-54-129-125-141-29-4-59-4-88 0l-54 12c-25 4-46 9-67 17-8 4-20 4-29 0-8-4-16-13-21-25-4-8-4-21 5-29 4-9 12-17 25-17 41-12 87-21 129-25 16-4 37-4 54-4 21 0 42 4 58 8 100 21 175 109 184 213 8 100-55 200-155 237z m-420-146c-55 0-105-41-105-100 0 0 0 0 0 0s0-4 0-4c0-54 42-104 100-104 0 0 0 0 0 0h9c54 0 100 46 100 100v0 4c0 54-42 104-100 104 0 0 0 0 0 0h-4z m29-104c4-12-9-29-21-29 0 0 0 0 0 0h-8c-17 0-34 8-34 25 0 13 4 25 17 29 4 0 12 0 17 0 16 0 29-8 29-25 0 0 0 0 0 0v0 0 0z" horiz-adv-x="1000" />

<glyph glyph-name="parking" unicode="&#xe827;" d="M790 198c-13 0-25-6-33-14l0 0c-8-8-13-20-13-32s5-24 13-32l0 0c8-8 20-13 33-13 0 0 0 0 0 0h0c25 0 46 20 46 45s-21 46-46 46v0z m-579 0c-13-1-24-6-32-14l0 0c-8-8-13-20-13-32s5-24 13-32l0 0c8-8 20-13 32-13h0c25 0 46 20 46 45s-21 46-46 46v0z m768 393l-324 208c-44 28-98 45-155 45s-112-17-157-46l1 1-323-208c-13-8-21-22-21-39 0-9 2-17 7-24l0 0c8-13 22-22 38-22 9 0 18 3 25 8l0 0 324 208c30 19 66 31 106 31 0 0 0 0 0 0h0c0 0 1 0 1 0 39 0 76-12 106-32l-1 1 324-208c7-5 16-8 25-8 17 0 31 9 39 22l0 0c4 7 7 15 7 24 0 16-9 31-22 39l0 0z m-79-287l18 18c8 8 13 19 13 32 0 25-20 45-45 45-12 0-24-5-32-13v0l-23-22-71 125c-28 49-80 82-140 82h-240c0 0 0 0 0 0-60 0-112-33-140-81l0-1-71-125-23 22c-8 8-20 13-32 13s-24-5-32-13l0 0c-8-8-13-20-13-32s5-24 13-32l18-18c-47-35-77-89-77-151 0-82 53-151 126-177l1 0v-26c0-59 48-106 106-106s106 47 106 106v0 15h277v-15c0-59 48-106 106-106s106 47 106 106v0 26c74 26 126 95 126 177 0 0 0 0 0 0v0c0 62-30 116-76 150l-1 1z m-582 141c12 21 34 35 60 35 0 0 1 0 2 0l0 0h243c26 0 48-14 60-35l0 0 59-105h-482z m-47-495c0-9-7-15-15-15v0c-8 0-14 7-15 15l0 0v15h29z m489 0c0-9-7-15-15-15s-15 6-15 15v0 15h30z m29 106h-578c-49 5-87 46-87 96s38 92 87 97l0 0h579c53 0 96-43 96-96v0 0c0 0 0-1 0-1 0-53-43-96-96-96 0 0 0 0 0 0v0z" horiz-adv-x="1000" />

<glyph glyph-name="prep-time" unicode="&#xe828;" d="M1126 511c-31 67-98 113-175 113-13 0-25-1-37-3l1 0c-6-1-13-2-20-2 0 0-1 0-1 0h0c-47 0-101 23-112 47l-30 71c-29 64-92 108-165 108s-137-44-165-107l-1-1-33-74c-10-20-68-47-121-47-2 0-5 0-8 0s-6 0-8 0l0 0-42 7c-8 1-18 2-28 2-100 0-181-81-181-181 0-41 14-78 36-109l0 1 136-124v-368h779v365l141 110 6 6c27 30 44 70 44 114 0 26-6 51-16 73l0-1z m-857-570v76h584v-76z m759 452l-175-135v-144h-584v141l-157 143c-9 13-15 29-15 46 0 14 4 26 9 37l0 0c14 28 42 47 75 47 0 0 0 0 0 0h0c2 0 5 0 7 0s5 0 7 0l0 0 41-7c9-1 19-2 29-2 0 0 1 0 1 0h0c64 0 177 28 211 105l33 74c13 29 42 48 76 48s62-19 75-48l0 0 30-70c36-81 162-117 241-101 5 1 12 2 18 2l0 0c38-1 70-24 85-57l0 0c5-10 8-22 8-34 0-17-5-33-15-45l0 0z" horiz-adv-x="1141.6" />

<glyph glyph-name="seafood-active" unicode="&#xe829;" d="M908 749c-89 89-204 120-267 73-52-33-97-71-135-115l-1 0h-5c-3 0-7 0-10 0-97 0-186-29-261-79l2 1c-8-6-13-16-13-26 0-9 3-17 9-23l0 0c37-38 82-67 133-84l2-1c-36-67-71-145-99-227l-4-11c-93-2-179-33-248-84l1 1c-7-6-12-15-12-25 0-11 5-20 13-26l0 0c52-40 114-68 181-81l3 0c13-71 42-134 83-186l-1 1c6-8 15-12 26-12s19 4 25 12l0 0c50 68 81 153 83 245l0 1c74 24 135 49 194 78l-9-4c17-49 43-91 78-124l0 0c6-6 14-9 23-9 0 0 1 0 1 0l0 0c10 0 18 4 24 11l0 0c3 4 71 83 69 234 0 0 0 0 0 1s0 1 0 1l0 0c72 50 133 112 179 183l2 3c57 60 28 178-66 272z m-183-505c-3-42-14-80-31-115l1 2c-16 21-28 46-37 73l0 2c23 12 46 25 67 38z m-432-51l4 2c2 1 4 2 6 4l0 0 3 3c2 2 4 4 5 7l0 0c0 1 1 2 1 3l0 0v3c0 3 101 322 286 493 13-69 46-128 94-173l0 0c45-48 104-82 171-94l2 0c-168-187-490-282-494-283-14-4-24-17-24-32 0 0 0 0 0 0v0c0-3 0-6 0-9 0-65-16-127-44-181l1 2c-22 39-38 84-45 133l0 2c-1 16-14 28-30 30l0 0c-50 6-96 22-137 46l2-1c52 27 113 43 179 43 3 0 6 0 10 0l-1 0c4 0 9 1 12 3l0 0z m448 389c-71 71-92 155-64 184 9 7 20 12 33 12 1 0 3 0 4 0l0 0c59-7 110-35 147-76l0 0c31-30 55-67 69-108l1-2c4-9 7-20 7-31 0-16-5-30-13-42l0 0c-29-29-114-8-184 63z m-346-29c-34 9-64 24-90 43l1 0c42 21 91 35 142 41l2 0c-18-25-37-52-54-81z m429 112c-1 2-3 4-5 6l0 0c-2 1-4 3-6 4l0 0h-6c-2 0-4 0-6 0s-4 0-6 0l0 0c-3-1-5-1-7-2l0 0-5-3c-2-1-3-3-5-4v0c-3-3-6-7-8-11l0 0c-1-4-2-8-2-12 0 0 0 0 0 0v0c0-1 0-1 0-2 0-4 1-8 2-11l0 0c2-5 5-8 8-11l0 0 4-4h2c1-1 3-2 4-2l0 0 5-2h20c2 0 4 1 6 2l0 0c2 1 4 2 5 4l0 0c6 6 10 14 10 23 0 1 0 1 0 2l0 0c0 5-1 9-3 13l0 0c-2 4-4 7-7 10l0 0z" horiz-adv-x="1002.9" />

<glyph glyph-name="serve" unicode="&#xe82a;" d="M971 144h-58c-17 196-171 358-367 379 4 9 8 21 8 29 0 30-25 55-54 55 0 0 0 0 0 0-29 0-54-25-54-55 0-12 4-20 8-29-196-21-350-179-366-379h-59c-16 0-29-12-29-29s13-29 29-29h938c16 0 29 12 29 29 4 17-8 29-25 29z m-821 0c17 196 188 338 379 321 171-17 309-150 321-321h-700z m421 279c-17 4-33-8-38-21-4-16 9-33 21-37 92-21 163-88 188-179 4-13 16-21 29-21 4 0 4 0 8 0 17 4 25 21 21 37-25 113-117 196-229 221z" horiz-adv-x="1000" />

<glyph glyph-name="pharmacy-active" unicode="&#xe82b;" d="M63 295v281h205v205h281v-205h205v-232h3c8 0 15-2 23-3 13-2 24-5 34-8l-2 1h5v264c0 22-18 41-41 41v0h-165v164c0 22-18 41-41 41v0h-324c0 0 0 0-1 0-11 0-21-5-29-12l0 0c-7-8-11-18-11-29 0 0 0 0 0 0v0-164h-164c0 0 0 0-1 0-11 0-21-4-28-11l0 0c-7-8-12-18-12-30 0 0 0 0 0 0v0-325c0-11 4-20 10-27l0 0c8-9 19-14 31-14l0 0h184l12 63z m468 82c-23 35-63 57-107 57-63 0-115-45-127-104l0-1-63-331c-1-8-2-16-2-25 0-71 58-129 129-129 63 0 115 45 127 104l0 1 63 331c2 7 2 16 2 24 0 27-8 53-22 73l0 0z m-156-236c0-2 0-4 0-6 0-15 10-27 25-30l0 0 52-10-25-135c-6-32-33-55-66-55-37 0-67 30-67 67 0 4 0 8 1 12l0 0 63 332c6 31 33 54 66 54 0 0 0 0 0 0h0c2 0 4 0 6 0s4 0 6 0l0 0c32-6 55-33 55-66 0-4 0-9-1-13l0 1-25-136-53 12c-2 0-4 0-6 0-16 0-29-12-31-27l0 0z m576-20v0c-23 101-113 175-219 175-52 0-99-17-137-46l1 1-22-117 6-2c24 61 83 104 152 104 66 0 124-40 149-98l0-1-237-54c-14-3-24-16-24-31 0-17 14-31 31-31 3 0 5 0 7 1l0 0 237 54c0-1 0-3 0-4 0-91-73-164-163-164-89 0-162 71-164 160l0 0h-7l-22-115c40-65 111-108 192-108 124 0 225 101 225 225 0 18-2 36-6 53l0-1z" horiz-adv-x="956.1" />

<glyph glyph-name="soak" unicode="&#xe82c;" d="M299 554c1 0 1 0 2 0 22 0 39 17 39 39 0 0 0 1 0 2l0 0v83c0 1 0 2 0 3 0 21-17 39-39 39-1 0-1 0-2 0l0 0c-1 0-1 0-2 0-22 0-39-18-39-39 0-1 0-2 0-3l0 0v-83c0-1 0-2 0-2 0-22 17-39 39-39 1 0 1 0 2 0l0 0z m498 0c1 0 1 0 2 0 22 0 39 17 39 39 0 0 0 1 0 2l0 0v83c-3 20-21 35-41 35s-39-15-42-35l0 0v-83c0-1 0-2 0-2 0-22 17-39 39-39 1 0 2 0 3 0l0 0z m-249 124c1 0 1 0 2 0 22 0 39 17 39 39 0 1 0 2 0 3l0 0v83c-3 20-21 35-41 35s-39-15-42-35l0 0v-84c0-1 0-2 0-2 0-22 17-39 39-39 1 0 2 0 3 0l0 0z m538-316c5 7 8 16 8 26 0 25-20 46-46 46-10 0-19-3-26-8l0 0c-32-32-53-75-58-122l0-1c-25 0-48 4-70 6-25 79-94 136-178 142l-1 0c-27 79-100 135-187 135 0 0-1 0-1 0h0c-90 0-166-60-192-142l0-1c-64-22-113-72-134-135l0-1c-20-2-41-3-65-4-4 48-25 91-57 123l0 0c-8 6-18 10-28 10-26 0-46-21-46-46 0-11 3-21 9-28l0 0c20-20 32-48 32-79 0 0 0 0 0 0v0-327c2-63 53-112 115-112 0 0 1 0 1 0h776c0 0 1 0 1 0 63 0 113 49 115 112l0 0v326c0 1 0 1 0 2 0 30 12 58 32 78l0 0z m-711 0c19 1 35 16 36 35l0 0c8 55 54 97 111 99l0 0c1 0 1 0 2 0 57 0 104-43 110-99l0 0c2-22 19-38 41-38 5 0 9 0 13 2l0 0c4 0 8 1 13 1 32 0 61-15 81-37l0 0c-69 14-149 22-231 23l-1 0c-74 0-147-8-217-23l7 1-38-7c17 22 43 38 73 42l0 0z m587-406c-1-13-11-22-24-22 0 0 0 0 0 0h-776c0 0 0 0 0 0-13 0-23 9-24 22l0 0v255c79 2 154 11 228 26l-9-1c58 12 125 20 193 20h0c79-1 155-9 229-23l-8 1c55-11 121-19 188-22l3 0z" horiz-adv-x="1099.6" />

<glyph glyph-name="store-atm" unicode="&#xe82d;" d="M891 786h-781c0 0 0 0 0 0-28 0-51-23-52-51l0 0v-781c0-29 23-52 52-52v0h781c28 0 51 23 51 52 0 0 0 0 0 0v0 781c0 28-23 50-51 51l0 0z m-150-146h100c1 0 3 0 4 0 9 0 16-7 16-16s-7-16-16-16c-1 0-3 0-4 1l0 0h-100c-7 2-12 8-12 15s5 14 12 16l0 0z m0-135h100c9 0 16-7 16-16s-7-16-16-16v0h-100c-9 0-16 7-16 16s7 16 16 16v0z m0-137h100c9 0 16-7 16-16s-7-16-16-16v0h-100c-9 0-16 7-16 16s7 16 16 16v0z m-600 295h495v-350h-495z m0-434h715v-20h-715z m317-182h-308v55h308z m387-13h-29l3-53h-155l5 53h-31c-8 0-15 7-15 16 0 0 0 0 0 0v0 50c1 8 7 14 15 15l0 0h206c0 0 0 0 0 0 9 0 16-7 16-15l0 0v-50c0 0 0 0 0 0 0-9-7-16-15-16l0 0z m-460 473c-11 3-37 7-37 22s19 17 29 17c18 0 28-6 31-25h34c0 27-22 50-50 50v0 23h-30v-21c-25-4-47-18-47-47s27-44 54-50c14-3 43-7 43-25s-19-23-33-23c-1 0-2 0-3 0-18 0-33 14-34 32l0 0-34-3c1-30 24-55 54-57l0 0v-21h30v20c9 1 16 3 24 6l-1 0c18 7 31 25 31 46v0c1 39-28 49-61 56z" horiz-adv-x="1000" />

<glyph glyph-name="store-beer-wine" unicode="&#xe82e;" d="M440 294c61 83 56 206 6 293h-266c-50-86-55-209 7-293 25-35 67-70 105-123 3-4 4-8 4-13 0 0 0 0 0 0v0-235c0-1 0-2 0-2 0-4-1-8-4-11l0 0c-19-23-109-21-120-35-2-5-4-10-4-15v0h291c0 5-2 10-5 15l0 0c-10 14-100 12-120 35-2 2-3 6-3 10 0 1 0 2 0 3l0 0v235c0 0 0 0 0 0 0 5 2 9 4 13l0 0c37 53 79 89 105 123z m-190 219c-5-28-8-60-8-92 0-43 5-84 15-124l-1 4-3 6c-20 41-32 89-32 140 0 23 3 46 7 68l0-2h-20c-6-23-9-49-9-75 0-51 12-99 33-142l-1 2c5-10 11-19 18-28-13 13-25 27-36 42l-1 1c-50 68-50 168-13 243h229c37-75 38-175-12-243-12-16-25-31-38-44l0 0c6 9 12 19 18 28 20 41 32 89 32 140 0 26-3 52-9 77l0-2z m341 256c6 16 21 27 39 27 13 0 24-6 32-15l0 0c5 11 16 18 28 18 16 0 29-12 31-28l0 0c7 8 18 12 29 12 17 0 31-10 37-24l0 0c3 3 8 4 13 4 6 0 12-3 16-8l0 0h27c-6 19-24 32-44 32-1 0-2 0-2 0l0 0c-11 13-27 21-45 21-7 0-14-1-20-3l0 0c-9 13-24 22-42 22-13 0-24-4-33-12l0 0c-8 4-18 7-29 7-21 0-40-11-51-28l0 0c-1 0-3 0-4 0-25 0-45-16-52-39l0 0h29c6 9 17 16 29 16 5 0 9-1 12-2l0 0z m37-387c8-42 18-84 22-125 3-16 4-35 4-53 0-23-2-46-6-67l0 2v4c0 6 1 14 1 21 0 30-3 59-8 88l0-3c-8 42-19 83-31 125-21 66-35 143-38 223l0 2h-17c3-86 16-167 40-244l-2 7c12-42 23-84 31-127 5-26 8-56 8-86 0-56-10-109-28-158l1 3c-6-18 3-25 20-25h115c18 0 25 8 20 25-17 46-27 99-27 155 0 30 3 60 9 89l-1-3c8 43 20 85 31 127 22 70 35 151 38 235l0 2h-207c0-1 0-3 0-4 0-76 9-149 26-219l-1 6z m218 359h-327c-8-41-12-89-12-137 0-44 4-88 11-130l-1 5c26-172 107-293 42-475-10-25-16-54-16-84 0-16 2-32 5-48l0 2c1-6 8-14 14-15h241c7 0 13 9 14 15 3 14 5 31 5 48 0 29-5 57-15 83l0-1c-66 181 15 301 41 475 7 37 10 81 10 125 0 48-4 96-13 142l1-5z m-27-258c-9-51-19-95-31-137l2 8c-11-41-23-83-30-125-5-25-8-54-8-84 0-54 10-106 28-154l-1 3c9-23 14-48 14-75 0-7 0-14-1-21l0 1c0-6-5-10-11-10 0 0-1 0-1 0l0 0h-194c0 0-1 0-1 0-6 0-10 4-11 10l0 0c-1 6-1 13-1 20 0 27 5 52 15 76l-1-1c17 45 27 97 27 151 0 29-3 58-8 86l0-3c-8 42-19 84-31 125-10 34-20 78-28 122l-1 7c-6 36-10 78-10 121 0 38 3 75 9 112l-1-4h277c5-32 8-70 8-108 0-42-4-84-11-125l1 5z" horiz-adv-x="1000" />

<glyph glyph-name="store-beer" unicode="&#xe82f;" d="M706 625c9 14 15 32 15 52 0 0 0 0 0 1l0 0c0 67-57 103-99 75-30 61-100 65-134 6v0c-6 15-21 25-38 25-16 0-30-9-37-23l0 0c-4 1-9 2-14 2-22 0-40-12-51-29l0 0c-6 3-13 6-21 8l0 0c-13 45-62 53-83 11-36 12-82-20-82-77 0-19 5-36 14-51l0 1z m114-137h-103v93h-548v-636c0 0 0 0 0 0 0-31 25-57 56-57l0 0h435c32 0 57 25 57 57v0 69h103c0 0 1 0 1 0 10 0 18 8 18 18 0 0 0 0 0 1l0 0v436c0 0 0 0 0 1 0 10-8 18-18 18 0 0-1 0-1 0l0 0z m-488-402c0 0 0 0 0 0 0-16-12-29-28-29l0 0c0 0-1 0-1 0-15 0-28 12-28 28 0 0 0 0 0 1l0 0v308c0 1 0 3 0 5 0 16 13 29 29 29s29-13 29-29c0-2-1-4-1-5l0 0z m137 0c0-16-13-29-29-29v0c0 0 0 0 0 0-15 0-28 12-28 28 0 0 0 1 0 1l0 0v308c0 1 0 3 0 5 0 16 13 29 29 29s29-13 29-29c0-2-1-4-1-5l0 0z m138 0c0 0 0 0 0 0 0-16-12-29-28-29l0 0c0 0-1 0-1 0-15 0-28 12-28 28 0 0 0 0 0 1l0 0v308c0 0 0 0 0 1 0 15 13 28 28 28 0 0 1 0 1 0l0 0c16-1 28-14 28-29 0 0 0 0 0 0v0z m193-34h-85v398h85z" horiz-adv-x="1000" />

<glyph glyph-name="recipe-mail" unicode="&#xe830;" d="M500-154c-275 0-498 223-498 498s223 498 498 498c275 0 498-223 498-498v0c-1-275-223-498-498-498h0z m163 370h-325c0 0 0 0 0 0-10 0-18 8-18 18 0 0 0 1 0 1l0 0v213l143-140c10-10 24-16 39-16s29 6 39 16l0 0 141 137v-210c0-10-8-18-18-18v0z m-8 253l-139-135c-4-4-8-6-14-6s-10 2-14 6l-138 135z m32 31v0 0c-7 3-14 5-22 5-1 0-1 0-1 0h-326c0 0 0 0-1 0-7 0-14-2-20-4l0 0-2-1c-18-9-31-28-31-49 0 0 0 0 0 0v0-216c0 0 0-1 0-1 0-30 24-54 54-54 0 0 0 0 0 0h325c0 0 1 0 1 0 30 0 54 24 54 54 0 0 0 0 0 1l0 0v216c0 22-13 40-32 49l0 0z" horiz-adv-x="1000" />

<glyph glyph-name="store-cheese" unicode="&#xe831;" d="M796 112c-28 1-51 25-51 54 0 30 24 54 54 54s54-24 54-54c0-1 0-1 0-1l0 0c-1-30-25-53-55-53-1 0-1 0-2 0l0 0z m-168 237c-1 0-1 0-2 0-44 0-80 35-81 79l0 0c0 11 3 22 7 31l0 0h151c5-9 8-20 8-31l0 0c-1-44-37-79-81-79-1 0-1 0-2 0l0 0z m-57-366c0 0-1 0-1 0-52 0-94 42-94 94s42 94 94 94c52 0 93-42 94-93v0c0 0 0-1 0-1 0-52-41-94-93-94h0z m-182 272c0 1 0 2 0 3 0 31 25 57 57 57s57-26 57-57c0-32-26-57-57-57h0c0 0-1 0-1 0-30 0-55 24-56 54l0 0z m-135-25c-1 0-2 0-3 0-48 0-88 37-91 85l0 0c3 48 42 86 91 86 1 0 2 0 3 0l0 0c2 0 3 0 5 0 49 0 88-38 91-86l0 0c-3-48-43-85-91-85-2 0-3 0-5 0l0 0z m-72-194c-30 0-54 24-54 54s24 54 54 54v0c30 0 54-24 54-54s-24-54-54-54v0z m125 661l62-28c-20-8-33-20-33-34 0-25 36-44 81-44 2 0 4 0 6 0 25 0 48 9 66 25l0 0 218-96h-612c48 81 121 143 208 176l3 1z m690-356v118l-688 304c-147-45-260-158-305-301l-1-3v-499c0-20 16-35 35-35v0h3l918 72c21 2 38 19 38 41l0 0v148s-78 22-78 77 78 78 78 78z" horiz-adv-x="1000" />

<glyph glyph-name="recipe-facebook" unicode="&#xe832;" d="M500-154c-275 0-498 223-498 498s223 498 498 498c275 0 498-223 498-498v0c-1-275-223-498-498-498h0z m-48 421v83c0 5-1 6-6 6h-26c-3 0-5 1-5 5v51c0 4 1 5 5 5h26c5 0 6 1 6 6q0 19 0 39c0 0 0 0 0 0 0 17 5 32 14 44l0 0c11 16 29 26 50 26 0 0 0 0 0 0h0c20 0 40 0 61 0 3 0 4-1 4-4v-52c0-4-1-4-5-4h-30c-1 0-2 0-3 0-10 0-19-8-19-19 0 0 0-1 0-1l0 0v-31c0-4 2-4 5-4h44c5 0 6-1 6-5-2-18-4-35-5-52 0-4-2-5-6-5h-35c-9 0-8 1-8-7v-163c0-5-1-7-7-7h-60c-6 0-7 2-7 7 1 27 1 55 1 82z" horiz-adv-x="1000" />

<glyph glyph-name="produce" unicode="&#xe833;" d="M416-64c-179 0-323 145-323 324 0 138 86 255 207 302l2 1c10-6 18-12 25-18l0 0c23-24 55-39 89-42l1 0c34 3 64 18 87 41l0 0c7 6 16 12 24 17l1 1c123-48 209-166 209-303 0-179-144-323-322-324h0z m12 742c8 23 24 42 45 54l0 0c2-7 3-16 3-24 0-16-4-31-10-45l0 1c-9-15-22-27-37-34l-1 0c-2 7-3 16-3 24s1 17 3 25l0 0z m132-30c5 18 8 40 8 62 0 38-9 73-24 105l1-1c-7 17-23 29-43 29-6 0-12-1-17-3l0 0c-79-30-127-77-146-136-4-15-7-31-7-49 0-2 0-4 0-7l0 1c-9 3-19 6-30 6l0 0c0 0 0 0 0 0-9 0-18-2-25-4l0 0c-164-59-279-212-279-393 0-230 187-416 416-416s416 186 416 416c0 178-111 329-267 389l-3 1z" horiz-adv-x="831.1" />

<glyph glyph-name="recipe-print" unicode="&#xe834;" d="M500-154c-275 0-498 223-498 498s223 498 498 498c275 0 498-223 498-498v0c-1-275-223-498-498-498h0z m0 981c-267 0-483-216-483-483s216-483 483-483c267 0 483 216 483 483v0c0 267-216 483-483 483v0z m118-385v37c-1 22-19 40-41 40 0 0 0 0 0 0h-155c-22-1-39-18-40-40l0 0v-37c-46-4-83-43-83-90v-90c2-7 8-12 16-12s13 5 15 12l0 0v90c0 0 0 0 0 0 0 33 27 60 60 60 0 0 1 0 1 0l0 0h218c33 0 60-27 60-60v0-90c0-9 7-16 16-16s16 7 16 16v0 90c0 47-36 86-83 90l0 0z m-32 0h-173v36c0 0 0 0 0 0 0 5 4 9 9 10l0 0h155c5-1 9-5 9-10 0 0 0 0 0 0v0z m16-110h-204c-9 0-16-7-16-16v0-107c1-22 18-40 40-40l0 0h155c22 0 40 18 40 40l0 0v107c0 0 0 0 0 0 0 8-7 15-15 16l0 0z m-16-123c0-5-4-9-9-9l0 0h-155c0 0 0 0 0 0-5 0-9 4-10 9l0 0v92h175z" horiz-adv-x="1000" />

<glyph glyph-name="recipe-twitter" unicode="&#xe835;" d="M500-154c-275 0-498 223-498 498s223 498 498 498c275 0 498-223 498-498v0c-1-275-223-498-498-498h0z m-48 369c1 0 1 0 2 0 103 0 186 82 188 185l0 0q0 2 0 4v9c13 9 24 20 33 33l0 1c-11-5-24-9-37-10l-1 0c14 8 24 21 29 36l0 1c-12-7-26-13-41-16l-1 0c-12 13-29 21-49 21-37 0-67-30-67-67 0-6 1-11 2-16l0 1c-55 3-104 29-137 69l0 1c-6-10-9-21-9-33 0-24 12-44 30-56l0 0c-11 0-21 3-30 8l0 0c0-32 23-59 53-65l0 0c-5-2-11-2-17-2-5 0-9 0-13 1l0 0c9-27 34-47 63-47l0 0c-23-18-51-29-83-29h0c-6 0-11 0-17 1l1 0c29-19 63-30 101-30h0" horiz-adv-x="1000" />

<glyph glyph-name="rest" unicode="&#xe836;" d="M41 413h89c8 0 15 2 21 6l0 0c128 79 235 115 336 115s208-37 336-115c6-4 14-6 21-6 1 0 1 0 1 0h89c2-1 4-1 6-1 23 0 41 19 41 41s-18 41-41 41c-2 0-4 0-6 0l0 0h-78c-61 39-131 72-205 96l-7 2c2 4 3 9 3 15v0c0 0 0 0 0 1 0 71-58 129-129 130h-60c-72 0-130-58-130-130v0c0 0 0-1 0-1 0-5 1-11 3-15l0 0c-81-26-151-59-216-100l4 2h-78c-20-3-35-20-35-41s15-37 35-40l0 0z m565 154v0z m-148 89h60c0 0 0 0 0 0 26 0 47-20 49-46l0 0c-24 4-51 6-78 6s-55-2-82-7l3 1c2 25 22 45 48 46l0 0z m447-296c-28-29-47-66-51-108l0-1c-58 3-112 9-165 19l8-1c-62 12-135 20-208 21l-1 0c-66-1-130-8-192-21l6 1c-54-11-116-18-180-20l-1 0c-4 43-23 81-52 109l0 0c-8 9-19 15-32 15-23 0-41-18-41-41 0-13 6-25 16-32l0 0c18-18 29-42 29-69v-289c2-55 47-99 102-99 0 0 1 0 1 0h687c0 0 1 0 1 0 56 0 101 44 102 100l0 0v288c0 0 0 0 0 0 0 27 11 52 29 70l0 0c5 7 8 15 8 25 0 22-18 41-41 41-9 0-18-4-25-9l0 0z m-74-435h-687c0 0-1 0-1 0-11 0-20 8-21 19l0 0v225c71 2 138 10 203 24l-8-1c51 11 110 17 170 17 0 0 1 0 2 0h0c70-1 138-8 204-20l-7 1c49-10 107-17 166-20l3 0v-226c-1-11-10-20-21-20-1 0-2 1-3 1l0 0z m74 704c0 0 0 0 0 1 0 12-10 22-22 22 0 0 0 0 0 0h-56l71 60c4 4 7 10 7 16 0 0 0 1 0 1l0 0v12c0 12-10 22-22 22v0h-111c0 0-1 0-1 0-12 0-22-10-22-22 0 0 0 0 0 0v0c0-12 10-22 22-22v0h54l-68-58c-5-4-9-11-9-18 0 0 0 0 0 0v0-14c0-12 10-22 22-22v0h112c12 0 22 10 22 22v0z m156 73c0 0 0 0 0 0 0 9-7 16-16 17l0 0h-42l52 44c4 3 6 8 6 13 0 0 0 0 0 0v0 11c0 8-7 15-16 16l0 0h-83c0 0 0 0 0 0-9 0-16-7-17-16l0 0c0 0 0 0 0 0 0-9 7-17 16-17l0 0h41l-53-45c-3-3-5-8-5-12v-10c0 0 0 0 0 0 0-9 7-17 16-17l0 0h84c9 0 17 7 17 17v0z m116 73c0 0 0 0 0 0 0 6-5 11-11 12l0 0h-29l37 30c3 2 4 5 4 9 0 0 0 0 0 0v0 6c0 6-5 12-12 12v0h-57c-7 0-12-6-12-12v0 0c1-6 6-11 12-11 0 0 0 0 0 0h28l-35-29c-2-2-4-6-4-9 0 0 0 0 0 0v0-7c1-6 5-11 11-11l0 0h58c6 0 11 5 11 11l0 0z" horiz-adv-x="1177.7" />

<glyph glyph-name="rise" unicode="&#xe837;" d="M889 738c-67 65-158 106-260 106-1 0-2 0-3 0l0 0h-6c-198-3-378-126-378-259v-28c-18 5-38 9-59 9-42 0-81-13-113-35l1 1c-43-34-71-86-71-145 0-50 20-95 53-128l29-29 68-66c25-24 46-45 62-58 14-36 24-78 28-122l0-2v-86c0-29 23-52 52-52v0h641c37 0 67 30 67 67v0 554c0 1 0 3 0 5 0 104-42 199-111 268l0 0z m-531-404c20 9 33 29 33 52 0 10-3 19-7 27l0 0-36 71v112c0 65 131 149 278 151 3 0 6 0 9 0 73 0 139-29 187-75l0 0c50-51 81-120 81-197 0-2 0-4 0-5l0 0v-529h-554v26c0 50-29 177-66 213l-66 63-69 66-30 29c-13 13-21 31-21 51 0 1 0 3 0 4l0 0c2 22 13 40 29 53l0 0c24 19 86 11 118-14l36-74c10-19 29-31 51-31 10 0 19 3 27 7l0 0z" horiz-adv-x="1000" />

<glyph glyph-name="seafood" unicode="&#xe838;" d="M1067 662c-45 21-81 55-103 97l-1 1c-18 28-39 52-62 74l0 0c-7 7-17 11-28 11-3 0-6 0-9-1l0 0c-12-4-21-14-24-26l0 0c-3-12-6-25-9-37-7-35-17-67-30-96l1 3c-168-5-326-47-466-118l6 3c-19 25-35 55-47 86l-1 3c-4 9-11 17-20 21l0 0c-5 11-15 19-28 22l0 0c-1 0-3 0-5 0-10 0-18-5-24-12l0 0c-49-63-79-143-79-229 0-16 1-31 3-46l0 2c0-3 0-6 1-8l0 0c-101-131-121-302-133-480-5-7-8-15-8-24 0-4 1-8 2-12l0 1c4-12 13-20 25-22l0 0c71-21 152-33 236-33l0 0c0 0 1 0 1 0 104 0 203 16 297 46l-7-2c5-3 11-6 17-6l0 0c28-3 56-8 83-12 101-18 196-35 281 56v0c4-2 9-3 14-3 12 0 23 6 30 15l0 0c5 6 8 13 8 22 0 10-4 19-11 25l0 0c-32 32-68 59-107 81l-3 2c40 40 73 87 97 140l1 3c21 53 33 114 33 178 0 62-11 121-32 176l1-3c40 10 73 21 106 34l-6-2c15 5 26 19 26 36l0 0c-1 16-11 29-26 34l0 0z m-856-176c2 42 13 81 31 116l-1-1c12-25 25-46 39-66l-1 1c-17-11-33-21-45-33-8-4-15-10-23-17z m672 116c-1-4-2-9-2-13 0-9 2-17 7-23l0 0c1-3 1-5 2-7l0 0c42-121 43-229 3-323-46-94-119-168-208-214l-3-1c-120-66-263-104-414-104-66 0-131 7-193 21l6-1v16c3 92 15 179 35 264l-2-9c31 106 95 193 181 253l1 1c158 112 360 145 502 153 6-4 13-6 21-6 13 0 24 6 31 16l0 0c21 31 37 67 46 107l0 2c15-21 30-45 45-70l2-4v-2c7-10 17-17 28-21l0 0c-16-6-37-11-59-16l-4 0c-11-2-20-9-25-19l0 0z m-153-638c29 17 55 34 78 53l-1-1c27-12 51-26 72-43l-1 1c-60-60-131-51-203-37 20 9 38 18 55 27z m-517 157c-7 9-17 15-29 15-10 0-19-4-26-11l0 0c-7-7-11-16-11-26 0 0 0 0 0 0v0c0-1 0-2 0-3 0-14 8-27 19-33l0 0 5-2c6-4 13-6 21-6 0 0 0 0 0 0h0c0 0 1 0 1 0 10 0 19 4 25 10l0 0c7 7 11 16 11 26 0 0 0 1 0 1l0 0c0 10-4 19-11 25l0 0z m205 36c-10 20-19 38-29 54-33 52-75 108-138 122-2 0-4 1-7 1-11 0-20-5-27-13l0 0c-7-7-11-17-11-28 0-4 0-7 1-10l0 0c4-11 13-20 25-22l0 0c52-12 85-70 111-116l8-14c6-11 13-22 19-34 15-35 36-65 60-90l0 0c7-6 15-10 25-10 0 0 0 0 0 0h0c11 0 21 5 28 13l0 0c6 6 10 14 10 23 0 11-5 20-12 26l0 0c-26 28-47 60-62 96l-1 2z m203-43c-35 29-64 64-85 104l-1 2c-9 15-18 29-27 42-36 55-81 102-132 140l-2 1c-5 4-12 6-19 6-5 0-10-1-14-3l0 0c-12-7-19-19-20-33l0 0c0-1 0-2 0-3 0-13 6-24 16-30l0 0c51-39 94-88 125-143l1-2c32-56 72-104 120-142l1-1c6-4 12-7 20-7h0c4 0 9 1 12 3l0 0c12 6 21 18 22 33l0 0c0 1 0 1 0 2 0 13-7 24-17 31l0 0z m46 174c-12 20-24 41-37 60-20 24-41 45-65 64l-1 1c-32 24-57 54-76 88l-1 2c-4 10-13 17-24 19l0 0c-1 0-2 0-3 0-13 0-25-7-32-17l0 0c-4-6-6-13-6-21 0-5 1-11 3-15l0 0c21-39 49-72 82-98l1 0c23-18 43-38 60-60l1 0c15-20 30-43 44-67l2-3c23-42 49-78 80-110l0 0c6-6 15-10 24-10l0 0c2 0 4-1 6-1s3 1 5 1l0 0c14 4 24 15 27 29l0 0c1 2 1 5 1 7 0 11-5 20-12 26l0 0c-30 30-57 65-78 102l-1 3z m-33 254l-4 4c-6 7-15 11-25 11 0 0-1 0-2 0l0 0c-9-1-18-6-24-12l0 0c-7-7-11-16-11-26s4-19 11-25l15-14c71-72 152-152 182-250 4-15 18-25 34-25 0 0 0 0 0 0h0c4 0 8 1 12 2l0 0c15 3 26 16 26 32 0 4-1 8-2 11l0 0c-37 115-130 209-212 292z" horiz-adv-x="1092.8" />

<glyph glyph-name="search" unicode="&#xe839;" d="M768 390c0-172-139-312-311-312s-312 140-312 312v0c0 0 0 0 0 0 0 172 139 311 311 311 86 0 164-35 220-91l0 0c57-56 92-134 92-220 0 0 0 0 0 0v0z m178-418l-164 164c55 69 88 158 88 255 0 228-185 413-413 413s-413-185-413-413c0-228 185-413 413-413h0c0 0 1 0 1 0 96 0 184 33 254 88l-1 0 163-166c9-10 21-15 35-15 1 0 1 0 1 0h0c14 0 27 6 36 15l0 0c9 9 15 21 15 35s-6 27-15 36l0 0z" horiz-adv-x="1000" />

<glyph glyph-name="store-address" unicode="&#xe83a;" d="M944 514l-179 175c-6 6-15 10-25 10 0 0 0 0 0 0h-260v95c0 0 0 0 0 1 0 20-16 36-36 37l0 0h-168c0 0 0 0 0 0-19 0-35-16-35-35 0-1 0-2 0-3l0 0v-95h-166c-20-1-36-17-36-37 0 0 0 0 0 0v0-350c0-20 16-36 36-36v0h166v-382c0-1 0-1 0-1 0-19 15-35 34-35l0 0h169c20 0 36 16 36 36l0 0v381h260c0 0 0 0 0 0 10 0 19 4 25 10l0 0 179 177c6 6 10 15 10 25s-4 18-10 25l0 0z m-632 246h97v-61h-97z m97-832h-97v347h97z m316 416h-614v284h614l143-140z" horiz-adv-x="1000" />

<glyph glyph-name="store-car-wash" unicode="&#xe83b;" d="M583 713c1 0 1 0 2 0 8 0 14 5 15 13l0 0c0 9-7 16-16 16s-16-7-16-16v0c1-8 7-13 15-13 0 0 0 0 0 0h0z m-136-51c0-2-1-3-1-5 0-7 5-12 11-14l0 0c1 0 2-1 3-1 8 0 15 7 15 15l0 0c3 8-3 16-13 18 0 0 0 0 0 0-8 0-14-6-15-13l0 0z m64-11c0 0 0 0 0 0 0-9 5-16 13-19l0 0c8-2 16 6 19 14 0 8-6 15-13 18l0 0c0 0 0 0 0 0-9 0-16-6-19-13l0 0z m5 68c11 0 16 5 16 13 0 0 0 1 0 2 0 8-6 14-14 14-1 0-1 0-2 0l0 0c-8 0-13-5-13-16 0-7 6-13 13-13v0z m59-84c0-11 5-19 13-19s16 3 19 14c0 0 0 1 0 1 0 8-6 14-13 15l0 0c-1 0-3 0-4 0-7 0-13-4-15-11l0 0z m83-10c-11 0-19-6-19-14s3-16 13-18c0 0 1 0 1 0 8 0 14 5 15 13l0 0c1 1 1 3 1 4 0 7-5 13-11 15l0 0z m120 24c9 0 16 7 16 16v0c0 9-7 16-16 16s-16-7-16-16v0c0-9 7-16 16-16v0z m-64 29c9 0 16 7 16 16l0 0c0 9-7 16-16 16s-16-7-16-16v0c1-9 7-16 16-16l0 0z m-64 21c9 0 16 7 16 16l0 0c0 9-7 16-16 16s-16-7-16-16v0c1-9 7-16 16-16l0 0z m181-93c0 0 1 0 1 0 8 0 14 5 15 13l0 0c0 9-7 16-16 16v0c-1 0-1 0-2 0-8 0-14-6-14-14 0-1 0-2 0-2l0 0c0-8 6-13 16-13z m-115-14c-1 0-3 1-4 1-6 0-11-5-12-11l0 0c-2-11 3-19 11-19 2-1 3-1 5-1 8 0 14 6 14 14v0c1 1 1 3 1 4 0 7-6 12-12 12-1 0-2 0-3 0l0 0z m-331 118c8 1 15 7 15 16l0 0c0 8-7 15-16 16l0 0c-9 0-16-7-16-16v0c0 0 0 0 0 0 0-9 7-16 16-16 0 0 1 0 1 0l0 0z m-133-88c8-3 16 3 19 13 0 0 0 0 0 1 0 8-6 14-14 15l0 0c-1 0-2 0-3 0-7 0-13-5-15-11l0 0c-1-10 5-18 13-18z m61-19c2-1 3-1 5-1 7 0 14 5 16 12l0 0c1 1 1 3 1 5 0 6-4 12-10 14l0 0c-2 1-4 1-6 1-6 0-11-4-13-9l0 0c-1-2-2-5-2-7 0-7 4-12 9-15l0 0z m-59 72c9 0 16 7 16 16l0 0c0 9-7 16-16 16s-16-7-16-16v0c1-9 7-16 16-16l0 0z m-130-53l8 16h53v-8h29v59h-29v-8h-83c-7-1-14-5-16-12l0 0-16-47h-53v-67h48l-3-8c-45-141-67-206 27-392 12-24 20-53 21-83l0 0c-1-12-5-23-10-33l0 1c-5-9-12-17-21-22l0 0c-11-6-23-9-36-9-4 0-7 0-10 1l0 0v-21c5-1 10-2 15-2 15 0 28 4 40 10l-1 0c13 7 24 17 32 28l0 1c8 13 13 29 13 46v0c0 34-10 66-25 94l0-1c-88 179-69 241-23 377l2 13h32c0 0 1 0 1 0 17 0 31 14 31 31 0 0 0 0 0 1l0 0c0 16-11 30-26 35l0 0z m833-224h-67c-21 34-40 69-59 104-20 31-54 51-93 53l0 0h-213c0 3 3 3 3 6 0 1 0 2 0 3 0 7-4 13-11 15l0 0c-2 1-4 1-6 1-6 0-11-4-13-9l0 0c-1-2-1-4-1-6 0-4 1-8 4-10l0 0h-102c-39-1-74-22-94-53l0 0c-19-35-37-70-59-105h-66c-14-1-25-12-27-26l0 0v-22c1-21 18-37 39-37 0 0 1 0 1 0l0 0h5l-5-13c-29-48-46-195 5-262v-70c0-1 0-1 0-1 0-14 11-25 25-25 1 0 1 0 2 0l0 0h40c0 0 0 0 0 0 15 0 26 11 27 26l0 0v35h555v-35c1-15 12-26 27-26 0 0 1 0 1 0l0 0h40c1 0 1 0 2 0 14 0 25 11 25 25 0 0 0 0 0 1l0 0v76c45 69 29 211 3 256l-6 13h6c0 0 1 0 1 0 21 0 38 17 39 38l0 0v21c-1 15-13 26-28 27l0 0z m-123-32c8-8 13-19 13-31 0-1 0-1 0-1l0 0c0-14-5-26-13-35l0 0c-9-8-21-13-34-13 0 0-1 0-1 0l0 0h-296c-15 1-28 6-38 16l0 0c-10 10-16 24-16 40s6 29 16 40l0 0c9 10 22 16 36 16 1 0 2 0 2 0l0 0h11c5-3 8-3 10-6l19-5-3 19v3c0 0 0 0 0 1 0 14 6 27 16 36l0 0c9 8 21 13 34 13 0 0 1 0 1 0l0 0c0 0 1 0 1 0 10 0 19-3 26-8l0 0c9-3 16-10 19-18l0 0 5-14 13 8c6 6 13 11 21 14l0 0c8 3 17 4 27 5l0 0c1 0 1 0 2 0 17 0 33-6 46-16l0 0c14-11 23-26 27-43l0 0 3-11 10 3h9c13 0 25-6 34-14l0 0z m-505-257c-32 2-59 24-69 53l0 1c-2 4-3 9-3 14 0 21 18 39 39 39 1 0 1 0 1 0h0c33-2 60-23 70-53l0 0c2-5 3-10 3-15 0-22-17-39-39-39-1 0-1 0-2 0l0 0z m-53 200l66 171c14 16 34 26 56 29l0 0h340c21-3 40-14 53-29l0 0 34-82c-7 3-16 4-25 5l0 0h-3c-7 17-18 32-32 43l0 0c-16 13-37 21-60 21 0 0-1 0-1 0l0 0c-13-1-25-2-36-5l1 0c-5-3-13-6-19-8-6 6-13 12-20 17l-1 1c-11 6-23 10-37 11l0 0c-19-1-37-8-50-21l0 0c-11-12-19-26-23-43l0 0h-16c-1 0-1 0-2 0-20 0-38-8-52-21l0 0c-14-15-23-34-25-56l0 0c0-12 3-23 8-33l0 1z m411-208h-237c-7 0-13 6-13 13v0c0 0 0 1 0 1 0 8 6 14 13 15l0 0h238c7-1 13-7 13-15 0 0 0-1 0-1l0 0c0 0 0 0 0 0 0-7-6-13-13-13 0 0-1 0-1 0l0 0z m189 61c-10-30-37-51-69-53l0 0c0 0-1 0-2 0-21 0-39 17-39 39 0 5 1 10 3 14l0 0c9 30 35 52 67 54l0 0c1 0 2 0 3 0 22 0 40-18 40-40 0-5-1-9-2-13l0 0z m-496 503c0-1-1-3-1-4 0-7 6-12 12-12 1 0 2 0 2 0l0 0c1-1 3-1 4-1 7 0 12 5 12 12 0 1 0 1 0 2l0 0c0 1 1 2 1 4 0 6-5 12-12 12h0c-1 0-3 0-4 0-8 0-14-6-14-13l0 0z m64-94c1-1 3-1 4-1 8 0 13 5 15 12l0 0c1 2 1 4 1 6 0 6-3 11-9 13l0 0c-2 0-4 1-6 1-6 0-12-4-15-9l0 0c0-2-1-4-1-6 0-7 5-13 11-16l0 0z m-125 126c9 0 16 7 16 16s-7 16-16 16v0c-8-1-14-7-14-15 0-1 0-1 0-1l0 0c0-1 0-1 0-1 0-8 6-15 14-15l0 0z m133 18c7 1 13 7 13 15 0 0 0 0 0 1l0 0c0 0 0 1 0 1 0 8-6 14-13 15l0 0c-9 0-16-7-16-16v0c0-9 7-16 16-16v0z m-75-128c2-1 4-1 6-1 7 0 14 5 16 12l0 0c0 1 1 3 1 4 0 7-5 13-12 15l0 0c-2 1-4 1-6 1-6 0-11-4-13-9l0 0c-1-2-1-5-1-7 0-7 3-12 9-15l0 0z m-66 82c0-11 5-19 13-19s16 3 19 14c0 0 0 0 0 1 0 8-6 14-14 15l0 0c-1 0-2 0-3 0-7 0-13-5-15-11l0 0z" horiz-adv-x="1000" />

<glyph glyph-name="store-bakery" unicode="&#xe83c;" d="M714 438c33-21 58-54 67-93l0-1c2-6 3-13 3-21 0-3 0-7-1-11l0 1c-24 50-67 89-118 107l-2 1c-22 7-47 11-73 11-31 0-60-5-87-16l2 1c-38-14-70-34-96-61l0 0c48-7 89-33 114-72l0 0c4-8 8-17 10-26l0-1c-56 52-165 93-229 53-68-40-97-102-86-150 23-95 202-72 417-21s383 113 361 207c-17 78-174 131-282 92z m-426-101c22 13 48 21 76 21 1 0 2 0 3 0l0 0 18 19c30 30 66 54 106 69l2 1c21 8 45 13 70 16l1 0c-25 46-65 82-114 99l-2 1c-22 7-48 12-74 12-30 0-58-6-85-16l2 1c-38-14-70-35-96-62l0 0c48-7 89-33 114-72l0 0c4-8 8-16 10-25l0-1c-56 52-165 92-229 52-68-40-97-102-86-150 14-58 88-72 193-61 20 41 51 74 90 95l1 1z m279 149c2-7 3-14 3-22v0c7 0 13 0 20 0 0 0 1 0 1 0 26 0 52-4 76-12l-2 1 39 14c24 8 51 14 80 15l0 0c0 2 0 4 0 7-17 75-175 128-282 90 32-21 56-54 65-92l0-1z" horiz-adv-x="1000" />

<glyph glyph-name="store-fax" unicode="&#xe83d;" d="M674 317c64 50 105 128 105 215 0 151-123 274-274 274s-274-123-274-274c0-87 40-165 103-215l1 0c-156-68-263-220-263-397v0c0-26 21-47 47-47s47 21 47 47v0c0 0 0 0 0 0 0 181 142 329 320 339l1 0h36c179-10 321-158 321-339 0 0 0 0 0 0v0c0-26 21-47 47-47v0 0c0 0 0 0 0 0 25 0 45 20 45 45 0 0 0 1 0 2l0 0c0 177-107 329-259 396l-3 1z m-169 398c100-1 180-82 180-181 0-100-81-181-181-181-100 0-180 80-181 180v0c0 0 0 0 0 1 0 100 81 181 181 181 0 0 1 0 1 0h0z" horiz-adv-x="1000" />

<glyph glyph-name="store-meat" unicode="&#xe83e;" d="M984 427c0 2 0 4 0 7 0 73-36 138-91 177l-1 1c-135 98-286 122-447 89-92-18-170-66-224-134l-1-1c-19-22-31-51-31-83 0-11 1-22 4-32l0 1c4-15 6-30 10-46 1-4 2-9 2-13 0-16-8-31-21-39l0 0c-13-10-28-18-44-25l-2 0c-27-12-56-21-82-33-25-10-43-34-43-63 0-3 1-6 1-9l0 1c2-18 2-38 2-58 0-9 0-18 0-26l0 1c0-2 0-4 0-6 0-25 13-47 34-59l0 0c35-24 74-47 115-67l5-2c86-36 185-57 289-57 52 0 102 5 150 15l-5-1c123 18 230 75 310 159l0 0c43 43 70 103 70 169 0 3 0 6 0 9l0 0c0 18 0 35 0 53 0 24-1 48 0 72z m-70-105c-53-100-140-159-245-192-44-13-98-25-154-33l-7-1c-23-5-51-9-79-10l-1 0c-5 0-11 0-17 0-92 0-179 20-257 55l4-1c-31 15-57 33-81 54l0 0c-9 8-15 18-19 29l0 1c-7 12-3 23 9 26 18 9 38 19 58 29s48 20 70 33c29 15 49 45 49 80 0 9-2 17-4 25l0 0c-2 12-4 25-8 36-2 7-3 16-3 25 0 28 11 53 30 71l0 0c62 66 147 111 243 120l1 0c20 3 44 4 68 4 85 0 164-20 235-56l-3 2c38-20 70-45 97-75l0 0c53-56 56-142 14-222z m-97 228c-35 24-76 43-120 55l-3 1c-34 9-72 14-113 14-68 0-132-15-190-42l3 1c-26-12-46-22-66-34l3 2c-42-26-50-52-33-98 6-14 10-30 10-47 0-49-30-91-73-108l-1 0c-22-10-45-14-67-25-13-6-32-18-33-29s13-27 23-39c7-8 16-13 27-17l0 0c64-27 138-43 216-44l0 0c10-1 22-1 34-1 90 0 176 16 256 45l-5-1c81 28 146 86 182 161l1 2c11 21 18 46 18 73 0 54-27 102-68 130l-1 1z m-5-161c-8-8-45-5-56 4s-25 19-39 28c-8 5-17 9-28 11l0 0c-17 0-22-7-31-16s-21-19-33-28c-6-4-13-6-20-6-1 0-3 0-4 0l0 0c-7 1-12 6-14 13l0 0c0 12 6 13 11 17 14 7 29 12 43 18 17 7 29 23 29 42 0 2-1 5-1 7l0 0c0 16-6 32-8 48 0 1 0 2 0 3 0 8 2 16 6 22l0 0c7 5 5 5 14 6 9-2 15-10 15-19 0 0 0 0 0 0v0c-1-12-3-23-5-33l0 2c-1-4-1-9-1-13 0-34 23-63 54-72l0 0c15-3 33-5 51-5h0c0 0 0 0 0 0 9 0 17-6 20-14l0 0c1-2 1-4 1-6 0-3-1-7-4-9l0 0z" horiz-adv-x="1000" />

<glyph glyph-name="store-nutella-cafe" unicode="&#xe83f;" d="M747 132c24-18 54-28 87-29l0 0h35c69 0 125 56 125 125s-56 125-125 125v0h-88v8h-660v-47c0-3 0-5 0-8s0-9 0-14c0-1 0-3 0-4 0-121 60-229 151-296l1 0h-238c-16 0-28-13-28-29s12-28 28-28v0h100c0-11 9-20 20-20v0h593c11 0 20 9 20 20v0h100c16 0 29 12 29 28s-13 29-29 29v0h-239c51 35 91 83 117 138l1 2z m34 156h88c30-4 52-29 52-60s-22-55-52-59l0 0h-35c-25 1-48 12-64 30l0 0c7 26 11 57 11 89l0 0z m-470 186c8 0 14 6 14 14v0c0 2-23 54-9 84 9 15 19 32 27 50l1 3c7 15 12 34 12 53 0 13-2 26-6 38l0-1c-5 19-22 34-43 34-6 0-11-1-16-3l0 0c-2-2-3-4-3-6l0 0c3-25 15-47 9-71-9-31-31-53-40-84-3-11-5-22-5-35 0-18 4-35 11-50l0 1c8-16 24-28 43-28 2 0 3 1 5 1l0 0z m319 0c8 0 14 6 14 14v0c0 2-23 54-9 84 9 15 19 32 27 50l1 3c7 15 11 34 11 53 0 13-2 26-5 38l0-1c-5 19-22 34-43 34-6 0-11-1-16-3l0 0c-2-2-3-4-3-6l0 0c3-25 16-47 9-71-9-32-31-53-41-84-3-11-5-22-5-35 0-18 4-35 11-50l0 1c8-17 24-28 43-28 2 0 4 1 6 1l0 0z m-155-39c3 3 6 7 6 10 0 0 0 1 0 2 0 5-1 9-3 13l0 0c-7 15-11 32-11 51 0 13 2 25 5 37l0-1c16 27 31 59 44 92l2 5c3 11 4 24 4 37 0 6 0 13-1 20l0-1c-1 12-3 24-6 35l0-1c0 1-1 3-1 4l0 0-2 3c0 3-3 5-4 7-3 5-7 9-11 13l0 0c-4 3-8 5-13 8l0 0c-4 2-9 4-15 5l0 0c-4 0-8-1-12-2l0 0c-4-1-9-2-12-4l0 0-2-2c0-1-1-2-1-3s1-2 1-3l0 0c0-1 0-3 0-4l2-5 2-10 6-20c2-7 3-13 4-20 0-3 1-7 1-10s-1-7-1-11l0 1c-1-8-3-14-5-21l0 1v-2c-17-29-32-62-45-96l-1-4c-4-12-7-26-7-41 0-26 9-51 22-72l0 1c8-10 20-17 34-17 7 0 14 2 20 5l0 0z" horiz-adv-x="1000" />

<glyph glyph-name="store-pet" unicode="&#xe840;" d="M881 707l-31 48-305-61 114-164 53 32v121h30v-137l-92-58-45 66-43-50-557 270v-44l531-256h-425l-54 31c-6 5-15 9-24 9-21 0-37-17-37-37 0-16 10-30 25-35l0 0 87-50v-415c0-35 28-63 63-63s63 28 63 63v0 163l114-194c11-19 32-31 55-31 35 0 63 28 63 63 0 12-3 24-9 33l0 0-107 179h239v-213c4-32 31-55 63-55s58 23 62 54l0 1v213c15 0 27 12 27 27v0 159l-206 98 25 29 185-90 250 152v142z m-83-104c-17 0-30 13-30 30 0 16 13 30 30 30s30-14 30-30c0-1 0-1 0-1l0 0c-1-16-14-29-30-29 0 0 0 0 0 0h0z" horiz-adv-x="1000" />

<glyph glyph-name="store-parking" unicode="&#xe841;" d="M737 288l-69 166h-352l-72-166h-69v-189h57v-43c3-19 19-33 39-33s35 14 38 33l0 0v43h361v-43c3-19 19-33 39-33s35 14 38 33l0 0v43h56v189z m-443-131v0c-6-3-12-5-20-5 0 0-1 0-1 0l0 0c-2-1-4-1-6-1-21 0-38 17-38 38s17 38 38 38c2 0 4 0 6 0l0 0h2c20-1 37-18 37-38l0 0c0 0 0 0 0 0 0-14-7-26-18-32l0 0z m46 168l25 55h254l23-55z m369-173v0c0 0 0 0 0 0-8 0-14 2-20 5l0 0c-12 6-19 18-20 32l0 0c1 21 18 38 39 38 0 0 1 0 1 0l0 0h1c2 0 4 0 6 0 21 0 38-17 38-38s-17-38-38-38c-3 0-5 0-7 1l0 0z" horiz-adv-x="1000" />

<glyph glyph-name="store-produce" unicode="&#xe842;" d="M504 510c53 0 57 67 50 132-4 46-13 88-26 128l1-4c-11 27-71 25-68-6 4-20 7-43 7-66s-3-46-7-68l0 2c-17-63-11-118 43-118z m-91 36c-2 10-3 22-3 34 0 24 4 46 10 67l0-1s0 0 0 2l-28 11c-45 15-97 24-151 24-25 0-49-2-73-6l3 1c96 3 188-83 228-120 4-4 9-8 14-12l0 0z m186-18c88 53 132 281 132 281-34-64-79-117-133-160l-1-1c2-13 4-28 4-43 0-30-6-59-16-86l1 2c4 2 8 4 13 7z m383-104c-16 68-72 179-194 202-4 0-8 1-12 1-29 0-54-17-66-42l0 0c-19-35-46-63-80-82l-1 0c-28-16-62-25-98-25-3 0-7 0-10 0l0 0c-3 0-6 0-10 0-64 0-122 26-164 68l0 0c-27 21-59 39-94 51l-2 1c-16 6-34 9-53 9-16 0-31-2-45-6l1 0c-65-29-112-107-132-177-7-29-11-63-11-97 0-138 65-260 166-339l1 0c185-146 478-142 650-6s172 368 154 442z" horiz-adv-x="1000" />

<glyph glyph-name="store-community" unicode="&#xe843;" d="M413 448c0 9 10 9 10 0v-42h150v47l47-47h36l67 66c21 21-8 50-33 25l-45-45c-5-6-9-5-13 0-14 14-37 37-68 68-9 10-23 17-38 17 0 0-1 0-2 0l0 0h-79c-50 0-71-27-71-63v-67h39z m132 159c0 2 1 4 1 7 0 26-21 47-47 47s-47-21-47-47c0-3 0-5 0-7l0 0c0-2 0-5 0-7 0-26 21-47 47-47s47 21 47 47c0 2-1 5-1 7l0 0z m-93-334c-16 0-29-13-29-29v0-138c0-16 13-30 30-30s29 14 29 30v138c-1 16-14 29-30 29 0 0 0 0 0 0h0z m91 0c-16 0-29-13-29-29v0-138c0-16 13-29 29-29s29 13 29 29v0 0 138c0 16-13 29-29 29v0z m-262 137l3-5 1-2 11-17h17l-15 25-8 11-5 8-1 2-12-8z m-265-18c-4 0-8-1-12-2l0 0 19-173v-179h29v179c-8 75-16 145-19 163-1 7-7 12-15 12 0 0-1 0-2 0l0 0z m248-136c-7 14-10 20-34 20h-34c-9 0-16 4-15 19s-3 47-2 70l57-30h77c0 0 1 0 1 0 4 0 7 1 10 2l0 0c2 1 3 2 4 3l0 0c2 1 3 3 4 5l0 0v1c1 2 1 4 1 7s0 5-1 7l0 0c0 2-1 3-2 5l0 0v1c-2 3-6 6-10 8l0 0c-2 1-5 2-8 2l0 0h-66l-76 57c-8 5-19 9-30 9-1 0-1 0-2 0l0 0c-1 0-1 0-2 0-28 0-51-22-52-50l0 0s-6-135-7-157 16-32 41-32h90c10 0 14-1 19-13l50-135c4-12 15-20 28-20h0c1 0 3 0 4 0 15 0 27 12 27 27 0 2 0 5-1 7l0 0c-14 37-65 173-71 187z m-67 251c-3 23-23 40-46 40s-43-17-47-40l0 0c0-2 0-5 0-7 0-26 21-47 47-47s47 21 47 47c0 2-1 5-1 7l0 0z m698 0c-3 23-23 40-46 40s-43-17-47-40l0 0c0-2 0-5 0-7 0-26 21-47 47-47s47 21 47 47c0 2-1 5-1 7l0 0z m-34-65c-1 0-1 0-2 0-11 0-22-4-30-9l0 0-76-57h-66c-11 0-19-9-19-20 0-11 9-20 20-20 0 0 0 0 0 0l0 0h77l55 29c0-23-2-54-2-70s-6-19-15-19h-34c-25 0-27-6-34-20s-57-150-71-186c-1-3-1-5-1-8 0-15 12-27 27-27 1 0 2 0 3 0l0 0c0 0 0 0 0 0 13 0 24 8 28 19l0 0 50 135c5 12 8 14 19 14h91c25 0 41 8 41 31s-8 158-8 158c-1 28-24 50-52 50 0 0-1 0-1 0l0 0z m123-50c0 0-1 0-1 0-7 0-14-5-15-12l0 0c-3-14-21-163-21-163v-179h29v179l20 173c-4 1-8 2-12 2l0 0z m-273 14l14-20h25l-14 20h-25z" horiz-adv-x="1000" />

<glyph glyph-name="store-hot-beverage" unicode="&#xe844;" d="M521 569s69 79-10 139-45 125-45 125c-22-22-35-52-35-85 0-26 8-51 23-71l0 1c60-89 73-64 67-109z m143 0s69 79-10 139-45 125-45 125c-22-22-35-52-35-85 0-26 8-51 23-71l0 1c60-89 73-64 67-109z m-403-38h-64c0 0-1 0-1 0-66 0-119-51-123-116l0 0v-252c3-67 58-120 125-120 0 0 0 0 0 0h60v-143c0-25 20-45 45-45v0h567c32 0 57 26 57 58 0 0 0 0 0 0v0 618z m-61-414c-1 0-2 0-3 0-27 0-48 20-50 47l0 0v245c1 27 23 48 50 48 0 0 0 0 0 0h60v-340z" horiz-adv-x="1000" />

<glyph glyph-name="store-deli" unicode="&#xe845;" d="M237 189c46-4 89 17 133 27s72-9 115-16c70-12 153 41 220 18s130-5 204-18c57-10 84-11 70 64-41 2-80-13-121-12-100 0-184 25-287 3s-190 3-292 7c-49 2-92-16-139-24-38-6-75 6-113 4-6-7-9-15-9-25 0-6 1-12 4-17l0 0c25-28 182-7 215-11z m706 230c0 21-17 39-39 39v0h-395l43 189c15-3 29 2 31 12l20 89c3 10-8 21-25 25l-36 8c-16 3-30-3-32-13l-20-88c-3-10 8-21 23-25l-45-197h-372c-21 0-39-18-39-39v0-111h886z m20-256h-925c-13 0-24-14-24-32s11-31 24-31h925c12 0 23 14 23 31s-11 32-23 32z m-906-216c0-1 0-1 0-1 0-22 17-39 39-39 0 0 0 0 0 0h808c0 0 0 0 0 0 22 0 39 17 39 39 0 0 0 0 0 1l0 0v111h-886z" horiz-adv-x="1000" />

<glyph glyph-name="store-meals-to-go" unicode="&#xe846;" d="M788 107v0c-23-10-53-19-83-27l-5-1c-16-25-41-43-70-48l-1 0c-8-2-18-3-28-4l-1 0c-13-1-29-1-45-1s-32 0-47 1l2 0h-7c-1-1-3-1-4-1-9 0-17 8-17 17s8 17 17 17c1 0 3 0 4 0l0 0h8c14-2 30-3 47-3 22 0 44 2 66 5l-3 0c47 10 60 40 56 64-2 20-19 35-39 35-1 0-3 0-4 0l0 0c-21-2-45-3-69-3-15 0-30 0-44 1l2 0c-11 0-23 1-36 1-30 0-59-2-88-6l3 1c-64-16-121-44-169-82l1 1c-30-22-65-48-85-65-5-4-9-11-9-18 0-6 3-11 6-15l0 0 97-115c4-6 11-9 18-9 6 0 11 2 15 6l0 0 33 28c5 4 12 7 20 7 3 0 6-1 8-1l0 0c52-16 112-26 174-28l1 0c95 0 273 119 325 158 11 9 17 22 17 37 0 28-22 50-50 50-6 0-11-1-16-2l0 0z m-360 478c3-5 8-9 14-9 3 0 5 1 7 2l0 0c7 2 12 8 12 16 0 2-1 5-2 7l0 0c-6 13-9 28-9 43 0 1 0 2 0 3l0 0c2 16 7 32 13 46l0-1c3 8 7 16 11 27 4 10 7 22 8 34l0 1c0 2 0 4 0 6 0 11-2 21-5 30l0 0c-3 4-5 10-8 15-3 5-7 10-11 14l0 0c-3 3-8 5-13 5-2 0-3 0-4 0l0 0c-7-2-12-9-12-17 0-1 0-2 0-3l0 0v-7c1-4 2-7 3-9l0 0c1-3 2-7 2-10l0 0c1-3 1-7 1-11s0-7-1-11l0 1c-1-8-3-14-7-20l0 0-13-25c-3-8-7-18-10-28l0-2c-3-10-4-21-4-33 0-1 0-2 0-2l0 0c3-24 13-46 28-62l0 0z m118 11c3-6 9-10 16-10 2 0 4 0 5 1l0 0c7 2 12 8 12 16 0 2-1 5-2 7l0 0c-5 12-8 26-8 41 0 2 0 3 0 5l0 0c2 16 6 31 12 45l0-1c3 8 7 17 12 27 4 10 6 23 7 36l0 0c0 2 0 4 0 6 0 11-2 21-5 30l0 0c-2 6-5 11-8 16l0 0c-4 5-8 10-12 15l0 0c-3 4-8 6-14 6-1 0-1 0-2 0l0 0c-8-2-14-9-14-17 0-1 1-3 1-4l0 0v-6c1-4 2-7 3-11l0 1c1-3 2-7 2-10l0 0c1-3 1-7 1-11s0-7-1-11l0 1c-1-7-4-14-7-19l0 0-13-25c-3-8-7-18-10-28l0-2c-2-9-3-19-3-29 0-3 0-5 0-8l0 1c3-24 13-46 28-62l0 0z m119-10c6-9 13-11 21-8v0c7 2 12 8 12 16 0 2-1 5-2 7l0 0c-5 12-8 26-8 41 0 1 0 3 0 4l0 0c2 17 6 32 12 47l0-1c3 8 7 16 12 27 4 10 7 22 8 34l0 1c0 12-2 24-6 36l0-1c-2 6-5 12-8 17l0 0c-3 5-7 10-11 15l0 0c-3 4-8 6-14 6-1 0-2 0-3 0l0 0c-7-2-13-9-13-17 0-1 1-3 1-4l0 0v-6c1-4 2-7 3-11l0 1c1-3 2-7 2-10l0 0c1-3 1-7 1-11s0-7-1-11l0 1c-1-7-4-14-7-19l0 0-13-25c-3-8-7-18-10-28l0-2c-2-9-3-19-3-29 0-3 0-5 0-8l0 1c2-25 12-46 27-63l0 0z m-378-182v0c13-102 79-180 273-180s261 78 273 180c15 8 26 24 27 42l0 0c0 85-269 89-300 89s-300-2-300-89c1-18 12-34 27-42l0 0z m273 82c145 0 230-25 249-40-20-16-105-41-249-41s-229 25-248 41c20 15 103 40 248 40z" horiz-adv-x="1000" />

<glyph glyph-name="store-manager" unicode="&#xe847;" d="M705 520h-164c-19-3-33-19-33-39s14-35 33-38l0 0h164c19 3 33 19 33 38s-14 36-33 39l0 0z m242 59h-97v190c0 21-17 37-38 38l0 0h-381c0 0 0 0 0 0-21 0-38-17-39-38l0 0v-190h-153c-16 5-35 8-54 8l0 0c-96-1-173-79-173-175 0-58 29-110 73-142l0 0v-82c-45-32-74-84-74-143 0-97 78-175 174-175h0c19 0 38 3 55 8l-1 0h708c22 0 39 17 39 39v0 624c-1 21-18 38-39 38 0 0 0 0 0 0h0z m-478-271v422h307v-422z m-329-176c13 6 21 19 21 33 0 1 0 1 0 2l0 0v124c-1 14-9 27-21 34l0 0c-32 16-53 48-53 86 0 0 0 0 0 1l0 0c0 1 0 2 0 3 0 55 45 100 100 100s100-45 100-100c0-40-23-74-55-90l-1 0c-13-6-22-19-22-34 0 0 0-1 0-1l0 0v-123c0-15 9-28 21-35l0 0c32-16 53-49 53-86 0-1 0-2 0-2l0 0c0-1 0-2 0-3 0-25-10-48-27-65l0 0c-18-19-43-30-71-30h0c-53 3-94 46-94 100 0 36 19 68 49 86l0 0z m292 100h384c21 0 38 18 38 39 0 0 0 0 0 0v0 233h55v-548h-573c16 25 25 57 25 90 0 59-29 112-74 143l-1 1v81c45 32 75 84 75 143 0 33-9 64-25 91l0-1h58v-234c0 0 0 0 0 0 0-21 17-39 38-39l0 0z m273 429h-164c-19-3-33-19-33-39s14-35 33-38l0 0h164c19 3 33 19 33 38s-14 36-33 39l0 0z" horiz-adv-x="1000" />

<glyph glyph-name="store-every-service" unicode="&#xe848;" d="M913 489h-7c-58 171-218 292-406 292s-348-121-405-289l-1-3h-6c0 0 0 0 0 0-39 0-70-31-71-70l0 0v-129c0-39 32-71 71-71v0h12c39 0 71 32 71 71v0 129c0 25-14 47-35 60l0 0c54 153 197 260 365 260s311-107 364-257l1-3c-21-12-35-35-36-60l0 0v-129c0-26 14-48 35-60l0 0c-46-133-159-231-298-256l-2 0c-7 9-17 14-29 15l0 0h-70c-21 0-38-17-38-38v0-7c0-21 17-38 38-38v0h68c0 0 0 0 0 0 17 0 31 10 36 24l0 1c158 27 285 138 335 285l1 3h7c39 0 70 32 70 71 0 0 0 0 0 0v0 129c-1 38-32 69-70 70l0 0z m-213-38l-163-91c0-1 0-2 0-3s0-2 0-3l0 0c0 0 0-1 0-1 0-20-17-37-37-37-17 0-32 12-36 29l0 0-141 74c-5 4-8 11-8 18 0 14 11 25 25 25 2 0 3 0 5 0l0 0 141-74c4 2 9 3 14 3l0 0c0 0 1 0 1 0 9 0 18-4 24-9l0 0 163 90c2 1 4 1 6 1 4 0 8-2 10-5l0 0c1-2 2-4 2-7 0-4-2-8-6-10l0 0z m70-97c0 8 6 14 14 14v0h34c-2 48-15 94-37 133l1-1-29-17c-2-1-4-2-7-2h0c-8 0-14 6-14 14 0 5 3 9 7 12l0 0 29 17c-25 39-58 71-96 96l-1 1-17-29c-2-5-7-8-12-8-8 0-15 7-15 15 0 2 1 5 2 7l0 0 17 29c-38 20-83 33-131 36l-1 0v-34c0-8-6-14-14-14s-14 6-14 14v0 34c-49-3-94-16-134-37l2 1 17-29c1-2 2-5 2-7 0-5-3-10-7-12l0 0c-2-1-4-2-7-2h0c-5 0-10 3-12 7l0 0-17 29c-39-25-72-57-96-95l-1-1 29-17c6-2 9-7 9-13 0-8-6-14-14-14 0 0-1 0-2 0l0 0c-3 0-5 1-7 2l0 0-29 17c-20-38-33-83-36-130l0-1h34c8 0 14-6 14-14s-6-14-14-14v0h-34c2-49 15-94 36-134l-1 2 30 17c2 1 4 2 7 2 8 0 14-7 14-15 0-5-3-10-7-12l0 0-30-17c25-39 58-71 96-95l1-1 17 29c3 4 7 7 13 7 7 0 14-6 14-14 0-3-1-5-2-7l0 0-17-30c38-20 84-33 131-35l1 0v33c0 8 6 14 14 14s14-6 14-14v0-34c49 2 94 15 134 36l-2-1-17 30c-1 2-2 4-2 7 0 8 7 14 15 14 5 0 10-3 12-7l0 0 17-30c39 25 72 58 96 96l1 1-30 17c-4 2-7 7-7 12 0 8 6 15 14 15 3 0 5-1 7-2l0 0 30-17c20 38 33 83 35 131l0 1h-34c-8 0-14 6-14 14v0z" horiz-adv-x="1000" />

<glyph glyph-name="store-natural" unicode="&#xe849;" d="M954 424c-12-83-49-155-104-210l0 0c-39-42-94-68-154-71l-1 0c-14 0-29 1-44 2 5 51 20 98 44 140l-1-2c37 61 76 115 119 164l-1-1c3 3 5 7 8 11l-3 3c-3-1-5-3-7-4l0 0c-42-38-81-77-116-120l-1-2c-52-56-86-129-93-210l0-1c0-5-1-12-1-18 0-42 14-81 38-112l0 1c29-34 67-60 109-75l2 0c13-6 21-19 21-34 0-6-1-11-4-17l0 1c-5-12-17-19-30-19-6 0-11 1-16 4l0 0c-64 24-116 67-152 122l-1 1c-49 60-118 103-196 120l-2 1c-28 8-59 13-92 13-18 0-36-2-53-4l2 0c82-29 165-52 236-105-10-15-23-27-39-35l-1 0c-24-12-53-19-84-19-14 0-29 2-42 5l1 0c-82 14-152 60-197 124l-1 1c-30 39-51 87-58 139l0 2c-1 5-1 12-1 19s0 13 1 20l0-1c1 6 4 11 9 15l0 0c1 0 1 0 2 0 5 0 10-2 14-6l0 0c23-23 52-41 84-50l1 0c13-4 28-6 44-6 22 0 44 5 64 13l-1 0c14 6 28 11 42 17 17 7 36 11 56 11 73 0 133-54 142-124l0-1c1-9 6-16 13-19l0 0 18-10c0 4 0 10 0 15 0 19 2 37 6 54l0-1c2 4 2 8 2 13 0 13-6 24-16 31l0 0c-40 32-66 80-68 135l0 0c0 0 0 1 0 1 0 65 27 124 70 167l0 0c31 30 66 55 105 76l2 1c34 18 63 36 91 57l-2-1c53 44 89 106 100 176l0 2c0 6 3 11 7 15l0 0c1 0 1 0 2 0 5 0 10-2 14-6l0 0c10-12 20-24 29-37l1-1c57-79 91-178 91-285 0-30-3-60-8-88l0 3z" horiz-adv-x="1000" />

<glyph glyph-name="store-kitchen" unicode="&#xe84a;" d="M709 503l115 114c3 2 7 3 11 3 12 0 22-10 22-22 0-4-1-8-3-11l0 0-115-115c-4-4-9-6-15-6 0 0 0 0 0 0h0c-12 0-21 10-21 22 0 6 2 11 6 15l0 0z m212 47c4-4 6-9 6-15s-2-11-6-15l0 0-114-115c-4-4-9-6-15-6 0 0 0 0 0 0h0c-12 0-22 10-22 22 0 6 2 11 6 15l0 0 115 114c4 3 9 6 15 6s11-3 15-6l0 0z m-225-187c67-50 168-38 237 31 75 75 82 187 17 252s-178 57-252-17c-69-69-81-170-31-237h-2l-121-123-121 121 64 64c13 13 21 32 21 52s-8 39-21 53l0 0-217 219-264-264 218-217c14-13 32-22 53-22s39 9 52 22l64 64 121-121-125-125c-3 1-7 1-11 1-12 0-22-5-30-12l0 0-121-120c-8-8-13-19-13-31 0-24 20-43 44-43 11 0 22 5 30 13v0l121 121c8 8 12 18 12 30 0 4 0 8-1 11l0 0 125 125 125-125c-1-4-2-8-2-13 0-11 4-21 11-28l0 0 121-121c8-8 19-13 31-13 23 0 43 19 43 43 0 12-5 23-13 31v0l-121 121c-8 7-18 12-30 12-4 0-8 0-11-1l0 0-125 125 121 121s1 0 1 0z" horiz-adv-x="1000" />

<glyph glyph-name="store-floral" unicode="&#xe84b;" d="M654 332c0 92-75 167-167 167s-167-75-167-167c0-92 75-167 167-167v0c92 0 167 75 167 167v0z m177-130c27-35 43-79 43-127 0-116-94-210-210-210-89 0-165 55-195 132l-1 2c-32-77-107-130-194-130-116 0-210 94-210 210 0 81 46 151 113 186l1 1c-101 16-178 103-178 207 0 116 94 210 210 210 39 0 76-10 107-29l-1 1c25 91 106 156 203 156 114 0 206-90 210-203l0 0c20 7 43 11 67 11 116 0 210-94 210-210 0-103-75-189-173-207l-1 0z" horiz-adv-x="1000" />

<glyph glyph-name="store-pin" unicode="&#xe84c;" d="M556 769v0c-56 44-126 72-203 75l-1 0c-2 0-5 0-8 0-74 0-142-23-198-63l1 1c-89-64-147-167-147-283 0-29 4-58 11-85l-1 3c16-61 52-116 84-170l132-233c30-52 58-104 89-156l2-2c4-7 12-12 21-12s16 5 20 12l0 0 153 258 96 164c26 38 48 81 64 128l1 4c8 27 12 58 12 91 0 108-49 204-127 267l-1 1z m-248-280c-8-49-44-81-86-78 0-15 0-53 0-69 2 0 3 0 5 0 72 0 131 51 144 119l0 1c6 51 44 91 93 101l1 0c2 0 3 0 5 0s4 0 5 0l0 0v67c-1 0-3 0-4 0s-4 0-5 0l0 0c-79-6-143-64-157-140l0-1" horiz-adv-x="683.6" />

<glyph glyph-name="store-phone" unicode="&#xe84d;" d="M286 718c2 0 3 0 5 0s4 0 5 0l0 0c20-56 44-125 61-188 0-2 0-4 0-6s0-4 0-5l0 0-61-38c-17-11-29-29-33-50l0 0c-1-7-2-14-2-22 0-25 8-47 21-66l0 1c32-43 65-80 100-115l0 0c35-36 73-68 112-98l3-2c16-13 37-21 59-21 30 0 56 14 74 36l0 0 39 61h9c71-15 134-36 194-64l-6 3c0-4 3-8 4-9-21-53-51-99-89-136l0 0c-8-9-16-17-25-24-169 6-321 79-430 193l0 0-3 4c-114 110-188 261-195 431l0 1c8 9 16 17 23 25 37 37 82 68 132 88l3 1z m0 76c0 0-1 0-2 0-8 0-16-2-23-4l0 0c-64-25-119-61-164-106l0 0c-13-13-25-27-36-42l-1-1-10-9v-13c2-197 85-374 217-500l0 0 3-3c123-129 295-211 485-217l1 0h26l10 8c15 12 29 24 42 37l0 0c45 45 81 100 105 161l1 3c3 8 4 17 4 27 0 31-16 59-40 76l0 0c-60 28-131 52-205 68l-6 1c-2 0-5 0-7 0s-6 0-8 0l0 0c-1 0-3 0-4 0-27 0-51-12-68-30l0 0-21-34-24-33c-8 0-15 3-21 8l0 0c-39 29-74 58-106 90l0 0c-32 32-61 68-88 105l-2 3c-5 7-8 15-9 24l0 0 68 43c19 17 31 41 31 69 0 6-1 13-2 19l0 0c-20 73-46 150-67 208-12 32-59 42-79 42z" horiz-adv-x="1000" />

<glyph glyph-name="store-propane" unicode="&#xe84e;" d="M603-106h-206c-17 0-32 10-39 24l0 1h285c-7-15-22-25-40-25 0 0 0 0 0 0h0z m-171 865h208v-117h-208z m235-146v175c38 0 33 25 33 25 0 14-18 25-41 25h-318c-22 0-40-12-40-25 0 0-6-25 32-25v-175c-74-12-131-75-133-152l0 0v-387c1-67 44-124 104-145l1 0v-79h389v79c61 21 105 78 106 145l0 0v387c-2 76-58 139-131 152l-1 0z" horiz-adv-x="1000" />

<glyph glyph-name="store-seafood" unicode="&#xe84f;" d="M134 330c0 0-1 0-1 0-23 0-42 19-42 42s19 42 42 42c23 0 42-19 42-42v0c0 0 0 0 0 0 0-23-18-42-41-42l0 0z m848 197c-88-33-164-79-228-139l0 1c-46 10-120 17-105 42 8 19 27 33 49 33 2 0 4 0 6 0l0 0c-8 42-188 244-223 246-31-16-107-110-107-148-85-15-219-11-367-201-3-6-4-13-4-21 0-12 5-24 12-33l0 0c21-25 142-119 142-119s146 48 109 253c0 0 77-159-59-280 29-10 63-17 98-17l0 0c32-48 96-106 98-166 0 0 51 24 50 131-41 12-71 25-37 31s135 7 179 19c53-81 100-98 130-104-10 56-19 114-10 144-30-3-69 14-44 31s39 39 83 14 172-107 244-96c-41 68-189 157-16 379z" horiz-adv-x="1000" />

<glyph glyph-name="store-sushi" unicode="&#xe850;" d="M950 586l-367-295v-70l403 323c8 5 13 14 13 24 0 15-12 28-28 28-8 0-16-4-21-10l0 0z m-891-150c0 50 97 103 235 103s234-55 234-103-96-104-234-104-235 55-235 104z m358-340c-14 1-25 13-25 28 0 8 3 15 8 20l0 0 183 146v146c-2 36-20 68-48 88l0 0 338 210c6 5 10 12 10 21 0 15-13 28-28 28-4 0-8-1-11-2l0 0-361-225c-53 24-116 38-182 38-2 0-5 0-7 0l0 0c-163 0-290-70-290-158v-375c0-89 127-159 290-159s289 69 289 159v160l-148-119c-5-4-11-6-17-6-1 0-1 0-1 0l0 0z m-123 386c-45 0-85-13-98-30-3-5-5-10-5-16s2-12 5-16l0 0c13-18 53-30 98-30s84 12 97 30c3 4 5 10 5 16s-2 11-5 16l0 0c-13 17-53 30-97 30z" horiz-adv-x="1000" />

<glyph glyph-name="store" unicode="&#xe851;" d="M986-104v0h-67v303c0 14-12 26-26 26s-27-12-27-26v0-303h-390v258c0 0 0 0 0 1 0 14-12 26-26 26 0 0 0 0 0 0h-201c0 0-1 0-1 0-14 0-26-12-26-26 0-1 0-1 0-1l0 0v-258h-75v303c0 14-12 26-26 26s-27-12-27-26v-303h-68c-14 0-26-12-26-26s12-26 26-26v0h960c14 0 26 11 26 26s-12 26-26 26v0z m-563 0h-148v232h149z m357 74c14 0 26 11 26 26v0 158c0 0 0 0 0 1 0 14-12 26-26 26 0 0-1 0-1 0l0 0h-211c0 0 0 0 0 0-14 0-26-12-26-26 0-1 0-1 0-1l0 0v-158c0-15 12-26 26-26v0z m-26 158v-105h-159v105z m243 399v0l-155 152v115c0 27-22 50-50 50v0h-572c-28 0-50-23-50-50v0-115l-155-152c-9-9-15-22-15-36v-113c0-66 54-120 120-120v0h5c38 0 71 18 93 46l0 0c22-28 56-45 93-45h5c0 0 0 0 0 0 38 0 72 17 94 45l0 0c22-28 56-45 93-45h5c0 0 0 0 0 0 38 0 72 17 94 45l0 0c22-28 56-46 94-46 0 0 1 0 1 0h5c38 0 71 18 93 46l0 0c22-28 56-46 94-46h4c66 0 119 54 119 120 0 0 0 0 0 0v0 113c0 14-6 27-15 36l0 0z m-774 264h566v-96h-566z m-31-413c0-37-30-67-67-67v0h-5c-37 0-67 30-67 67v0 96h139z m192 0c0 0 0 0 0 0 0-37-30-67-67-67 0 0-1 0-1 0l0 0h-5c-37 0-67 30-67 67v0 96h140z m192 0c0-37-30-67-67-67v0h-5c0 0-1 0-1 0-37 0-67 30-67 67 0 0 0 0 0 0v0 96h139v-96z m192 0c0-37-30-67-67-67v0h-4c-37 0-67 30-67 67v0 96h139v-96z m26 148h-703l116 116h599l117-115z m166-148c0-37-30-67-67-67v0h-5c-37 0-67 30-67 67v0 96h139z" horiz-adv-x="1012.7" />

<glyph glyph-name="top-nav-flyer" unicode="&#xe852;" d="M375 697v-141c0-9-7-16-16-16v0h-139z m441 17v-759c0-9-7-15-16-15 0 0 0 0 0 0h-598c0 0-1 0-1 0-8 0-15 6-15 15 0 0 0 0 0 0v0 514h174c0 0 1 0 1 0 49 0 88 39 88 88 0 0 0 0 0 0v0 173h352c0 0 0 0 0 0 9 0 17-7 17-16l0 0z m-614-847h599c0 0 1 0 1 0 49 0 88 39 88 88 0 0 0 0 0 0v0 759c-1 49-40 88-89 88 0 0 0 0 0 0h-407c0 0-1 0-1 0-10 0-18-4-25-10l0 0-243-245c-6-7-10-15-10-25 0 0 0 0 0 0v0-567c0-49 39-88 88-88v0z" horiz-adv-x="1000" />

<glyph glyph-name="top-nav-help" unicode="&#xe853;" d="M493 205c0 0-1 0-2 0-11 0-22-5-30-13l0 0c-8-8-13-19-13-31 0 0 0 0 0 0v0c0-1 0-1 0-2 0-12 5-23 13-30l0 0c8-8 19-12 31-12 0 0 1 0 1 0l0 0c12 0 22 4 30 12l0 0c8 7 13 18 13 30 0 1 0 1 0 2l0 0c0 0 0 1 0 2 0 23-19 42-42 42 0 0-1 0-1 0l0 0z m7 357c-1 0-3 0-4 0-28 0-54-7-77-19l1 1c-22-12-40-28-53-48l0 0c-11-16-17-36-18-57l0 0c0-10 4-19 11-25l0 0c7-7 16-11 27-11 0 0 1 0 1 0l0 0q28 0 38 33c6 18 14 34 26 48l0 0c11 10 26 16 42 16 2 0 4 0 6 0l0 0c1 0 2 0 3 0 16 0 31-6 42-16l0 0c11-10 18-24 18-40 0-1 0-1 0-2l0 0c0-8-2-16-6-22l0 0c-4-7-9-14-14-19l0 0c-6-5-15-14-28-25-12-11-23-21-34-32l0 0c-17-19-28-44-28-71 0-2 0-3 0-4l0 0c0-1 0-2 0-3 0-11 4-20 11-27l0 0c7-6 15-10 25-10 0 0 1 0 1 0l0 0c1 0 1 0 2 0 18 0 32 13 33 31l0 0c2 9 3 16 5 20 1 4 2 8 4 12l0 0c3 4 6 8 9 12l0 0c5 5 11 11 17 16l0 0q36 33 50 47c9 9 17 20 24 31l0 1c6 12 10 26 10 41 0 1 0 2 0 3l0 0c0 0 0 0 0 1 0 22-7 43-19 60l0 0c-13 18-30 32-49 40l-1 1c-22 11-47 17-75 17 0 0 0 0 0 0h0z m0 167v0c6 0 13 0 20 0 213 0 387-173 387-387s-174-387-387-387c-7 0-14 0-21 1l1 0c0 0 0 0-1 0-213 0-387 173-387 387 0 106 43 202 112 272l0 0c70 70 166 113 272 113 1 0 1 0 2 0h0z m0 79c-1 0-3 0-5 0-257 0-466-209-466-466 0-130 53-247 138-331l0 0c85-85 201-137 330-137 258 0 467 209 467 467 0 129-52 245-137 330v0c-84 84-200 136-328 136 0 0-1 0-1 0h0z" horiz-adv-x="1000" />

<glyph glyph-name="top-nav-login" unicode="&#xe854;" d="M510 348c0 0-1 0-1 0-64 0-116 52-116 116s52 116 116 116c64 0 116-52 116-116v0c0 0 0 0 0 0 0-64-51-116-115-116h0z m0 302c-102-1-185-84-185-186 0-103 83-186 186-186s186 83 186 186v0c-1 103-84 186-187 186 0 0 0 0 0 0v0z m271-608c-54 96-155 161-271 163l0 0c-116-2-216-67-269-162l-1-1c-81 74-131 179-131 297 0 222 180 402 402 402s402-180 402-402c0-118-51-223-132-297l0 0z m-271-106c-79 0-153 23-216 64l2-1c40 80 120 134 214 137l0 0c94-2 175-56 214-135l1-1c-61-40-135-63-215-63h0z m0 876c-260-1-471-212-471-472 0-261 211-472 472-472 260 0 471 211 472 471v0c-1 261-212 472-473 472 0 0 0 0 0 0v0z" horiz-adv-x="1000" />

<glyph glyph-name="top-nav-myoffers" unicode="&#xe855;" d="M340 516c0 0 0 0 0 0 51 0 98-13 138-36l-1 1c5-4 11-6 18-6s13 2 18 6l0 0c39 22 87 35 137 35 0 0 0 0 0 0h0c0 0 0 0 0 0 108 0 195-88 195-195 0-4 0-8 0-12l0 1c0-2 0-4 0-6 0-95-28-184-77-258l1 2c-38-63-104-105-180-109l-1 0c-17 0-32 4-47 10l1 0c-10 4-18 8-26 13l1 0c-5 6-13 9-21 9s-16-3-21-9l0 0c-7-5-15-9-23-13l-1 0c-14-6-30-10-47-10l0 0c-77 4-143 46-180 108l-1 1c-48 72-76 161-76 256 0 2 0 4 0 6l0 0c0 3 0 7 0 11 0 108 87 195 195 195 0 0 1 0 1 0h0z m299 227c0 0 1 0 1 0 15 0 29-2 42-4l-1 0c3-1 6-2 8-3l0 0c-10-25-26-45-47-59l0 0c-29-22-66-36-106-38l0 0c-18 0-34 5-48 13l0 0c9 23 25 42 45 55l0 0c30 20 67 33 107 34l0 0z m-226 61c0 0 0 0 0 0-17 0-30-14-31-30l0 0c0-1 0-2 0-4s0-2 0-3l0 0 62-203c-30 9-65 14-101 14-1 0-2 0-3 0l0 0c-142-2-257-118-257-260 0-3 0-6 0-9l0 1c0-3 0-6 0-9 0-108 32-208 88-292l-1 2c50-79 134-131 232-134l0 0c25 0 49 5 70 14l-1 0c10 3 18 6 25 10l-1 0c6-3 14-7 21-10l2 0c20-9 44-14 69-14l0 0c98 3 183 55 231 133l1 1c55 82 88 183 88 292 0 2 0 4 0 6l0 0c0 2 0 5 0 8 0 143-115 259-258 260l0 0c-2 0-5 0-7 0-46 0-91-9-131-26l2 1-8 29c9-1 19-2 29-2 1 0 1 0 2 0l0 0c54 2 104 21 144 52l-1 0c42 27 70 72 74 124l0 1c0 8-4 15-9 21l0 0c-13 13-31 22-50 25l-1 0c-8 1-17 1-27 1s-19 0-28-1l1 0c-52 0-100-16-140-42l1 1c-15-10-27-22-39-34l0 0-19 57c-5 11-16 18-28 18 0 0-1 0-1 0l0 0z" horiz-adv-x="1000" />

<glyph glyph-name="19-time" unicode="&#xe857;" d="M594 844h-3c0 0 0 0 0 0-27 0-49-22-49-49 0-1 0-2 0-3l0 0c0-30 11-52 54-52v0c214-7 384-181 386-395l0 0c-1-218-177-395-395-397l0 0c-1 0-3 0-4 0-207 0-376 159-392 361l0 2h92l-142 235-141-235h88c18-261 234-465 498-465 275 0 499 223 499 499 0 273-219 494-491 499l0 0z m-112-702l142 142 3 4c8 8 13 19 13 31v282c0 0 0 0 0 1 0 24-20 44-44 45l0 0h-9c-24-1-44-21-44-45 0-1 0-1 0-1l0 0v-262l-129-128c-9-9-14-21-14-35s5-25 14-34l0 0c9-9 21-14 34-14s25 5 34 14l0 0z" horiz-adv-x="1083" />

<glyph glyph-name="twitter-footer" unicode="&#xe858;" d="M432 187c1 0 1 0 2 0 124 0 224 100 224 224 0 0 0 1 0 2l0 0c0 4 0 7 0 10 16 11 29 25 40 41l0 1c-13-6-29-10-45-12l-1 0c16 10 29 25 35 43l0 1c-15-9-32-16-50-19l-1 0c-14 14-34 23-56 23-45 0-80-36-80-80 0-5 0-11 1-16l0 1c-66 3-124 35-163 82l0 1c-7-12-11-26-11-41 0-27 14-51 35-65l0 0c-13 0-26 3-36 9l0 0c0 0 0 0 0-1 0-38 27-70 64-77l0 0c-7-2-14-3-22-3-5 0-10 0-14 1l0 0c10-33 40-56 75-56l0 0c-27-21-61-34-98-34 0 0-1 0-1 0h0c-7 0-13 1-19 2l1 0c34-23 76-36 121-36h0m67 656c-276 0-500-224-500-500s224-500 500-500c276 0 500 224 500 500v0c-1 276-224 499-500 500h0z m0-37c256 0 463-207 463-463s-207-463-463-463c-256 0-463 207-463 463v0c1 255 208 462 463 463h0z" horiz-adv-x="1000" />

<glyph glyph-name="wishlist" unicode="&#xe859;" d="M503-154c-275 0-498 223-498 498s223 498 498 498 499-223 499-498v0c-2-275-224-497-499-498z m-95 645c-38 0-72-27-81-63-10-26-2-56 18-76l153-153 150 150c16 15 24 36 24 59 0 22-9 42-24 59-15 16-35 24-59 24-22 0-42-9-59-24l-19-15c-8-10-22-10-31 0v0l-17 17c-13 13-33 22-55 22v0z m92-338c-11 0-20 5-28 11l-156 157c-32 31-44 78-30 120 16 55 66 92 123 92 33 0 66-12 89-37l2-2 2 2c50 50 129 50 179 0s50-130 0-180l-153-153c-8-6-17-10-28-10v0z" horiz-adv-x="1000" />

<glyph glyph-name="youtube-footer" unicode="&#xe85a;" d="M698 444c-5 17-18 31-36 36l0 0c-32 9-158 9-158 9s-127 0-158-9c-18-5-31-19-36-36l0 0c-6-30-9-63-9-98 0 0 0 0 0 0v0c0 0 0 0 0-1 0-34 3-68 10-101l-1 4c5-18 18-31 35-36l0 0c32-9 159-9 159-9s126 0 158 9c18 5 31 18 36 35l0 1c5 28 8 59 8 92 0 2 0 4 0 6l0 0c0 2 0 4 0 6 0 32-3 64-8 95l0-3z m-236-158v121l106-61z m38 558c-276 0-500-224-500-500s224-500 500-500c276 0 500 224 500 500v0c-1 276-224 499-500 500h0z m0-37c256 0 463-207 463-463s-207-463-463-463c-256 0-463 207-463 463v0c1 255 208 462 463 463h0z" horiz-adv-x="1000" />

<glyph glyph-name="sushi" unicode="&#xe85b;" d="M483 632h38c17 0 33-13 33-34 0 0 0 0 0 0v0c0-16-12-33-33-33h-38c-16 0-33 12-33 33v0c0 17 13 34 33 34-4 0 0 0 0 0z m-237-292h37c17 0 34-13 34-33 0 0 0 0 0 0v0c0-17-17-34-34-34h-37c-17 0-33 13-33 34v0c0 16 12 33 33 33 0 0 0 0 0 0z m750-38c-4 71-100 130-233 134v133c0 8 0 17-5 25-4 75-116 133-258 133s-254-54-258-133c-4-8-4-17-4-25v-133c-134-9-230-63-234-134-4-4-4-16-4-25v-212c0-58 46-109 108-109 0 0 0 0 0 0h309c29 0 62 13 83 38 21-25 50-38 79-38h313c58 0 108 51 108 109v212c0 9 0 17-4 25z m-458-91c62-34 129-50 200-46 70-4 137 12 200 46v-146c0-25-21-42-42-42h-313c-25 0-41 21-41 42l-4 146z m341 41c-46-16-96-29-146-25-120 0-195 42-195 75 0 30 75 75 195 75s196-41 196-70c0-21-16-38-50-55v0z m-237 292c-46-17-96-29-142-25-121 0-196 42-196 75s75 71 196 71 196-42 196-75c0-13-21-33-54-46z m58-46v-62c-75 0-146-29-200-79-54 50-125 79-200 79v62c63-33 129-50 200-46 71-4 138 13 200 46z m-296-246c-46-16-96-29-146-29-120 0-195 42-195 75s79 75 195 75 196-41 196-71c4-16-16-33-50-50z m59-187c0-25-21-42-42-42h-313c-25 0-41 21-41 42v146c58-34 125-50 196-46 70-4 137 12 200 46v-146z m254 275h37c17 0 34-13 34-33 0 0 0 0 0 0v0c0-17-13-34-34-34h-37c-17 0-34 13-34 34v0c5 16 17 33 34 33 0 0 0 0 0 0z" horiz-adv-x="1000" />

<glyph glyph-name="top-nav-store-location" unicode="&#xe85c;" d="M782 690c-70 68-166 111-273 111-215 0-390-175-390-390 0-106 43-202 111-272l0 0 246-246c8-8 18-13 30-13h0c0 0 1 0 1 0 12 0 22 5 29 13l0 0 246 246c70 70 114 168 114 275s-44 205-114 276l0 0z m-60-489l-215-217-215 215c-55 55-89 131-89 216 0 168 136 305 305 305s305-137 305-305c0-85-35-161-90-216l0 0z m-215 363c-80 0-145-65-145-145s65-145 145-145c80 0 145 65 145 145v0c0 80-65 145-145 145v0z m0-205c0 0-1 0-1 0-33 0-60 27-60 60s27 60 60 60c33 0 60-27 60-60v0c0 0 0 0 0 0 0-33-26-60-59-60l0 0z" horiz-adv-x="1000" />

<glyph glyph-name="wishlist-inverse" unicode="&#xe85d;" d="M404 500c-41 0-76-28-87-66l0 0c-2-7-4-16-4-24 0-23 9-43 24-57l164-164 160 160c16 16 26 38 26 62v0c0 24-10 47-26 63l0 0c-16 16-38 26-62 26-1 0-1 0-1 0h0c-24-1-46-10-62-26l0 0-19-17c-4-5-10-7-17-7s-13 2-17 7l-18 18c-15 15-36 25-59 25-1 0-1 0-2 0l0 0z m97-359c0 0 0 0 0 0-12 0-22 4-30 12l0 0-166 167c-23 23-38 55-38 90 0 13 2 26 6 39l0-1c18 57 70 97 131 98h0c0 0 1 0 2 0 36 0 70-15 94-39l2-2 2 2c25 24 58 39 96 39s71-15 95-39l0 0c24-25 39-58 39-96s-15-71-39-95l-164-164c-7-8-17-12-29-12 0 0 0 0 0 0h0z" horiz-adv-x="1000" />

<glyph glyph-name="collapse-full" unicode="&#xe85e;" d="M500-156c-275 0-500 225-500 500s225 500 500 500 500-225 500-500v0c0-275-225-500-500-500z m230 530v-55h-460v55h460z" horiz-adv-x="1000" />

<glyph glyph-name="expand-full" unicode="&#xe85f;" d="M500-156c-275 0-500 225-500 500s225 500 500 500 500-225 500-500v0c0-275-225-500-500-500z m30 735v-205h200v-55h-200v-210h-60v210h-200v55h200v205h60z" horiz-adv-x="1000" />

<glyph glyph-name="mail-green" unicode="&#xe860;" d="M505-156c-275 0-500 225-500 500s225 500 500 500 500-225 500-500v0c-2-275-225-498-500-500z m140 388h-290c-10 0-15 7-15 15v192l128-125c20-20 50-20 70 0l125 123v-190c-3-8-10-15-18-15v0z m-7 225l-125-120c-8-8-18-8-25 0l-125 120h275z m27 27v0c-7 3-12 5-20 5h-290c-7 0-12-2-20-2v0l-2-3c-18-7-28-25-28-42v-195c0-28 23-48 48-48h290c27 0 47 23 47 48v195c5 17-7 35-25 42v0z" horiz-adv-x="1000" />

<glyph glyph-name="05-icon-pin-postal" unicode="&#xe861;" d="M183 663a311 311 0 0 0 444 7 86 86 0 0 1 6-7 339 339 0 0 0 0-467l-225-234-225 233a339 339 0 0 0 0 468z m194-800a43 43 0 0 1 31-13 39 39 0 0 1 31 13l257 266a433 433 0 0 1 0 598 398 398 0 0 1-570 7l-7-7a433 433 0 0 1 0-598z m31 635a65 65 0 1 0-62-66c0 1 0 1 0 1a64 64 0 0 0 62 65h0z m0-222a157 157 0 1 1-152 160v-3a155 155 0 0 1 152-157h0z" horiz-adv-x="817" />

<glyph glyph-name="06-icon-arrow-link" unicode="&#xe862;" d="M838 849l-104-104 322-321h-1056v-150h1056l-322-321 104-104 502 500z" horiz-adv-x="1341" />

<glyph glyph-name="06-icon-arrow-link-light" unicode="&#xe863;" d="M830 850l-94-104 321-320h-1057v-151h1057l-321-321 104-104 500 500-510 500z" horiz-adv-x="1340" />

<glyph glyph-name="07-icon-search" unicode="&#xe864;" d="M825 400a328 328 0 0 0-104-239 365 365 0 0 0-501 0 328 328 0 0 0 0 479 365 365 0 0 0 501 0 330 330 0 0 0 104-240z m203-456l-188 179a435 435 0 0 1-37 596 487 487 0 0 1-666 0 438 438 0 0 1 0-637 486 486 0 0 1 622-35l187-181a59 59 0 0 1 41-16 63 63 0 0 1 41 16 53 53 0 0 1 0 79h0z" horiz-adv-x="1045" />

<glyph glyph-name="08-icon-histories-owner" unicode="&#xe865;" d="M903 348l-217 116a26 26 0 0 1-25 0l-114-64a345 345 0 0 1-68 39 227 227 0 1 1-268 0 345 345 0 0 1-211-318v-166a31 31 0 0 1 31-31h510a321 321 0 0 1 90-58l33-14a23 23 0 0 1 17-1l38 15a322 322 0 0 1 198 298v161a26 26 0 0 1-14 23z m-558 47h1a275 275 0 0 0 131-33l-28-15a26 26 0 0 1-13-23v-162a322 322 0 0 1 47-167h-412v126a274 274 0 0 0 274 274z m110 117a155 155 0 0 0-110-46h-1a155 155 0 0 0-110 45 156 156 0 0 0 0 222 156 156 0 0 0 110 46 156 156 0 0 0 156-156 156 156 0 0 0-45-111z m217-587l-14 6-1 1a252 252 0 0 0-150 230v136l167 91 172-92v-133a251 251 0 0 0-155-232z m127 299a35 35 0 0 1-49 5l-100-81-33 38a35 35 0 0 1-50 4l-1 0a35 35 0 0 1-4-50l56-65 23-27 2 2 24 21 127 104a35 35 0 0 1 5 49z" horiz-adv-x="917" />

<glyph glyph-name="09-icon-histories-employe" unicode="&#xe866;" d="M572-79v179a179 179 0 0 1 107-36h35v-35h72v35h35a179 179 0 0 1 108 36v-179h-357z m-500 72v178a250 250 0 0 0 475 107h-11a36 36 0 0 1-36-35v-250h-428z m107 642a143 143 0 1 0 142-142 143 143 0 0 0-142 142h0z m500-321h142v-36h-142v36z m0-178a107 107 0 0 0-101 71h345a107 107 0 0 0-101-71h-143z m285 142h-71v72a36 36 0 0 1-36 35h-214a36 36 0 0 1-36-35v-32a322 322 0 0 1-156 147 214 214 0 1 1-259 0 321 321 0 0 1-192-294v-214a36 36 0 0 1 36-36h464v-35a36 36 0 0 1 36-36h428a36 36 0 0 1 36 36v357a36 36 0 0 1-36 35h0z" horiz-adv-x="1000" />

<glyph glyph-name="10-icon-histories-store" unicode="&#xe867;" d="M829-67h-166v250a42 42 0 0 1 0 84h-332a42 42 0 0 1 0-84v-250h-165v422h27a140 140 0 0 1 105 48c19 18 27 25 47 25s29-7 47-25a138 138 0 0 1 208 0c18 18 27 25 47 25s28-7 47-25a140 140 0 0 1 105-48h30v-422z m-415 0v250h166v-250h-166z m-225 709h616l107-177a25 25 0 0 0-6-14c-12-13-57-13-92-13h-12c-21 0-30 8-48 25a137 137 0 0 1-207 0c-18-17-27-25-48-25s-28 7-47 25a137 137 0 0 1-207 0c-18-17-27-25-48-25h-12c-35 0-79 0-92 13a23 23 0 0 0-10 14z m60 125h497v-42h-497v42z m746-292a43 43 0 0 1-6 21l-125 209a41 41 0 0 1-35 20v83a42 42 0 0 1-42 42h-580a42 42 0 0 1-41-42v-83a41 41 0 0 1-36-20l-124-209a41 41 0 0 1-6-21 114 114 0 0 1 30-83 116 116 0 0 1 53-29v-471a42 42 0 0 1 12-30 41 41 0 0 1 29-12h746a42 42 0 0 1 42 42v471a106 106 0 0 1 83 112h0z" horiz-adv-x="995" />

<glyph glyph-name="11-icon-facebook" unicode="&#xe868;" d="M439 245c0 31 0 61 0 92 0 5-2 6-8 6-11 0-23 0-34 0-5 0-6 1-6 5q0 29 0 57c0 4 1 5 5 5 12 0 24 0 35 0 7 0 9 2 9 7q-1 22 0 43a74 74 0 0 0 18 49 88 88 0 0 0 65 28c28 1 55 0 82 0 3 0 4-1 4-4q0-29 0-58c0-3-1-4-5-4-13 0-26 0-39 0a24 24 0 0 1-29-22c0-11 0-23 0-34 0-4 3-4 6-4 20 0 39 0 59 0 6 0 8-1 7-6q-4-29-6-58c-1-4-3-5-8-5-16 1-31 1-47 0-11 0-10 2-10-8q0-90 0-179c0-7-2-8-9-8-27 0-54 0-80 0-8 0-9 2-9 8 0 30 0 60 0 90z" horiz-adv-x="1000" />

<glyph glyph-name="12-icon-twitter" unicode="&#xe869;" d="M688 456a156 156 0 0 0-45-12 76 76 0 0 1 34 41 156 156 0 0 0-49-18 78 78 0 0 1-56 24 75 75 0 0 1-75-92 221 221 0 0 0-158 78 74 74 0 0 1 23-100 79 79 0 0 0-34 9v-1a76 76 0 0 1 61-73 78 78 0 0 0-34-1 77 77 0 0 1 71-52 157 157 0 0 0-95-32 163 163 0 0 0-18 1 222 222 0 0 1 118-34 215 215 0 0 1 218 213c0 3 0 7 0 10a153 153 0 0 1 39 39z" horiz-adv-x="1000" />

</font>
</defs>
</svg>
