<svg width="20" height="16" viewBox="0 0 20 16" fill="none" xmlns="http://www.w3.org/2000/svg">
<path fill-rule="evenodd" clip-rule="evenodd" d="M19.9999 3.01086V2.18005C20.01 0.98004 19.0476 0 17.8646 0H2.14539C0.95239 0 0 0.98004 0 2.18005V13.8101C0 15.02 0.95239 15.9901 2.14539 16H17.8646C19.0476 15.9901 20.01 15.02 19.9999 13.8101V3.01172C20 3.01141 20 3.01117 19.9999 3.01086ZM2.14539 1.45001H17.8646C18.2656 1.45001 18.5764 1.78003 18.5764 2.18005V2.61425L18.55 2.63006L10.0024 7.87853L8.0213 6.66504L1.45001 2.63007L1.43359 2.62024V2.18005C1.43359 1.78003 1.74432 1.45001 2.14539 1.45001ZM18.5763 13.8101C18.5763 14.21 18.2656 14.54 17.8646 14.54H2.1153C1.72431 14.53 1.42353 14.21 1.4336 13.8101V4.34003L8.01844 8.36298L9.63 9.35004C9.73999 9.42004 9.87 9.45001 10 9.45001C10.0008 9.45001 10.0016 9.4497 10.0024 9.4497C10.0033 9.4497 10.0041 9.45001 10.0049 9.45001C10.1353 9.45001 10.2656 9.42004 10.3758 9.35003L18.5763 4.34002V13.8101Z" fill="#EA0028"/>
</svg>
