<svg width="16" height="17" viewBox="0 0 16 17" fill="none" xmlns="http://www.w3.org/2000/svg">
<path d="M8 15.5C8.52188 15.5 9.2625 15.05 9.93437 13.7094C10.2437 13.0906 10.5031 12.3438 10.6875 11.5H5.3125C5.49687 12.3438 5.75625 13.0906 6.06563 13.7094C6.7375 15.05 7.47813 15.5 8 15.5ZM5.13438 10.5H10.8656C10.9531 9.86875 11 9.19687 11 8.5C11 7.80312 10.9531 7.13125 10.8656 6.5H5.13438C5.04688 7.13125 5 7.80312 5 8.5C5 9.19687 5.04688 9.86875 5.13438 10.5ZM5.3125 5.5H10.6875C10.5031 4.65625 10.2437 3.90938 9.93437 3.29063C9.2625 1.95 8.52188 1.5 8 1.5C7.47813 1.5 6.7375 1.95 6.06563 3.29063C5.75625 3.90938 5.49687 4.65625 5.3125 5.5ZM11.875 6.5C11.9563 7.14062 12 7.80937 12 8.5C12 9.19063 11.9563 9.85938 11.875 10.5H14.7125C14.9 9.86563 15.0031 9.19375 15.0031 8.5C15.0031 7.80625 14.9031 7.13438 14.7125 6.5H11.875ZM14.3281 5.5C13.5188 3.79688 12.0437 2.47187 10.2375 1.86563C10.8938 2.75 11.4125 4.01562 11.7125 5.5H14.3313H14.3281ZM4.29375 5.5C4.59375 4.0125 5.1125 2.75 5.76875 1.86563C3.95938 2.47187 2.48125 3.79688 1.675 5.5H4.29063H4.29375ZM1.29375 6.5C1.10625 7.13438 1.00312 7.80625 1.00312 8.5C1.00312 9.19375 1.10313 9.86563 1.29375 10.5H4.13125C4.05 9.85938 4.00625 9.19063 4.00625 8.5C4.00625 7.80937 4.05 7.14062 4.13125 6.5H1.29375ZM10.2344 15.1344C12.0406 14.525 13.5156 13.2031 14.325 11.5H11.7063C11.4062 12.9875 10.8875 14.25 10.2312 15.1344H10.2344ZM5.76562 15.1344C5.10938 14.25 4.59375 12.9844 4.29063 11.5H1.675C2.48438 13.2031 3.95937 14.5281 5.76562 15.1344ZM8 16.5C5.87827 16.5 3.84344 15.6571 2.34315 14.1569C0.842855 12.6566 0 10.6217 0 8.5C0 6.37827 0.842855 4.34344 2.34315 2.84315C3.84344 1.34285 5.87827 0.5 8 0.5C10.1217 0.5 12.1566 1.34285 13.6569 2.84315C15.1571 4.34344 16 6.37827 16 8.5C16 10.6217 15.1571 12.6566 13.6569 14.1569C12.1566 15.6571 10.1217 16.5 8 16.5Z" fill="#404040"/>
</svg>
