<svg xmlns="http://www.w3.org/2000/svg" width="30px" height="26px" viewBox="0 0 30 25.99"><defs><style>.cls-1{fill:#e31e26;}</style></defs><title>brochure</title><g id="Layer_2" data-name="Layer 2"><g id="Layer_1-2" data-name="Layer 1"><path class="cls-1" d="M2,2.42V21l7.33,2.62V5Zm16.67,0L11.33,5V23.58L18.67,21Zm2,0V21L28,23.57V5ZM20,.05l9.33,3.33a1,1,0,0,1,.67.95V25a1,1,0,0,1-1.33.94l-9-3.22-9,3.22a1,1,0,0,1-.67,0L.67,22.6A1,1,0,0,1,0,21.67V1A1.05,1.05,0,0,1,1.33.05l9,3.22,9-3.22a1.07,1.07,0,0,1,.67,0Z"/></g></g></svg>