<svg xmlns="http://www.w3.org/2000/svg" width="39" height="33" viewBox="0 0 37.97 31.05"><defs><style>.cls-1{fill:#e41720;}</style></defs><title>cooking_time</title><g id="Layer_2" data-name="Layer 2"><g id="Layer_1-2" data-name="Layer 1"><path class="cls-1" d="M11.87,13c-1.42,1.42-3.8,1-5.75-.9-2.41-2.4-3.19-5.9-2.12-7a2.15,2.15,0,0,1,1.49-.47A8.52,8.52,0,0,1,11,7.28c2,2,2.35,4.3.9,5.75ZM37.46,8.61a1.75,1.75,0,0,0-2.48,0l-4.81,4.81a6.28,6.28,0,0,1-2.38-.75L33.41,7a1.75,1.75,0,0,0-2.48-2.48l-5.61,5.61a6.28,6.28,0,0,1-.75-2.38L29.36,3A1.75,1.75,0,0,0,26.88.51L21.53,5.87a1.77,1.77,0,0,0-.38.58v0a1.77,1.77,0,0,0-.12.64,9.77,9.77,0,0,0,1.76,5.61L18.4,17.09l-3-3c1.58-2.78.88-6.45-2-9.3a12,12,0,0,0-8-3.62,5.47,5.47,0,0,0-4,1.5C-1.42,5.62.24,11.23,3.63,14.62a8.76,8.76,0,0,0,6.1,2.81,6.42,6.42,0,0,0,3.18-.86l3,3L7.44,28.05a1.76,1.76,0,0,0,2.49,2.48l8.48-8.48,8.48,8.48a1.76,1.76,0,0,0,2.49-2.48l-8.48-8.48,4.37-4.37A9.79,9.79,0,0,0,30.87,17a1.71,1.71,0,0,0,.65-.13h0a1.66,1.66,0,0,0,.58-.39l5.35-5.35a1.76,1.76,0,0,0,0-2.48Z"/></g></g></svg>