<svg xmlns="http://www.w3.org/2000/svg" width="50px" height="30px" viewBox="0 0 52 30"><defs><style>.cls-1{fill:#e41720;}</style></defs><title>type_of_dish</title><g id="Layer_2" data-name="Layer 2"><g id="Layer_1-2" data-name="Layer 1"><path class="cls-1" d="M26,9.25A5.76,5.76,0,1,1,20.22,15,5.74,5.74,0,0,1,26,9.25ZM3.48,8.67H6.92a10.66,10.66,0,0,1-.4,1.93c-.12.31-.18.31-.25.38H4.13c-.07-.06-.14-.07-.25-.38A10.66,10.66,0,0,1,3.48,8.67ZM26,5.79A9.21,9.21,0,1,0,35.24,15,9.25,9.25,0,0,0,26,5.79Zm20.8-2.3c.19,0,.55.14,1,.83a6.21,6.21,0,0,1,.76,3.11,11.89,11.89,0,0,1-.27,2.86c-.14.5-.27.58-.4.68H45.73c-.13-.1-.24-.17-.38-.67a12.27,12.27,0,0,1-.27-2.88,6.22,6.22,0,0,1,.76-3.11c.42-.69.76-.83,1-.83ZM26,3.49A11.52,11.52,0,1,1,14.44,15,11.51,11.51,0,0,1,26,3.49ZM46.8,0a4.71,4.71,0,0,0-3.94,2.48,9.42,9.42,0,0,0-1.25,4.91A14.41,14.41,0,0,0,42,11.21a4.68,4.68,0,0,0,2.29,3,1.75,1.75,0,0,0,.78.18V28.25a1.73,1.73,0,1,0,3.47,0V14.43a1.76,1.76,0,0,0,.78-.18,4.67,4.67,0,0,0,2.29-3,14.32,14.32,0,0,0,.4-3.8,9.34,9.34,0,0,0-1.26-4.91A4.73,4.73,0,0,0,46.8,0ZM26,0A15,15,0,1,0,41,15,15,15,0,0,0,26,0ZM1.72,0,1.53,0A1.73,1.73,0,0,0,0,1.76V8.67a1.61,1.61,0,0,0,0,.23,13.22,13.22,0,0,0,.61,2.88,4.34,4.34,0,0,0,2.06,2.46,1.75,1.75,0,0,0,.78.18V28.25a1.73,1.73,0,1,0,3.47,0V14.43a1.76,1.76,0,0,0,.78-.18,4.34,4.34,0,0,0,2.06-2.46,13.22,13.22,0,0,0,.61-2.88,1.61,1.61,0,0,0,0-.23V1.76a1.73,1.73,0,1,0-3.47,0V5.22H3.47V1.76A1.73,1.73,0,0,0,1.72,0Z"/></g></g></svg>