<svg xmlns="http://www.w3.org/2000/svg" width="31px" height="31px" viewBox="0 0 29.6 29.6"><defs><style>.cls-1{fill:#e41720;}</style></defs><title>level</title><g id="Layer_2" data-name="Layer 2"><g id="Layer_1-2" data-name="Layer 1"><path class="cls-1" d="M16.45,14.8V3.29h3.29v23H16.45ZM9.87,21.38V16.45h3.29v9.87H9.87ZM3.29,23H6.58v3.29H3.29ZM28,19.74a1.64,1.64,0,0,0,1.65-1.65V8.22A1.64,1.64,0,0,0,28,6.58H23V1.65A1.64,1.64,0,0,0,21.38,0H14.8a1.65,1.65,0,0,0-1.65,1.65V13.16H8.22A1.64,1.64,0,0,0,6.58,14.8v4.93H1.65A1.65,1.65,0,0,0,0,21.38V28H0A1.64,1.64,0,0,0,1.65,29.6H28A1.64,1.64,0,0,0,29.6,28V24.67a1.64,1.64,0,1,0-3.29,0v1.65H23V9.87h3.29v8.22h0A1.64,1.64,0,0,0,28,19.74Z"/></g></g></svg>