<svg xmlns="http://www.w3.org/2000/svg" width="38.3" height="34.3" viewBox="0 0 38.3 34.3">
  <defs>
    <style>
      .cls-1 {
        fill: #e41720;
      }
    </style>
  </defs>
  <title>marinate</title>
  <g id="Layer_2" data-name="Layer 2">
    <g id="Layer_1-2" data-name="Layer 1">
      <g>
        <path class="cls-1" d="M8,8.5l7.1,4.7.8.2a1.4,1.4,0,0,0,1-.4l4.7-4.7a1.4,1.4,0,0,0,.1-1.9L17,.5a1.4,1.4,0,0,0-2-.2L7.9,6.2A1.4,1.4,0,0,0,8,8.5Zm3.2-1.3,4.5-3.7,3,3.7-3,3Z"/>
        <circle class="cls-1" cx="22.9" cy="10.8" r="1.4"/>
        <circle class="cls-1" cx="20.6" cy="14.4" r="1.4"/>
        <path class="cls-1" d="M37.7,13.9a1.8,1.8,0,0,0-2.6,0,7.1,7.1,0,0,0-2,4.1,48.5,48.5,0,0,1-5.8-.7,45.8,45.8,0,0,0-8.2-.8,35.7,35.7,0,0,0-7.2.8,41.7,41.7,0,0,1-6.7.8,7.1,7.1,0,0,0-2-4.2A1.8,1.8,0,1,0,.5,16.5a3.6,3.6,0,0,1,1,2.5V30.2a4.2,4.2,0,0,0,4.2,4.1H32.4a4.2,4.2,0,0,0,4.2-4.1V19a3.5,3.5,0,0,1,1-2.5,1.8,1.8,0,0,0,0-2.6ZM33,21.7v8.5a.6.6,0,0,1-.6.5H5.8a.6.6,0,0,1-.6-.5V21.7a45.5,45.5,0,0,0,7.3-.9,32.8,32.8,0,0,1,6.6-.7,42.3,42.3,0,0,1,7.6.8A51.5,51.5,0,0,0,33,21.7Z"/>
      </g>
    </g>
  </g>
</svg>
