<?xml version="1.0" encoding="utf-8"?>
<!-- Generator: Adobe Illustrator 21.0.0, SVG Export Plug-In . SVG Version: 6.00 Build 0)  -->
<svg version="1.1" id="Layer_1" width="28px" height="28px" xmlns="http://www.w3.org/2000/svg" xmlns:xlink="http://www.w3.org/1999/xlink" x="0px" y="0px"
	 viewBox="0 0 28 28" style="enable-background:new 0 0 28 28;" xml:space="preserve">
<style type="text/css">
	.st0{fill:#E22028;}
</style>
<title>price_list</title>
<g id="Layer_2">
	<g id="Layer_1-2">
		<path class="st0" d="M0.3,16.1c-0.5,0.5-0.5,1.2,0,1.7l9.9,9.9c0,0,0,0,0,0c0.5,0.5,1.2,0.5,1.7,0l15.7-15.7
			c0.2-0.2,0.3-0.5,0.3-0.8V1.2C28,0.5,27.5,0,26.8,0l-9.9,0c-0.3,0-0.6,0.1-0.8,0.3L0.3,16.1C0.3,16.1,0.3,16.1,0.3,16.1z
			 M2.8,16.9L17.4,2.3h8.3v8.3L11.1,25.2L2.8,16.9z"/>
		<path class="st0" d="M21.8,5c-0.6,0-1.2,0.5-1.2,1.2s0.5,1.2,1.2,1.2c0.6,0,1.2-0.5,1.2-1.2S22.5,5,21.8,5z"/>
	</g>
</g>
</svg>
