<?xml version="1.0" encoding="utf-8"?>
<!-- Generator: Adobe Illustrator 21.0.0, SVG Export Plug-In . SVG Version: 6.00 Build 0)  -->
<svg version="1.1" width="64px" height="64px" id="Layer_1" xmlns="http://www.w3.org/2000/svg" xmlns:xlink="http://www.w3.org/1999/xlink" x="0px" y="0px"
	 viewBox="0 0 64 64" style="enable-background:new 0 0 64 64;" xml:space="preserve">
<style type="text/css">
	.st0{fill:#DDDDDD;}
	.st1{fill:#E41720;}
</style>
<title>Recipe</title>
<path class="st0" d="M32,63.9C14.4,63.9,0.1,49.6,0.1,32S14.4,0.1,32,0.1S63.9,14.4,63.9,32c0,0,0,0,0,0
	C63.8,49.6,49.6,63.8,32,63.9z M32,1.1C14.9,1.1,1.1,14.9,1.1,32S14.9,62.9,32,62.9S62.9,49.1,62.9,32C62.9,14.9,49.1,1.1,32,1.1z"
	/>
<path class="st1" d="M39.5,25.7v-2.3c0-1.4-1.2-2.6-2.6-2.6H27c-1.4,0-2.6,1.2-2.6,2.6v2.3c-3,0.3-5.3,2.8-5.3,5.8v5.8
	c0,0.6,0.4,1,1,1s1-0.4,1-1v-5.8c0-2.1,1.7-3.8,3.9-3.8h14c2.1,0,3.8,1.7,3.8,3.8c0,0,0,0,0,0v5.8c0,0.6,0.4,1,1,1s1-0.4,1-1v-5.7
	C44.8,28.5,42.5,26,39.5,25.7z M37.5,25.7H26.4v-2.3c0-0.3,0.2-0.6,0.6-0.6h9.9c0.3,0,0.6,0.3,0.6,0.6c0,0,0,0,0,0L37.5,25.7z"/>
<path class="st1" d="M38.5,32.8H25.5c-0.6,0-1,0.4-1,1v6.8c0,1.4,1.1,2.5,2.5,2.6h9.9c1.4,0,2.6-1.2,2.6-2.6v-6.9
	C39.5,33.2,39.1,32.8,38.5,32.8z M37.5,40.6c0,0.3-0.3,0.6-0.6,0.6l0,0H27c-0.3,0-0.6-0.3-0.6-0.6l0,0v-5.9h11.2L37.5,40.6z"/>
<circle class="st1" cx="38" cy="30.3" r="1.2"/>
</svg>
