<?xml version="1.0" encoding="utf-8"?>
<!-- Generator: Adobe Illustrator 24.0.0, SVG Export Plug-In . SVG Version: 6.00 Build 0)  -->
<svg version="1.1" id="Layer_1" width="241px" height="44px" xmlns="http://www.w3.org/2000/svg" xmlns:xlink="http://www.w3.org/1999/xlink" x="0px" y="0px"
	 viewBox="0 0 241 44" style="enable-background:new 0 0 241 44;" xml:space="preserve">
<style type="text/css">
	.st0{fill:#231F20;}
	.st1{fill:#E41720;}
	.st2{fill:#FFFFFF;}
</style>
<title>Safeway_Logo</title>
<path class="st0" d="M12.4,19.9l-2.2-1.3C7.5,17,6.1,15.8,6.1,14c0-2.1,1.7-3.3,4.4-3.3c1.8,0,4.1,0.8,7.1,2.4l0.4,0.2l0-5.4h-0.1
	C15.5,6.7,12.8,6,10.1,6c-5.8,0-9.6,3.3-9.6,8.2c0,4.1,2.7,6.5,6.6,8.8l2.3,1.4c3.3,1.9,4.5,3.4,4.5,5.4c0,2.4-2.2,4.1-5.3,4.1
	c-2.5,0-5.2-1-8.5-3.1L0,30.8V37l0.4,0.2C3.1,38.4,6,39,8.9,39c6.5,0,10.8-3.7,10.8-9.3C19.7,25.7,17.7,23,12.4,19.9z"/>
<path class="st0" d="M52.1,6.7v31.6h5.6V24.5h12.4v-5H57.8v-7.7h13v-5L52.1,6.7z"/>
<path class="st0" d="M79.9,24.2h11.9v-4.9H79.9v-7.6h12.9v-5H74.4v31.6h18.7v-5H79.9V24.2z"/>
<path class="st0" d="M180.8,6.7H174l-7.1,11.2c-0.3,0.4-0.5,0.8-0.6,1.2h-0.1c-0.2-0.4-0.4-0.8-0.7-1.2c-4.4-6.9-7.1-11.2-7.1-11.2
	h-6.7L163.4,24v14.3h5.7V23.9C169.7,23,180.8,6.7,180.8,6.7z"/>
<path class="st0" d="M144.2,5.7h-0.6l-14.9,32.6h6.1l2.4-5.5h13.5l2.3,5.5h6L144.2,5.7 M139.2,28.2c0,0,2.6-6.3,4.3-10.2
	c0.2-0.5,0.3-1,0.4-1.5h0.1c0.1,0.5,0.3,1,0.4,1.5c1.7,4.1,4.3,10.2,4.3,10.2L139.2,28.2z"/>
<path class="st0" d="M114.6,20.6c0.2-0.5,0.3-1,0.4-1.6h0.1c0.1,0.5,0.3,1.1,0.4,1.6c1,2.6,7.6,18.8,7.6,18.8h0.5L135,6.7h-6
	l-5.6,17.6c-0.2,0.5-0.3,1-0.4,1.5h0c-0.1-0.5-0.2-1-0.4-1.5c-1-2.8-7.2-18.8-7.2-18.8h-0.5c0,0-5.9,15.3-7.2,18.7
	c-0.2,0.5-0.3,1-0.4,1.6h-0.1c-0.1-0.5-0.2-1-0.4-1.5c-1.4-4.4-5.6-17.6-5.6-17.6h-5.9l11.3,32.7h0.5L114.6,20.6z"/>
<path class="st0" d="M35.2,5.7h-0.5L19.9,38.3h6.1l2.4-5.5h13.4l2.3,5.5h6L35.2,5.7 M30.2,28.2c0,0,2.6-6.3,4.3-10.2
	c0.2-0.5,0.4-1,0.5-1.6l0,0c0.1,0.5,0.3,1.1,0.5,1.6c1.8,4.1,4.3,10.2,4.3,10.2L30.2,28.2z"/>
<path class="st1" d="M212.5,36.1c0-8.7-13-9.6-13-22c0-9,7-13.4,13.9-14.1c-0.6,0-1.3,0-2.2,0c-1.7,0-2.5,0.1-3.9,0.1
	c-12.9,0.6-19.9,7.6-20.3,18.2c0,0.7-0.1,1.9-0.1,3.8l0,0c0,1.9,0.1,3.1,0.1,3.8c0.4,10.4,7,17.2,19.2,18.1
	C208.2,43.5,212.5,42,212.5,36.1z"/>
<path class="st1" d="M235.3,18.2C234.9,8.1,228.7,1.4,217,0.2c-2.1,0.4-6.1,2-6.1,7.8c0,8.8,13,9.6,13,22c0,7.8-5.9,13.4-14.7,14.1
	c0.6,0,1.1,0,1.9,0c1.7,0,2.5-0.1,3.9-0.1c12.9-0.6,19.9-7.6,20.3-18.2c0-0.7,0.1-1.9,0.1-3.8l0,0C235.4,20.1,235.4,18.9,235.3,18.2
	z"/>
<path class="st2" d="M223.9,30c0-12.4-13-13.2-13-22c0-5.8,4.1-7.4,6.1-7.8c-0.6-0.1-1.3-0.1-2-0.2L213.4,0
	c-6.9,0.7-13.9,5.2-13.9,14.1c0,12.4,13,13.2,13,22c0,6-4.3,7.5-6.3,7.8c0.3,0,0.7,0.1,1,0.1l2,0.1C218,43.4,223.9,37.7,223.9,30z"
	/>
<g>
	<path d="M241,41.3c0,0.4-0.1,0.8-0.2,1.1c-0.1,0.3-0.3,0.6-0.6,0.8c-0.2,0.2-0.5,0.4-0.8,0.5c-0.3,0.1-0.6,0.2-1,0.2
		c-0.4,0-0.7-0.1-1.1-0.2c-0.3-0.1-0.6-0.3-0.8-0.6c-0.2-0.2-0.4-0.5-0.5-0.8c-0.1-0.3-0.2-0.7-0.2-1.1c0-0.4,0.1-0.8,0.2-1.1
		c0.1-0.3,0.3-0.6,0.6-0.8c0.2-0.2,0.5-0.4,0.8-0.5c0.3-0.1,0.7-0.2,1-0.2c0.3,0,0.7,0.1,1,0.2c0.3,0.1,0.6,0.3,0.8,0.5
		c0.2,0.2,0.4,0.5,0.6,0.8C240.9,40.6,241,40.9,241,41.3z M240.4,41.3c0-0.3-0.1-0.6-0.2-0.9c-0.1-0.3-0.2-0.5-0.4-0.7
		c-0.2-0.2-0.4-0.3-0.6-0.5c-0.2-0.1-0.5-0.2-0.8-0.2c-0.3,0-0.6,0.1-0.8,0.2c-0.2,0.1-0.5,0.3-0.7,0.5c-0.2,0.2-0.3,0.4-0.4,0.7
		c-0.1,0.3-0.2,0.6-0.2,0.9c0,0.3,0,0.6,0.1,0.9c0.1,0.3,0.2,0.5,0.4,0.7c0.2,0.2,0.4,0.4,0.6,0.5s0.5,0.2,0.9,0.2
		c0.3,0,0.6-0.1,0.8-0.2c0.2-0.1,0.5-0.3,0.6-0.5c0.2-0.2,0.3-0.4,0.4-0.7C240.4,42,240.4,41.7,240.4,41.3z M237.9,42.9h-0.5v-3h1.1
		c0.4,0,0.6,0.1,0.8,0.2c0.2,0.1,0.3,0.3,0.3,0.6c0,0.3-0.1,0.5-0.2,0.6c-0.1,0.1-0.3,0.2-0.5,0.2l0.8,1.3h-0.5l-0.8-1.3h-0.5V42.9z
		 M238.4,41.2c0.1,0,0.2,0,0.3,0c0.1,0,0.2,0,0.2-0.1S239,41,239,41s0.1-0.1,0.1-0.3c0-0.1,0-0.2-0.1-0.2c0-0.1-0.1-0.1-0.2-0.1
		s-0.1,0-0.2-0.1s-0.1,0-0.2,0h-0.6v0.9H238.4z"/>
</g>
</svg>
