<svg xmlns="http://www.w3.org/2000/svg" width="38px" height="20px" viewBox="0 0 47.45 24.92"><defs><style>.cls-1{fill:#e71011;}</style></defs><title>serve</title><g id="Layer_2" data-name="Layer 2"><g id="Layer_1-2" data-name="Layer 1"><path class="cls-1" d="M46,22H43.3A19.68,19.68,0,0,0,25.86,4a2.53,2.53,0,0,0,.43-1.4,2.56,2.56,0,0,0-5.12,0A2.53,2.53,0,0,0,21.59,4,19.68,19.68,0,0,0,4.15,22H1.45a1.45,1.45,0,0,0,0,2.89H46A1.45,1.45,0,0,0,46,22Zm-5.6,0H7.05A16.74,16.74,0,0,1,40.4,22Z"/><path class="cls-1" d="M27.16,8.65a1.45,1.45,0,0,0-1.73,1.08,1.45,1.45,0,0,0,1.08,1.74,12.32,12.32,0,0,1,9,8.56,1.46,1.46,0,0,0,1.39,1,1.42,1.42,0,0,0,.41-.06,1.45,1.45,0,0,0,1-1.8A15.22,15.22,0,0,0,27.16,8.65Z"/></g></g></svg>