<?xml version="1.0" encoding="utf-8"?>
<!-- Generator: Adobe Illustrator 21.0.0, SVG Export Plug-In . SVG Version: 6.00 Build 0)  -->
<svg version="1.1" width="17px" height="19px" id="Layer_1" xmlns="http://www.w3.org/2000/svg" xmlns:xlink="http://www.w3.org/1999/xlink" x="0px" y="0px"
	 viewBox="0 0 20 20" style="enable-background:new 0 0 20 20;" xml:space="preserve">
<style type="text/css">
	.st0{fill:#E41720;}
</style>
<title>Store</title>
<path class="st0" d="M13.5,10.5c2.4-1.9,2.8-5.3,0.9-7.7S9.1,0.1,6.7,1.9S3.9,7.2,5.8,9.6C6,10,6.3,10.3,6.7,10.5
	c-3.2,1.4-5.2,4.5-5.2,7.9c0,0.5,0.4,0.9,0.9,0.9s0.9-0.4,0.9-0.9c0-3.6,2.8-6.6,6.4-6.8h0.7c3.6,0.2,6.4,3.2,6.4,6.8
	c0,0.5,0.4,0.9,0.9,0.9c0,0,0,0,0,0l0,0c0.5,0,0.9-0.4,0.9-0.9c0,0,0,0,0-0.1C18.7,15,16.6,11.9,13.5,10.5z M10.1,2.6
	c2,0,3.6,1.6,3.6,3.6c0,2-1.6,3.6-3.6,3.6c-2,0-3.6-1.6-3.6-3.6C6.4,4.2,8.1,2.6,10.1,2.6C10.1,2.6,10.1,2.6,10.1,2.6z"/>
</svg>
