<?xml version="1.0" encoding="utf-8"?>
<!-- Generator: Adobe Illustrator 21.0.0, SVG Export Plug-In . SVG Version: 6.00 Build 0)  -->
<svg version="1.1" width="20px" height="21px" id="Layer_1" xmlns="http://www.w3.org/2000/svg" xmlns:xlink="http://www.w3.org/1999/xlink" x="0px" y="0px"
	 viewBox="0 0 20 20" style="enable-background:new 0 0 20 20;" xml:space="preserve">
<style type="text/css">
	.st0{fill:#E41720;}
</style>
<title>Store</title>
<path class="st0" d="M18.9,6.6l-3.6-3.5C15.2,3,15,2.9,14.8,2.9H9.6V1c0-0.4-0.3-0.7-0.7-0.7c0,0,0,0,0,0H5.5
	c-0.4,0-0.7,0.3-0.7,0.7c0,0,0,0,0,0.1v1.9H1.5c-0.4,0-0.7,0.3-0.7,0.7v7c0,0.4,0.3,0.7,0.7,0.7h3.3V19c0,0.4,0.3,0.7,0.7,0.7
	c0,0,0,0,0,0h3.4c0.4,0,0.7-0.3,0.7-0.7v-7.6h5.2c0.2,0,0.4-0.1,0.5-0.2l3.6-3.5C19.1,7.4,19.1,6.9,18.9,6.6L18.9,6.6z M6.2,1.7h1.9
	v1.2H6.2V1.7z M8.2,18.3H6.2v-6.9h1.9V18.3z M14.5,10H2.2V4.3h12.3l2.9,2.8L14.5,10z"/>
</svg>
