<svg xmlns="http://www.w3.org/2000/svg" width="20px" height="16px" viewBox="0 0 20 15.71"><defs><style>.cls-1{fill:#e31e26;}</style></defs><title>store_mail</title><g id="Layer_2" data-name="Layer 2"><g id="Layer_1-2" data-name="Layer 1"><path class="cls-1" d="M17.86,0H2.14A2.14,2.14,0,0,0,0,2.14V13.57a2.14,2.14,0,0,0,2.14,2.14H17.86A2.14,2.14,0,0,0,20,13.57V2.14A2.14,2.14,0,0,0,17.86,0Zm-4,7.77,4.74-2.92V12ZM2.14,1.43H17.86a.71.71,0,0,1,.71.71v1L10,8.45,1.43,3.17v-1A.71.71,0,0,1,2.14,1.43Zm4,6.34L1.43,12V4.85Zm11.69,6.52H2.14a.71.71,0,0,1-.66-.44l6-5.3L10,10.12l2.56-1.58,6,5.3a.71.71,0,0,1-.66.44Z"/></g></g></svg>