<svg xmlns="http://www.w3.org/2000/svg" width="34px" height="14px" viewBox="0 0 34 14.04"><defs><style>.cls-1{fill:#fff;}</style></defs><title>online_entertaining</title><g id="Layer_2" data-name="Layer 2"><g id="Layer_1-2" data-name="Layer 1"><path class="cls-1" d="M33.17,5.26a2.83,2.83,0,0,0-4,0l-.36.36A2.94,2.94,0,0,0,25.87,3,3,3,0,0,0,20,2.66l-.36-.36a2.82,2.82,0,0,0-4.3.37,8,8,0,0,0-4.23-1.2A8.14,8.14,0,0,0,3,9.61H.74a.74.74,0,0,0-.74.74A3.7,3.7,0,0,0,3.7,14H28.83a3.7,3.7,0,0,0,3.7-3.7.73.73,0,0,0-.09-.34l.74-.74A2.83,2.83,0,0,0,33.17,5.26ZM17.61,3h0a1.35,1.35,0,0,1,1,.4L20.17,5a.74.74,0,0,0,1.26-.52V3a1.48,1.48,0,0,1,3,0v.41l-.27.18-.05,0a2.63,2.63,0,0,0-.31.28l-.09.1h0l-.19.22-.09.13a2.54,2.54,0,0,0-.14.23l-.07.15a2.57,2.57,0,0,0-.1.25L23,5.06a2.83,2.83,0,0,0-.07.28l0,.13a3,3,0,0,0,0,.43v.74H21.44a3.89,3.89,0,0,0-.65.06l-.21.05-.41.12-.23.1-.34.17-.22.15-.3.22L19,7.6c-.06-.23-.13-.45-.2-.67l-.06-.17c-.08-.22-.17-.43-.27-.64L18.37,6c-.12-.24-.25-.47-.39-.69l-.11-.16c-.13-.2-.27-.39-.41-.57l-.08-.11a7.5,7.5,0,0,0-.55-.59l-.15-.14-.18-.17h0A1.34,1.34,0,0,1,17.61,3ZM11.09,3h0a6.67,6.67,0,0,1,6.65,6.65H4.43A6.66,6.66,0,0,1,11.09,3Zm17.74,9.61H3.7A2.23,2.23,0,0,1,1.6,11.08H30.92A2.23,2.23,0,0,1,28.83,12.56Zm3.3-4.35L30.74,9.61H19.37a2.21,2.21,0,0,1,2.07-1.48h2.22a.74.74,0,0,0,.74-.74V5.91a1.48,1.48,0,0,1,1-1.39,1.46,1.46,0,0,1,2,1.39V7.39a.74.74,0,0,0,1.26.52l1.61-1.61a1.35,1.35,0,0,1,1.91,1.91Z"/><rect class="cls-1" x="8.13" y="4.43" width="1.48" height="1.48"/><rect class="cls-1" x="11.09" y="6.65" width="1.48" height="1.48"/><rect class="cls-1" x="5.91" y="7.39" width="1.48" height="1.48"/><rect class="cls-1" x="14.04" y="5.91" width="1.48" height="1.48"/></g></g></svg>