<svg id="Layer_1" width="18px" height="22px" data-name="Layer 1" xmlns="http://www.w3.org/2000/svg" viewBox="0 0 24 24"><defs><style>.cls-1{fill:#fff;}</style></defs><title>Untitled-1</title><path class="cls-1" d="M9,3.54V6.92a.38.38,0,0,1-.39.37H5.27Zm10.59-.41V21.33a.38.38,0,0,1-.39.37H4.85a.37.37,0,0,1-.38-.37V9H8.65a2.12,2.12,0,0,0,2.12-2.11V2.74h8.46a.4.4,0,0,1,.39.39ZM4.85,23.44H19.23a2.12,2.12,0,0,0,2.13-2.11V3.13A2.14,2.14,0,0,0,19.23,1H9.46a.87.87,0,0,0-.62.26L3,7.12a.87.87,0,0,0-.25.62v13.6a2.11,2.11,0,0,0,2.11,2.11Z"/></svg>