<svg id="Layer_1" width="20px" height="20px" data-name="Layer 1" xmlns="http://www.w3.org/2000/svg" viewBox="0 0 24 24"><defs><style>.cls-1{fill:#fff;}</style></defs><title>Untitled-1</title><path class="cls-1" d="M11.82,15.34a1,1,0,0,0-.76.3,1,1,0,0,0-.31.75,1,1,0,0,0,.32.78,1.11,1.11,0,0,0,.75.28,1.08,1.08,0,0,0,.73-.28,1,1,0,0,0,.32-.78,1,1,0,0,0-1.05-1.05ZM12,6.76a4,4,0,0,0-1.93.45A3.32,3.32,0,0,0,8.8,8.35a2.56,2.56,0,0,0-.43,1.36.85.85,0,0,0,.27.6.9.9,0,0,0,.67.28q.67,0,.91-.8a3.09,3.09,0,0,1,.62-1.16A1.5,1.5,0,0,1,12,8.25a1.53,1.53,0,0,1,1.08.39,1.25,1.25,0,0,1,.42,1,1.07,1.07,0,0,1-.14.54,1.94,1.94,0,0,1-.34.45c-.13.13-.35.33-.65.6a11.06,11.06,0,0,0-.82.78,2.5,2.5,0,0,0-.67,1.79.94.94,0,0,0,.25.71.86.86,0,0,0,.62.24.79.79,0,0,0,.84-.73c.05-.23.09-.39.12-.48a1.51,1.51,0,0,1,.11-.28,1.56,1.56,0,0,1,.22-.3,5,5,0,0,1,.39-.39q.87-.78,1.21-1.11a3.26,3.26,0,0,0,.58-.78,2.17,2.17,0,0,0,.24-1.05A2.51,2.51,0,0,0,15,8.17a2.92,2.92,0,0,0-1.21-1A4.12,4.12,0,0,0,12,6.76Zm0-4h0a9.28,9.28,0,1,1,0,18.56A9.28,9.28,0,0,1,5.38,5.5a9.22,9.22,0,0,1,6.56-2.72Zm0-1.9A11.18,11.18,0,0,0,4,20,11.18,11.18,0,0,0,19.85,4.16,11.1,11.1,0,0,0,11.94.88Z"/></svg>