<svg xmlns="http://www.w3.org/2000/svg" width="24px" height="22px" viewBox="0 0 25 23.94"><defs><style>.cls-1{fill:#fff;}</style></defs><title>about_us</title><g id="Layer_2" data-name="Layer 2"><g id="Layer_1-2" data-name="Layer 1"><path class="cls-1" d="M24.94,9,23,.65A.85.85,0,0,0,22.2,0H2.88a.84.84,0,0,0-.82.64L0,9.25s0,.09,0,.13a3.76,3.76,0,0,0,1.51,3v6.91a4.65,4.65,0,0,0,4.64,4.65H18.84a4.65,4.65,0,0,0,4.65-4.65v-6.9a3.76,3.76,0,0,0,1.51-3V9ZM13.61,18.36v3.9H11.36v-3.9ZM15,16.93a.83.83,0,0,0-.59-.25H10.52a.84.84,0,0,0-.84.84v4.74H6.14A3,3,0,0,1,4,21.4a3,3,0,0,1-.87-2.11V13.11a3.76,3.76,0,0,0,3.49-1.34,3.75,3.75,0,0,0,5.83,0,3.75,3.75,0,0,0,5.83,0,3.75,3.75,0,0,0,3.49,1.34v6.18a3,3,0,0,1-3,3H15.29V17.52A.84.84,0,0,0,15,16.93ZM19.17,9.4a.84.84,0,1,0-1.68,0,2.08,2.08,0,1,1-4.16,0,.84.84,0,1,0-1.68,0,2.08,2.08,0,1,1-4.16,0,.84.84,0,1,0-1.68,0,2.08,2.08,0,0,1-4.16.11L3.55,1.68h18l1.76,7.77a2.07,2.07,0,0,1-4.14-.05Z"/></g></g></svg>