<svg id="Layer_1" width="20px" height="24px" data-name="Layer 1" xmlns="http://www.w3.org/2000/svg" viewBox="0 0 24 24"><defs><style>.cls-1{fill:#fff;}</style></defs><title>Untitled-1</title><path class="cls-1" d="M18.76,3.69A9.36,9.36,0,0,0,5.52,16.93l5.91,5.89a1,1,0,0,0,.72.31.93.93,0,0,0,.72-.31l5.89-5.89A9.35,9.35,0,0,0,18.76,3.69ZM17.33,15.44l-5.17,5.2L7,15.47a7.32,7.32,0,1,1,10.35,0Z"/><path class="cls-1" d="M12.16,6.71a3.48,3.48,0,1,0,3.48,3.48A3.49,3.49,0,0,0,12.16,6.71Zm0,4.92a1.43,1.43,0,1,1,1.43-1.43A1.43,1.43,0,0,1,12.16,11.63Z"/></svg>