<svg xmlns="http://www.w3.org/2000/svg" width="37px" height="35px" viewBox="0 0 37.3 34.43"><defs><style>.cls-1{fill:#e41720;}</style></defs><title>total_time</title><g id="Layer_2" data-name="Layer 2"><g id="Layer_1-2" data-name="Layer 1"><path class="cls-1" d="M20.46,0h-.11a1.7,1.7,0,0,0-1.68,1.79c0,1,.38,1.77,1.87,1.79h0A13.71,13.71,0,0,1,33.82,17.17,13.72,13.72,0,0,1,20.18,30.84,13.53,13.53,0,0,1,6.58,18.36H9.73L4.86,10.27,0,18.36H3A17.18,17.18,0,1,0,20.46,0Z"/><circle class="cls-1" cx="20.18" cy="26.97" r="1.08"/><circle class="cls-1" cx="27.31" cy="10.69" r="1.08"/><circle class="cls-1" cx="27.31" cy="23.61" r="1.08"/><circle class="cls-1" cx="29.7" cy="17.27" r="1.08"/><path class="cls-1" d="M16.61,24.17l4.89-4.89.1-.12A1.54,1.54,0,0,0,22,18.1V8.37A1.56,1.56,0,0,0,20.51,6.8h-.33a1.54,1.54,0,0,0-1.51,1.57v9l-4.42,4.42a1.7,1.7,0,0,0,0,2.36A1.66,1.66,0,0,0,16.61,24.17Z"/></g></g></svg>