<svg xmlns="http://www.w3.org/2000/svg" width="28px" height="26px" viewBox="0 0 36.91 34.08"><defs><style>.cls-1{fill:#e71011;}</style></defs><title>total_time</title><g id="Layer_2" data-name="Layer 2"><g id="Layer_1-2" data-name="Layer 1"><path class="cls-1" d="M20.24,0h-.11a1.68,1.68,0,0,0-1.66,1.78c0,1,.38,1.75,1.85,1.77h0A13.57,13.57,0,0,1,33.47,17,13.58,13.58,0,0,1,20,30.52,13.39,13.39,0,0,1,6.51,18.17H9.63l-4.82-8L0,18.17H3A17,17,0,1,0,20.24,0Z"/><circle class="cls-1" cx="19.98" cy="26.69" r="1.07"/><circle class="cls-1" cx="27.02" cy="10.58" r="1.07"/><circle class="cls-1" cx="27.02" cy="23.37" r="1.07"/><circle class="cls-1" cx="29.39" cy="17.09" r="1.07"/><path class="cls-1" d="M16.43,23.92l4.84-4.84.1-.12a1.52,1.52,0,0,0,.43-1.06V8.28A1.54,1.54,0,0,0,20.3,6.73H20a1.53,1.53,0,0,0-1.49,1.55v8.93L14.1,21.59a1.68,1.68,0,0,0,0,2.34A1.64,1.64,0,0,0,16.43,23.92Z"/></g></g></svg>